<svg width="512" height="512" viewBox="0 0 512 512" fill="none" xmlns="http://www.w3.org/2000/svg">
<rect width="512" height="512" rx="50" fill="url(#paint0_linear_172_1663)"/>
<g clip-path="url(#clip0_172_1663)">
<path d="M203.688 106.188C202.914 106.328 202.117 106.469 201.438 106.938C198.695 108.789 198.086 112.633 199.938 115.375L212.875 134.688C192.883 145.282 177.977 162.883 173.125 184H338.875C334.023 162.883 319.117 145.282 299.125 134.688L312.062 115.375C313.914 112.633 313.305 108.789 310.562 106.938C307.797 105.086 303.977 105.883 302.125 108.625L287.875 129.625C277.984 126.016 267.25 124 256 124C244.75 124 234.016 126.016 224.125 129.625L209.875 108.625C208.492 106.563 205.984 105.742 203.688 106.188ZM223 154C227.969 154 232 158.031 232 163C232 167.992 227.969 172 223 172C218.008 172 214 167.992 214 163C214 158.031 218.008 154 223 154ZM289 154C293.992 154 298 158.031 298 163C298 167.992 293.992 172 289 172C284.031 172 280 167.992 280 163C280 158.031 284.031 154 289 154ZM154 196C144.062 196 136 204.063 136 214V298C136 307.938 144.062 316 154 316C156.109 316 158.125 315.555 160 314.875V197.125C158.125 196.446 156.109 196 154 196ZM172 196V328C172 337.914 180.086 346 190 346H322C331.914 346 340 337.914 340 328V196H172ZM358 196C355.891 196 353.875 196.446 352 197.125V314.875C353.875 315.531 355.891 316 358 316C367.938 316 376 307.938 376 298V214C376 204.063 367.938 196 358 196ZM196 358V382C196 395.242 206.758 406 220 406C233.242 406 244 395.242 244 382V358H196ZM268 358V382C268 395.242 278.758 406 292 406C305.242 406 316 395.242 316 382V358H268Z" fill="white"/>
</g>
<defs>
<linearGradient id="paint0_linear_172_1663" x1="435.543" y1="3.52535e-06" x2="76.4566" y2="512" gradientUnits="userSpaceOnUse">
<stop stop-color="#3EDA86"/>
<stop offset="1" stop-color="#0C9F50"/>
</linearGradient>
<clipPath id="clip0_172_1663">
<rect width="300" height="300" fill="white" transform="translate(106 106)"/>
</clipPath>
</defs>
</svg>
