<svg width="512" height="512" viewBox="0 0 512 512" fill="none" xmlns="http://www.w3.org/2000/svg">
<rect width="512" height="512" rx="50" fill="url(#paint0_linear_71_178)"/>
<path d="M351.965 304.665C346.639 316.494 344.073 321.782 337.222 332.221C327.632 346.81 314.104 365.026 297.393 365.142C282.515 365.277 278.675 355.436 258.472 355.609C238.287 355.706 234.08 365.335 219.183 365.18C202.453 365.026 189.659 348.624 180.068 334.055C153.246 293.203 150.409 245.308 166.985 219.836C178.718 201.774 197.262 191.161 214.687 191.161C232.44 191.161 243.594 200.906 258.259 200.906C272.5 200.906 281.165 191.142 301.697 191.142C317.211 191.142 333.614 199.594 345.346 214.182C306.984 235.216 313.217 290 351.965 304.665ZM286.105 174.836C293.573 165.246 299.246 151.718 297.181 137.94C285.005 138.77 270.764 146.547 262.447 156.62C254.902 165.805 248.649 179.429 251.081 192.608C264.376 193.033 278.135 185.102 286.105 174.836Z" fill="white"/>
<defs>
<linearGradient id="paint0_linear_71_178" x1="256" y1="0" x2="256" y2="512" gradientUnits="userSpaceOnUse">
<stop offset="1" stop-color="#1E1E1E"/>
<stop stop-color="#373737"/>
</linearGradient>
</defs>
</svg>
