<svg width="512" height="512" viewBox="0 0 512 512" fill="none" xmlns="http://www.w3.org/2000/svg">
<rect width="512" height="512" rx="50" fill="url(#paint0_linear_172_1685)"/>
<g clip-path="url(#clip0_172_1685)">
<path d="M190.544 240.556C190.544 244.287 190.944 247.306 191.644 249.525C192.444 251.744 193.437 254.163 194.837 256.781C195.337 257.587 195.537 258.394 195.537 259.1C195.537 260.106 194.937 261.112 193.644 262.125L187.356 266.356C186.456 266.962 185.562 267.263 184.762 267.263C183.762 267.263 182.769 266.756 181.769 265.85C180.369 264.338 179.175 262.725 178.175 261.113C177.175 259.4 176.181 257.488 175.081 255.169C167.3 264.438 157.519 269.075 145.744 269.075C137.362 269.075 130.675 266.656 125.787 261.819C120.9 256.981 118.406 250.531 118.406 242.469C118.406 233.906 121.4 226.95 127.487 221.712C133.575 216.475 141.656 213.85 151.931 213.85C155.325 213.85 158.819 214.15 162.506 214.656C166.194 215.163 169.987 215.969 173.981 216.875V209.519C173.981 201.862 172.387 196.519 169.294 193.394C166.1 190.269 160.712 188.756 153.031 188.756C149.537 188.756 145.95 189.156 142.256 190.069C138.562 190.975 134.975 192.081 131.481 193.494C129.887 194.2 128.687 194.6 127.987 194.806C127.287 195.006 126.787 195.106 126.394 195.106C124.994 195.106 124.3 194.1 124.3 191.981V187.044C124.3 185.431 124.5 184.225 125 183.519C125.5 182.812 126.4 182.106 127.794 181.4C131.287 179.588 135.475 178.075 140.369 176.863C145.256 175.55 150.444 174.95 155.931 174.95C167.806 174.95 176.487 177.669 182.075 183.113C187.562 188.556 190.356 196.819 190.356 207.9V240.55L190.544 240.556ZM150.031 255.869C153.325 255.869 156.719 255.262 160.306 254.056C163.9 252.85 167.094 250.631 169.788 247.606C171.381 245.694 172.581 243.575 173.181 241.156C173.781 238.738 174.181 235.813 174.181 232.388V228.156C171.288 227.45 168.194 226.844 165 226.444C161.806 226.044 158.712 225.837 155.619 225.837C148.931 225.837 144.044 227.15 140.75 229.869C137.456 232.588 135.862 236.419 135.862 241.456C135.862 246.194 137.062 249.719 139.556 252.137C141.95 254.662 145.444 255.869 150.031 255.869ZM230.156 266.756C228.362 266.756 227.162 266.456 226.362 265.75C225.562 265.144 224.869 263.737 224.269 261.819L200.819 183.925C200.219 181.913 199.919 180.6 199.919 179.894C199.919 178.281 200.719 177.375 202.312 177.375H212.094C213.987 177.375 215.287 177.675 215.987 178.381C216.787 178.988 217.381 180.394 217.981 182.313L234.744 249.025L250.306 182.313C250.806 180.3 251.406 178.988 252.2 178.381C253 177.775 254.394 177.375 256.194 177.375H264.175C266.069 177.375 267.369 177.675 268.169 178.381C268.969 178.988 269.662 180.394 270.062 182.313L285.825 249.831L303.087 182.313C303.687 180.3 304.387 178.988 305.081 178.381C305.881 177.775 307.175 177.375 308.975 177.375H318.256C319.85 177.375 320.75 178.181 320.75 179.894C320.75 180.4 320.65 180.9 320.55 181.506C320.45 182.113 320.25 182.919 319.85 184.025L295.806 261.919C295.206 263.931 294.506 265.244 293.712 265.85C292.919 266.456 291.619 266.856 289.919 266.856H281.337C279.444 266.856 278.144 266.556 277.344 265.85C276.544 265.144 275.85 263.837 275.45 261.819L259.987 196.819L244.625 261.719C244.125 263.731 243.525 265.044 242.731 265.75C241.931 266.456 240.537 266.756 238.737 266.756H230.156ZM358.369 269.475C353.181 269.475 347.994 268.869 343.006 267.662C338.019 266.456 334.125 265.144 331.531 263.631C329.937 262.725 328.837 261.719 328.437 260.813C328.037 259.906 327.837 258.9 327.837 257.994V252.856C327.837 250.737 328.637 249.731 330.131 249.731C330.731 249.731 331.331 249.831 331.925 250.031C332.525 250.231 333.419 250.637 334.419 251.037C337.812 252.55 341.5 253.756 345.394 254.563C349.387 255.369 353.275 255.769 357.269 255.769C363.556 255.769 368.444 254.662 371.837 252.444C375.231 250.225 377.025 247 377.025 242.869C377.025 240.05 376.125 237.731 374.331 235.813C372.537 233.9 369.144 232.187 364.256 230.575L349.787 226.037C342.506 223.719 337.119 220.294 333.825 215.756C330.531 211.325 328.837 206.387 328.837 201.144C328.837 196.912 329.737 193.181 331.531 189.956C333.325 186.731 335.725 183.913 338.712 181.694C341.706 179.375 345.1 177.662 349.087 176.456C353.081 175.256 357.269 174.75 361.662 174.75C363.856 174.75 366.15 174.85 368.35 175.15C370.644 175.45 372.737 175.856 374.837 176.256C376.831 176.763 378.731 177.262 380.525 177.869C382.319 178.475 383.719 179.075 384.719 179.681C386.119 180.487 387.112 181.294 387.712 182.2C388.312 183.006 388.612 184.112 388.612 185.525V190.263C388.612 192.381 387.812 193.488 386.319 193.488C385.519 193.488 384.225 193.088 382.525 192.281C376.837 189.663 370.45 188.35 363.369 188.35C357.681 188.35 353.194 189.256 350.1 191.169C347.006 193.081 345.412 196.006 345.412 200.138C345.412 202.956 346.412 205.375 348.406 207.294C350.4 209.206 354.094 211.125 359.381 212.837L373.55 217.375C380.731 219.694 385.925 222.919 389.012 227.05C392.1 231.181 393.6 235.919 393.6 241.156C393.6 245.488 392.7 249.419 391.006 252.844C389.212 256.269 386.812 259.294 383.725 261.712C380.631 264.231 376.937 266.044 372.65 267.356C368.144 268.769 363.456 269.475 358.369 269.475Z" fill="white"/>
<path d="M377.225 318.45C344.4 342.938 296.706 355.938 255.693 355.938C198.225 355.938 146.437 334.475 107.325 298.8C104.231 295.981 107.025 292.15 110.718 294.369C153.025 319.156 205.206 334.175 259.187 334.175C295.606 334.175 335.618 326.519 372.431 310.794C377.925 308.275 382.612 314.419 377.225 318.45ZM390.893 302.731C386.7 297.288 363.156 300.113 352.481 301.419C349.287 301.819 348.787 299 351.681 296.881C370.437 283.581 401.268 287.406 404.862 291.844C408.456 296.381 403.862 327.519 386.306 342.431C383.612 344.75 381.018 343.538 382.212 340.519C386.206 330.544 395.087 308.069 390.893 302.731Z" fill="white"/>
</g>
<defs>
<linearGradient id="paint0_linear_172_1685" x1="256" y1="0" x2="256" y2="512" gradientUnits="userSpaceOnUse">
<stop stop-color="#FF9900"/>
<stop offset="1" stop-color="#D29233"/>
</linearGradient>
<clipPath id="clip0_172_1685">
<rect width="300" height="300" fill="white" transform="translate(106 106)"/>
</clipPath>
</defs>
</svg>
