<svg width="512" height="512" viewBox="0 0 512 512" fill="none" xmlns="http://www.w3.org/2000/svg">
<rect width="512" height="512" rx="50" fill="url(#paint0_linear_13_337)"/>
<path d="M302.875 143.5H340.375V181H302.875V143.5ZM340.375 319.319C340.375 331.975 337.403 373.684 300.606 386.341L265.375 368.5C291.681 357.025 302.875 338.5 302.875 319.319C302.875 292.806 302.875 209.125 302.875 209.125L340.375 209.144C340.375 209.144 340.375 290.828 340.375 319.319ZM237.25 143.5V202.581C232.853 200.791 223.375 200.444 218.706 200.444C183.559 200.444 152.875 218.603 152.875 265.375C152.875 321.334 195.1 330.972 224.594 330.972C236.237 330.972 262.094 329.828 274.75 326.162V143.5H237.25ZM224.209 299.744C207.625 299.744 190.375 292.216 190.375 265.375C190.375 238.534 207.625 232.853 224.209 232.853C228.259 232.853 232.816 233.613 237.25 234.625V297.972C232.825 298.975 228.269 299.744 224.209 299.744Z" fill="white"/>
<defs>
<linearGradient id="paint0_linear_13_337" x1="497.5" y1="67" x2="29.5" y2="364.5" gradientUnits="userSpaceOnUse">
<stop stop-color="#0D9A65"/>
<stop offset="1" stop-color="#00472C"/>
</linearGradient>
</defs>
</svg>
