<svg width="512" height="512" viewBox="0 0 512 512" fill="none" xmlns="http://www.w3.org/2000/svg">
<rect width="512" height="512" rx="50" fill="url(#paint0_linear_71_156)"/>
<path d="M377.566 235.129C376.897 234.604 370.645 229.947 357.456 229.947C353.972 229.963 350.499 230.256 347.066 230.827C344.514 213.568 330.502 205.458 329.854 205.083L326.313 203.065L323.982 206.379C321.065 210.836 318.487 215.436 317.236 220.597C314.874 230.452 316.31 239.704 321.384 247.613C315.25 250.983 304.799 251.282 302.812 251.354H141.141C136.89 251.359 133.442 254.75 133.417 258.939C133.226 273.002 135.233 287.514 140.137 300.718C145.741 315.219 154.082 325.902 164.93 332.437C177.084 339.78 196.834 343.979 219.223 343.979C229.335 344.01 239.431 343.109 249.373 341.283C263.195 338.776 276.497 334.011 288.723 327.183C298.799 321.425 307.865 314.102 315.579 305.493C328.469 291.095 336.147 275.066 341.859 260.817C342.626 260.817 343.392 260.817 344.133 260.817C358.248 260.817 366.924 255.244 371.71 250.577C374.89 247.597 377.375 243.97 378.986 239.951L380 237.028L377.566 235.129Z" fill="white"/>
<path d="M174.166 246.209H158.729C155.888 246.209 153.583 243.903 153.583 241.063V225.625C153.583 222.785 155.888 220.479 158.729 220.479H174.166C177.007 220.479 179.312 222.785 179.312 225.625V241.063C179.312 243.903 177.007 246.209 174.166 246.209Z" fill="white"/>
<path d="M205.041 246.209H189.604C186.763 246.209 184.458 243.903 184.458 241.063V225.625C184.458 222.785 186.763 220.479 189.604 220.479H205.041C207.882 220.479 210.187 222.785 210.187 225.625V241.063C210.187 243.903 207.882 246.209 205.041 246.209Z" fill="white"/>
<path d="M235.916 246.209H220.479C217.638 246.209 215.333 243.903 215.333 241.063V225.625C215.333 222.785 217.638 220.479 220.479 220.479H235.916C238.757 220.479 241.062 222.785 241.062 225.625V241.063C241.062 243.903 238.757 246.209 235.916 246.209Z" fill="white"/>
<path d="M266.791 246.209H251.354C248.513 246.209 246.208 243.903 246.208 241.063V225.625C246.208 222.785 248.513 220.479 251.354 220.479H266.791C269.632 220.479 271.937 222.785 271.937 225.625V241.063C271.937 243.903 269.632 246.209 266.791 246.209Z" fill="white"/>
<path d="M205.041 215.334H189.604C186.763 215.334 184.458 213.028 184.458 210.188V194.75C184.458 191.91 186.763 189.604 189.604 189.604H205.041C207.882 189.604 210.187 191.91 210.187 194.75V210.188C210.187 213.028 207.882 215.334 205.041 215.334Z" fill="white"/>
<path d="M235.916 215.334H220.479C217.638 215.334 215.333 213.028 215.333 210.188V194.75C215.333 191.91 217.638 189.604 220.479 189.604H235.916C238.757 189.604 241.062 191.91 241.062 194.75V210.188C241.062 213.028 238.757 215.334 235.916 215.334Z" fill="white"/>
<path d="M266.791 215.334H251.354C248.513 215.334 246.208 213.028 246.208 210.188V194.75C246.208 191.91 248.513 189.604 251.354 189.604H266.791C269.632 189.604 271.937 191.91 271.937 194.75V210.188C271.937 213.028 269.632 215.334 266.791 215.334Z" fill="white"/>
<path d="M266.791 184.459H251.354C248.513 184.459 246.208 182.153 246.208 179.313V163.875C246.208 161.035 248.513 158.729 251.354 158.729H266.791C269.632 158.729 271.937 161.035 271.937 163.875V179.313C271.937 182.153 269.632 184.459 266.791 184.459Z" fill="white"/>
<path d="M297.666 246.209H282.229C279.388 246.209 277.083 243.903 277.083 241.063V225.625C277.083 222.785 279.388 220.479 282.229 220.479H297.666C300.507 220.479 302.812 222.785 302.812 225.625V241.063C302.812 243.903 300.507 246.209 297.666 246.209Z" fill="white"/>
<defs>
<linearGradient id="paint0_linear_71_156" x1="397.074" y1="-1.58592e-05" x2="114.926" y2="512" gradientUnits="userSpaceOnUse">
<stop stop-color="#1D63ED"/>
<stop offset="1" stop-color="#00359D"/>
</linearGradient>
</defs>
</svg>
