<svg width="512" height="512" viewBox="0 0 512 512" fill="none" xmlns="http://www.w3.org/2000/svg">
<rect width="512" height="512" rx="50" fill="url(#paint0_linear_172_1636)"/>
<path d="M311.055 289.75C312.742 288.695 314.641 287.641 316.328 286.586C328.141 276.461 323.922 258.109 303.883 232.375C304.305 245.242 306.414 258.531 308.524 272.664C309.367 278.148 310.211 283.844 311.055 289.75ZM196.938 338.688C203.688 367.586 220.774 383.195 240.18 389.734C250.938 391.633 261.696 391.211 272.453 388.891C274.141 388.047 275.617 386.992 277.094 385.937C281.313 383.195 284.899 380.031 288.274 376.867C274.563 370.961 260.641 359.57 247.563 346.07C237.438 345.437 227.524 344.383 218.875 343.117C210.438 342.273 203.266 340.797 196.938 338.688ZM193.985 202.633L193.563 205.586C190.61 222.25 190.399 237.227 192.719 250.305C195.039 234.695 198.203 218.664 202.633 203.266C203.266 200.945 203.899 198.414 204.742 195.883H204.953C208.328 185.336 212.125 175.211 216.555 165.719C208.117 176.898 200.735 189.344 193.985 202.633Z" fill="white"/>
<path d="M192.508 361.469C199.891 370.75 208.329 377.5 217.61 382.352C205.797 372.648 196.516 358.094 192.297 337.211C184.282 334.258 177.954 330.25 173.102 325.188C176.477 338.688 182.805 351.133 192.508 361.469ZM191.243 262.328C187.446 249.883 186.18 235.539 187.446 219.297C185.125 224.148 183.016 229.422 180.696 234.695C171.204 262.328 166.985 291.016 170.993 316.328C175.422 323.078 181.961 328.562 191.243 332.359C188.289 316.117 188.079 290.383 191.243 262.328ZM195.883 333.625C195.883 333.836 195.883 333.836 195.883 333.625C202.633 336.156 210.227 337.844 219.297 338.898C226.68 340.164 234.696 341.008 243.133 341.641C225.625 322.445 210.227 299.875 200.313 281.313C197.993 277.938 196.094 274.352 194.407 270.766C192.086 296.5 192.719 319.492 195.883 333.625ZM304.305 273.086C301.985 257.266 299.454 241.234 299.454 226.047C272.664 201.156 246.719 174.578 247.774 131.758C246.93 132.391 246.086 133.023 245.454 133.656C240.813 137.664 236.172 142.094 231.743 146.945C222.25 160.445 214.657 177.742 208.75 196.516C205.375 220.984 229 268.867 260.43 305.57C275.618 304.938 291.649 300.297 307.047 291.859C306.204 285.742 305.36 279.414 304.305 273.086ZM325.399 356.828C319.914 355.773 314.43 353.875 308.946 351.344C306.204 359.992 301.774 368.008 295.446 375.391C297.766 376.023 299.875 376.656 301.985 376.867C310.844 371.594 318.86 364.633 325.399 356.828Z" fill="white"/>
<path d="M251.992 128.594C249.672 169.727 273.297 195.883 299.031 219.719C276.461 189.766 263.383 171.836 263.383 121.633C259.797 123.531 256 125.852 251.992 128.594ZM296.5 344.172C285.32 345.859 273.719 346.492 262.328 346.492C259.375 346.492 256.211 346.492 253.258 346.281C265.492 358.516 278.57 368.641 291.227 373.703C297.977 366.32 302.406 358.094 305.148 349.234C302.195 347.758 299.242 346.07 296.5 344.172ZM291.438 340.797C287.219 337.844 283.422 334.68 279.836 331.516C272.453 324.977 265.281 317.805 258.531 310C243.555 310.211 229.633 306.625 218.242 299.242C216.555 298.187 214.867 296.922 213.391 295.656C223.094 311.055 235.539 327.93 249.039 342.062C262.75 342.695 277.516 342.484 291.438 340.797ZM311.688 341.219C311.266 343.328 310.844 345.227 310.211 347.336C316.117 350.289 322.234 352.398 328.352 353.031C333.625 345.859 337.844 337.844 340.375 329.195C332.57 334.469 322.656 338.477 311.688 341.219Z" fill="white"/>
<path d="M220.562 295.656C230.477 301.984 242.289 305.359 254.945 305.781C229 274.984 208.961 237.438 204.953 210.859C200.102 229.633 198.414 241.234 195.672 260.641V261.063C197.57 265.914 200.102 271.82 203.477 278.148C207.906 285.32 213.602 291.227 220.562 295.656ZM307.68 296.5C293.336 304.305 278.359 308.734 264.016 309.789C270.133 316.539 276.25 322.867 282.578 328.352C287.008 332.359 292.07 336.367 297.555 339.953C301.141 339.32 304.516 338.688 307.891 338.055C310 324.766 309.367 310.844 307.68 296.5ZM312.32 336.789C324.133 333.625 334.469 329.195 342.063 322.867C345.227 308.312 344.172 292.492 337.211 275.617C331.094 265.281 325.187 256.211 319.703 248.195C329.828 266.758 329.617 280.258 318.859 289.539L318.648 289.75C316.328 291.227 314.008 292.703 311.477 294.18C313.375 308.734 314.219 323.289 312.32 336.789Z" fill="white"/>
<defs>
<linearGradient id="paint0_linear_172_1636" x1="256" y1="0" x2="256" y2="512" gradientUnits="userSpaceOnUse">
<stop stop-color="#793EB0"/>
<stop offset="1" stop-color="#470286"/>
</linearGradient>
</defs>
</svg>
