<svg width="512" height="512" viewBox="0 0 512 512" fill="none" xmlns="http://www.w3.org/2000/svg">
<rect width="512" height="512" rx="50" fill="url(#paint0_linear_13_312)"/>
<path d="M160 138.667C148.214 138.667 138.667 148.214 138.667 160V352C138.667 363.787 148.214 373.334 160 373.334H352C363.787 373.334 373.334 363.787 373.334 352V160C373.334 148.214 363.787 138.667 352 138.667H160ZM305.709 194.646C312.343 194.646 316.875 198.875 316.875 204.646C316.875 210.417 312.343 214.646 305.709 214.646C299.149 214.646 294.563 210.417 294.563 204.646C294.563 198.875 299.149 194.646 305.709 194.646ZM221.792 202.167H242.938L280.334 307.396H260.146L251.25 280.5H212.542L203.479 307.396H184.459L221.792 202.167ZM231.334 222.209L216.917 265.604H246.875L232.584 222.209H231.334ZM296.75 227.625H314.75V307.396H296.75V227.625Z" fill="white"/>
<defs>
<linearGradient id="paint0_linear_13_312" x1="497.5" y1="67" x2="29.5" y2="364.5" gradientUnits="userSpaceOnUse">
<stop stop-color="#E2A13A"/>
<stop offset="1" stop-color="#935A00"/>
</linearGradient>
</defs>
</svg>
