<svg width="512" height="512" viewBox="0 0 512 512" fill="none" xmlns="http://www.w3.org/2000/svg">
<rect width="512" height="512" rx="50" fill="url(#paint0_linear_71_170)"/>
<path d="M245.264 177.536C245.015 178.254 243.859 178.144 243.202 178.353C242.614 178.662 242.136 179.201 241.459 179.201C240.842 179.201 239.846 178.951 239.766 178.353C239.646 177.536 240.862 176.699 241.628 176.699C242.126 176.459 242.704 176.33 243.312 176.33C243.869 176.33 244.397 176.439 244.875 176.649L244.845 176.639C245.064 176.728 245.224 176.938 245.224 177.187C245.224 177.217 245.224 177.237 245.214 177.267V177.516H245.254L245.264 177.536ZM252.116 177.536V177.267C252.036 177.018 252.275 176.748 252.474 176.649C252.932 176.449 253.47 176.33 254.038 176.33C254.646 176.33 255.223 176.469 255.731 176.709L255.711 176.699C256.498 176.699 257.703 177.536 257.574 178.383C257.504 178.991 256.518 179.201 255.89 179.201C255.203 179.201 254.745 178.662 254.138 178.353C253.49 178.124 252.325 178.254 252.106 177.546L252.116 177.536ZM265.581 197.253C260.283 200.613 254.018 202.975 247.305 203.892L247.066 203.922C241.031 203.573 235.543 201.45 231.061 198.061L231.131 198.111C229.219 196.446 227.645 194.771 226.49 193.934C224.448 192.269 224.697 189.787 225.574 189.787C226.928 189.986 227.177 191.452 228.054 192.279C229.249 193.096 230.733 194.771 232.535 196.426C236.489 199.695 241.489 201.819 246.977 202.237L247.066 202.247C253.58 201.679 259.506 199.586 264.625 196.346L264.466 196.446C266.896 194.761 270.003 192.289 272.533 190.624C274.475 188.93 274.385 187.295 276.009 187.295C277.602 187.494 276.437 188.96 274.176 191.432C271.726 193.306 268.927 195.23 266.029 197.014L265.591 197.263L265.581 197.253ZM176.483 310.284H176.603C177.29 310.284 177.967 310.354 178.625 310.474L178.555 310.464C183.973 311.859 188.435 315.228 191.233 319.744L191.283 319.834L202.607 340.558L202.647 340.598C207.198 348.303 212.088 354.972 217.556 361.123L217.447 360.993C222.327 366.177 225.614 372.915 226.5 380.391L226.52 380.551V380.631C226.4 388.775 220.415 395.493 212.616 396.739L212.527 396.749C210.535 397.058 208.224 397.228 205.884 397.228C197.348 397.228 189.361 394.905 182.509 390.848L182.718 390.968C172.231 386.572 160.06 383.85 147.312 383.472H147.162C143.457 383.222 140.231 381.328 138.189 378.527L138.169 378.497C137.631 376.763 137.322 374.769 137.322 372.696C137.322 369.207 138.199 365.927 139.753 363.066L139.703 363.176V363.126L139.733 363.086C140.141 361.212 140.38 359.049 140.38 356.836C140.38 354.105 140.021 351.463 139.344 348.951L139.394 349.161C138.986 347.665 138.747 345.941 138.747 344.156C138.747 341.744 139.175 339.441 139.972 337.308L139.932 337.448C141.924 333.291 144.862 332.464 148.517 330.809C152.879 329.483 156.674 327.479 159.98 324.898L159.901 324.957H159.921V324.928C163.108 321.588 165.458 317.441 168.237 314.491C170.179 312.009 173.137 310.404 176.473 310.304H176.493L176.483 310.284ZM311.076 309.676C311.066 309.846 311.066 310.055 311.066 310.264C311.066 317.671 315.538 324.03 321.932 326.792L322.051 326.842C322.53 326.871 323.087 326.891 323.645 326.891C331.921 326.891 339.331 323.193 344.311 317.352L344.341 317.312L346.97 317.192C347.498 317.112 348.106 317.073 348.723 317.073C352.119 317.073 355.217 318.388 357.517 320.542L357.507 320.532L357.547 320.571C360.027 323.572 361.75 327.28 362.397 331.357L362.417 331.487C362.965 336.521 364.788 341.056 367.566 344.844L367.517 344.765C371.66 348.313 374.538 353.238 375.415 358.83L375.434 358.959L375.474 358.87V359.089L375.434 358.94C375.245 362.199 373.134 363.874 369.24 366.356C357.448 371.31 347.319 377.899 338.594 385.974L338.664 385.914C332.609 393.809 323.715 399.261 313.536 400.727L313.327 400.747C312.59 400.846 311.733 400.906 310.867 400.906C303.218 400.906 296.645 396.281 293.776 389.682L293.727 389.562L293.667 389.522C292.741 386.671 292.213 383.392 292.213 379.993C292.213 375.846 293 371.888 294.444 368.25L294.364 368.469C296.695 361.81 298.696 353.856 300.021 345.662L300.131 344.834C300.29 336.74 301.166 328.955 302.7 321.409L302.561 322.236C303.407 317.073 306.355 312.726 310.469 310.025L310.538 309.985L311.096 309.716L311.076 309.676ZM283.877 198.091C289.852 219.493 297.212 237.984 306.256 255.478L305.469 253.814C311.574 264.679 316.325 277.289 319.044 290.646L319.183 291.484C319.273 291.484 319.382 291.484 319.492 291.484C321.653 291.484 323.745 291.773 325.737 292.321L325.567 292.281C326.663 288.344 327.29 283.828 327.29 279.163C327.29 264.948 321.444 252.089 312.022 242.888L312.012 242.878C309.273 240.386 309.124 238.702 310.479 238.702C320.149 247.773 327.3 259.416 330.846 272.534L330.965 273.042C331.852 276.322 332.36 280.09 332.36 283.978C332.36 287.477 331.951 290.886 331.174 294.145L331.234 293.846C331.971 294.225 332.828 294.514 333.734 294.674L333.794 294.684C346.642 301.333 351.382 306.367 349.102 313.833V313.295C348.355 313.255 347.608 313.295 346.861 313.295H346.661C348.544 307.473 344.401 303.017 333.405 298.043C322.022 293.059 312.919 293.856 311.375 303.835C311.265 304.323 311.186 304.891 311.156 305.479V305.509C310.429 305.808 309.562 306.087 308.666 306.287L308.556 306.307C303.497 309.656 299.892 314.87 298.706 320.95L298.686 321.09C297.212 328.018 296.286 336.042 296.137 344.246V344.366V344.406C295.231 350.756 293.846 356.437 291.974 361.88L292.173 361.222C282.383 369.237 269.754 374.081 255.98 374.081C244.726 374.081 234.228 370.842 225.374 365.24L225.614 365.379C224.159 362.857 222.496 360.674 220.604 358.73L220.614 358.74C219.648 357.145 218.512 355.78 217.208 354.603L217.188 354.593C219.249 354.593 221.241 354.284 223.124 353.716L222.974 353.756C224.767 352.909 226.141 351.443 226.868 349.649L226.888 349.599C227.068 348.672 227.177 347.616 227.177 346.529C227.177 342.093 225.434 338.076 222.586 335.105L222.596 335.115C216.431 327.529 209.061 321.209 200.725 316.375L200.346 316.175C193.663 312.308 188.604 306.257 186.104 299.01L186.034 298.791C185.108 295.621 184.57 291.972 184.57 288.204C184.57 284.685 185.038 281.276 185.905 278.027L185.845 278.296C189.6 265.197 195.018 253.764 201.98 243.446L201.701 243.875C203.035 243.068 202.159 245.56 196.621 256.007C191.901 263.114 189.082 271.856 189.082 281.256C189.082 289.63 191.313 297.475 195.217 304.243L195.098 304.024C195.615 290.975 198.534 278.734 203.404 267.55L203.155 268.198C213.662 249.238 221.62 227.218 225.813 203.882L226.012 202.576C226.609 203.025 228.711 204.261 229.607 205.088C232.316 206.743 234.338 209.235 236.947 210.88C239.607 213.472 243.252 215.067 247.256 215.067C247.465 215.067 247.674 215.067 247.883 215.057H247.853C248.341 215.097 248.789 215.136 249.218 215.136C253.789 215.047 258.052 213.821 261.757 211.727L261.627 211.797C265.232 210.132 268.101 207.64 270.84 206.813H270.899C276.228 205.367 280.69 202.287 283.847 198.15L283.887 198.091H283.877ZM249.028 171.405C249.058 171.405 249.088 171.405 249.118 171.405C254.785 171.405 260.014 173.269 264.227 176.419L264.157 176.37C267.922 178.702 272.264 180.686 276.855 182.091L277.254 182.191H277.293C279.743 183.288 281.765 184.992 283.209 187.115L283.239 187.165V185.53C283.697 186.448 283.976 187.534 283.976 188.68C283.976 189.657 283.777 190.584 283.428 191.432L283.448 191.382C280.58 196.436 275.929 200.194 270.372 201.829L270.212 201.869V201.889C266.876 203.573 263.978 206.035 260.571 207.68C257.086 209.773 252.893 211.01 248.401 211.01C248.251 211.01 248.102 211.01 247.953 211.01H247.973C247.754 211.02 247.495 211.029 247.236 211.029C245.503 211.029 243.829 210.72 242.296 210.142L242.395 210.172C240.812 209.305 239.507 208.488 238.242 207.61L238.382 207.71C236.121 205.726 233.631 203.822 231.022 202.078L230.763 201.918V201.859H230.703C226.968 199.875 224.03 196.835 222.217 193.126L222.168 193.007C221.899 192.339 221.749 191.561 221.749 190.754C221.749 188.581 222.865 186.667 224.548 185.55L224.568 185.54C227.356 183.856 229.299 182.161 230.583 181.354C231.878 180.437 232.366 180.088 232.774 179.719H232.794V179.679C235.463 176.3 238.999 173.708 243.073 172.243L243.232 172.193C244.965 171.694 246.957 171.405 249.018 171.385L249.028 171.405ZM231.978 150.153H232.426C234.298 150.193 236.021 150.821 237.416 151.847L237.396 151.828C239.178 153.413 240.632 155.336 241.628 157.51L241.668 157.619C242.794 160.061 243.491 162.902 243.571 165.893V165.923V165.973C243.61 166.431 243.63 166.959 243.63 167.488C243.63 168.116 243.6 168.744 243.541 169.362L243.551 169.282V170.279C243.182 170.369 242.853 170.498 242.515 170.578C240.613 171.365 239.009 172.203 237.485 173.15L237.625 173.07C237.704 172.522 237.744 171.894 237.744 171.256C237.744 170.728 237.714 170.199 237.655 169.681L237.665 169.741V169.551C237.485 168.016 237.127 166.611 236.599 165.285L236.639 165.394C236.23 164.079 235.513 162.962 234.577 162.075C234.029 161.577 233.302 161.268 232.496 161.268C232.426 161.268 232.356 161.268 232.286 161.278H232.296H232.037C231.012 161.387 230.155 162.025 229.727 162.902L229.717 162.922C228.95 163.849 228.422 164.996 228.223 166.252V166.292C227.994 167.149 227.874 168.136 227.874 169.153C227.874 169.591 227.894 170.03 227.944 170.458V170.409V170.598C228.103 172.133 228.462 173.549 228.98 174.864L228.94 174.755C229.358 176.071 230.065 177.197 231.002 178.094C231.121 178.214 231.261 178.313 231.42 178.393H231.43C230.603 178.921 229.886 179.48 229.229 180.098L229.239 180.088C228.791 180.487 228.243 180.786 227.635 180.925L227.605 180.935C226.38 179.47 225.245 177.825 224.269 176.09L224.189 175.931C223.064 173.489 222.367 170.658 222.257 167.657V167.617C222.217 167.139 222.197 166.581 222.197 166.013C222.197 163.61 222.586 161.297 223.293 159.134L223.253 159.294C223.99 156.722 225.195 154.499 226.799 152.605L226.779 152.635C228.044 151.14 229.896 150.193 231.978 150.143H231.988L231.978 150.153ZM268.848 149.415H269.007C269.017 149.415 269.027 149.415 269.047 149.415C271.786 149.415 274.296 150.342 276.307 151.897L276.278 151.877C278.558 153.642 280.391 155.865 281.676 158.407L281.725 158.516C282.931 161.168 283.677 164.248 283.787 167.498V167.538C283.787 167.288 283.857 167.039 283.857 166.79V168.096L283.807 167.837L283.757 167.538C283.727 170.728 283.05 173.738 281.835 176.479L281.895 176.34C281.277 177.965 280.381 179.36 279.245 180.516C278.947 180.337 278.578 180.168 278.21 180.018L278.15 179.998C276.805 179.579 275.63 179.011 274.565 178.313L274.614 178.343C273.847 178.024 272.931 177.745 271.985 177.536L271.875 177.516C272.682 176.758 273.429 175.951 274.116 175.094L274.156 175.044C274.784 173.568 275.172 171.864 275.252 170.07V170.04V169.79C275.252 169.711 275.252 169.631 275.252 169.541C275.252 167.847 274.973 166.222 274.455 164.707L274.485 164.816C273.857 163.231 273.091 161.866 272.174 160.62L272.214 160.669C271.348 159.792 270.202 159.194 268.917 159.025H268.888H268.688C268.678 159.025 268.659 159.025 268.649 159.025C267.334 159.025 266.159 159.673 265.442 160.66L265.432 160.669C264.276 161.796 263.4 163.191 262.902 164.756L262.882 164.826C262.255 166.292 261.846 167.996 261.767 169.771V169.8V170.04C261.786 171.236 261.876 172.392 262.035 173.519L262.016 173.369C259.615 172.532 256.568 171.684 254.456 170.857C254.337 170.129 254.257 169.272 254.237 168.395V168.365V168.116C254.227 167.916 254.227 167.687 254.227 167.458C254.227 164.228 254.914 161.168 256.159 158.407L256.1 158.546C257.155 155.765 259.018 153.482 261.398 151.937L261.448 151.907C263.48 150.352 266.059 149.415 268.848 149.415ZM262.265 107C260.332 107 258.34 107.1 256.289 107.259C203.693 111.406 217.646 167.139 216.839 185.71C216.341 199.925 211.521 212.913 203.643 223.51L203.772 223.33C189.759 239.3 178.326 257.96 170.398 278.385L169.97 279.651C167.4 286.48 165.906 294.365 165.906 302.599C165.906 305.439 166.086 308.241 166.424 310.982L166.394 310.653C165.837 311.111 165.368 311.67 165.04 312.308L165.03 312.338C161.793 315.677 159.433 319.814 156.773 322.784C153.955 324.948 150.648 326.652 147.063 327.709L146.854 327.759C142.232 329.144 138.468 332.165 136.147 336.142L136.097 336.232C135.062 338.345 134.454 340.827 134.454 343.459C134.454 343.558 134.454 343.648 134.454 343.748C134.474 346.12 134.713 348.413 135.181 350.646L135.141 350.417C135.699 352.6 136.018 355.112 136.018 357.693C136.018 359.388 135.878 361.053 135.609 362.678L135.629 362.498C133.966 365.618 133 369.327 133 373.264C133 376.035 133.478 378.687 134.364 381.149L134.315 380.989C137.034 384.857 141.147 387.589 145.908 388.456L146.017 388.476C158.706 389.542 170.428 392.194 181.483 396.251L180.547 395.952C187.498 400.089 195.874 402.531 204.808 402.531C207.736 402.531 210.605 402.272 213.393 401.763L213.104 401.803C219.747 400.298 225.165 395.962 228.083 390.15L228.143 390.021C235.454 389.981 243.451 386.671 256.269 385.864C264.964 385.146 275.859 389.193 288.339 388.356C288.707 389.941 289.195 391.327 289.813 392.632L289.753 392.503L289.793 392.543C293.617 400.557 301.644 406 310.947 406C311.753 406 312.55 405.96 313.337 405.88L313.237 405.89C324.701 404.196 334.541 398.235 341.253 389.712L341.323 389.622C349.719 381.966 359.519 375.656 370.256 371.151L370.923 370.902C375.225 368.998 378.313 365.07 378.99 360.345L379 360.275C378.412 353.357 375.096 347.326 370.156 343.17L370.116 343.14V341.934L370.076 341.894C367.945 338.604 366.451 334.697 365.883 330.51L365.863 330.36C365.336 325.247 363.095 320.731 359.738 317.332H359.698C358.961 316.664 358.165 316.494 357.358 315.647C356.701 315.179 355.884 314.889 354.998 314.85C356.94 308.849 358.055 301.951 358.055 294.783C358.055 285.413 356.133 276.491 352.667 268.397L352.836 268.836C345.825 252.169 336.712 237.824 325.627 225.284L325.766 225.454C314.761 214.668 307.56 200.024 306.365 183.716L306.355 183.507C306.684 156.702 309.293 107.11 262.245 107.04L262.265 107Z" fill="white"/>
<defs>
<linearGradient id="paint0_linear_71_170" x1="357.627" y1="-1.10931e-05" x2="154.372" y2="512" gradientUnits="userSpaceOnUse">
<stop stop-color="#F99D30"/>
<stop offset="1" stop-color="#BC6500"/>
</linearGradient>
</defs>
</svg>
