<svg width="512" height="512" viewBox="0 0 512 512" fill="none" xmlns="http://www.w3.org/2000/svg">
<rect width="512" height="512" rx="50" fill="#1A1A1A"/>
<path d="M151.9 176.696C140.228 176.696 130.664 186.43 130.664 198.058V313.942C130.664 325.57 140.228 335.304 151.898 335.304H360.102C371.772 335.304 381.336 325.57 381.336 313.942V198.06C381.336 186.432 371.77 176.698 360.102 176.698H157.796L157.792 176.694L151.9 176.696ZM151.886 195.782H360.102C361.352 195.782 362.254 196.628 362.254 198.062V313.942C362.254 315.376 361.348 316.222 360.102 316.222H151.898C150.652 316.222 149.746 315.376 149.746 313.942V198.058C149.746 196.628 150.648 195.788 151.886 195.782Z" fill="white"/>
<path d="M169.442 296.2V215.8H192.84L216.234 245.36L239.62 215.8H263.012V296.2H239.62V250.088L216.232 279.648L192.836 250.088V296.2H169.442ZM315.65 296.2L280.56 257.182H303.954V215.8H327.35V257.18H350.746L315.65 296.2Z" fill="white"/>
</svg>
