<svg width="512" height="512" viewBox="0 0 512 512" fill="none" xmlns="http://www.w3.org/2000/svg">
<rect width="512" height="512" rx="50" fill="url(#paint0_linear_37_181)"/>
<path d="M258.813 305.949C258.813 305.949 258.756 305.724 258.7 305.274C258.813 305.724 258.813 305.949 258.813 305.949Z" fill="white"/>
<path d="M274.984 169.515C274.984 169.515 272.875 161.781 275.687 155.453C278.5 149.125 278.5 144.906 272.875 138.578C284.125 137.875 288.344 145.609 288.344 145.609L288.484 146.504C289.148 150.812 286.921 154.907 283.163 157.124C279.732 159.143 276.042 162.833 274.984 169.515Z" fill="white"/>
<path d="M355.169 324.85C355.281 323.668 357.081 307.75 353.031 300.325C344.594 324.175 336.156 346 311.575 361.468C315.063 354.437 320.688 343.187 326.313 326.312C309.438 348.812 275.688 371.312 250.375 372.718C267.475 363.268 277.094 351.118 281.313 343.187C281.313 343.187 271.469 346 259.488 347.406C275.688 337.562 286.938 320.012 281.313 292.562C270.063 327.718 254.594 338.968 234.175 341.05C213.813 343.187 195.531 332.612 195.531 332.612L202.563 331.937C202.563 331.937 184.281 317.875 190.638 299.593C190.919 298.693 191.256 297.85 191.65 297.062C196.263 286.825 211.956 292 210.325 303.081V303.137C210.325 303.137 215.219 316.468 228.55 312.925C232.825 305.95 235.638 298.862 235.638 298.862L237.719 308.031C237.719 308.031 247.563 303.812 247.563 296.05C256 299.256 258.138 303.25 258.644 304.993C257.181 297.118 244.469 242.95 177.138 243.737L165.381 254.65C164.594 255.381 163.356 254.762 163.469 253.75L164.369 244.75L165.156 243.962C164.931 244.018 164.65 243.962 164.425 243.962L164.369 244.75L159.756 249.025C158.969 249.756 157.731 249.137 157.844 248.125L158.406 242.387C148.619 238.225 147.719 227.2 147.719 227.2C147.719 227.2 135.513 223.768 140.688 208.187C143.5 199.75 150.25 198.906 153.119 199.581C156.775 200.425 160.544 200.481 164.031 199.075C169.094 197.05 175.563 193.168 180.063 185.687C188.5 171.625 201.156 166 228.55 166C264.831 166 279.456 177.137 281.144 178.487C280.131 177.306 274 169.15 286.938 156.887C299.706 144.737 297.4 141.868 296.894 141.418C298.806 141.981 323.613 150.418 326.313 182.875C329.125 216.625 289.75 223.656 289.75 223.656C289.75 223.656 340.375 233.5 341.05 185.687C350.95 191.312 371.313 212.406 374.125 258.137C376.881 302.462 356.35 323.668 355.169 324.85Z" fill="white"/>
<path d="M165.157 243.962L164.369 244.75L164.425 243.962C164.65 243.962 164.932 244.019 165.157 243.962Z" fill="white"/>
<path d="M165.157 243.962L164.369 244.75L164.425 243.962C164.65 243.962 164.932 244.019 165.157 243.962Z" fill="white"/>
<defs>
<linearGradient id="paint0_linear_37_181" x1="2.60936e-06" y1="322.569" x2="512" y2="189.431" gradientUnits="userSpaceOnUse">
<stop stop-color="#E0234E"/>
<stop offset="1" stop-color="#E40034"/>
</linearGradient>
</defs>
</svg>
