<svg width="512" height="512" viewBox="0 0 512 512" fill="none" xmlns="http://www.w3.org/2000/svg">
<rect width="512" height="512" rx="50" fill="url(#paint0_linear_37_181)"/>
<path d="M258.813 305.95C258.813 305.95 258.756 305.725 258.7 305.275C258.813 305.725 258.813 305.95 258.813 305.95Z" fill="white"/>
<path d="M274.984 169.516C274.984 169.516 272.875 161.782 275.687 155.453C278.5 149.125 278.5 144.907 272.875 138.578C284.125 137.875 288.344 145.61 288.344 145.61L288.484 146.504C289.148 150.813 286.921 154.908 283.163 157.124C279.732 159.143 276.042 162.833 274.984 169.516Z" fill="white"/>
<path d="M355.169 324.85C355.281 323.669 357.081 307.75 353.031 300.325C344.594 324.175 336.156 346 311.575 361.469C315.063 354.438 320.688 343.188 326.313 326.313C309.438 348.813 275.688 371.313 250.375 372.719C267.475 363.269 277.094 351.119 281.313 343.188C281.313 343.188 271.469 346 259.488 347.406C275.688 337.563 286.938 320.013 281.313 292.563C270.063 327.719 254.594 338.969 234.175 341.05C213.813 343.188 195.531 332.613 195.531 332.613L202.563 331.938C202.563 331.938 184.281 317.875 190.638 299.594C190.919 298.694 191.256 297.85 191.65 297.063C196.263 286.825 211.956 292 210.325 303.081V303.138C210.325 303.138 215.219 316.469 228.55 312.925C232.825 305.95 235.638 298.863 235.638 298.863L237.719 308.031C237.719 308.031 247.563 303.813 247.563 296.05C256 299.256 258.138 303.25 258.644 304.994C257.181 297.119 244.469 242.95 177.138 243.738L165.381 254.65C164.594 255.381 163.356 254.763 163.469 253.75L164.369 244.75L165.156 243.963C164.931 244.019 164.65 243.963 164.425 243.963L164.369 244.75L159.756 249.025C158.969 249.756 157.731 249.138 157.844 248.125L158.406 242.388C148.619 238.225 147.719 227.2 147.719 227.2C147.719 227.2 135.513 223.769 140.688 208.188C143.5 199.75 150.25 198.906 153.119 199.581C156.775 200.425 160.544 200.481 164.031 199.075C169.094 197.05 175.563 193.169 180.063 185.688C188.5 171.625 201.156 166 228.55 166C264.831 166 279.456 177.138 281.144 178.488C280.131 177.306 274 169.15 286.938 156.888C299.706 144.738 297.4 141.869 296.894 141.419C298.806 141.981 323.613 150.419 326.313 182.875C329.125 216.625 289.75 223.656 289.75 223.656C289.75 223.656 340.375 233.5 341.05 185.688C350.95 191.313 371.313 212.406 374.125 258.138C376.881 302.463 356.35 323.669 355.169 324.85Z" fill="white"/>
<path d="M165.157 243.963L164.369 244.75L164.425 243.963C164.65 243.963 164.932 244.019 165.157 243.963Z" fill="white"/>
<path d="M165.157 243.963L164.369 244.75L164.425 243.963C164.65 243.963 164.932 244.019 165.157 243.963Z" fill="white"/>
<defs>
<linearGradient id="paint0_linear_37_181" x1="2.60936e-06" y1="322.569" x2="512" y2="189.431" gradientUnits="userSpaceOnUse">
<stop stop-color="#E0234E"/>
<stop offset="1" stop-color="#E40034"/>
</linearGradient>
</defs>
</svg>
