<svg width="512" height="512" viewBox="0 0 512 512" fill="none" xmlns="http://www.w3.org/2000/svg">
<rect width="512" height="512" rx="50" fill="url(#paint0_linear_171_1479)"/>
<path d="M353.742 261.204C371.75 271.758 383.852 291.258 383.89 313.586C383.954 347.196 356.656 374.492 322.93 374.546C289.204 374.61 261.812 347.406 261.75 313.796C261.71 291.468 273.742 271.93 291.718 261.304L309.266 290.86C309.704 291.6 309.454 292.554 308.742 293.04C302.102 297.54 297.75 305.132 297.766 313.734C297.79 327.524 309.032 338.688 322.866 338.656C336.704 338.632 347.898 327.436 347.874 313.648C347.86 305.048 343.484 297.468 336.828 292.992C336.118 292.508 335.86 291.554 336.296 290.812L353.742 261.204ZM218.954 260.844C209.842 255.758 199.576 253.095 189.14 253.11C155.406 253.11 128.07 280.36 128.07 313.97C128.07 347.578 155.406 374.83 189.14 374.83C223.032 374.83 251.04 346.156 250.188 312.406H215.812C214.906 312.406 214.196 313.172 214.188 314.07C214.102 327.516 202.844 338.938 189.14 338.938C175.296 338.938 164.086 327.758 164.086 313.968C164.086 300.18 175.296 289 189.14 289C192.758 289 196.204 289.766 199.312 291.148C200.078 291.484 200.984 291.228 201.406 290.516L218.954 260.844ZM223.89 251.296C205.906 240.71 193.836 221.188 193.836 198.86C193.836 165.25 221.18 138 254.906 138C288.632 138 315.976 165.25 315.976 198.86C315.976 221.188 303.906 240.71 285.922 251.296L268.42 221.72C267.982 220.98 268.232 220.026 268.952 219.54C275.592 215.048 279.958 207.462 279.958 198.86C279.958 185.072 268.74 173.892 254.904 173.892C241.068 173.892 229.85 185.072 229.85 198.862C229.85 207.462 234.216 215.048 240.858 219.542C241.578 220.026 241.826 220.978 241.388 221.722L223.89 251.296Z" fill="white"/>
<defs>
<linearGradient id="paint0_linear_171_1479" x1="407.597" y1="1.35336e-05" x2="104.403" y2="512" gradientUnits="userSpaceOnUse">
<stop stop-color="#0600FF"/>
<stop offset="1" stop-color="#4E49FF"/>
</linearGradient>
</defs>
</svg>
