<svg width="512" height="512" viewBox="0 0 512 512" fill="none" xmlns="http://www.w3.org/2000/svg">
<rect width="512" height="512" rx="50" fill="url(#paint0_linear_171_1499)"/>
<path d="M328.2 204.6L309.8 223C340 253.2 340 301.8 309.8 331.6C279.6 361.8 231 361.8 201.2 331.6C171 301.4 171 252.8 201.2 223L249.2 175L256 168.2V132L183.6 204.4C143.4 244.6 143.4 309.6 183.6 350C223.8 390.4 288.8 390.2 328.4 350C368.6 309.6 368.6 245 328.2 204.6Z" fill="white"/>
<path d="M305.539 186.987C305.676 179.588 299.789 173.478 292.39 173.341C284.991 173.204 278.881 179.091 278.744 186.49C278.607 193.89 284.494 199.999 291.893 200.136C299.293 200.273 305.402 194.386 305.539 186.987Z" fill="white"/>
<defs>
<linearGradient id="paint0_linear_171_1499" x1="256" y1="0" x2="256" y2="512" gradientUnits="userSpaceOnUse">
<stop stop-color="#EE4B2C"/>
<stop offset="1" stop-color="#C1270A"/>
</linearGradient>
</defs>
</svg>
