<svg width="512" height="512" viewBox="0 0 512 512" fill="none" xmlns="http://www.w3.org/2000/svg">
<rect width="512" height="512" rx="50" fill="url(#paint0_linear_171_1512)"/>
<g clip-path="url(#clip0_171_1512)">
<path d="M209.326 128.002C208.012 128.042 206.6 128.522 204.996 129.77C201.062 128.274 197.254 127.754 193.844 130.796C188.578 130.122 186.864 131.514 185.568 133.134C184.414 133.11 176.92 131.96 173.482 137.012C164.848 136.004 162.116 142.018 165.208 147.622C163.446 150.312 161.618 152.966 165.742 158.092C164.282 160.95 165.188 164.044 168.626 167.796C167.718 171.808 169.502 174.642 172.7 176.85C172.1 182.342 177.812 185.536 179.516 186.672C180.172 189.872 181.542 192.894 188.068 194.562C189.142 199.336 193.064 200.16 196.86 201.16C184.31 208.348 173.544 217.8 173.62 241L171.78 244.228C157.39 252.848 144.44 280.552 164.686 303.072C166.01 310.122 168.228 315.184 170.204 320.788C173.158 343.37 192.434 353.942 197.516 355.194C204.97 360.784 212.906 366.084 223.644 369.8C233.764 380.084 244.732 384.004 255.758 384H256.242C267.27 384.006 278.236 380.084 288.356 369.8C299.096 366.086 307.03 360.784 314.48 355.194C319.564 353.942 338.844 343.374 341.798 320.788C343.772 315.186 345.992 310.122 347.314 303.072C367.56 280.552 354.61 252.846 340.218 244.224L338.378 240.994C338.452 217.798 327.692 208.344 315.14 201.154C318.938 200.154 322.856 199.334 323.932 194.562C330.456 192.892 331.824 189.872 332.48 186.672C334.188 185.532 339.896 182.338 339.298 176.842C342.496 174.638 344.28 171.804 343.374 167.792C346.81 164.042 347.714 160.942 346.254 158.088C350.382 152.964 348.55 150.308 346.79 147.618C349.88 142.014 347.152 136.004 338.514 137.012C335.078 131.962 327.586 133.108 326.428 133.13C325.132 131.51 323.418 130.122 318.154 130.796C314.746 127.756 310.934 128.276 307 129.77C302.332 126.14 299.238 129.046 295.708 130.146C290.054 128.326 288.76 130.822 285.984 131.838C279.818 130.554 277.944 133.344 274.988 136.296L271.552 136.232C262.252 141.63 257.628 152.618 255.992 158.27C254.352 152.616 249.744 141.628 240.446 136.23L237.008 136.296C234.048 133.344 232.174 130.554 226.008 131.836C223.232 130.822 221.942 128.326 216.284 130.146C213.968 129.426 211.836 127.928 209.33 128.002H209.326ZM302.848 134.486C301.56 136.058 299.752 137.594 301.666 139.402C304.304 137.754 306.958 136.11 313.222 134.94C311.808 136.514 308.892 138.086 310.662 139.66C313.972 138.396 317.634 137.478 321.688 136.944C319.748 138.544 318.128 140.104 319.722 141.342C323.262 140.252 328.142 138.782 332.916 140.05L329.896 143.088C329.56 143.494 336.96 143.406 341.844 143.478C340.06 145.952 338.246 148.344 337.184 152.596C337.67 153.086 340.09 152.812 342.374 152.596C340.03 157.52 335.966 158.762 335.018 160.872C336.448 161.956 338.432 161.672 340.598 160.936C338.914 164.406 335.382 166.786 332.59 169.6C333.298 170.104 334.53 170.4 337.45 170.054C334.87 172.794 331.754 175.302 328.06 177.554C328.716 178.308 330.96 178.28 333.048 178.33C329.702 181.604 325.396 183.302 321.36 185.444C323.372 186.82 324.812 186.5 326.352 186.478C323.5 188.822 318.644 190.044 314.14 191.46C314.996 192.79 315.856 193.152 317.688 193.524C312.918 196.164 306.088 194.958 304.162 196.308C304.626 197.632 305.936 198.494 307.51 199.214C299.834 199.662 278.838 198.942 274.814 183.054C282.672 174.42 297.01 164.284 321.678 151.758C302.486 158.18 285.172 166.742 270.678 178.524C253.638 170.59 265.382 150.578 273.696 142.634C274.118 144.732 274.596 146.062 275.14 146.452C277.846 143.552 280.06 140.578 283.542 137.786C283.556 139.426 282.716 141.202 284.792 142.502C286.658 139.99 289.186 137.746 292.538 135.842C290.924 138.628 292.264 139.476 293.132 140.63C295.692 138.436 298.126 136.21 302.848 134.486ZM209.848 134.49C214.57 136.212 217.002 138.436 219.564 140.63C220.432 139.476 221.766 138.63 220.152 135.846C223.504 137.75 226.032 139.994 227.898 142.506C229.974 141.206 229.136 139.426 229.148 137.786C232.632 140.578 234.844 143.55 237.552 146.452C238.092 146.062 238.572 144.732 238.996 142.634C247.31 150.578 259.058 170.59 242.016 178.524C227.516 166.746 210.196 158.184 191.008 151.758C215.676 164.28 230.02 174.42 237.88 183.054C233.858 198.942 212.862 199.662 205.184 199.214C206.758 198.494 208.068 197.632 208.532 196.308C206.606 194.958 199.78 196.164 195.012 193.524C196.842 193.152 197.696 192.79 198.552 191.46C194.046 190.044 189.196 188.822 186.34 186.478C187.88 186.498 189.32 186.818 191.332 185.444C187.298 183.304 182.99 181.604 179.646 178.33C181.728 178.28 183.982 178.31 184.638 177.554C180.942 175.302 177.826 172.794 175.248 170.054C178.168 170.4 179.4 170.104 180.108 169.6C177.314 166.786 173.78 164.406 172.096 160.936C174.264 161.672 176.246 161.956 177.676 160.872C176.726 158.762 172.664 157.52 170.324 152.596C172.606 152.812 175.026 153.086 175.51 152.596C174.45 148.344 172.632 145.952 170.85 143.476C175.732 143.406 183.132 143.496 182.798 143.088L179.778 140.048C184.548 138.784 189.432 140.252 192.978 141.342C194.566 140.106 192.948 138.542 191.006 136.942C195.062 137.478 198.722 138.402 202.032 139.662C203.802 138.09 200.884 136.514 199.472 134.94C205.738 136.11 208.392 137.76 211.028 139.406C212.944 137.598 211.138 136.062 209.848 134.49ZM256.496 199.93C268.58 199.8 283.542 208.812 283.484 217.304C283.43 224.8 272.974 230.868 256.59 230.754C240.542 230.564 229.738 223.132 229.776 215.868C229.808 209.892 242.878 199.582 256.496 199.93ZM216.712 204.986C219.508 204.941 222.303 205.152 225.06 205.618C233.464 207.008 184.772 248.892 184.02 239.55C183.35 218.226 197.8 205.332 216.712 204.986ZM296.45 205.702C315.358 206.048 329.81 218.936 329.14 240.262C328.39 249.602 279.7 207.722 288.106 206.33V206.334C290.862 205.869 293.656 205.657 296.45 205.702ZM285.806 231.7C295.638 231.592 306.026 237.052 312.572 246.81C322.096 261.006 319.888 278.918 307.64 286.82C295.396 294.724 277.75 289.622 268.226 275.43C258.7 261.234 260.91 243.324 273.158 235.42C276.984 232.95 281.338 231.75 285.806 231.7ZM227.454 233.132C231.922 233.182 236.274 234.382 240.102 236.852C252.348 244.754 254.556 262.668 245.034 276.862C235.51 291.056 217.862 296.154 205.614 288.252C193.37 280.35 191.164 262.436 200.686 248.242C207.234 238.482 217.622 233.024 227.454 233.132ZM331.272 248.988C331.67 248.984 332.066 249.035 332.45 249.14C354.388 261.48 350.578 288.94 338.742 298.316C328.32 302.874 319.774 249.176 331.272 248.988ZM180.832 249.7C192.326 249.888 183.78 303.584 173.36 299.022C161.526 289.648 157.714 262.192 179.652 249.852C180.037 249.747 180.434 249.696 180.832 249.7ZM256.474 286.548C272.798 286.468 286.096 298.426 286.182 313.252V313.536C286.27 328.36 273.106 340.44 256.784 340.518C240.46 340.598 227.164 328.646 227.076 313.818V313.536C226.99 298.71 240.15 286.626 256.474 286.548ZM321.746 296.684C324.062 296.598 326.334 297.328 328.166 298.748C333.412 303.898 336.492 323.288 327.306 334.9C314.654 352.19 297.526 352.864 291.148 348.048C284.476 341.85 289.568 322.604 298.716 312.052V312.044C306.568 303.314 314.82 296.86 321.746 296.684ZM189.984 300.8C197.424 301.112 206.328 306.912 213.602 315.226H213.606C222.058 325.26 225.914 342.88 218.86 348.074C212.186 352.042 195.976 350.41 184.454 334.108C176.686 320.432 177.688 306.51 183.144 302.422C185.184 301.198 187.504 300.696 189.984 300.8ZM257.546 348.858C269.42 348.346 285.356 352.622 285.386 358.294C285.584 363.804 270.934 376.254 256.758 376.014C242.078 376.638 227.684 364.172 227.874 359.85C227.654 353.512 245.748 348.568 257.546 348.858Z" fill="white"/>
</g>
<defs>
<linearGradient id="paint0_linear_171_1512" x1="256" y1="0" x2="256" y2="512" gradientUnits="userSpaceOnUse">
<stop stop-color="#D6264F"/>
<stop offset="1" stop-color="#A00025"/>
</linearGradient>
<clipPath id="clip0_171_1512">
<rect width="256" height="256" fill="white" transform="translate(128 128)"/>
</clipPath>
</defs>
</svg>
