<svg width="512" height="512" viewBox="0 0 512 512" fill="none" xmlns="http://www.w3.org/2000/svg">
<rect width="512" height="512" rx="50" fill="url(#paint0_linear_37_225)"/>
<path d="M361.957 256L372.667 244.508L359.921 235.326L368.181 221.968L353.889 215.452L359.384 200.741L344.095 197.136L346.615 181.631L330.918 181.076L330.363 165.379L314.858 167.899L311.253 152.61L296.542 158.105L290.026 143.813L276.668 152.073L267.492 139.333L256 150.043L244.508 139.333L235.327 152.079L221.968 143.819L215.453 158.111L200.741 152.616L197.136 167.905L181.631 165.385L181.077 181.082L165.379 181.636L167.899 197.141L152.61 200.746L158.105 215.458L143.813 221.974L152.073 235.332L139.333 244.508L150.043 256L139.333 267.491L152.079 276.673L143.819 290.031L158.111 296.547L152.616 311.259L167.905 314.864L165.385 330.369L181.083 330.923L181.637 346.62L197.142 344.1L200.747 359.39L215.458 353.895L221.974 368.186L235.333 359.926L244.508 372.666L256 361.956L267.492 372.666L276.673 359.92L290.032 368.18L296.548 353.889L311.259 359.384L314.864 344.095L330.369 346.615L330.923 330.917L346.621 330.363L344.101 314.858L359.39 311.253L353.895 296.541L368.187 290.025L359.927 276.667L372.667 267.491L361.957 256ZM256 156.833C259.22 156.833 261.833 159.446 261.833 162.666C261.833 165.886 259.22 168.5 256 168.5C252.78 168.5 250.167 165.886 250.167 162.666C250.167 159.446 252.78 156.833 256 156.833ZM168.5 221C171.72 221 174.333 223.613 174.333 226.833C174.333 230.053 171.72 232.666 168.5 232.666C165.28 232.666 162.667 230.053 162.667 226.833C162.667 223.613 165.28 221 168.5 221ZM167.38 285.166C164.358 275.985 162.667 266.196 162.667 256C162.667 251.893 163.023 247.88 163.536 243.913L179.327 235.455C182.535 233.74 184.133 230.234 183.632 226.833H191.833V285.166H167.38ZM203.5 337.666C200.28 337.666 197.667 335.053 197.667 331.833C197.667 328.613 200.28 326 203.5 326C206.72 326 209.333 328.613 209.333 331.833C209.333 335.053 206.72 337.666 203.5 337.666ZM308.5 337.666C305.28 337.666 302.667 335.053 302.667 331.833C302.667 328.613 305.28 326 308.5 326C311.72 326 314.333 328.613 314.333 331.833C314.333 335.053 311.72 337.666 308.5 337.666ZM322.757 321.164L304.603 318.265C300.03 317.535 295.731 320.65 295.002 325.224L292.324 342.006C281.159 346.72 268.886 349.333 256 349.333C242.84 349.333 230.333 346.58 218.982 341.668L216.473 325.965C215.744 321.391 211.445 318.276 206.872 319.005L189.768 321.736C185.738 317.676 182.074 313.242 178.843 308.494H255.714V285.161H232.667V267.661H249.42C281.352 267.661 255.178 308.494 297.528 308.494H333.158C330.066 313.032 326.572 317.256 322.757 321.164ZM234.055 244.333V226.833H264.377C269.16 226.833 273.039 230.712 273.039 235.496V235.671C273.039 240.454 269.16 244.333 264.377 244.333H234.055ZM348.908 264.376H333.677V271.563C333.677 279.555 328.695 285.166 322.92 285.166C308.063 285.166 312.099 264.534 294.028 255.533C307.514 253.311 317.851 241.358 317.851 226.833C317.851 210.727 305.181 197.666 289.553 197.666H255.708H208.062H183.2C196.453 181.146 215.184 169.223 236.668 164.696L250.068 178.096C253.34 181.368 258.648 181.368 261.921 178.096L275.32 164.696C302.387 170.401 325.137 187.808 337.993 211.404L331.186 224.109C328.998 228.192 330.538 233.273 334.616 235.455L348.278 242.77C348.908 247.104 349.333 251.496 349.333 256C349.333 258.829 349.158 261.611 348.908 264.376ZM343.5 232.666C340.28 232.666 337.667 230.053 337.667 226.833C337.667 223.613 340.28 221 343.5 221C346.72 221 349.333 223.613 349.333 226.833C349.333 230.053 346.72 232.666 343.5 232.666Z" fill="white"/>
<defs>
<linearGradient id="paint0_linear_37_225" x1="399.162" y1="2.12083e-05" x2="112.838" y2="512" gradientUnits="userSpaceOnUse">
<stop stop-color="#4A698E"/>
<stop offset="1" stop-color="#11253D"/>
</linearGradient>
</defs>
</svg>
