<svg width="512" height="512" viewBox="0 0 512 512" fill="none" xmlns="http://www.w3.org/2000/svg">
<rect width="512" height="512" rx="50" fill="url(#paint0_linear_171_1538)"/>
<path d="M178.822 349.144V318.154L202.506 317.206C227.136 316.26 245.406 314.23 272.2 309.628C302.65 304.35 332.692 294.878 335.806 289.464C336.618 288.11 337.158 298.532 337.158 318.696V350.092L333.638 352.798C329.85 355.776 315.234 360.784 298.59 364.978C272.606 371.474 209.136 380 187.484 380H178.824L178.822 349.144ZM178.822 270.654V239.66L202.506 238.848C228.76 237.766 249.194 235.466 276.26 230.458C306.574 224.774 334.18 215.572 336.212 210.564C336.618 209.618 337.024 222.744 337.024 239.796C337.158 266.862 336.888 271.192 334.858 273.356C330.122 278.636 293.582 288.108 255.96 293.928C233.09 297.448 195.198 301.508 184.64 301.508H178.822V270.654ZM178.822 192.704V162.39L183.018 161.578C185.318 161.172 191.002 160.766 195.604 160.766C218.338 160.766 272.336 153.322 298.86 146.556C317.4 141.684 330.256 136.812 334.722 132.752C337.022 130.722 337.158 131.94 337.158 161.712C337.158 190.808 337.024 192.972 334.588 195.14C330.934 198.522 305.898 206.236 286.408 210.16C254.878 216.386 202.506 223.018 184.642 223.018H178.822V192.704Z" fill="white"/>
<defs>
<linearGradient id="paint0_linear_171_1538" x1="256" y1="0" x2="256" y2="512" gradientUnits="userSpaceOnUse">
<stop stop-color="#DE3432"/>
<stop offset="1" stop-color="#C00200"/>
</linearGradient>
</defs>
</svg>
