<svg width="512" height="512" viewBox="0 0 512 512" fill="none" xmlns="http://www.w3.org/2000/svg">
<rect width="512" height="512" rx="50" fill="url(#paint0_linear_171_1534)"/>
<g clip-path="url(#clip0_171_1534)">
<path d="M360.904 141.286C357.319 149.888 352.729 158.035 347.23 165.558C323.138 141.48 290.472 127.952 256.41 127.948C185.968 127.948 128 185.964 128 256.484C127.999 273.898 131.534 291.131 138.391 307.139C145.248 323.146 155.284 337.594 167.89 349.608L172.626 353.808C195.772 373.323 225.067 384.035 255.342 384.052C322.316 384.052 378.616 331.572 383.384 264.686C386.886 231.944 377.282 190.532 360.904 141.286ZM186.134 350.34C185.103 351.611 183.802 352.635 182.325 353.339C180.847 354.042 179.232 354.408 177.596 354.408C171.56 354.408 166.622 349.44 166.622 343.404C166.622 337.37 171.592 332.402 177.596 332.402C180.096 332.402 182.566 333.268 184.5 334.87C189.202 338.67 189.936 345.638 186.134 350.34ZM360.372 311.864C328.686 354.108 261.012 339.87 217.62 341.904C217.62 341.904 209.916 342.372 202.178 343.638C202.178 343.638 205.078 342.404 208.848 340.97C239.3 330.368 253.708 328.3 272.218 318.798C307.072 301.06 341.526 262.25 348.698 221.872C335.424 260.716 295.198 294.092 258.544 307.662C233.43 316.932 188.068 325.934 188.068 325.934L186.234 324.966C155.35 309.93 154.414 243.012 210.548 221.406C235.13 211.936 258.644 217.138 285.194 210.802C313.544 204.068 346.33 182.794 359.67 155.054C374.612 199.434 392.592 268.918 360.372 311.864Z" fill="white"/>
</g>
<defs>
<linearGradient id="paint0_linear_171_1534" x1="256" y1="0" x2="256" y2="512" gradientUnits="userSpaceOnUse">
<stop stop-color="#6CAD18"/>
<stop offset="1" stop-color="#6FC600"/>
</linearGradient>
<clipPath id="clip0_171_1534">
<rect width="256" height="256" fill="white" transform="translate(128 128)"/>
</clipPath>
</defs>
</svg>
