<svg width="512" height="512" viewBox="0 0 512 512" fill="none" xmlns="http://www.w3.org/2000/svg">
<rect width="512" height="512" rx="50" fill="url(#paint0_linear_171_1547)"/>
<g clip-path="url(#clip0_171_1547)">
<path d="M256.008 179.204C221.874 179.204 200.548 196.264 192.008 230.398C204.804 213.336 219.742 206.938 236.804 211.204C246.546 213.632 253.508 220.696 261.218 228.524C273.766 241.258 288.29 256 320.008 256C354.14 256 375.468 238.938 384.008 204.796C371.21 221.868 356.274 228.266 339.21 224C329.47 221.57 322.516 214.508 314.796 206.68C302.256 193.946 287.736 179.204 256.008 179.204ZM192.008 256C157.876 256 136.548 273.062 128.008 307.204C140.804 290.132 155.74 283.734 172.804 288C182.546 290.43 189.508 297.492 197.218 305.32C209.766 318.054 224.29 332.796 256.008 332.796C290.14 332.796 311.468 315.736 320.008 281.602C307.21 298.664 292.274 305.062 275.21 300.796C265.47 298.368 258.516 291.304 250.796 283.476C238.256 270.742 223.736 256 192.008 256Z" fill="white"/>
</g>
<defs>
<linearGradient id="paint0_linear_171_1547" x1="256" y1="0" x2="256" y2="512" gradientUnits="userSpaceOnUse">
<stop stop-color="#38BDF8"/>
<stop offset="1" stop-color="#216F92"/>
</linearGradient>
<clipPath id="clip0_171_1547">
<rect width="256" height="256" fill="white" transform="translate(128 128)"/>
</clipPath>
</defs>
</svg>
