<svg width="512" height="512" viewBox="0 0 512 512" fill="none" xmlns="http://www.w3.org/2000/svg">
<rect width="512" height="512" rx="50" fill="url(#paint0_linear_171_1577)"/>
<path d="M311.114 131.84L226.1 148.496C225.638 148.585 225.218 148.825 224.908 149.179C224.598 149.533 224.415 149.98 224.388 150.45L219.154 238.786C219.129 239.117 219.184 239.449 219.312 239.755C219.441 240.06 219.64 240.332 219.893 240.546C220.147 240.76 220.447 240.911 220.77 240.986C221.093 241.062 221.43 241.059 221.752 240.98L245.424 235.508C248.312 234.844 250.984 237.452 250.388 240.356L243.354 274.792C243.271 275.154 243.286 275.531 243.397 275.885C243.509 276.24 243.712 276.558 243.987 276.808C244.262 277.057 244.598 277.23 244.961 277.307C245.324 277.384 245.701 277.363 246.054 277.246L260.67 272.8C263.62 271.906 266.528 274.562 265.91 277.582L254.73 331.676C254.474 332.916 255.114 333.704 256.006 334.07C256.898 334.436 257.906 334.324 258.592 333.262L259.812 331.372L329.064 193.16C329.884 191.524 328.556 189.776 326.772 190.12L302.4 194.826C299.42 195.406 296.816 192.554 297.662 189.638L313.564 134.514C313.675 134.164 313.691 133.791 313.612 133.432C313.533 133.074 313.361 132.743 313.113 132.472C312.866 132.201 312.551 132 312.201 131.889C311.851 131.778 311.478 131.761 311.12 131.84H311.114ZM140.172 157.72C139.863 157.71 139.553 157.724 139.246 157.76C135.034 158.268 132.312 163.034 134.61 167.062L251.774 372.522C254.18 376.742 260.274 376.718 262.648 372.476L377.532 167.04C380.11 162.43 376.156 156.906 370.96 157.852L305.472 169.79L299.586 190.19V190.196C299.475 190.545 299.459 190.916 299.537 191.274C299.616 191.631 299.787 191.962 300.033 192.232C300.28 192.502 300.593 192.703 300.942 192.814C301.291 192.925 301.662 192.942 302.02 192.864H302.024L326.39 188.156V188.16C329.682 187.522 332.362 191.052 330.856 194.054L261.55 332.364L260.274 334.348C259.753 335.157 258.965 335.757 258.047 336.045C257.129 336.332 256.139 336.289 255.25 335.922C254.359 335.559 253.623 334.895 253.171 334.046C252.718 333.197 252.578 332.216 252.774 331.274L263.954 277.18C264.037 276.817 264.023 276.439 263.912 276.084C263.801 275.729 263.598 275.41 263.323 275.159C263.049 274.908 262.712 274.735 262.349 274.657C261.985 274.578 261.607 274.598 261.254 274.714L246.636 279.16C243.692 280.056 240.782 277.41 241.396 274.394L248.43 239.958C248.509 239.608 248.498 239.244 248.397 238.9C248.295 238.556 248.107 238.244 247.851 237.993C247.595 237.742 247.278 237.561 246.932 237.468C246.586 237.374 246.222 237.371 245.874 237.458L222.204 242.93C219.548 243.538 217.004 241.388 217.16 238.668L221.106 172.114L141.132 157.82C140.815 157.763 140.494 157.73 140.172 157.72Z" fill="white"/>
<defs>
<linearGradient id="paint0_linear_171_1577" x1="256" y1="0" x2="256" y2="512" gradientUnits="userSpaceOnUse">
<stop stop-color="#5733BD"/>
<stop offset="1" stop-color="#FECC6B"/>
</linearGradient>
</defs>
</svg>
