<svg width="512" height="512" viewBox="0 0 512 512" fill="none" xmlns="http://www.w3.org/2000/svg">
<rect width="512" height="512" rx="50" fill="url(#paint0_linear_70_142)"/>
<path d="M351.965 304.665C346.639 316.494 344.073 321.781 337.222 332.221C327.632 346.809 314.104 365.026 297.393 365.141C282.515 365.276 278.675 355.435 258.472 355.609C238.287 355.705 234.08 365.334 219.183 365.18C202.453 365.026 189.659 348.623 180.068 334.054C153.246 293.203 150.409 245.308 166.985 219.836C178.718 201.774 197.262 191.161 214.687 191.161C232.44 191.161 243.594 200.906 258.259 200.906C272.5 200.906 281.165 191.141 301.697 191.141C317.211 191.141 333.614 199.593 345.346 214.182C306.984 235.215 313.217 289.999 351.965 304.665ZM286.105 174.836C293.573 165.245 299.246 151.718 297.181 137.94C285.005 138.77 270.764 146.546 262.447 156.619C254.902 165.805 248.649 179.428 251.081 192.608C264.376 193.033 278.135 185.102 286.105 174.836Z" fill="url(#paint1_linear_70_142)"/>
<defs>
<linearGradient id="paint0_linear_70_142" x1="497.5" y1="67" x2="29.5" y2="364.5" gradientUnits="userSpaceOnUse">
<stop stop-color="#EAEAEA"/>
<stop offset="1" stop-color="#F4F4F4"/>
</linearGradient>
<linearGradient id="paint1_linear_70_142" x1="254.333" y1="137.94" x2="254.333" y2="365.182" gradientUnits="userSpaceOnUse">
<stop stop-color="#A1A1A1"/>
<stop offset="1" stop-color="#727272"/>
</linearGradient>
</defs>
</svg>
