<svg width="512" height="512" viewBox="0 0 512 512" fill="none" xmlns="http://www.w3.org/2000/svg">
<rect width="512" height="512" rx="50" fill="url(#paint0_linear_166_622)"/>
<path d="M377.474 244.756L267.242 134.528C260.898 128.18 250.602 128.18 244.248 134.528L221.36 157.42L250.396 186.456C257.146 184.178 264.882 185.706 270.26 191.084C275.666 196.496 277.182 204.298 274.848 211.07L302.832 239.056C309.602 236.722 317.416 238.23 322.82 243.646C330.38 251.2 330.38 263.446 322.82 271.004C321.023 272.802 318.89 274.227 316.543 275.2C314.195 276.173 311.678 276.674 309.137 276.674C306.596 276.674 304.079 276.173 301.731 275.2C299.384 274.227 297.251 272.802 295.454 271.004C292.755 268.303 290.915 264.864 290.166 261.12C289.417 257.376 289.792 253.494 291.244 249.962L265.148 223.866L265.144 292.548C267.037 293.481 268.766 294.715 270.262 296.204C277.818 303.758 277.818 316 270.262 323.57C262.704 331.124 250.454 331.124 242.904 323.57C235.348 316.002 235.348 303.76 242.904 296.204C244.714 294.391 246.868 292.956 249.238 291.984V222.666C246.866 221.697 244.712 220.261 242.904 218.444C237.18 212.724 235.802 204.324 238.738 197.292L210.112 168.666L134.528 244.246C131.479 247.296 129.766 251.433 129.766 255.746C129.766 260.059 131.479 264.196 134.528 267.246L244.762 377.474C251.11 383.822 261.402 383.822 267.76 377.474L377.476 267.758C380.525 264.707 382.237 260.57 382.237 256.257C382.236 251.943 380.523 247.807 377.474 244.756Z" fill="url(#paint1_linear_166_622)"/>
<defs>
<linearGradient id="paint0_linear_166_622" x1="497.5" y1="67" x2="29.5" y2="364.5" gradientUnits="userSpaceOnUse">
<stop stop-color="#EAEAEA"/>
<stop offset="1" stop-color="#F4F4F4"/>
</linearGradient>
<linearGradient id="paint1_linear_166_622" x1="256.001" y1="129.767" x2="256.001" y2="382.235" gradientUnits="userSpaceOnUse">
<stop stop-color="#A1A1A1"/>
<stop offset="1" stop-color="#727272"/>
</linearGradient>
</defs>
</svg>
