<svg width="512" height="512" viewBox="0 0 512 512" fill="none" xmlns="http://www.w3.org/2000/svg">
<rect width="512" height="512" rx="50" fill="url(#paint0_linear_37_163)"/>
<g clip-path="url(#clip0_37_163)">
<path d="M104.863 233.939C104.166 233.939 104.003 233.598 104.344 233.064L107.993 228.392C108.334 227.872 109.195 227.531 109.892 227.531H171.776C172.459 227.531 172.637 228.05 172.296 228.57L169.344 233.064C169.003 233.598 168.127 234.102 167.608 234.102L104.863 233.939ZM78.6972 249.885C78.0001 249.885 77.8221 249.544 78.1781 249.025L81.8122 244.337C82.1534 243.818 83.0286 243.477 83.7257 243.477H162.758C163.455 243.477 163.796 243.996 163.618 244.515L162.239 248.669C162.061 249.366 161.378 249.707 160.681 249.707L78.6972 249.885ZM120.646 265.831C119.949 265.831 119.771 265.312 120.127 264.793L122.545 260.461C122.886 259.942 123.583 259.423 124.28 259.423H158.946C159.643 259.423 159.984 259.942 159.984 260.639L159.643 264.793C159.643 265.49 158.946 266.009 158.426 266.009L120.646 265.831ZM300.559 230.824C289.642 233.598 282.181 235.675 271.442 238.449C268.831 239.131 268.668 239.309 266.398 236.713C263.817 233.761 261.904 231.863 258.27 230.127C247.337 224.757 236.761 226.315 226.897 232.723C215.105 240.347 209.038 251.621 209.216 265.653C209.379 279.522 218.917 290.959 232.608 292.872C244.4 294.43 254.265 290.276 262.082 281.436C263.639 279.522 265.019 277.445 266.754 275.013H233.305C229.671 275.013 228.796 272.758 230.012 269.821C232.267 264.451 236.42 255.433 238.853 250.923C239.224 250.088 239.832 249.38 240.602 248.887C241.372 248.394 242.27 248.138 243.184 248.15H306.27C305.929 252.837 305.929 257.509 305.232 262.197C303.436 274.537 298.548 286.222 291.022 296.165C278.547 312.63 262.245 322.865 241.627 325.624C224.642 327.879 208.86 324.586 195.005 314.202C182.175 304.487 174.891 291.656 172.993 275.71C170.738 256.812 176.286 239.828 187.722 224.921C200.034 208.812 216.321 198.577 236.257 194.942C252.544 191.991 268.149 193.904 282.181 203.427C291.378 209.509 297.949 217.815 302.295 227.872C303.333 229.43 302.636 230.305 300.559 230.824ZM357.935 326.677C342.152 326.321 327.764 321.812 315.63 311.414C305.536 302.907 298.882 291.017 296.91 277.965C293.795 258.385 299.165 241.044 310.958 225.618C323.61 208.975 338.859 200.312 359.492 196.678C377.174 193.563 393.817 195.284 408.887 205.519C422.578 214.864 431.078 227.531 433.333 244.159C436.27 267.566 429.52 286.627 413.397 302.929C401.96 314.544 387.913 321.812 371.789 325.105C367.117 325.98 362.444 326.143 357.935 326.677ZM399.171 256.649C399.008 254.394 399.008 252.659 398.667 250.923C395.552 233.761 379.769 224.06 363.304 227.872C347.181 231.507 336.782 241.742 332.97 258.029C329.855 271.557 336.441 285.248 348.916 290.795C358.454 294.949 367.977 294.43 377.174 289.757C390.865 282.637 398.296 271.557 399.171 256.649Z" fill="url(#paint1_linear_37_163)"/>
</g>
<defs>
<linearGradient id="paint0_linear_37_163" x1="497.5" y1="67" x2="29.5" y2="364.5" gradientUnits="userSpaceOnUse">
<stop stop-color="#EAEAEA"/>
<stop offset="1" stop-color="#F4F4F4"/>
</linearGradient>
<linearGradient id="paint1_linear_37_163" x1="256.001" y1="193.667" x2="256.001" y2="326.677" gradientUnits="userSpaceOnUse">
<stop stop-color="#C4C4C4"/>
<stop offset="1" stop-color="#727272"/>
</linearGradient>
<clipPath id="clip0_37_163">
<rect width="356" height="356" fill="white" transform="translate(78 75)"/>
</clipPath>
</defs>
</svg>
