<svg width="512" height="512" viewBox="0 0 512 512" fill="none" xmlns="http://www.w3.org/2000/svg">
<rect width="512" height="512" rx="50" fill="url(#paint0_linear_20_111)"/>
<path d="M366.016 130H146.008C137.172 130 130 137.172 130 146.008V365.992C130 374.828 137.172 382 146.008 382H365.992C374.828 382 382 374.828 382 366.016V146.008C382 137.172 374.828 130 366.016 130ZM268 323.102C268 347.078 253.938 358 233.406 358C214.844 358 201.461 345.555 196 334L214.867 322.586C218.5 329.031 224.031 334 232 334C239.617 334 244 331.023 244 319.445V244H268V323.102ZM320.055 358C298.797 358 286.727 347.289 280 334L298 322C302.898 330.016 308.242 337.68 319.539 337.68C329.031 337.68 334 332.945 334 326.383C334 318.555 328.844 315.766 318.414 311.195L312.695 308.734C296.172 301.703 285.18 292.891 285.18 274.234C285.18 257.078 298.281 244 318.719 244C333.273 244 343.727 249.062 351.273 262.328L333.461 273.789C329.523 266.734 325.305 263.969 318.719 263.969C312.016 263.969 307.773 268.234 307.773 273.789C307.773 280.656 312.016 283.422 321.836 287.688L327.555 290.148C347.031 298.469 358 306.977 358 326.102C358 346.703 341.805 358 320.055 358Z" fill="url(#paint1_linear_20_111)"/>
<defs>
<linearGradient id="paint0_linear_20_111" x1="497.5" y1="67" x2="29.5" y2="364.5" gradientUnits="userSpaceOnUse">
<stop stop-color="#EAEAEA"/>
<stop offset="1" stop-color="#F4F4F4"/>
</linearGradient>
<linearGradient id="paint1_linear_20_111" x1="256" y1="130" x2="256" y2="382" gradientUnits="userSpaceOnUse">
<stop stop-color="#A1A1A1"/>
<stop offset="1" stop-color="#727272"/>
</linearGradient>
</defs>
</svg>
