<svg width="512" height="512" viewBox="0 0 512 512" fill="none" xmlns="http://www.w3.org/2000/svg">
<rect width="512" height="512" rx="50" fill="url(#paint0_linear_165_484)"/>
<path d="M256.226 128L215.2 148.48L257.94 170.028L297.708 148.8L256.226 128ZM195.266 158.434L148.308 181.854L192.246 203.914L238.024 180.012L195.264 158.432L195.266 158.434ZM317.536 158.75L277.468 179.876L322.4 202.544L363.612 181.856L317.536 158.75ZM257.64 189.914L211.964 213.824L255.964 235.91L302.484 212.558L257.64 189.914ZM136.23 194.64V324.594L166.312 340.722V272.762C166.312 272.762 207.266 351.458 207.688 352.324C208.114 353.184 212.202 361.462 216.606 364.378C222.446 368.258 247.524 383.338 247.524 383.338L247.54 251.434L213.704 234.41V307.942C213.704 307.942 172.304 219.874 168.48 211.956C167.988 210.932 165.954 209.816 165.438 209.538C157.974 205.644 136.23 194.64 136.23 194.64ZM375.77 196.496L332.828 217.844L332.864 273.98L375.77 252.18V196.496ZM315.398 226.516L265.28 251.434V307.48L315.456 282.54L315.398 226.516ZM375.77 272.046L332.876 293.692L332.91 350.246L375.77 328.866V272.046ZM315.476 302.306L265.276 327.4V384L315.524 358.926L315.476 302.306Z" fill="url(#paint1_linear_165_484)"/>
<defs>
<linearGradient id="paint0_linear_165_484" x1="497.5" y1="67" x2="29.5" y2="364.5" gradientUnits="userSpaceOnUse">
<stop stop-color="#EAEAEA"/>
<stop offset="1" stop-color="#F4F4F4"/>
</linearGradient>
<linearGradient id="paint1_linear_165_484" x1="256" y1="128" x2="256" y2="384" gradientUnits="userSpaceOnUse">
<stop stop-color="#A1A1A1"/>
<stop offset="1" stop-color="#727272"/>
</linearGradient>
</defs>
</svg>
