<svg width="512" height="512" viewBox="0 0 512 512" fill="none" xmlns="http://www.w3.org/2000/svg">
<rect width="512" height="512" rx="50" fill="url(#paint0_linear_20_80)"/>
<path d="M160 138.667C148.214 138.667 138.667 148.213 138.667 160V352C138.667 363.787 148.214 373.333 160 373.333H352C363.787 373.333 373.334 363.787 373.334 352V160C373.334 148.213 363.787 138.667 352 138.667H160ZM181.334 202.583H223.771C244.774 202.583 259.146 216.951 259.146 238.167C259.146 259.02 244.249 273.313 222.959 273.313H200.146V307.813H181.334V202.583ZM200.146 218.333V257.708H218.75C232.169 257.708 240.042 250.711 240.042 238.167C240.042 225.271 232.37 218.333 218.813 218.333H200.146ZM300.875 226.417C319.83 226.417 331.73 234.806 333.042 249.313H316.063C314.751 243.702 309.417 240.125 300.959 240.125C292.724 240.125 286.521 244.073 286.521 249.833C286.521 254.356 290.312 257.124 298.334 258.938L312.396 262.146C327.639 265.57 334.709 272.142 334.709 283.875C334.709 299.203 320.633 309.417 300.729 309.417C280.826 309.417 268.283 300.798 266.896 286.292H284.771C286.52 292.201 292.122 295.708 301.167 295.708C310.276 295.708 316.625 291.701 316.625 285.792C316.625 281.269 313.209 278.415 305.625 276.729L291.479 273.458C276.162 269.96 268.959 262.886 268.959 250.854C268.959 236.412 282.059 226.417 300.875 226.417Z" fill="url(#paint1_linear_20_80)"/>
<defs>
<linearGradient id="paint0_linear_20_80" x1="497.5" y1="67" x2="29.5" y2="364.5" gradientUnits="userSpaceOnUse">
<stop stop-color="#EAEAEA"/>
<stop offset="1" stop-color="#F4F4F4"/>
</linearGradient>
<linearGradient id="paint1_linear_20_80" x1="256" y1="138.667" x2="256" y2="373.333" gradientUnits="userSpaceOnUse">
<stop stop-color="#A1A1A1"/>
<stop offset="1" stop-color="#727272"/>
</linearGradient>
</defs>
</svg>
