<svg width="512" height="512" viewBox="0 0 512 512" fill="none" xmlns="http://www.w3.org/2000/svg">
<rect width="512" height="512" rx="50" fill="url(#paint0_linear_165_496)"/>
<path fill-rule="evenodd" clip-rule="evenodd" d="M374.516 281.568C373.616 275.732 368.714 271.91 363.012 271.652C360.948 271.558 358.852 271.774 356.794 272.036C354.308 272.352 351.852 272.912 349.372 273.282C347.658 273.538 345.92 273.656 344.208 273.832L344.166 273.61C347.362 267.574 350.692 261.604 353.716 255.482C356.034 250.786 358.018 245.92 360.068 241.094C363.46 233.098 366.17 224.854 368.414 216.476C370.564 208.454 372.404 200.344 372.982 192.022C373.214 188.698 373.374 185.36 373.356 182.032C373.34 179.378 373.054 176.72 372.788 174.074C372.488 171.042 371.572 168.168 370.304 165.402C368.632 161.758 366.04 158.768 363.312 155.928C361.128 153.654 358.726 151.582 356.344 149.512C352.948 146.558 349.13 144.2 345.164 142.106C340.671 139.719 335.911 137.872 330.984 136.606C327.998 135.844 324.944 135.278 321.92 134.674C320.832 134.454 319.742 134 318.654 134H298.172C297.432 134 296.698 134.382 295.952 134.466C291.048 135.012 286.202 135.936 281.496 137.394C279.736 137.94 278.128 137.596 276.456 137.442C275.174 137.324 273.914 136.98 272.632 136.916C267.748 136.672 262.858 136.314 257.976 136.366C253.298 136.414 248.668 137.184 244.14 138.47C240.35 139.546 236.642 140.86 233.246 142.852C231.792 143.704 230.64 143.544 229.136 143.11C224.082 141.652 218.992 140.282 213.858 139.132C210.658 138.416 207.368 138.06 204.1 137.718C200.964 137.392 197.816 137.196 194.664 137.13C191.588 137.064 188.49 137.066 185.428 137.338C180.551 137.762 175.744 138.778 171.112 140.364C165.983 142.115 161.19 144.73 156.94 148.094C152.606 151.524 149.13 155.712 146.334 160.494C143.388 165.54 141.368 170.942 140.112 176.616C139.432 179.69 139.002 182.85 138.536 185.972C138.39 186.944 140 187.916 138 188.884V202.472C140 203.376 138.416 204.278 138.532 205.184C138.81 207.362 139.056 209.558 139.424 211.72C140.006 215.142 140.696 218.554 141.4 221.954C142.378 226.706 143.408 231.447 144.492 236.176C145.284 239.616 146.186 243.036 147.13 246.438C148.572 251.634 149.992 256.84 151.622 261.978C153.136 266.752 154.87 271.458 156.59 276.164C158.972 282.674 161.824 288.974 165.244 295.012C168.202 300.24 171.582 305.136 176.116 309.164C179.104 311.818 182.43 313.858 186.302 314.878C189.344 315.678 192.436 315.774 195.55 315.136C199.098 314.414 202.412 312.827 205.198 310.514C205.524 310.246 205.882 310.042 206.268 310.534C207.738 312.396 209.706 313.638 211.764 314.712C217.318 317.608 223.37 318.476 229.518 318.83C231.006 318.916 232.51 318.702 234.01 318.66C236.932 318.58 239.772 318.01 242.566 317.202C244.03 316.778 245.46 316.24 246.95 315.738C247.028 317.324 247.128 318.852 247.174 320.38L247.382 328.712C247.42 329.98 247.47 331.252 247.588 332.514C247.89 335.768 248.186 339.024 248.574 342.268C248.844 344.504 249.124 346.758 249.65 348.94C250.705 353.345 252.149 357.647 253.966 361.796C255.706 365.823 258.379 369.378 261.766 372.166C266.206 375.838 271.41 377.404 277.03 377.694C279.354 377.816 281.744 377.702 284.032 377.286C287.669 376.64 291.266 375.788 294.806 374.736C301.988 372.568 308.196 368.824 312.834 362.774C315.474 359.326 317.642 355.596 319.034 351.478C320.182 348.076 321.264 344.64 322.124 341.158C322.804 338.414 323.14 335.584 323.554 332.782C323.828 330.928 323.992 329.056 324.164 327.188C324.444 324.154 324.73 321.122 324.932 318.082C325.072 315.966 325.066 313.84 325.15 311.72C325.176 311.074 325.28 310.432 325.34 309.788C325.396 309.192 325.696 308.986 326.304 308.996C328.446 309.028 330.592 309.084 332.728 308.988C335.122 308.88 337.538 308.778 339.894 308.382C343.251 307.821 346.581 307.109 349.874 306.248C353.76 305.232 357.324 303.412 360.754 301.338C364.75 298.924 368.392 296.092 371.348 292.444C373.918 289.262 375.136 285.584 374.516 281.568ZM367.692 283.532C367.56 285.362 366.722 286.93 365.506 288.27C359.768 294.596 352.57 298.434 344.336 300.324C341.208 301.04 337.98 301.412 334.778 301.708C332.042 301.949 329.294 302.013 326.55 301.902C324.538 301.826 322.542 301.366 320.486 301.07C320.28 302.95 320.084 304.908 319.846 306.862L318.888 314.352C318.598 316.726 318.372 319.108 318.074 321.48C317.782 323.782 317.418 326.076 317.112 328.378C316.826 330.522 316.616 332.676 316.298 334.816C315.808 338.096 315.34 341.384 314.7 344.638C313.932 348.528 312.754 352.296 310.832 355.804C308.488 360.086 305.164 363.348 300.934 365.764C296.574 368.256 291.808 369.552 286.976 370.636C283.556 371.404 280.032 371.53 276.568 371.218C270.56 370.674 265.432 368.104 261.556 363.446C257.856 359 255.352 353.904 254.456 348.136C254.038 345.39 253.71 342.631 253.474 339.864C253.209 336.789 253.009 333.708 252.876 330.624C252.699 326.712 252.567 322.797 252.482 318.882C252.376 314.07 252.342 309.258 252.274 304.446L252.262 304.262C249.814 305.73 247.408 307.338 244.856 308.662C241.874 310.205 238.609 311.125 235.26 311.368C232.624 311.568 229.954 311.75 227.33 311.54C223.028 311.194 218.73 310.52 214.878 308.402C213.316 307.542 211.686 306.496 210.61 305.122C208.03 301.83 209.266 297.67 213.156 295.668C215.844 294.282 218.778 293.704 221.692 293.03C224.228 292.455 226.738 291.768 229.214 290.972C231.658 290.172 233.2 288.19 234.722 286.246L237.134 283.144C236.128 283.038 235.18 282.93 234.232 282.842C231.354 282.57 228.608 281.778 225.982 280.614C223.734 279.62 223.7 279.512 222.052 281.3C219.3 284.288 216.624 287.346 213.928 290.384C211.944 292.618 209.972 294.866 207.998 297.106C206.042 299.322 204.21 301.664 202.104 303.726C198.976 306.788 195.206 308.63 190.708 308.422C187.822 308.29 185.18 307.278 182.804 305.624C177.9 302.208 174.596 297.43 171.588 292.412C167.734 285.982 164.776 279.132 162.244 272.094C160.492 267.23 158.732 262.362 157.202 257.428C155.54 252.066 154.082 246.636 152.648 241.208C151.577 237.107 150.589 232.985 149.684 228.844C148.629 224.141 147.653 219.421 146.756 214.686C146.16 211.488 145.814 208.244 145.332 205.024C144.682 200.684 144.562 196.304 144.798 191.946C145.008 188.02 145.572 184.104 146.132 180.204C146.908 174.808 148.686 169.716 151.244 164.908C152.81 161.962 154.754 159.284 157.002 156.796C160.692 152.712 165.158 149.76 170.126 147.544C173.598 145.996 177.266 145.064 181.004 144.336C186.552 143.256 192.15 143.298 197.75 143.414C200.198 143.464 202.636 143.91 205.082 144.152C210.348 144.676 215.51 145.784 220.606 147.152C224.32 148.148 227.958 149.438 231.642 150.558C232.012 150.67 232.554 150.66 232.856 150.462C237.848 147.204 243.304 145.054 249.106 143.824C251.308 143.358 253.58 143.154 255.832 143.01C258.57 142.836 261.33 142.676 264.062 142.834C267.346 143.022 270.614 143.506 273.878 143.954C275.462 144.17 277.008 144.72 278.596 144.87C279.356 144.942 280.162 144.386 280.966 144.2C285.064 143.254 289.144 142.2 293.278 141.452C296.356 140.896 299.5 140.634 302.63 140.454C306.12 140.254 309.636 140.108 313.124 140.276C317.541 140.495 321.929 141.113 326.234 142.122C331.588 143.368 336.724 145.178 341.606 147.69C345.254 149.566 348.722 151.742 351.844 154.418C353.89 156.174 355.984 157.908 357.832 159.864C360.112 162.276 362.438 164.69 363.868 167.78C364.944 170.11 365.712 172.522 365.924 175.074C366.188 178.246 366.508 181.43 366.478 184.606C366.45 187.644 366.036 190.68 365.742 193.71C365.074 200.618 363.572 207.376 361.748 214.044C360.222 219.552 358.495 225.002 356.57 230.384C354.812 235.346 352.784 240.218 350.734 245.07C349.225 248.664 347.585 252.202 345.818 255.676C342.464 262.248 338.976 268.752 334.942 274.942C334.246 276.012 333.586 277.108 332.906 278.2C334.666 279.388 336.66 279.806 338.668 280.022C340.578 280.23 342.526 280.354 344.434 280.212C347.488 279.986 350.532 279.55 353.568 279.124C356.576 278.704 359.524 277.848 362.612 278.074C365.696 278.298 367.902 280.642 367.692 283.532ZM323.666 276.826C322.356 275.134 321.02 273.462 319.738 271.75C317.726 269.062 316.28 266.06 314.828 263.044C313.452 260.186 311.764 257.48 310.314 254.654C307.784 249.724 305.208 244.81 302.878 239.784C299.948 233.47 297.638 226.932 296.91 219.938C296.602 216.978 296.524 214.022 297.122 211.09C298.08 206.408 300.526 202.746 304.638 200.234C308.452 197.904 312.702 197.152 317.056 196.916C319.758 196.77 322.472 196.89 325.276 196.89L325.182 196.416C323.438 192.77 321.808 189.062 319.9 185.502C317.208 180.478 313.764 175.948 309.928 171.748C307.086 168.638 304.008 165.752 300.636 163.202C297.32 160.692 293.826 158.45 290.098 156.616C285.652 154.43 281.022 152.74 276.164 151.662C271.496 150.626 266.798 149.992 262.01 149.94C257.926 149.896 253.868 150.08 249.89 151.002C243.886 152.392 238.394 154.864 233.616 158.868C230.973 161.085 228.61 163.617 226.582 166.408C224.19 169.694 222.26 173.242 220.61 176.962C218.346 182.066 216.792 187.378 215.73 192.838C215.198 195.56 214.782 198.306 214.358 201.05C214.21 202.01 214.198 202.992 214.112 204.092C214.85 203.708 215.382 203.412 215.926 203.148L217.696 202.354C223.682 199.616 229.884 197.854 236.55 198.056C239.382 198.142 242.092 198.702 244.61 199.942C249.44 202.324 252.266 206.374 253.494 211.5C254.342 215.038 254.922 218.646 255.486 222.244C255.928 225.054 256.38 227.894 256.432 230.728C256.506 234.87 256.296 239.02 256.07 243.16C255.876 246.68 255.148 250.151 253.91 253.452C251.67 259.438 249.174 265.326 246.842 271.278C246.072 273.244 245.48 275.28 244.752 277.442C245.876 277.442 246.788 277.434 247.7 277.446C248.056 277.452 248.42 277.462 248.764 277.544C251.444 278.176 253.768 279.39 255.674 281.452C258.216 284.196 259.55 287.398 259.618 291.104C259.656 293.158 259.44 295.218 259.45 297.272C259.492 306.844 259.564 316.416 259.644 325.986C259.658 327.55 259.736 329.116 259.848 330.678C260.082 333.948 260.318 337.22 260.638 340.482C260.862 342.796 261.174 345.106 261.54 347.404C262.058 350.66 263.54 353.558 265.222 356.328C266.67 358.71 268.552 360.734 271.032 362.13C275.246 364.502 279.784 364.7 284.358 363.826C287.448 363.236 290.482 362.288 293.482 361.31C296.432 360.364 299.126 358.753 301.356 356.602C303.458 354.564 304.95 352.08 305.956 349.338C307.908 344.02 308.516 338.42 309.324 332.864C309.626 330.784 309.888 328.698 310.164 326.614C310.478 324.242 310.796 321.872 311.1 319.502C311.324 317.736 311.528 315.966 311.744 314.2C312.052 311.664 312.378 309.13 312.672 306.592C312.898 304.63 313.09 302.66 313.29 300.694C313.548 298.182 313.826 295.67 314.048 293.154C314.22 291.244 314.15 289.3 314.488 287.426C315.11 283.99 316.734 281.066 319.78 279.176C321.054 278.386 322.492 277.866 323.906 277.198L323.666 276.826ZM208.472 262.722C206.953 259.15 206.038 255.35 205.764 251.478C205.508 247.828 205.942 244.192 206.316 240.558C206.68 237.038 206.982 233.502 207.088 229.966C207.264 224.154 206.872 218.35 206.594 212.542C206.426 209.084 206.828 205.584 207.136 202.118C207.414 198.996 207.76 195.866 208.35 192.79C209.34 187.628 210.654 182.54 212.522 177.608C214.296 172.932 216.334 168.378 219.212 164.278C221.184 161.466 223.422 158.838 225.572 156.09L224.934 155.864C217.938 153.642 210.828 151.906 203.516 151.148C200.058 150.79 196.588 150.58 193.12 150.374C192.056 150.31 190.976 150.454 189.908 150.556C187.264 150.808 184.588 150.908 181.986 151.404C177.558 152.246 173.31 153.662 169.376 155.968C165.844 158.038 162.878 160.714 160.394 163.924C157.65 167.468 155.804 171.476 154.478 175.75C152.912 180.792 152.166 185.98 151.964 191.216C151.788 195.806 151.7 200.422 152.492 204.994C153.082 208.398 153.476 211.838 154.126 215.228C155.012 219.85 155.962 224.462 157.06 229.036C158.63 235.584 160.198 242.142 162.058 248.61C163.838 254.808 165.846 260.95 168.022 267.018C169.802 271.97 171.86 276.83 174.028 281.626C175.44 284.75 177.15 287.756 178.942 290.682C180.848 293.788 183.016 296.736 185.958 298.99C189.67 301.836 192.544 302.278 196.316 299.156C197.932 297.818 199.298 296.166 200.704 294.592C202.938 292.092 205.094 289.524 207.318 287.016C210.15 283.82 213.018 280.658 215.864 277.478C216.466 276.806 217.044 276.114 217.63 275.434L216.662 274.584C213.147 271.234 210.359 267.196 208.472 262.722ZM315.848 167.584C318.175 170.289 320.383 173.095 322.466 175.992C326.466 181.61 329.662 187.676 332.016 194.166C333.058 197.026 333.89 199.914 333.518 203.044C333.26 205.236 333.282 207.46 333.088 209.664C332.926 211.498 332.636 213.322 332.398 215.15C332.042 217.906 331.526 220.654 331.372 223.422C331.226 226.056 331.378 228.718 331.544 231.358C331.712 234.04 332.074 236.71 332.32 239.388C332.598 242.424 332.972 245.46 333.058 248.502C333.128 251 332.906 253.514 332.688 256.008C332.428 259.012 331.666 261.92 330.53 264.71C329.732 266.674 328.778 268.578 327.876 270.544L328.238 270.928L328.788 271.354L329.342 270.362C334.02 262.999 338.179 255.319 341.786 247.376C344.094 242.249 346.286 237.07 348.36 231.844C351.608 223.716 354.178 215.36 356.166 206.838C357.058 203.012 357.74 199.128 358.346 195.244C358.818 192.208 359.212 189.136 359.3 186.072C359.394 182.822 359.214 179.546 358.914 176.304C358.69 173.856 358.086 171.392 356.552 169.402C354.086 166.198 351.424 163.134 348.15 160.71C345.394 158.668 342.648 156.574 339.69 154.856C335 152.136 329.924 150.324 324.62 149.09C319.444 147.884 314.2 147.364 308.922 147.254C305.81 147.188 302.684 147.522 299.578 147.814C296.764 148.078 293.968 148.528 291.134 148.9C294.174 150.61 297.172 152.13 300 153.922C305.946 157.688 311.274 162.22 315.848 167.584ZM238.598 273.028C240.52 266.882 243.138 261.014 245.674 255.11C247.73 250.322 248.854 245.278 249.228 240.098C249.414 237.544 249.362 234.958 249.236 232.396C249.111 229.546 248.849 226.703 248.452 223.878C247.92 220.276 247.314 216.672 246.462 213.136C245.538 209.31 243.208 206.646 239.216 205.664C236.784 205.066 234.368 205.09 231.91 205.478C225.906 206.424 220.41 208.636 215.29 211.876C214.26 212.528 213.694 213.054 213.872 214.532C214.248 217.662 214.33 220.842 214.316 224.002C214.296 228.474 214.106 232.946 213.936 237.416C213.88 238.872 213.67 240.32 213.514 241.77C213.274 243.99 212.812 246.208 212.826 248.424C212.84 250.708 213.074 253.046 213.628 255.258C215.388 262.272 219.116 268.012 225.226 272.062C228.984 274.552 233.142 275.808 237.706 276.046C238.016 274.998 238.292 274.008 238.598 273.028ZM231.426 212.854C230.622 211.166 231.082 209.768 232.946 209.12C233.4 208.96 233.868 208.79 234.34 208.744C234.988 208.68 235.648 208.728 236.304 208.728C238.668 208.74 240.942 209.07 242.894 210.574C244.146 211.538 244.482 212.818 243.672 214.132C242.522 215.996 240.768 216.932 238.614 217.112C235.22 217.394 232.838 215.812 231.426 212.854ZM325.506 212.238C325.778 209.99 325.996 207.736 326.274 205.488C326.386 204.584 325.91 204.34 325.152 204.318C322.768 204.252 320.384 204.168 318 204.124C315.312 204.076 312.696 204.508 310.208 205.53C307.448 206.666 305.346 208.486 304.488 211.49C303.86 213.705 303.661 216.02 303.902 218.31C304.236 221.851 305.038 225.332 306.288 228.662C307.956 233.104 309.702 237.544 311.788 241.8C314.614 247.562 317.812 253.14 320.814 258.814C321.616 260.328 322.29 261.908 323.126 263.676C324.812 260.161 325.732 256.329 325.828 252.432C325.91 249.212 325.652 245.978 325.464 242.756C325.346 240.784 325.068 238.824 324.876 236.856C324.608 234.114 324.202 231.374 324.14 228.626C324.078 225.832 324.276 223.022 324.516 220.232C324.742 217.556 325.184 214.902 325.506 212.238ZM320.128 210.074C319.242 212.52 317.348 213.9 314.892 214.306C312.602 214.682 310.596 213.836 309.104 212.01C308.042 210.71 308.448 209.17 310.04 208.292C311.868 207.28 313.878 207.024 316.248 206.87C316.892 206.988 317.862 207.086 318.784 207.35C320.122 207.728 320.616 208.734 320.128 210.074ZM249.284 285.394C247.974 284.324 246.242 284.262 244.996 285.436C243.45 286.896 242.09 288.566 240.73 290.212C239.16 292.114 237.688 294.092 235.662 295.566C232.714 297.708 229.278 298.596 225.824 299.436C223.078 300.104 220.32 300.724 217.566 301.366L217.532 301.722C218.35 302.1 219.142 302.572 219.994 302.842C224.194 304.172 228.466 304.834 232.904 304.458C236.108 304.186 239.16 303.488 242.052 302.116C246.032 300.23 249.094 297.242 251.698 293.766C252.134 293.186 252.332 292.328 252.384 291.58C252.562 288.938 251.22 286.974 249.284 285.394ZM352.786 286.446C349.406 286.808 346.022 287.192 342.632 287.386C340.996 287.48 339.336 287.168 337.684 287.034C334.914 286.81 332.21 286.194 329.868 284.714C328.512 283.86 327.386 283.764 325.946 284.248C323.89 284.94 322.212 285.992 321.716 288.22C321.378 289.726 321.256 291.286 321.12 292.828C321.094 293.1 321.434 293.6 321.694 293.668C323.28 294.086 324.874 294.58 326.496 294.726C328.488 294.906 330.516 294.848 332.522 294.748C334.688 294.64 336.868 294.5 339.002 294.14C344.032 293.296 348.898 291.92 353.22 289.068C354.778 288.038 356.322 286.986 357.87 285.944L357.742 285.724C356.09 285.97 354.446 286.27 352.786 286.446Z" fill="url(#paint1_linear_165_496)"/>
<defs>
<linearGradient id="paint0_linear_165_496" x1="497.5" y1="67" x2="29.5" y2="364.5" gradientUnits="userSpaceOnUse">
<stop stop-color="#EAEAEA"/>
<stop offset="1" stop-color="#F4F4F4"/>
</linearGradient>
<linearGradient id="paint1_linear_165_496" x1="256.338" y1="134" x2="256.338" y2="377.74" gradientUnits="userSpaceOnUse">
<stop stop-color="#A1A1A1"/>
<stop offset="1" stop-color="#727272"/>
</linearGradient>
</defs>
</svg>
