<svg width="512" height="512" viewBox="0 0 512 512" fill="none" xmlns="http://www.w3.org/2000/svg">
<rect width="512" height="512" rx="50" fill="url(#paint0_linear_165_504)"/>
<g clip-path="url(#clip0_165_504)">
<path d="M260.914 128.028C258.608 127.876 256.304 128.36 254.254 129.428C252.204 130.496 250.487 132.106 249.29 134.084L153.55 290.228C152.303 292.261 151.65 294.604 151.667 296.99C151.684 299.375 152.37 301.708 153.646 303.724L200.782 378.096C202.277 380.44 204.496 382.232 207.102 383.201C209.708 384.169 212.559 384.261 215.222 383.462L351.246 342.648C352.993 342.125 354.607 341.233 355.98 340.032C357.353 338.832 358.452 337.35 359.202 335.688C359.953 334.027 360.339 332.223 360.332 330.399C360.326 328.576 359.928 326.775 359.166 325.118L271.726 135.418C270.775 133.314 269.264 131.512 267.359 130.209C265.453 128.905 263.226 128.151 260.92 128.028H260.914ZM264.504 175.928C265.521 175.806 266.55 176.021 267.434 176.538C268.318 177.055 269.008 177.848 269.4 178.794L329.72 318.362C329.989 318.982 330.123 319.652 330.114 320.328C330.104 321.004 329.952 321.67 329.666 322.283C329.38 322.896 328.968 323.441 328.456 323.882C327.944 324.323 327.344 324.651 326.696 324.844L232.704 352.892C231.914 353.126 231.077 353.153 230.274 352.969C229.471 352.784 228.729 352.396 228.121 351.84C227.512 351.285 227.058 350.582 226.801 349.799C226.544 349.016 226.494 348.18 226.656 347.372L260.316 179.748C260.505 178.741 261.017 177.823 261.774 177.134C262.532 176.444 263.494 176.021 264.514 175.928H264.504Z" fill="url(#paint1_linear_165_504)"/>
</g>
<defs>
<linearGradient id="paint0_linear_165_504" x1="497.5" y1="67" x2="29.5" y2="364.5" gradientUnits="userSpaceOnUse">
<stop stop-color="#EAEAEA"/>
<stop offset="1" stop-color="#F4F4F4"/>
</linearGradient>
<linearGradient id="paint1_linear_165_504" x1="256" y1="128" x2="256" y2="384.001" gradientUnits="userSpaceOnUse">
<stop stop-color="#A1A1A1"/>
<stop offset="1" stop-color="#727272"/>
</linearGradient>
<clipPath id="clip0_165_504">
<rect width="256" height="256" fill="white" transform="translate(128 128)"/>
</clipPath>
</defs>
</svg>
