<svg width="512" height="512" viewBox="0 0 512 512" fill="none" xmlns="http://www.w3.org/2000/svg">
<rect width="512" height="512" rx="50" fill="url(#paint0_linear_165_513)"/>
<path d="M227.106 218.538C214.584 219.267 206.439 226.26 200.408 235.829V220.509H188.882V316.366H200.408V289.52L208.296 290.277C220.913 291.674 228.699 287.392 232.866 284.668C237.034 281.945 245.379 273.283 248.034 258.88C253.119 226.851 236.08 218.943 227.106 218.538ZM259.217 220.661L291.039 286.83C281.411 310.304 271.524 310.023 258.047 307.115V317.275C282.73 321.273 290.308 310.208 296.272 299.227C298.598 295.112 300.683 290.927 302.49 286.64L330.036 220.661H318.115L297.058 271.988L271.755 220.661H259.225L259.217 220.661ZM175.838 222.48L108.797 255.847L175.838 289.368V279.046L130.03 255.847L175.838 232.915V222.48ZM336.16 222.632V233.068L381.967 256L336.16 279.199V289.521L403.201 256L336.16 222.632ZM223.159 229.759C234.205 229.759 237.347 242.35 236.356 254.939C233.609 276.529 219.789 284.362 200.408 279.209V249.63C205.861 239.352 216.211 229.759 223.159 229.759Z" fill="url(#paint1_linear_165_513)"/>
<defs>
<linearGradient id="paint0_linear_165_513" x1="497.5" y1="67" x2="29.5" y2="364.5" gradientUnits="userSpaceOnUse">
<stop stop-color="#EAEAEA"/>
<stop offset="1" stop-color="#F4F4F4"/>
</linearGradient>
<linearGradient id="paint1_linear_165_513" x1="255.999" y1="218.537" x2="255.999" y2="318.11" gradientUnits="userSpaceOnUse">
<stop stop-color="#A1A1A1"/>
<stop offset="1" stop-color="#727272"/>
</linearGradient>
</defs>
</svg>
