<svg width="512" height="512" viewBox="0 0 512 512" fill="none" xmlns="http://www.w3.org/2000/svg">
<rect width="512" height="512" rx="50" fill="url(#paint0_linear_37_111)"/>
<path d="M209.917 140.604C203.399 140.604 197.355 142.063 192 145.146C175.265 154.808 168.896 178.353 172.271 207.667C145.202 219.401 128 236.679 128 256C128 275.321 145.202 292.599 172.271 304.333C168.897 333.646 175.265 357.192 192 366.854C197.344 369.937 203.389 371.396 209.917 371.396C223.811 371.396 239.87 364.422 256 352.458C272.131 364.422 288.209 371.396 302.104 371.396C308.622 371.396 314.666 369.937 320.021 366.854C336.755 357.193 343.125 333.647 339.75 304.333C366.809 292.599 384 275.317 384 256C384 236.679 366.798 219.401 339.729 207.667C343.103 178.354 336.735 154.808 320 145.146C314.656 142.053 308.611 140.604 302.083 140.604C288.189 140.604 272.13 147.578 256 159.542C239.869 147.578 223.807 140.604 209.917 140.604ZM209.917 159.271C218.254 159.271 229.28 163.704 241.25 171.917C234.212 178.559 227.319 186.111 220.688 194.521C209.932 196.063 199.79 198.311 190.396 201.125C190.345 200.474 190.226 199.79 190.188 199.146C189.046 180.159 193.216 166.006 201.333 161.313C203.733 159.926 206.535 159.271 209.917 159.271ZM302.083 159.271C305.454 159.271 308.267 159.926 310.667 161.313C318.784 165.995 322.954 180.159 321.812 199.146C321.774 199.79 321.655 200.474 321.604 201.125C312.204 198.31 302.055 196.063 291.292 194.521C284.66 186.113 277.788 178.558 270.75 171.917C282.72 163.705 293.75 159.271 302.083 159.271ZM256 183.771C258.892 186.403 261.763 189.184 264.667 192.229C261.789 192.133 258.927 192 256 192C253.08 192 250.225 192.133 247.354 192.229C250.255 189.188 253.111 186.4 256 183.771ZM256 210.667C264.839 210.667 273.217 211.161 281.167 212.021C286.015 218.61 290.792 225.577 295.271 233.333C299.563 240.768 303.359 248.379 306.708 256C303.359 263.626 299.566 271.248 295.271 278.688C290.806 286.422 286.04 293.344 281.208 299.917C272.978 300.817 264.536 301.333 256 301.333C247.161 301.333 238.783 300.839 230.833 299.979C225.985 293.39 221.208 286.444 216.729 278.688C212.434 271.248 208.642 263.626 205.292 256C208.64 248.379 212.437 240.768 216.729 233.333C221.196 225.599 225.959 218.657 230.792 212.083C239.022 211.183 247.464 210.667 256 210.667ZM306.625 216.438C310.857 217.459 314.925 218.562 318.75 219.792C317.884 223.707 316.824 227.697 315.625 231.729C314.252 229.154 312.921 226.57 311.438 224C309.911 221.357 308.216 218.982 306.625 216.438ZM205.354 216.458C203.769 218.995 202.084 221.365 200.562 224C199.079 226.57 197.747 229.153 196.375 231.729C195.173 227.689 194.097 223.694 193.229 219.771C197.124 218.54 201.182 217.451 205.354 216.458ZM175.667 226.625C177.914 236.114 181.032 245.951 185.042 255.979C181.04 265.983 177.936 275.802 175.688 285.271C157.112 276.301 146.667 265.135 146.667 256C146.667 246.624 156.82 235.939 173.833 227.438C174.414 227.147 175.073 226.909 175.667 226.625ZM336.312 226.729C354.888 235.699 365.333 246.865 365.333 256C365.333 265.376 355.18 276.061 338.167 284.563C337.586 284.853 336.927 285.091 336.333 285.375C334.085 275.88 330.992 266.034 326.979 256C330.976 246.004 334.066 236.19 336.312 226.729ZM256 234.667C244.213 234.667 234.667 244.213 234.667 256C234.667 267.787 244.213 277.333 256 277.333C267.787 277.333 277.333 267.787 277.333 256C277.333 244.213 267.787 234.667 256 234.667ZM196.375 280.271C197.748 282.848 199.099 285.43 200.583 288C202.108 290.641 203.786 293.02 205.375 295.563C201.143 294.541 197.075 293.438 193.25 292.208C194.117 288.291 195.175 284.305 196.375 280.271ZM315.625 280.292C316.825 284.328 317.904 288.31 318.771 292.229C314.876 293.46 310.818 294.55 306.646 295.542C308.231 293.005 309.916 290.635 311.438 288C312.918 285.435 314.255 282.862 315.625 280.292ZM190.396 310.875C199.796 313.69 209.945 315.937 220.708 317.479C227.342 325.892 234.209 333.461 241.25 340.104C229.28 348.315 218.254 352.75 209.917 352.75C206.546 352.75 203.733 352.074 201.333 350.688C193.216 346.005 189.046 331.862 190.188 312.875C190.227 312.224 190.344 311.533 190.396 310.875ZM321.604 310.875C321.655 311.533 321.774 312.224 321.812 312.875C322.954 331.862 318.784 345.994 310.667 350.688C308.267 352.074 305.465 352.75 302.083 352.75C293.746 352.75 282.72 348.316 270.75 340.104C277.792 333.46 284.678 325.893 291.312 317.479C302.068 315.937 312.21 313.689 321.604 310.875ZM247.333 319.771C250.211 319.868 253.073 320 256 320C258.927 320 261.789 319.868 264.667 319.771C261.763 322.816 258.892 325.598 256 328.229C253.108 325.597 250.237 322.816 247.333 319.771Z" fill="url(#paint1_linear_37_111)"/>
<defs>
<linearGradient id="paint0_linear_37_111" x1="497.5" y1="67" x2="29.5" y2="364.5" gradientUnits="userSpaceOnUse">
<stop stop-color="#EAEAEA"/>
<stop offset="1" stop-color="#F4F4F4"/>
</linearGradient>
<linearGradient id="paint1_linear_37_111" x1="256" y1="140.604" x2="256" y2="371.396" gradientUnits="userSpaceOnUse">
<stop stop-color="#C4C4C4"/>
<stop offset="1" stop-color="#727272"/>
</linearGradient>
</defs>
</svg>
