<svg width="512" height="512" viewBox="0 0 512 512" fill="none" xmlns="http://www.w3.org/2000/svg">
<rect width="512" height="512" rx="50" fill="url(#paint0_linear_165_533)"/>
<path fill-rule="evenodd" clip-rule="evenodd" d="M130.438 240.312C130.438 241.718 130.852 242.646 131.084 243.548C132.596 249.414 135.846 254.448 139.702 259.04C145.194 265.584 151.92 270.852 158.81 275.806C164.786 280.102 170.884 284.302 176.884 288.566C177.914 289.298 178.888 290.14 180.006 291.038C179.044 291.558 178.244 292.016 177.412 292.438C169.494 296.454 161.876 300.956 154.854 306.41C150.622 309.698 146.53 313.192 143.64 317.758C138.99 325.102 137.344 332.926 140.81 341.28C141.822 343.72 143.366 345.828 145.544 347.386C146.25 347.89 147.042 348.39 147.868 348.586C149.984 349.084 152.14 349.41 154.282 349.804L160.348 349.8C167.056 349.202 173.162 346.904 178.68 343.096C187.304 337.144 193.114 329.164 195.612 318.922C197.428 311.478 197.502 304.026 195.362 296.616C195.158 295.93 194.921 295.253 194.654 294.588C194.394 293.922 194.088 293.274 193.728 292.444L207.48 284.536L207.686 284.712C207.436 285.53 207.17 286.346 206.944 287.172C205.31 293.14 204.224 299.212 204.614 305.406C205.03 312.006 206.872 318.184 210.736 323.698C213.86 328.158 221.304 328.324 224.624 323.848C225.802 322.258 226.944 320.596 227.802 318.822C230.044 314.192 232.12 309.48 234.262 304.8L234.636 303.944C234.482 306.16 234.302 308.106 234.22 310.054C234.092 313.096 234.27 316.12 235.31 319.014C236.2 321.49 237.714 323.34 240.55 323.666C242.49 323.888 244.036 323 245.462 321.874C247.672 320.128 249.503 317.951 250.844 315.476C254.646 308.494 258.55 301.554 261.996 294.396C265.724 286.654 268.984 278.686 272.446 270.812L273.018 269.416C273.836 272.63 274.406 275.778 275.456 278.758C276.676 282.216 278.186 285.592 279.83 288.874C280.608 290.424 280.518 291.43 279.44 292.73C274.928 298.17 270.494 303.676 266.056 309.176C265.074 310.39 264.096 311.626 263.278 312.952C262.782 313.789 262.456 314.716 262.318 315.68C262.181 316.567 262.392 317.473 262.908 318.208C263.423 318.943 264.203 319.45 265.084 319.622C266.863 320.005 268.686 320.135 270.5 320.008C276.694 319.552 282.318 317.378 287.29 313.694C293.732 308.922 295.8 302.41 294.24 294.692C293.818 292.598 293.072 290.562 292.346 288.544C292.02 287.634 291.998 286.996 292.592 286.148C297.742 278.794 302.142 270.992 306.234 263.01C306.396 262.696 306.562 262.382 306.846 262.046C308.172 268.946 310.168 275.596 313.744 281.63C311.92 283.388 310.114 284.982 308.48 286.738C304.882 290.606 301.762 294.806 300.134 299.928C299.434 302.136 298.896 304.38 299.208 306.738C299.692 310.4 302.692 312.78 306.294 311.946C314.002 310.162 320.656 306.53 325.518 300.096C328.79 295.764 329.088 290.932 327.718 285.87C327.342 284.494 326.896 283.14 326.416 281.562C328.318 280.972 330.172 280.264 332.09 279.826C342.048 277.554 351.898 277.95 361.494 281.546C367.096 283.646 371.622 287.16 374.306 292.688C377.584 299.446 375.772 305.858 369.402 310.13C368.808 310.528 368.128 310.842 367.636 311.34C367.479 311.523 367.361 311.736 367.29 311.967C367.22 312.198 367.198 312.44 367.226 312.68C367.268 312.926 367.918 313.234 368.292 313.23C370.386 313.214 372.084 312.116 373.714 310.988C377.798 308.162 380.778 304.36 381.42 299.354L381.546 298.978L381.392 295.718C381.33 295.53 381.438 295.344 381.424 295.202C380.556 287.912 376.662 282.258 370.998 277.826C364.438 272.696 356.692 270.584 348.5 270.25C341.856 269.964 335.221 270.985 328.97 273.256C327.176 273.906 325.398 274.676 323.594 275.402C323.352 274.964 323.092 274.544 322.878 274.11C321.026 270.318 318.782 266.694 318.286 262.346C317.934 259.258 317.502 256.174 318.236 253.12C318.942 250.182 319.862 247.294 320.728 244.396C321.174 242.904 320.86 242.068 319.436 241.396C318.94 241.149 318.411 240.975 317.864 240.88C314.364 240.372 310.912 240.662 307.522 241.648C306.322 241.998 305.45 242.67 305.184 243.998C305.032 244.76 304.722 245.49 304.506 246.242C303.62 249.368 302.992 252.554 301.56 255.532C297.972 263.002 293.876 270.19 289.684 277.326C289.23 278.096 288.752 278.852 288.18 279.786C286.708 276.706 285.138 273.942 284.662 270.702C284.124 267.038 283.7 263.38 284.612 259.744C285.29 257.032 286.176 254.37 286.992 251.694C287.378 250.422 287.2 249.754 286.048 249.084C285.466 248.746 284.808 248.446 284.152 248.348C280.564 247.801 276.897 248.101 273.444 249.224C272.358 249.576 271.788 250.278 271.456 251.398C270.48 254.702 269.648 258.086 268.278 261.228C262.73 273.948 257.022 286.602 251.32 299.254C250.13 301.896 248.736 304.446 247.394 307.018C247.054 307.67 246.558 308.244 246.134 308.856C245.794 308.454 245.662 308.178 245.664 307.902C245.674 306.276 245.48 304.602 245.79 303.03C246.742 298.276 247.795 293.542 248.946 288.832C249.886 284.94 250.98 281.084 252.022 277.218C252.372 275.924 252.378 274.714 251.448 273.626C249.886 271.804 246.622 271.404 244.686 272.808L243.83 273.292L243.996 271.912C244.404 268.954 244.486 266.006 243.674 263.092C242.662 259.46 240.07 257.37 236.302 257.486C234.546 257.54 232.702 257.84 231.076 258.48C224.238 261.16 218.98 265.906 214.504 271.616C214.09 272.146 213.575 272.59 212.99 272.924C207.204 276.132 201.4 279.3 195.598 282.48L189.14 286.018C187.408 284.366 185.834 282.652 184.048 281.198C178.594 276.75 173.052 272.412 167.56 268.014C162.692 264.116 157.976 260.056 154.368 254.894C151.684 251.054 149.954 246.852 149.788 242.104C149.578 236.054 151.294 230.526 154.374 225.38C158.314 218.796 163.688 213.512 169.596 208.726C175.846 203.666 182.606 199.37 189.612 195.448C199.414 189.962 209.496 185.106 220.306 181.9C231.39 178.612 242.636 176.73 254.236 178.042C258.796 178.558 263.224 179.602 267.29 181.832C270.404 183.538 272.958 185.772 274.146 189.264C275.318 192.7 275.282 196.182 274.47 199.672C272.82 206.74 268.95 212.566 264.08 217.772C256.092 226.306 246.348 232.116 235.378 235.954C229.071 238.164 222.509 239.563 215.848 240.12C210.39 240.578 205.046 240.094 199.878 238.196C196.456 236.938 193.476 235.014 191.08 232.222C190.652 231.722 190.104 231.18 189.306 231.648C188.524 232.108 188.386 232.852 188.648 233.606C189.086 234.858 189.49 236.162 190.172 237.282C191.886 240.092 194.386 242.13 197.138 243.878C202.424 247.24 208.332 248.37 214.458 248.632C223.754 249.034 232.824 247.646 241.766 245.152C254.532 241.592 265.632 235.304 274.534 225.384C281.946 217.124 287.24 207.802 288.374 196.546C288.928 191.052 288.338 185.67 285.766 180.658C282.976 175.228 278.54 171.19 273.236 168.408C265.512 164.358 257.176 162 248.572 162H239.952C229.532 162 219.458 164.986 209.666 168.548C202.254 171.246 194.986 174.43 187.93 177.954C172.564 185.632 158.254 194.89 146.5 207.62C140.644 213.962 135.686 220.96 132.834 229.2C131.974 231.66 131.232 234.16 130.612 236.692M186.29 308.718C185.624 317.636 181.582 324.866 174.976 330.722C171.26 334.014 166.998 336.358 162.034 337.182C160.234 337.48 158.392 337.552 156.646 336.806C154.156 335.742 153.598 333.532 153.55 331.178C153.476 327.426 154.79 324.034 156.592 320.806C158.944 316.598 162.392 313.39 166.074 310.394C171.874 305.672 178.166 301.676 184.61 297.904L185.096 297.704C186.092 301.384 186.566 305.018 186.29 308.718ZM236.606 269.96C236.136 272.808 235.548 275.658 234.716 278.418C231.84 287.972 228.146 297.23 224.152 306.364C223.414 308.054 222.34 309.596 221.406 311.198C221.248 311.444 221.057 311.669 220.84 311.866C219.684 313.008 218.588 312.948 218.004 311.454C217.324 309.718 216.906 307.86 216.546 306.022C216.304 304.788 216.362 303.492 216.286 302.228C216.364 293.24 219.106 285.072 223.758 277.468C225.676 274.332 227.764 271.344 230.954 269.36C231.947 268.743 233.021 268.268 234.144 267.948C235.844 267.47 236.888 268.256 236.606 269.96ZM270.934 313.696L283.272 299.29C283.786 304.64 274.692 315.32 270.934 313.696ZM310.34 304.002C309.468 304.502 308.518 304.862 307.624 305.324C306.806 305.748 306.536 305.32 306.512 304.616C306.5 304.129 306.563 303.642 306.698 303.174C308.364 297.298 311.43 292.282 315.992 288.202L316.312 288.038C318.482 294.108 315.974 300.774 310.34 304.002Z" fill="url(#paint1_linear_165_533)"/>
<defs>
<linearGradient id="paint0_linear_165_533" x1="497.5" y1="67" x2="29.5" y2="364.5" gradientUnits="userSpaceOnUse">
<stop stop-color="#EAEAEA"/>
<stop offset="1" stop-color="#F4F4F4"/>
</linearGradient>
<linearGradient id="paint1_linear_165_533" x1="255.992" y1="162" x2="255.992" y2="349.804" gradientUnits="userSpaceOnUse">
<stop stop-color="#A1A1A1"/>
<stop offset="1" stop-color="#727272"/>
</linearGradient>
</defs>
</svg>
