<svg width="512" height="512" viewBox="0 0 512 512" fill="none" xmlns="http://www.w3.org/2000/svg">
<rect width="512" height="512" rx="50" fill="url(#paint0_linear_37_133)"/>
<path d="M312.7 137.2H199.3C165.059 137.2 137.2 165.059 137.2 199.3V312.7C137.2 346.942 165.059 374.8 199.3 374.8H312.7C346.942 374.8 374.8 346.942 374.8 312.7V199.3C374.8 165.059 346.942 137.2 312.7 137.2ZM334.921 331.6C334.921 331.6 326.011 316.442 311.075 316.442C296.678 316.442 285.657 331.6 256.675 331.6C202.81 331.595 172.279 291.651 164.373 279.22C163.752 278.243 164.913 277.163 165.89 277.784C188.797 292.186 210.953 299.2 226.3 299.195C248.748 299.189 261.4 288.4 261.4 288.4C240.724 276.223 191.2 219.55 180.649 203.723C179.92 202.632 181.226 201.428 182.231 202.27C225.145 238.364 249.601 251.966 249.601 251.966C240.518 244.342 213.475 208.745 202.227 192.917C201.466 191.848 202.864 190.612 203.825 191.503C234.605 220.123 288.4 261.4 288.4 261.4C291.786 251.875 293.93 240.443 293.789 231.7C293.428 208.648 278.561 185.66 272.4 176.669C271.703 175.654 272.972 174.514 273.971 175.232C314.05 204.025 326.206 239.978 326.2 260.725C326.195 275.629 320.8 285.025 320.8 285.025C320.8 285.025 343.653 309.957 334.921 331.6Z" fill="url(#paint1_linear_37_133)"/>
<defs>
<linearGradient id="paint0_linear_37_133" x1="497.5" y1="67" x2="29.5" y2="364.5" gradientUnits="userSpaceOnUse">
<stop stop-color="#EAEAEA"/>
<stop offset="1" stop-color="#F4F4F4"/>
</linearGradient>
<linearGradient id="paint1_linear_37_133" x1="256" y1="137.2" x2="256" y2="374.8" gradientUnits="userSpaceOnUse">
<stop stop-color="#A1A1A1"/>
<stop offset="1" stop-color="#727272"/>
</linearGradient>
</defs>
</svg>
