<svg width="512" height="512" viewBox="0 0 512 512" fill="none" xmlns="http://www.w3.org/2000/svg">
<rect width="512" height="512" rx="50" fill="url(#paint0_linear_20_106)"/>
<path d="M376 130H136C132.682 130 130 132.688 130 136V376C130 379.312 132.682 382 136 382H376C379.318 382 382 379.312 382 376V136C382 132.688 379.318 130 376 130ZM280 264.67H250V358H226V264.67H196V244H280V264.67ZM286.726 352.672V327.724C286.726 327.724 300.352 337.996 316.702 337.996C333.052 337.996 332.422 327.304 332.422 325.84C332.422 310.324 286.096 310.324 286.096 275.95C286.096 229.204 353.596 247.648 353.596 247.648L352.756 269.872C352.756 269.872 341.434 262.324 328.648 262.324C315.862 262.324 311.248 268.402 311.248 274.9C311.248 291.67 357.994 289.996 357.994 323.746C358 375.73 286.726 352.672 286.726 352.672Z" fill="url(#paint1_linear_20_106)"/>
<defs>
<linearGradient id="paint0_linear_20_106" x1="497.5" y1="67" x2="29.5" y2="364.5" gradientUnits="userSpaceOnUse">
<stop stop-color="#EAEAEA"/>
<stop offset="1" stop-color="#F4F4F4"/>
</linearGradient>
<linearGradient id="paint1_linear_20_106" x1="256" y1="130" x2="256" y2="382" gradientUnits="userSpaceOnUse">
<stop stop-color="#A1A1A1"/>
<stop offset="1" stop-color="#727272"/>
</linearGradient>
</defs>
</svg>
