<svg width="512" height="512" viewBox="0 0 512 512" fill="none" xmlns="http://www.w3.org/2000/svg">
<rect width="512" height="512" rx="50" fill="url(#paint0_linear_165_576)"/>
<path fill-rule="evenodd" clip-rule="evenodd" d="M329.22 273.75C327.094 283.992 317.65 310.282 287.516 324.508L275.416 310.908L254.992 331.43C243.374 331.275 231.95 328.435 221.612 323.131C211.274 317.828 202.303 310.206 195.4 300.86C197.572 301.54 199.806 301.962 202.072 302.12C205.416 302.18 209.042 300.954 209.042 295.338V239.948C209.089 238.524 208.803 237.109 208.206 235.815C207.609 234.521 206.717 233.385 205.603 232.497C204.489 231.609 203.182 230.994 201.788 230.701C200.393 230.407 198.95 230.444 197.572 230.808C188.12 232.986 180.564 256.572 180.564 256.572C180.46 245.682 182.728 234.899 187.211 224.974C191.694 215.048 198.284 206.218 206.524 199.096C217.369 189.715 230.644 183.588 244.82 181.424C234.5 187.308 228.704 196.902 228.704 204.948C228.704 217.902 236.5 216.332 238.812 214.426V289.184C239.204 290.12 239.718 291.004 240.336 291.816C241.369 293.242 242.727 294.401 244.298 295.196C245.869 295.991 247.607 296.399 249.368 296.386C257.172 296.386 267.304 287.472 267.304 287.472V226.956C267.304 220.8 262.664 213.37 258.016 210.816C258.016 210.816 266.616 209.292 273.258 214.37C274.504 212.847 275.828 211.39 277.226 210.004C292.72 194.808 307.306 190.48 319.46 188.316C319.46 188.316 297.366 205.682 297.366 228.98C297.366 246.308 297.812 288.558 297.812 288.558C306.008 296.472 318.202 285.042 329.218 273.752L329.22 273.75Z" fill="url(#paint1_linear_165_576)"/>
<path fill-rule="evenodd" clip-rule="evenodd" d="M256 132.766C187.946 132.766 132.766 187.946 132.766 256C132.766 324.054 187.946 379.234 256 379.234C324.054 379.234 379.234 324.054 379.234 256C379.234 187.946 324.054 132.766 256 132.766ZM256 374.306C190.664 374.306 137.696 321.338 137.696 256C137.704 190.666 190.672 137.698 256.008 137.706C321.344 137.706 374.304 190.674 374.304 256.01C374.304 321.346 321.336 374.314 256 374.314V374.306Z" fill="url(#paint2_linear_165_576)"/>
<defs>
<linearGradient id="paint0_linear_165_576" x1="497.5" y1="67" x2="29.5" y2="364.5" gradientUnits="userSpaceOnUse">
<stop stop-color="#EAEAEA"/>
<stop offset="1" stop-color="#F4F4F4"/>
</linearGradient>
<linearGradient id="paint1_linear_165_576" x1="254.89" y1="181.424" x2="254.89" y2="331.43" gradientUnits="userSpaceOnUse">
<stop stop-color="#A1A1A1"/>
<stop offset="1" stop-color="#727272"/>
</linearGradient>
<linearGradient id="paint2_linear_165_576" x1="256" y1="132.766" x2="256" y2="379.234" gradientUnits="userSpaceOnUse">
<stop stop-color="#A1A1A1"/>
<stop offset="1" stop-color="#727272"/>
</linearGradient>
</defs>
</svg>
