<svg width="512" height="512" viewBox="0 0 512 512" fill="none" xmlns="http://www.w3.org/2000/svg">
<rect width="512" height="512" rx="50" fill="url(#paint0_linear_165_590)"/>
<g clip-path="url(#clip0_165_590)">
<path fill-rule="evenodd" clip-rule="evenodd" d="M309.534 382.252C311.571 383.046 313.75 383.413 315.934 383.329C318.119 383.245 320.264 382.712 322.234 381.764L374.94 356.402C377.654 355.095 379.944 353.049 381.547 350.498C383.15 347.948 384 344.996 384 341.984V170.018C384 167.005 383.15 164.053 381.548 161.502C379.945 158.951 377.654 156.905 374.94 155.598L322.234 130.24C319.256 128.807 315.906 128.335 312.647 128.89C309.389 129.444 306.384 130.998 304.048 133.336L203.148 225.388L159.2 192.026C157.217 190.521 154.77 189.757 152.284 189.867C149.797 189.977 147.427 190.955 145.586 192.63L131.49 205.452C130.391 206.451 129.513 207.668 128.912 209.026C128.311 210.384 128 211.852 127.999 213.337C127.998 214.822 128.307 216.291 128.906 217.65C129.505 219.008 130.381 220.227 131.478 221.228L169.592 256L131.48 290.774C130.383 291.775 129.508 292.993 128.909 294.352C128.311 295.71 128.002 297.179 128.003 298.663C128.004 300.148 128.315 301.616 128.916 302.974C129.516 304.331 130.394 305.549 131.492 306.548L145.588 319.37C147.429 321.045 149.798 322.023 152.285 322.134C154.772 322.245 157.219 321.481 159.202 319.976L203.15 286.616L304.05 378.666C305.61 380.229 307.476 381.45 309.534 382.252ZM320.038 197.886L243.48 256L320.04 314.116L320.038 197.886Z" fill="url(#paint1_linear_165_590)"/>
</g>
<defs>
<linearGradient id="paint0_linear_165_590" x1="497.5" y1="67" x2="29.5" y2="364.5" gradientUnits="userSpaceOnUse">
<stop stop-color="#EAEAEA"/>
<stop offset="1" stop-color="#F4F4F4"/>
</linearGradient>
<linearGradient id="paint1_linear_165_590" x1="255.999" y1="128.664" x2="255.999" y2="383.34" gradientUnits="userSpaceOnUse">
<stop stop-color="#A1A1A1"/>
<stop offset="1" stop-color="#727272"/>
</linearGradient>
<clipPath id="clip0_165_590">
<rect width="256" height="256" fill="white" transform="translate(128 128)"/>
</clipPath>
</defs>
</svg>
