<svg width="512" height="512" viewBox="0 0 512 512" fill="none" xmlns="http://www.w3.org/2000/svg">
<rect width="512" height="512" rx="50" fill="url(#paint0_linear_166_695)"/>
<path d="M173.688 131C150.084 131 131 150.575 131 174.787V328.285C131 352.496 150.084 372.071 173.688 372.071H329.383C352.987 372.071 372.071 352.496 372.071 328.285V174.787C372.071 150.575 352.987 131 329.383 131H173.688ZM315.018 183.85H335.408C335.911 183.748 336.312 184.159 336.412 184.571V282.852C336.412 284.706 336.513 286.769 336.615 289.035C336.815 291.199 336.916 293.256 337.016 295.008C337.016 295.728 336.715 296.348 336.011 296.657C330.749 298.925 325.258 300.584 319.638 301.602C314.516 302.53 309.393 303.043 304.17 303.043C296.738 303.146 289.305 301.604 282.574 298.411C276.246 295.423 271.021 290.476 267.405 284.399C263.687 278.113 261.883 270.284 261.883 260.91C261.781 253.286 263.689 245.776 267.405 239.173C271.221 232.476 276.747 226.915 283.376 223.206C290.408 219.188 298.846 217.229 308.79 217.229C309.293 217.229 309.996 217.229 310.9 217.332C311.804 217.434 312.809 217.436 314.015 217.54V184.984C314.015 184.264 314.316 183.852 315.018 183.852V183.85ZM167.965 192.813H190.763C191.266 192.813 191.771 192.918 192.172 193.02C192.575 193.227 192.876 193.536 193.178 193.947C195.085 198.378 197.293 202.806 199.604 207.237C202.014 211.666 204.327 215.993 206.84 220.32C209.22 224.605 211.464 228.968 213.567 233.403H213.768C215.865 228.932 218.042 224.502 220.298 220.113C222.535 215.765 224.811 211.438 227.125 207.133C229.436 202.806 231.645 198.376 233.857 194.152C233.958 193.74 234.158 193.327 234.459 193.122C234.862 192.916 235.263 192.815 235.766 192.917H256.962C257.08 192.89 257.203 192.887 257.323 192.909C257.443 192.93 257.557 192.976 257.66 193.043C257.762 193.109 257.851 193.197 257.92 193.299C257.99 193.401 258.039 193.516 258.065 193.638C258.165 193.742 257.964 194.154 257.764 194.359L227.63 245.354L259.772 299.441C259.973 299.854 260.073 300.264 259.973 300.677C259.873 301.089 259.468 300.782 258.866 300.884H235.866C234.26 300.884 233.154 300.782 232.452 299.752C230.342 295.425 228.131 291.199 226.022 286.872C223.912 282.647 221.601 278.324 219.191 273.893C216.759 269.441 214.348 264.977 211.959 260.501H211.761C209.651 264.93 207.339 269.357 205.03 273.788C202.719 278.218 200.408 282.647 198.199 286.974C195.888 291.301 193.579 295.732 191.268 299.955C190.867 300.986 190.063 301.091 188.957 301.091H166.859C166.458 301.091 166.157 301.297 166.157 300.782C166.112 300.588 166.107 300.387 166.142 300.192C166.176 299.996 166.25 299.81 166.358 299.646L197.596 247.106L167.161 194.254C166.859 193.841 166.761 193.429 166.963 193.225C167.163 192.916 167.564 192.813 167.965 192.813ZM307.986 236.391C304.069 236.391 300.151 237.216 296.637 239.071C293.204 240.825 290.266 243.449 288.099 246.695C285.89 249.992 284.785 254.422 284.785 259.78C284.697 263.395 285.276 266.994 286.491 270.389C287.497 273.17 289.003 275.643 291.011 277.704C292.947 279.599 295.284 281.01 297.84 281.824C300.552 282.751 303.366 283.163 306.18 283.163C307.687 283.163 309.093 283.062 310.399 282.96C311.704 283.062 312.809 282.854 314.015 282.442V237.112C313.119 236.891 312.212 236.72 311.299 236.6C310.195 236.496 309.092 236.391 307.986 236.391Z" fill="url(#paint1_linear_166_695)"/>
<defs>
<linearGradient id="paint0_linear_166_695" x1="497.5" y1="67" x2="29.5" y2="364.5" gradientUnits="userSpaceOnUse">
<stop stop-color="#EAEAEA"/>
<stop offset="1" stop-color="#F4F4F4"/>
</linearGradient>
<linearGradient id="paint1_linear_166_695" x1="251.536" y1="131" x2="251.536" y2="372.071" gradientUnits="userSpaceOnUse">
<stop stop-color="#A1A1A1"/>
<stop offset="1" stop-color="#727272"/>
</linearGradient>
</defs>
</svg>
