<svg width="512" height="512" viewBox="0 0 512 512" fill="none" xmlns="http://www.w3.org/2000/svg">
<rect width="512" height="512" rx="50" fill="url(#paint0_linear_165_598)"/>
<g clip-path="url(#clip0_165_598)">
<path d="M256 128C230.684 128 205.937 135.507 184.887 149.572C163.838 163.637 147.431 183.628 137.743 207.017C128.055 230.405 125.521 256.142 130.46 280.972C135.398 305.801 147.589 328.609 165.49 346.51C183.392 364.411 206.199 376.602 231.029 381.541C255.858 386.479 281.595 383.945 304.984 374.257C328.372 364.569 348.363 348.162 362.428 327.113C376.493 306.063 384 281.316 384 256C384 222.052 370.514 189.495 346.51 165.49C322.505 141.486 289.948 128 256 128ZM265.37 171.896C266.949 172.075 268.464 172.624 269.79 173.5C271.132 174.388 272.846 175.564 277.842 185.888C279.734 185.21 281.791 185.138 283.726 185.682C284.782 185.97 285.767 186.475 286.617 187.165C287.467 187.855 288.164 188.715 288.662 189.69C293.762 199.476 294.44 216.918 292.21 228.13C290.232 238.056 286.118 247.433 280.154 255.61C285.489 261.159 289.554 267.801 292.068 275.076C294.525 281.959 295.516 289.279 294.98 296.568C297.199 295.506 299.35 294.306 301.42 292.976C307.736 289.074 317.274 283.188 328.65 283.044C332.101 282.814 335.511 283.9 338.192 286.084C340.874 288.268 342.627 291.388 343.1 294.814C343.531 298.056 342.735 301.342 340.868 304.027C339 306.712 336.197 308.602 333.008 309.326C326.092 310.998 322.87 312.298 313.58 318.326C303.551 324.622 292.754 329.604 281.456 333.15C279.273 334.942 276.698 336.195 273.94 336.806C266.074 338.726 239.09 340.17 236.964 340.17H236.468C228.208 340.17 223.528 337.61 221.008 334.928C213.988 338.438 204.904 336.988 198.298 333.5C196.717 332.725 195.335 331.596 194.261 330.2C193.186 328.804 192.448 327.179 192.104 325.452C191.859 324.045 191.859 322.605 192.104 321.198C191.495 320.564 190.949 319.873 190.472 319.134C186.721 312.893 185.084 305.608 185.806 298.362C186.406 290.662 191.734 283.788 195.202 280.134C194.913 271.88 196.361 263.658 199.452 256C202.774 248.878 207.573 242.544 213.532 237.42C210.126 231.68 206.66 222.844 210.024 213.842C212.44 207.422 214.422 203.85 218.778 202.322C220.679 201.773 222.444 200.831 223.958 199.556C230.312 192.654 239.082 188.468 248.444 187.87C248.836 186.88 249.29 185.804 249.786 184.854C253.09 177.834 256.598 173.894 260.706 172.468C262.194 171.912 263.792 171.716 265.37 171.896ZM264.254 179.29C258.848 179.468 253.544 195.488 253.544 195.488C249.069 195.049 244.553 195.66 240.356 197.273C236.159 198.886 232.396 201.456 229.366 204.778C227.121 206.942 224.4 208.549 221.42 209.468C220.572 209.756 219.54 209.712 216.98 216.628C213.058 227.096 223.67 238.948 223.67 238.948C223.67 238.948 211.014 247.888 206.326 259.016C203.196 266.645 201.957 274.918 202.714 283.13C202.714 283.13 193.714 290.932 193.138 298.984C192.601 304.624 193.88 310.289 196.79 315.15C197.017 315.635 197.339 316.07 197.737 316.428C198.135 316.786 198.601 317.061 199.107 317.237C199.613 317.412 200.149 317.484 200.683 317.448C201.218 317.413 201.74 317.271 202.218 317.03C202.218 317.03 196.232 324.004 201.826 326.956C206.926 329.618 215.514 331.086 220.056 326.564C223.36 323.262 224.02 315.894 225.238 312.88C225.526 312.178 226.518 314.056 227.468 314.944C228.344 315.71 229.282 316.4 230.274 317.008C230.274 317.008 222.226 320.476 225.528 328.384C226.622 331.004 230.524 332.674 236.904 332.634C239.278 332.634 265.31 331.148 272.246 329.474C274.344 329.143 276.255 328.076 277.638 326.464C288.902 323.114 299.66 318.252 309.618 312.012C319.402 305.632 323.408 303.894 331.314 302.016C337.838 300.468 337.404 290.356 328.754 290.5C319.794 290.604 311.95 295.226 305.322 299.354C292.936 307.014 286.742 306.52 286.742 306.52L286.532 306.17C285.686 304.786 290.498 292.378 285.108 277.596C279.288 261.432 270.04 257.53 270.782 256.29C273.942 250.944 281.85 242.456 285.008 226.642C286.888 217.062 286.39 201.29 282.138 193.032C281.352 191.504 274.334 195.592 274.334 195.592C274.334 195.592 267.768 180.954 265.932 179.778C265.437 179.446 264.85 179.275 264.254 179.29Z" fill="url(#paint1_linear_165_598)"/>
</g>
<defs>
<linearGradient id="paint0_linear_165_598" x1="497.5" y1="67" x2="29.5" y2="364.5" gradientUnits="userSpaceOnUse">
<stop stop-color="#EAEAEA"/>
<stop offset="1" stop-color="#F4F4F4"/>
</linearGradient>
<linearGradient id="paint1_linear_165_598" x1="256" y1="128" x2="256" y2="384" gradientUnits="userSpaceOnUse">
<stop stop-color="#A1A1A1"/>
<stop offset="1" stop-color="#727272"/>
</linearGradient>
<clipPath id="clip0_165_598">
<rect width="256" height="256" fill="white" transform="translate(128 128)"/>
</clipPath>
</defs>
</svg>
