<svg width="512" height="512" viewBox="0 0 512 512" fill="none" xmlns="http://www.w3.org/2000/svg">
<rect width="512" height="512" rx="50" fill="url(#paint0_linear_13_307)"/>
<path d="M256 118V202H214C190.87 202 172 183.13 172 160C172 136.87 190.87 118 214 118H256ZM256 214V298H214C190.87 298 172 279.13 172 256C172 232.87 190.87 214 214 214H256ZM256 310V352C256 375.13 237.13 394 214 394C190.87 394 172 375.13 172 352C172 328.87 190.87 310 214 310H256ZM352 160C352 183.13 333.13 202 310 202H268V118H310C333.13 118 352 136.87 352 160ZM310 214C298.861 214 288.178 218.425 280.302 226.302C272.425 234.178 268 244.861 268 256C268 267.139 272.425 277.822 280.302 285.698C288.178 293.575 298.861 298 310 298C321.139 298 331.822 293.575 339.698 285.698C347.575 277.822 352 267.139 352 256C352 244.861 347.575 234.178 339.698 226.302C331.822 218.425 321.139 214 310 214Z" fill="white"/>
<defs>
<linearGradient id="paint0_linear_13_307" x1="497.5" y1="67" x2="29.5" y2="364.5" gradientUnits="userSpaceOnUse">
<stop stop-color="#E9268F"/>
<stop offset="1" stop-color="#9C0054"/>
</linearGradient>
</defs>
</svg>
