<svg width="512" height="512" viewBox="0 0 512 512" fill="none" xmlns="http://www.w3.org/2000/svg">
<rect width="512" height="512" rx="50" fill="url(#paint0_linear_35_67)"/>
<path d="M256 115C251.711 115 247.422 116.078 243.602 118.234L142.539 175.023C134.805 179.359 130 187.492 130 196.211V309.789C130 318.508 134.805 326.641 142.539 330.977L243.602 387.766C247.422 389.922 251.711 391 256 391C260.289 391 264.578 389.922 268.398 387.766L369.461 331C377.195 326.641 382 318.508 382 309.789V196.211C382 187.492 377.195 179.359 369.461 175.023L268.398 118.234C264.578 116.078 260.289 115 256 115ZM256 181C278.688 181 299.664 191.523 313.258 209.43L286.961 224.664C279.063 216.016 267.836 211 256 211C232.844 211 214 229.844 214 253C214 276.156 232.844 295 256 295C267.836 295 279.063 289.984 286.961 281.336L313.258 296.57C299.664 314.477 278.688 325 256 325C216.297 325 184 292.703 184 253C184 213.297 216.297 181 256 181ZM316 223H328V235H340V223H352V235H364V247H352V259H364V271H352V283H340V271H328V283H316V271H304V259H316V247H304V235H316V223ZM328 247V259H340V247H328Z" fill="url(#paint1_linear_35_67)"/>
<path d="M305.5 221.5L344.5 208L359 217L372.5 227V252L367.5 277L357 292.5L328.5 297L303 281.5L298.5 268L294 240.5L305.5 221.5Z" fill="url(#paint2_linear_35_67)"/>
<defs>
<linearGradient id="paint0_linear_35_67" x1="497.5" y1="67" x2="29.5" y2="364.5" gradientUnits="userSpaceOnUse">
<stop stop-color="#3D3D3D"/>
<stop offset="1" stop-color="#1E1E1E"/>
</linearGradient>
<linearGradient id="paint1_linear_35_67" x1="256" y1="115" x2="256" y2="391" gradientUnits="userSpaceOnUse">
<stop stop-color="#C4C4C4"/>
<stop offset="1" stop-color="#999999"/>
</linearGradient>
<linearGradient id="paint2_linear_35_67" x1="256" y1="115" x2="256" y2="391" gradientUnits="userSpaceOnUse">
<stop stop-color="#C4C4C4"/>
<stop offset="1" stop-color="#999999"/>
</linearGradient>
</defs>
</svg>
