<svg width="512" height="512" viewBox="0 0 512 512" fill="none" xmlns="http://www.w3.org/2000/svg">
<rect width="512" height="512" rx="50" fill="url(#paint0_linear_166_759)"/>
<path d="M369.461 175.023L268.422 118.234C260.758 113.945 251.242 113.945 243.578 118.234L142.539 175.023C134.805 179.359 130 187.492 130 196.211V309.789C130 318.508 134.805 326.641 142.539 330.977L243.578 387.766C247.422 389.922 251.711 391 256 391C260.289 391 264.578 389.922 268.422 387.766L369.461 330.977C377.195 326.641 382 318.508 382 309.789V196.211C382 187.492 377.195 179.359 369.461 175.023ZM256 325C216.297 325 184 292.703 184 253C184 213.297 216.297 181 256 181C278.688 181 299.641 191.523 313.258 209.453L286.961 224.664C279.063 216.016 267.836 211 256 211C232.844 211 214 229.844 214 253C214 276.156 232.844 295 256 295C267.836 295 279.063 289.984 286.961 281.336L313.258 296.547C299.641 314.477 278.688 325 256 325ZM328 259H316V271H304V259H292V247H304V235H316V247H328V259ZM370 259H358V271H346V259H334V247H346V235H358V247H370V259Z" fill="url(#paint1_linear_166_759)"/>
<defs>
<linearGradient id="paint0_linear_166_759" x1="497.5" y1="67" x2="29.5" y2="364.5" gradientUnits="userSpaceOnUse">
<stop stop-color="#3D3D3D"/>
<stop offset="1" stop-color="#1E1E1E"/>
</linearGradient>
<linearGradient id="paint1_linear_166_759" x1="256" y1="115.018" x2="256" y2="391" gradientUnits="userSpaceOnUse">
<stop stop-color="#C4C4C4"/>
<stop offset="1" stop-color="#999999"/>
</linearGradient>
</defs>
</svg>
