<svg width="512" height="512" viewBox="0 0 512 512" fill="none" xmlns="http://www.w3.org/2000/svg">
<rect width="512" height="512" rx="50" fill="url(#paint0_linear_35_81)"/>
<path d="M153.46 158.92L154 159.46V314.8L123.46 284.26C112.6 273.4 109.54 256.72 115.84 242.74L153.46 158.92ZM317.8 151H162.46L161.92 150.46L245.74 112.84C259.72 106.54 276.4 109.6 287.26 120.46L317.8 151ZM331.54 337H176.26L173.02 333.76C168.52 329.2 166 323.2 166 316.78V171.46L331.54 337ZM188.26 349H340V385C340 388.3 337.3 391 334 391H232.6C230.98 391 229.48 390.34 228.34 389.26L200.14 361.06L200.26 360.94L188.26 349ZM394 229.6V331C394 334.3 391.3 337 388 337H348.52L174.46 163H319.78C326.2 163 332.2 165.52 336.76 170.02L363.94 197.26L364.06 197.14L392.26 225.34C393.34 226.48 394 227.98 394 229.6Z" fill="url(#paint1_linear_35_81)"/>
<defs>
<linearGradient id="paint0_linear_35_81" x1="497.5" y1="67" x2="29.5" y2="364.5" gradientUnits="userSpaceOnUse">
<stop stop-color="#3D3D3D"/>
<stop offset="1" stop-color="#1E1E1E"/>
</linearGradient>
<linearGradient id="paint1_linear_35_81" x1="253.299" y1="109.598" x2="253.299" y2="391" gradientUnits="userSpaceOnUse">
<stop stop-color="#C4C4C4"/>
<stop offset="1" stop-color="#999999"/>
</linearGradient>
</defs>
</svg>
