<svg width="512" height="512" viewBox="0 0 512 512" fill="none" xmlns="http://www.w3.org/2000/svg">
<rect width="512" height="512" rx="50" fill="url(#paint0_linear_166_919)"/>
<path d="M377.566 235.129C376.897 234.604 370.645 229.948 357.456 229.948C353.972 229.963 350.499 230.256 347.066 230.827C344.514 213.568 330.502 205.458 329.854 205.083L326.313 203.066L323.982 206.38C321.065 210.836 318.487 215.436 317.236 220.598C314.874 230.452 316.31 239.704 321.384 247.613C315.25 250.984 304.799 251.282 302.812 251.354H141.141C136.89 251.359 133.442 254.75 133.417 258.939C133.226 273.003 135.233 287.514 140.137 300.718C145.741 315.219 154.082 325.902 164.93 332.437C177.084 339.78 196.834 343.979 219.223 343.979C229.335 344.01 239.431 343.11 249.373 341.283C263.195 338.777 276.496 334.012 288.723 327.183C298.799 321.425 307.865 314.102 315.579 305.493C328.469 291.095 336.147 275.066 341.859 260.817C342.626 260.817 343.392 260.817 344.133 260.817C358.248 260.817 366.924 255.244 371.71 250.577C374.89 247.598 377.375 243.97 378.986 239.951L380 237.028L377.566 235.129Z" fill="url(#paint1_linear_166_919)"/>
<path d="M174.166 246.208H158.729C155.888 246.208 153.583 243.903 153.583 241.062V225.625C153.583 222.784 155.888 220.479 158.729 220.479H174.166C177.007 220.479 179.312 222.784 179.312 225.625V241.062C179.312 243.903 177.007 246.208 174.166 246.208Z" fill="url(#paint2_linear_166_919)"/>
<path d="M205.041 246.208H189.604C186.763 246.208 184.458 243.903 184.458 241.062V225.625C184.458 222.784 186.763 220.479 189.604 220.479H205.041C207.882 220.479 210.187 222.784 210.187 225.625V241.062C210.187 243.903 207.882 246.208 205.041 246.208Z" fill="url(#paint3_linear_166_919)"/>
<path d="M235.916 246.208H220.479C217.638 246.208 215.333 243.903 215.333 241.062V225.625C215.333 222.784 217.638 220.479 220.479 220.479H235.916C238.757 220.479 241.062 222.784 241.062 225.625V241.062C241.062 243.903 238.757 246.208 235.916 246.208Z" fill="url(#paint4_linear_166_919)"/>
<path d="M266.791 246.208H251.354C248.513 246.208 246.208 243.903 246.208 241.062V225.625C246.208 222.784 248.513 220.479 251.354 220.479H266.791C269.632 220.479 271.937 222.784 271.937 225.625V241.062C271.937 243.903 269.632 246.208 266.791 246.208Z" fill="url(#paint5_linear_166_919)"/>
<path d="M205.041 215.333H189.604C186.763 215.333 184.458 213.028 184.458 210.187V194.75C184.458 191.909 186.763 189.604 189.604 189.604H205.041C207.882 189.604 210.187 191.909 210.187 194.75V210.187C210.187 213.028 207.882 215.333 205.041 215.333Z" fill="url(#paint6_linear_166_919)"/>
<path d="M235.916 215.333H220.479C217.638 215.333 215.333 213.028 215.333 210.187V194.75C215.333 191.909 217.638 189.604 220.479 189.604H235.916C238.757 189.604 241.062 191.909 241.062 194.75V210.187C241.062 213.028 238.757 215.333 235.916 215.333Z" fill="url(#paint7_linear_166_919)"/>
<path d="M266.791 215.333H251.354C248.513 215.333 246.208 213.028 246.208 210.187V194.75C246.208 191.909 248.513 189.604 251.354 189.604H266.791C269.632 189.604 271.937 191.909 271.937 194.75V210.187C271.937 213.028 269.632 215.333 266.791 215.333Z" fill="url(#paint8_linear_166_919)"/>
<path d="M266.791 184.458H251.354C248.513 184.458 246.208 182.153 246.208 179.312V163.875C246.208 161.034 248.513 158.729 251.354 158.729H266.791C269.632 158.729 271.937 161.034 271.937 163.875V179.312C271.937 182.153 269.632 184.458 266.791 184.458Z" fill="url(#paint9_linear_166_919)"/>
<path d="M297.666 246.208H282.229C279.388 246.208 277.083 243.903 277.083 241.062V225.625C277.083 222.784 279.388 220.479 282.229 220.479H297.666C300.507 220.479 302.812 222.784 302.812 225.625V241.062C302.812 243.903 300.507 246.208 297.666 246.208Z" fill="url(#paint10_linear_166_919)"/>
<defs>
<linearGradient id="paint0_linear_166_919" x1="497.5" y1="67" x2="29.5" y2="364.5" gradientUnits="userSpaceOnUse">
<stop stop-color="#3D3D3D"/>
<stop offset="1" stop-color="#1E1E1E"/>
</linearGradient>
<linearGradient id="paint1_linear_166_919" x1="256.702" y1="203.066" x2="256.702" y2="343.98" gradientUnits="userSpaceOnUse">
<stop stop-color="#C4C4C4"/>
<stop offset="1" stop-color="#999999"/>
</linearGradient>
<linearGradient id="paint2_linear_166_919" x1="166.448" y1="220.479" x2="166.448" y2="246.208" gradientUnits="userSpaceOnUse">
<stop stop-color="#C4C4C4"/>
<stop offset="1" stop-color="#999999"/>
</linearGradient>
<linearGradient id="paint3_linear_166_919" x1="197.323" y1="220.479" x2="197.323" y2="246.208" gradientUnits="userSpaceOnUse">
<stop stop-color="#C4C4C4"/>
<stop offset="1" stop-color="#999999"/>
</linearGradient>
<linearGradient id="paint4_linear_166_919" x1="228.198" y1="220.479" x2="228.198" y2="246.208" gradientUnits="userSpaceOnUse">
<stop stop-color="#C4C4C4"/>
<stop offset="1" stop-color="#999999"/>
</linearGradient>
<linearGradient id="paint5_linear_166_919" x1="259.073" y1="220.479" x2="259.073" y2="246.208" gradientUnits="userSpaceOnUse">
<stop stop-color="#C4C4C4"/>
<stop offset="1" stop-color="#999999"/>
</linearGradient>
<linearGradient id="paint6_linear_166_919" x1="197.323" y1="189.604" x2="197.323" y2="215.333" gradientUnits="userSpaceOnUse">
<stop stop-color="#C4C4C4"/>
<stop offset="1" stop-color="#999999"/>
</linearGradient>
<linearGradient id="paint7_linear_166_919" x1="228.198" y1="189.604" x2="228.198" y2="215.333" gradientUnits="userSpaceOnUse">
<stop stop-color="#C4C4C4"/>
<stop offset="1" stop-color="#999999"/>
</linearGradient>
<linearGradient id="paint8_linear_166_919" x1="259.073" y1="189.604" x2="259.073" y2="215.333" gradientUnits="userSpaceOnUse">
<stop stop-color="#C4C4C4"/>
<stop offset="1" stop-color="#999999"/>
</linearGradient>
<linearGradient id="paint9_linear_166_919" x1="259.073" y1="158.729" x2="259.073" y2="184.458" gradientUnits="userSpaceOnUse">
<stop stop-color="#C4C4C4"/>
<stop offset="1" stop-color="#999999"/>
</linearGradient>
<linearGradient id="paint10_linear_166_919" x1="289.948" y1="220.479" x2="289.948" y2="246.208" gradientUnits="userSpaceOnUse">
<stop stop-color="#C4C4C4"/>
<stop offset="1" stop-color="#999999"/>
</linearGradient>
</defs>
</svg>
