<svg width="512" height="512" viewBox="0 0 512 512" fill="none" xmlns="http://www.w3.org/2000/svg">
<rect width="512" height="512" rx="50" fill="url(#paint0_linear_166_750)"/>
<path d="M256 115V199H214C190.87 199 172 180.13 172 157C172 133.87 190.87 115 214 115H256ZM256 211V295H214C190.87 295 172 276.13 172 253C172 229.87 190.87 211 214 211H256ZM256 307V349C256 372.13 237.13 391 214 391C190.87 391 172 372.13 172 349C172 325.87 190.87 307 214 307H256ZM352 157C352 180.13 333.13 199 310 199H268V115H310C333.13 115 352 133.87 352 157ZM310 211C298.861 211 288.178 215.425 280.302 223.302C272.425 231.178 268 241.861 268 253C268 264.139 272.425 274.822 280.302 282.698C288.178 290.575 298.861 295 310 295C321.139 295 331.822 290.575 339.698 282.698C347.575 274.822 352 264.139 352 253C352 241.861 347.575 231.178 339.698 223.302C331.822 215.425 321.139 211 310 211Z" fill="url(#paint1_linear_166_750)"/>
<defs>
<linearGradient id="paint0_linear_166_750" x1="497.5" y1="67" x2="29.5" y2="364.5" gradientUnits="userSpaceOnUse">
<stop stop-color="#3D3D3D"/>
<stop offset="1" stop-color="#1E1E1E"/>
</linearGradient>
<linearGradient id="paint1_linear_166_750" x1="262" y1="115" x2="262" y2="391" gradientUnits="userSpaceOnUse">
<stop stop-color="#C4C4C4"/>
<stop offset="1" stop-color="#999999"/>
</linearGradient>
</defs>
</svg>
