<svg width="512" height="512" viewBox="0 0 512 512" fill="none" xmlns="http://www.w3.org/2000/svg">
<rect width="512" height="512" rx="50" fill="url(#paint0_linear_166_875)"/>
<path d="M216.88 329.26C208.42 322.6 199.4 316.22 193.22 307.24C180.24 291.4 170.24 273.04 163.42 253.76C159.28 241.22 157.88 227.78 152.54 215.72C146.98 206.96 153.5 197.4 163.08 194.62C167.34 193.8 174.86 189.76 165.8 192.66C157.68 198.62 156.9 187.24 165.22 186.52C170.9 185.76 173 181.12 171.06 176.92C164.96 172.94 185.86 168.56 175.34 162.62C164.38 150.8 190.66 148.52 184.18 161.96C182.64 172.28 202.54 160.06 197.92 171.98C202.62 177.7 215.52 173.28 215.18 181.32C222.02 181.8 224.38 187.54 230.78 187.98C237.44 190.98 249.5 193.36 251.76 200.86C245.16 206.08 229.86 190.06 229.14 204.54C231.14 225.92 230.62 247.94 238.44 268.3C242.14 280.62 251.1 290.32 259.2 299.92C266.96 309.32 277.44 315.94 288.16 321.52C297.54 325.94 307.66 328.88 317.9 330.72C322.04 327.54 329.38 315.76 335.84 320.72C336.16 326.32 323 332.4 335.22 331.8C342.4 329.64 347.38 337.34 353.3 330.38C358.74 336.84 375.94 326.26 372.06 339.44C366.82 342.82 359.18 340.78 353.92 345.44C345.26 341.12 338.38 349.3 328.8 348.28C318.16 350.18 307.34 350.96 296.54 350.96C278.84 349.56 260.76 348.98 243.94 342.82C234.46 340.06 225.2 334.66 216.88 329.26ZM231.82 335.74C241.08 339.74 250.14 343.96 260.28 345.24C276.38 347.48 293.02 350.92 309.18 347.78C301.86 344.48 294.3 349.06 287.02 345.42C278.28 347.3 268.9 344.94 260.02 343.78C249.92 339.28 239.02 336.18 229.56 330.34C217.74 326.02 235.68 335.88 238.86 336.68C246.24 340.88 230.74 334.52 228.54 332.78C222.36 329.3 221.56 330.04 227.92 333.56C229.2 334.3 230.48 335.1 231.82 335.74ZM214.2 323.28C223.18 326.6 214.16 316.96 210.06 317.52C208.24 314.36 203.1 312.36 206.72 310.66C200.2 312.92 199.88 302.06 196.82 303.6C189.92 301.42 194.14 293.7 185.92 288.96C185.18 283.96 177.76 279.64 175.4 272.1C174.36 268.24 167.02 257.18 171.52 267.48C175.36 277.4 182.1 285.9 187.72 294.38C192.08 302.46 197.24 310.9 205.16 315.94C207.84 318.54 210.42 322.48 214.2 323.28ZM188.34 294.9C189.98 297.82 188.66 293.54 188.34 294.9ZM224.94 327.26C226.94 326.38 222.08 326.14 224.94 327.26ZM229.82 329.04C229.32 326.58 227.6 330.42 229.82 329.04ZM235.92 331.58C238.82 328.82 231.44 329.84 235.92 331.58ZM246.36 337.4C248.14 334.8 240.72 336.42 246.36 337.4ZM226.3 323.42C230.8 320.5 220.48 323.38 226.3 323.42ZM230.88 325.7C230.74 324.16 229.24 326.38 230.88 325.7ZM253.74 339.96C257.42 342.28 275.2 345.04 264.06 340.92C262.2 341.32 243.4 335.6 253.74 339.96ZM217.44 311.7C217.08 310.16 211.74 310 217.44 311.7ZM228.08 317.9C230.86 315.98 222.34 316.42 228.08 317.9ZM237.04 323.4C241 321.9 230.58 321.9 237.04 323.4ZM213.1 306.98C217.42 310.28 230.5 307.4 219.7 305C214.8 302.38 203.72 300.6 211.26 306.58L213.1 306.98ZM243.1 325.3C244.9 322.24 235.56 323.54 243.1 325.3ZM233.98 318.04C244.52 321.02 225.12 311.36 231.38 316.94L232.78 317.58L233.98 318.04ZM252.26 328.6C262.24 328.7 243.24 327.24 252.26 328.6ZM209.26 301.2C208.88 299.34 206.8 301.36 209.26 301.2ZM269.14 338.08C269.42 334.72 265.9 340.58 269.14 338.08ZM226.3 311.64C225.7 309.88 223.18 311.56 226.3 311.64ZM210.22 300.04C215.94 299.7 202.36 297.52 210.22 300.04ZM191.14 287.72C190.42 284.96 184.9 282.78 191.14 287.72ZM241.2 319.48C240.7 319.74 240.16 318.28 241.2 319.48ZM272.36 338.6C272.26 336.78 270.66 339.3 272.36 338.6ZM238.44 316.64C239 314.28 233.56 315.92 238.44 316.64ZM215.24 301.92C219.5 301.46 208.4 299.04 215.24 301.92ZM254.5 326.32C261.14 323.68 248.02 325.04 254.5 326.32ZM234.08 312.46C241.74 313.44 224.96 307.24 232.4 311.9L234.08 312.46ZM260.7 328.84C267.86 324.56 265.5 338.86 272.84 330.04C280.08 324.76 266.58 336.58 275.5 330.98C281.96 326.66 291.48 333.02 297.5 335.1C301.82 334.88 306.04 338.84 310.48 336.44C319.02 334.14 293.76 333.02 300.38 328.94C292.56 331.22 286.78 326.22 282.94 321.22C274.16 319.2 264.02 314.72 259.64 306.94C257.86 304.02 262.22 307.36 258.1 302.58C252.82 297.88 250.18 292.54 246.64 286.82C242.4 284.56 241.9 277.9 241.48 286.6C241.52 281.12 236.36 277.42 235.1 278.96C235.08 273.68 240.62 276.32 236.74 272.42C235.9 266.94 233.16 261.24 232.34 255.06C231.06 252.08 232.16 245.7 227.96 252.44C226.44 259.58 227.46 243.68 229.84 248.92C232.96 243.58 228.72 244.2 228.54 244.94C230.58 240.42 229.82 234.02 228 236.46C229.08 231.68 229.72 218.86 226.38 221.14C228.4 216.14 230.22 198.26 221.44 205.08C217.88 205.14 211.74 206.36 208.82 207.82C217.94 212.84 207.9 209.64 204.18 208.84C203.7 213.5 200.02 211.48 195.42 211.52C202.76 212.42 191.84 219.02 187.64 216.46C182.16 219.08 192.36 225.6 187.74 227.62C188.3 230.66 179.36 226.52 180.06 233.54C174.76 231.3 179.34 241.86 181.98 238.3C191 240.74 188.34 246.32 188.56 251.6C187.08 254.68 181.3 244.36 187.28 244.84C182.56 237.18 182.06 242.08 178.16 245.62C177.26 245.88 188.14 250.68 181.3 253.06C187.32 254 187.5 259.26 188.72 262.58C192.34 266.34 191.6 258.42 195.92 262.94C193.18 258.9 181.42 251.58 190.88 253.92C190.82 249.86 189.16 246.58 192.08 246.66C194.96 241.46 189.06 259.5 195.54 252.88C197.34 252.1 197.78 247.68 201 253.3C205.68 257.9 202.7 261.24 196.08 257.02C197.26 261.04 204.92 262.46 203.48 268.74C205 274.26 207.14 272.22 209 271.9C210.46 277.26 211.28 273.32 211.36 270.76C218.04 272.2 216.48 276.14 218.56 278.9C223.16 280.98 211.98 264.82 219.88 274.04C228.2 281.54 223 284.68 215.54 283.48C220.26 283.1 221.78 289.86 227.68 289.62C233.06 292.18 236.72 302.02 227.44 297.92C224.22 295.02 212.82 291.44 222.14 296.96C230.74 300.94 237.56 303.32 245.86 308.32C251.78 312.56 254.36 317.4 256.6 318.36C251.62 320.74 241.58 316.46 249.04 315.14C244.38 314.3 239.16 311.94 243.62 317.74C247.4 320.9 257.04 320.58 258.78 320.92C257.32 324.14 254.8 324.4 258.84 324.64C254.34 327.08 260.28 327.46 260.7 328.84ZM251.5 302.84C248.76 299.98 248.06 294.62 251.02 299.28C252.52 299.88 255.88 308.04 251.5 302.84ZM281.48 321.88C283.18 321.76 281.52 323.18 281.48 321.88ZM247.18 295.82C248.16 299.16 247.06 291.48 247.18 295.82ZM244.2 291.8C248.54 293.7 240.74 285.16 244.2 291.8ZM208.08 266.88C210.1 266.34 209.08 270.34 208.08 266.88ZM236.82 282.46C238.28 286.38 238.06 277.8 236.82 282.46ZM216.52 268.34C219.52 270.76 215.1 265.76 216.52 268.34ZM233.94 273.92C230.68 266.62 236.26 269.92 234.66 275.12L233.94 273.92ZM203.9 253.9C202.44 251.5 200.04 244.46 200.8 242.32C201.5 245.82 208.24 257.38 204.1 247.1C199.54 238.5 209.56 249.9 210.6 252.04C211.08 254.18 207.78 251.46 210.02 256.46C205.94 250.76 207.62 259.62 203.9 253.9ZM194.62 247.5C196.74 251.32 195 241.92 194.62 247.5ZM198.78 248.94C202.16 254.8 200.78 244.72 198.78 248.94ZM188.74 241.16C185.28 237.72 182.78 234.56 188.9 239.02C191.26 239.12 183.66 231.82 189.46 236.7C195.58 237.82 192.48 246.72 188.74 241.16ZM194.02 241.02C196.02 239.04 195.08 242.98 194.02 241.02ZM197.26 242.06C200.96 244.46 194.22 236.36 197.26 242.06ZM190.82 235.9C180.78 226.96 203.44 240.58 192.46 237.56L190.82 235.9ZM219.6 252.62C215.24 250.02 218.44 234.26 219.92 245.04C224.14 243.68 219.68 250.6 222.84 250.54C222.36 254.9 220.94 256.48 219.6 252.62ZM230.26 258.92C231.16 262.16 230.68 254.16 230.26 258.92ZM228.4 257.08C228.88 255.06 228.46 259.48 228.4 257.08ZM192.78 232.96C186.32 224.06 211.54 241.98 196.92 235.22C195.38 234.8 193.54 234.66 192.78 232.96ZM213.3 243.82C214.66 245.06 212.68 236.32 213.3 243.82ZM228.86 253.82C230.06 249.54 228.96 256.64 228.86 253.82ZM193.78 229.56C197.62 228.74 209.68 236.3 198.6 231.72C197.36 230.34 194.74 230.96 193.78 229.56ZM226.72 245.98C227.12 238.3 229.02 241.4 226.74 247.08L226.72 245.98ZM196.62 226.88C198.18 224.58 192.46 216.52 197.44 223.98C199.6 225.68 203.66 226.84 200.06 227.56C205.74 232.56 198.7 228.92 196.62 226.88ZM225.1 243.58C226.18 234.84 226.04 248.7 225.1 243.58ZM193.36 218.82C194.56 218.3 194 220.4 193.36 218.82ZM200.78 223.24C204.32 227.7 202.7 219.22 200.78 223.24ZM221.72 234.88C222.12 237.12 221.72 233.34 221.72 234.88ZM220.52 232.2C223.22 236 217.62 225.02 220.52 232.2ZM218.74 227.5C220.4 231.22 218.24 224.54 218.74 227.5ZM221.64 222.78C219.64 219.26 224.16 207.28 224.66 214.72C222.56 220.5 224.06 223.74 225.52 215.98C228.24 209.86 224.94 228.02 221.64 222.78ZM224.62 204.96C225.5 203.9 224.82 206.26 224.62 204.96ZM219.64 303.2C219.78 303.86 218.46 302.16 219.64 303.2ZM229.9 308.4C235.62 309.88 235.58 307.52 230.42 306.82C227.64 304.24 218.88 301.5 226.72 306.5C227.26 307.8 228.9 307.76 229.9 308.4ZM209.62 294.92C212.76 297.28 221.48 301.56 214.1 295.82C216.58 292.94 209.34 291.4 211.74 289.46C205.62 285.72 206.92 286.06 211.2 286.18C203.86 282.9 212.26 283.14 211.86 281.46C209.02 280.9 197.8 276.46 204.4 281.82C197.68 278.4 202.8 283.1 200.76 282.6C193.88 280.72 206.88 287.84 199.68 286.06C203.62 289.18 210.28 294.06 201.34 289.36C200.2 291.06 207.76 293.64 209.62 294.92ZM220.36 301.1C233.42 305.3 213.96 295.94 220.36 301.1ZM275.36 334.4C275.52 331.8 273.56 336.62 275.36 334.4ZM281 336.78C284.02 333.86 281.12 341.44 286 336.06C286.06 332.22 285.86 329.94 280.4 334.62C278.9 335.46 278.22 339 281 336.78ZM191.3 280.44C190.36 276.8 184.8 276.82 191.3 280.44ZM197.32 284.4C195.08 280.68 189.32 281.04 197.32 284.4ZM231.66 305.1C235.02 308.08 247.06 307.28 235.72 305.46C234.06 302.98 225.08 303.58 231.66 305.1ZM278.86 334.24C284 329.92 273.86 336.18 278.86 334.24ZM289.58 341.62C289.62 340.24 287.36 342.22 289.58 341.62ZM289.6 339.68C295.32 333.62 284.06 340.04 289.6 339.68ZM176.44 268.02C171.58 261.08 173.42 257.96 168.72 252.28C167.82 247.94 160.66 238.1 165.02 248.52C169 254.62 170.18 264.06 176.44 268.02ZM287.8 337.76C298.32 330.96 283.5 334.8 287.8 337.76ZM295.82 340.9C301.1 336.38 292.5 339.96 295.82 340.9ZM189.5 272.76C191.02 270.52 185.62 272.48 189.5 272.76ZM294.16 338.74C299.26 335.46 292.98 335.96 293.24 339.04L294.16 338.74ZM225 295.16C224.82 292.94 222.3 295.34 225 295.16ZM229.28 297.62C227.9 294.86 227.18 298.04 229.28 297.62ZM302.34 340.96C308.88 336.24 298.38 340.06 300.98 341.86L302.34 340.96ZM299.82 339.76C305.16 335.3 294.22 341.74 299.82 339.76ZM312.6 348.26C316.18 345.88 308.26 347.5 312.6 348.26ZM192.78 271.14C197.56 272.22 211.9 282.92 203.44 271.88C199.1 270.6 201.7 260 197.28 261.88C200.24 266.84 199.72 268.94 193.48 265.82C185.66 262 189.08 267.7 190.62 269.28C188.54 269.78 193.4 271.1 192.78 271.14ZM170.98 253.92C171.84 250.38 163.08 234.42 166.84 245.92C168.2 248.34 168.06 252.9 170.98 253.92ZM211 278.6C210.88 278.3 208.54 276.54 211 278.6ZM217.06 280.02C217.06 276.26 210.36 278.48 217.06 280.02ZM269.66 313.16C268.66 310.6 265.7 313.12 269.66 313.16ZM272.18 315.02C271.82 313.58 270.74 315.3 272.18 315.02ZM293.04 328.14C295.04 326.66 290.54 327.96 293.04 328.14ZM181.86 256.7C187.6 254.48 175.72 255.12 181.86 256.7ZM265.04 309.1C264.96 305.38 261.38 310.02 265.04 309.1ZM179.6 251.42C183.28 250.18 176.18 250.6 179.6 251.42ZM190.28 256.6C190.22 255.38 189.16 257.06 190.28 256.6ZM320.72 336.58C325.46 335.62 336.26 339 338 335.32C332.24 335.18 318.1 331.26 317.44 336.24L318.7 336.44L320.72 336.58ZM193.68 257.46C193.78 253.7 190.76 257.32 193.68 257.46ZM165.58 237.96C164.3 230.8 160.72 236.88 165.58 237.96ZM172.28 239.64C172.36 237.34 166.14 237.58 172.28 239.64ZM176.1 241.52C175.24 242.66 175 240.64 176.1 241.52ZM200.22 256.98C201.36 255.94 197.52 256.22 200.22 256.98ZM173.56 237.28C172.9 231.86 165.8 236.48 173.56 237.28ZM159.82 228.36C159.62 225.86 158.48 229.3 159.82 228.36ZM161.86 226.82C161.52 223.86 160.1 227.2 161.86 226.82ZM173.16 233.56C177.94 231.68 164.46 229.68 172.18 233.2L173.16 233.56ZM324.34 326.94C327.4 324.14 320.46 326.08 324.34 326.94ZM342.6 336.42C343.82 332.8 339.52 336.88 342.6 336.42ZM174.3 227.64C174.82 224.14 170.52 228.34 174.3 227.64ZM158.24 216.88C157.38 211.94 157.5 203.24 165.76 206.18C154.74 208.38 173.4 219.88 171.04 210.8C175.68 211.02 180.1 208.06 177.68 212.56C186.82 211.56 193.14 203.64 201.96 204.74C208.84 203.82 216.34 203.14 223.74 200.38C229.82 199.94 235.68 193.38 232.36 189.5C224.06 188.8 215.36 189.84 206.2 191.66C196.04 193.78 186.8 197.78 176.54 199.52C166.54 200.86 178.54 203.22 175.68 203.74C170.46 205.54 181.9 206.78 175 208.68C170.74 207.86 166.3 206.4 168.12 201.92C158.54 203.16 150.12 207.14 157.7 216.88H158.24ZM181.32 205.12C183.56 196.84 193.34 211.92 185 206.22C184 205.46 182.36 204.86 181.32 205.12ZM181.76 201.1C185 198.7 183.48 202.46 181.76 201.1ZM185.88 201.18C186.18 197.38 195.3 203.2 187.38 202.54L185.88 201.18ZM191.5 198.9C193.56 196.5 192.1 201.04 191.5 198.9ZM192.94 197.94C196.36 193.82 212.32 195.32 200.64 197.54C197.52 195.18 195.12 198.94 192.94 197.94ZM213.78 194.74C224.14 198.72 213.26 183.5 213.78 194.74ZM219.7 194.7C221.86 189.04 228.1 192.42 220.7 193.56C220.86 194.16 220.48 196.48 219.7 194.7ZM171.98 224.74C178.44 220.78 165.12 221.3 171.98 224.74ZM176.76 226.06C179.02 223.66 171.84 225.08 176.76 226.06ZM162.68 216.08C166.38 213.24 158.32 215 162.68 216.08ZM353.38 335.38C353.48 332.08 350.56 336.86 353.38 335.38ZM334 322.16C334.56 318.36 331.52 322.48 334 322.16ZM358.72 336.66C363.88 336.68 374.36 335.06 363.12 335.06C361.36 335.32 352.86 335.28 358.72 336.66ZM180.96 223.74C185.14 223.46 187.5 219.14 180.14 219.38C168.76 218.2 190.18 223.28 178.68 221.82C177.14 222.84 180.86 224.02 180.96 223.74ZM184.64 225.6C184.2 222.92 183.34 227.02 184.64 225.6ZM189 213.96C190.8 211.72 186.48 213.36 189 213.96ZM175.1 190.76C182.56 188.22 192.74 185.38 196.26 192C192.68 187.7 194.82 183.44 198.2 189.76C202.98 196.14 205.38 186.86 202.26 184.72C205.8 189.12 209.84 191.2 204.64 185C210.3 178.2 193.32 185.9 189.46 185.82C187.62 186.64 170.3 190.22 175.1 190.76ZM179.48 182.4C183.74 179.2 194.18 184.32 187.48 179.22C186.82 178.62 172.78 183.08 179.48 182.4ZM194.98 183.04C199.96 183.16 192.84 176.36 198.76 179.44C197.78 176.26 191.86 175.66 188.96 174.4C187.32 177.3 192.28 183.08 194.98 183.04ZM182.2 168.96C183.92 166.64 179.18 170.16 182.2 168.96ZM188.52 170.48C196.54 169.42 186.48 167.04 186.9 170.4L188.52 170.48ZM176.7 161.24C171.06 153.86 187.32 162.48 181.58 154.76C176.76 150.92 172.12 159.08 176.7 161.24ZM249.12 200.24C251.7 195.66 238.44 194.06 247.38 198.62C248.22 198.9 248.02 200.56 249.12 200.24Z" fill="url(#paint1_linear_166_875)"/>
<defs>
<linearGradient id="paint0_linear_166_875" x1="497.5" y1="67" x2="29.5" y2="364.5" gradientUnits="userSpaceOnUse">
<stop stop-color="#3D3D3D"/>
<stop offset="1" stop-color="#1E1E1E"/>
</linearGradient>
<linearGradient id="paint1_linear_166_875" x1="261.559" y1="152.786" x2="261.559" y2="350.96" gradientUnits="userSpaceOnUse">
<stop stop-color="#C4C4C4"/>
<stop offset="1" stop-color="#999999"/>
</linearGradient>
</defs>
</svg>
