<svg width="512" height="512" viewBox="0 0 512 512" fill="none" xmlns="http://www.w3.org/2000/svg">
<rect width="512" height="512" rx="50" fill="url(#paint0_linear_166_850)"/>
<path d="M265.218 138.782L151.818 252.182C149.707 254.294 149.707 257.712 151.818 259.818L181.982 289.982C184.094 292.094 187.512 292.094 189.618 289.982L333.182 146.418C336.584 143.016 334.176 137.2 329.365 137.2H269.036C267.605 137.2 266.233 137.767 265.218 138.782ZM333.182 254.418L239.8 347.8L205.818 313.818C203.707 311.706 203.707 308.288 205.818 306.182L265.218 246.782C266.233 245.767 267.605 245.2 269.036 245.2H329.365C334.176 245.2 336.584 251.016 333.182 254.418ZM333.182 365.582L293.8 326.2L239.8 347.8L265.218 373.218C266.233 374.233 267.605 374.8 269.036 374.8H329.365C334.176 374.8 336.584 368.984 333.182 365.582Z" fill="url(#paint1_linear_166_850)"/>
<defs>
<linearGradient id="paint0_linear_166_850" x1="497.5" y1="67" x2="29.5" y2="364.5" gradientUnits="userSpaceOnUse">
<stop stop-color="#3D3D3D"/>
<stop offset="1" stop-color="#1E1E1E"/>
</linearGradient>
<linearGradient id="paint1_linear_166_850" x1="242.505" y1="137.2" x2="242.505" y2="374.8" gradientUnits="userSpaceOnUse">
<stop stop-color="#C4C4C4"/>
<stop offset="1" stop-color="#999999"/>
</linearGradient>
</defs>
</svg>
