<svg width="512" height="512" viewBox="0 0 512 512" fill="none" xmlns="http://www.w3.org/2000/svg">
<rect width="512" height="512" rx="50" fill="url(#paint0_linear_166_937)"/>
<path fill-rule="evenodd" clip-rule="evenodd" d="M256 138.206C189.306 138.206 135.224 192.276 135.224 258.982C135.224 312.346 169.83 357.616 217.818 373.588C223.852 374.708 226.068 370.968 226.068 367.778C226.068 364.898 225.956 355.384 225.904 345.292C192.304 352.598 185.214 331.042 185.214 331.042C179.72 317.082 171.804 313.37 171.804 313.37C160.844 305.874 172.63 306.03 172.63 306.03C184.756 306.88 191.144 318.476 191.144 318.476C201.916 336.936 219.398 331.6 226.29 328.516C227.374 320.71 230.504 315.38 233.958 312.364C207.132 309.314 178.93 298.956 178.93 252.678C178.93 239.492 183.65 228.718 191.376 220.258C190.12 217.218 185.986 204.934 192.544 188.298C192.544 188.298 202.684 185.052 225.764 200.678C235.4 198 245.734 196.654 256 196.608C266.26 196.654 276.6 197.996 286.254 200.674C309.306 185.048 319.434 188.294 319.434 188.294C326.008 204.928 321.874 217.214 320.62 220.254C328.364 228.714 333.05 239.488 333.05 252.674C333.05 299.062 304.796 309.274 277.902 312.266C282.236 316.014 286.096 323.366 286.096 334.632C286.096 350.792 285.956 363.798 285.956 367.776C285.956 370.99 288.132 374.756 294.252 373.57C342.212 357.582 376.778 312.326 376.778 258.982C376.776 192.28 322.7 138.206 256 138.206Z" fill="url(#paint1_linear_166_937)"/>
<path d="M180.967 311.612C180.701 312.212 179.757 312.392 178.897 311.982C178.017 311.59 177.527 310.772 177.811 310.17C178.071 309.55 179.017 309.38 179.891 309.794C180.771 310.188 181.271 311.014 180.965 311.614L180.967 311.612ZM185.859 317.07C185.285 317.604 184.159 317.356 183.395 316.51C182.603 315.67 182.455 314.544 183.041 314.002C183.637 313.47 184.729 313.722 185.521 314.562C186.309 315.414 186.465 316.53 185.861 317.072L185.859 317.07ZM190.623 324.024C189.883 324.54 188.671 324.058 187.923 322.984C187.183 321.908 187.183 320.618 187.943 320.104C188.689 319.588 189.883 320.054 190.643 321.118C191.379 322.208 191.379 323.5 190.623 324.024ZM197.145 330.746C196.485 331.476 195.073 331.28 194.041 330.286C192.987 329.312 192.693 327.926 193.355 327.198C194.027 326.466 195.445 326.67 196.483 327.658C197.537 328.63 197.855 330.018 197.149 330.744L197.145 330.746ZM206.145 334.648C205.851 335.594 204.495 336.024 203.125 335.62C201.759 335.206 200.865 334.1 201.145 333.144C201.425 332.19 202.791 331.744 204.169 332.174C205.535 332.586 206.429 333.686 206.145 334.648ZM216.031 335.37C216.065 336.366 214.905 337.19 213.471 337.21C212.025 337.244 210.855 336.436 210.841 335.456C210.841 334.45 211.977 333.636 213.421 333.608C214.855 333.582 216.033 334.382 216.033 335.368L216.031 335.37ZM225.227 333.806C225.399 334.776 224.401 335.774 222.975 336.04C221.575 336.3 220.275 335.696 220.095 334.734C219.923 333.738 220.939 332.74 222.339 332.482C223.767 332.236 225.047 332.82 225.227 333.806Z" fill="url(#paint2_linear_166_937)"/>
<defs>
<linearGradient id="paint0_linear_166_937" x1="497.5" y1="67" x2="29.5" y2="364.5" gradientUnits="userSpaceOnUse">
<stop stop-color="#3D3D3D"/>
<stop offset="1" stop-color="#1E1E1E"/>
</linearGradient>
<linearGradient id="paint1_linear_166_937" x1="256.001" y1="138.206" x2="256.001" y2="373.794" gradientUnits="userSpaceOnUse">
<stop stop-color="#C4C4C4"/>
<stop offset="1" stop-color="#999999"/>
</linearGradient>
<linearGradient id="paint2_linear_166_937" x1="201.488" y1="309.568" x2="201.488" y2="337.211" gradientUnits="userSpaceOnUse">
<stop stop-color="#C4C4C4"/>
<stop offset="1" stop-color="#999999"/>
</linearGradient>
</defs>
</svg>
