<svg width="512" height="512" viewBox="0 0 512 512" fill="none" xmlns="http://www.w3.org/2000/svg">
<rect width="512" height="512" rx="50" fill="url(#paint0_linear_166_784)"/>
<g clip-path="url(#clip0_166_784)">
<path d="M104.863 233.939C104.166 233.939 104.002 233.598 104.344 233.064L107.993 228.391C108.334 227.872 109.194 227.531 109.891 227.531H171.776C172.458 227.531 172.636 228.05 172.295 228.569L169.343 233.064C169.002 233.598 168.127 234.102 167.608 234.102L104.863 233.939ZM78.6967 249.885C77.9996 249.885 77.8216 249.544 78.1776 249.025L81.8117 244.337C82.1529 243.818 83.0281 243.477 83.7252 243.477H162.757C163.454 243.477 163.796 243.996 163.618 244.515L162.238 248.669C162.06 249.366 161.378 249.707 160.681 249.707L78.6967 249.885ZM120.645 265.831C119.948 265.831 119.77 265.312 120.126 264.792L122.544 260.461C122.885 259.942 123.582 259.423 124.28 259.423H158.945C159.642 259.423 159.983 259.942 159.983 260.639L159.642 264.792C159.642 265.49 158.945 266.009 158.426 266.009L120.645 265.831ZM300.559 230.824C289.642 233.598 282.18 235.675 271.441 238.448C268.83 239.131 268.667 239.309 266.398 236.713C263.817 233.761 261.903 231.862 258.269 230.127C247.337 224.757 236.761 226.315 226.897 232.723C215.104 240.347 209.037 251.62 209.215 265.653C209.378 279.522 218.916 290.958 232.607 292.872C244.4 294.429 254.264 290.276 262.081 281.435C263.639 279.522 265.018 277.445 266.754 275.013H233.305C229.67 275.013 228.795 272.758 230.012 269.821C232.266 264.451 236.42 255.433 238.852 250.923C239.224 250.088 239.832 249.38 240.602 248.887C241.372 248.394 242.269 248.137 243.184 248.149H306.27C305.929 252.837 305.929 257.509 305.231 262.197C303.436 274.537 298.547 286.222 291.021 296.165C278.546 312.63 262.244 322.865 241.626 325.624C224.642 327.879 208.859 324.586 195.005 314.202C182.174 304.486 174.891 291.656 172.992 275.71C170.738 256.812 176.285 239.828 187.722 224.92C200.033 208.811 216.32 198.576 236.256 194.942C252.543 191.99 268.148 193.904 282.18 203.427C291.377 209.509 297.948 217.815 302.294 227.872C303.333 229.43 302.636 230.305 300.559 230.824ZM357.934 326.677C342.152 326.321 327.763 321.812 315.63 311.414C305.536 302.907 298.882 291.017 296.91 277.964C293.795 258.384 299.165 241.044 310.957 225.618C323.61 208.975 338.859 200.312 359.492 196.678C377.173 193.563 393.816 195.283 408.887 205.518C422.578 214.863 431.077 227.531 433.332 244.159C436.269 267.566 429.52 286.627 413.396 302.929C401.96 314.543 387.912 321.812 371.789 325.105C367.116 325.98 362.444 326.143 357.934 326.677ZM399.171 256.649C399.008 254.394 399.008 252.659 398.667 250.923C395.552 233.761 379.769 224.06 363.304 227.872C347.18 231.506 336.782 241.741 332.97 258.028C329.855 271.556 336.441 285.248 348.916 290.795C358.453 294.949 367.976 294.429 377.173 289.757C390.864 282.637 398.296 271.556 399.171 256.649Z" fill="url(#paint1_linear_166_784)"/>
</g>
<defs>
<linearGradient id="paint0_linear_166_784" x1="497.5" y1="67" x2="29.5" y2="364.5" gradientUnits="userSpaceOnUse">
<stop stop-color="#3D3D3D"/>
<stop offset="1" stop-color="#1E1E1E"/>
</linearGradient>
<linearGradient id="paint1_linear_166_784" x1="256" y1="193.667" x2="256" y2="326.677" gradientUnits="userSpaceOnUse">
<stop stop-color="#C4C4C4"/>
<stop offset="1" stop-color="#999999"/>
</linearGradient>
<clipPath id="clip0_166_784">
<rect width="356" height="356" fill="white" transform="translate(78 75)"/>
</clipPath>
</defs>
</svg>
