<svg width="512" height="512" viewBox="0 0 512 512" fill="none" xmlns="http://www.w3.org/2000/svg">
<rect width="512" height="512" rx="50" fill="url(#paint0_linear_20_59)"/>
<path d="M377.641 119.945C376.516 118.703 374.898 118 373.211 118H138.789C137.102 118 135.484 118.703 134.359 119.945C133.211 121.187 132.648 122.852 132.812 124.539L153.93 361.094C154.141 363.578 155.875 365.641 158.266 366.344L254.336 393.766C254.852 393.93 255.414 394 255.977 394C256.539 394 257.078 393.93 257.617 393.766L353.758 366.344C356.148 365.641 357.859 363.578 358.094 361.094L379.187 124.539C379.352 122.852 378.789 121.187 377.641 119.945ZM327.086 201.508H214.211L216.906 232.047H324.367L316.305 322.305L255.953 340.539L255.367 340.352L195.719 322.281L192.461 285.508H221.687L222.953 299.781L256.305 306.766L289.047 299.781L292.539 261.156H190.281L182.336 172.328H329.687L327.086 201.508Z" fill="url(#paint1_linear_20_59)"/>
<defs>
<linearGradient id="paint0_linear_20_59" x1="497.5" y1="67" x2="29.5" y2="364.5" gradientUnits="userSpaceOnUse">
<stop stop-color="#3D3D3D"/>
<stop offset="1" stop-color="#1E1E1E"/>
</linearGradient>
<linearGradient id="paint1_linear_20_59" x1="256" y1="118" x2="256" y2="394" gradientUnits="userSpaceOnUse">
<stop stop-color="#C4C4C4"/>
<stop offset="1" stop-color="#727272"/>
</linearGradient>
</defs>
</svg>
