<svg width="512" height="512" viewBox="0 0 512 512" fill="none" xmlns="http://www.w3.org/2000/svg">
<rect width="512" height="512" rx="50" fill="url(#paint0_linear_20_13)"/>
<path d="M160 138.667C148.213 138.667 138.667 148.213 138.667 160V352C138.667 363.787 148.213 373.333 160 373.333H352C363.787 373.333 373.333 363.787 373.333 352V160C373.333 148.213 363.787 138.667 352 138.667H160ZM305.708 194.646C312.343 194.646 316.875 198.875 316.875 204.646C316.875 210.416 312.343 214.646 305.708 214.646C299.148 214.646 294.562 210.416 294.562 204.646C294.562 198.875 299.148 194.646 305.708 194.646ZM221.792 202.167H242.937L280.333 307.396H260.146L251.25 280.5H212.542L203.479 307.396H184.458L221.792 202.167ZM231.333 222.208L216.917 265.604H246.875L232.583 222.208H231.333ZM296.75 227.625H314.75V307.396H296.75V227.625Z" fill="url(#paint1_linear_20_13)"/>
<defs>
<linearGradient id="paint0_linear_20_13" x1="497.5" y1="67" x2="29.5" y2="364.5" gradientUnits="userSpaceOnUse">
<stop stop-color="#3D3D3D"/>
<stop offset="1" stop-color="#1E1E1E"/>
</linearGradient>
<linearGradient id="paint1_linear_20_13" x1="256" y1="138.667" x2="256" y2="373.333" gradientUnits="userSpaceOnUse">
<stop stop-color="#C4C4C4"/>
<stop offset="1" stop-color="#727272"/>
</linearGradient>
</defs>
</svg>
