<svg width="512" height="512" viewBox="0 0 512 512" fill="none" xmlns="http://www.w3.org/2000/svg">
<rect width="512" height="512" rx="50" fill="url(#paint0_linear_35_55)"/>
<path d="M355 118C346.248 118 337.854 121.477 331.665 127.665C325.477 133.854 322 142.248 322 151C322 159.752 325.477 168.146 331.665 174.335C337.854 180.523 346.248 184 355 184C363.752 184 372.146 180.523 378.335 174.335C384.523 168.146 388 159.752 388 151C388 142.248 384.523 133.854 378.335 127.665C372.146 121.477 363.752 118 355 118ZM251.125 118.082C248.455 118.184 245.774 118.357 243.074 118.609C235.346 119.335 227.645 120.707 220.199 122.699L223.293 134.301C230.097 132.483 237.126 131.217 244.188 130.551C246.66 130.323 249.128 130.16 251.57 130.07L251.125 118.082ZM282.332 120.496L280.047 132.285C289.413 134.097 298.581 136.993 307.293 140.887L312.191 129.93C302.639 125.664 292.592 122.488 282.332 120.496ZM191.078 134.184C181.874 139.092 173.216 145.073 165.332 151.949L173.219 160.984C180.413 154.702 188.333 149.253 196.727 144.777L191.078 134.184ZM256 154C199.756 154 154 199.756 154 256C154 312.244 199.756 358 256 358C312.244 358 358 312.244 358 256C358 199.756 312.244 154 256 154ZM144.238 175.047C138.1 183.525 132.92 192.687 128.852 202.293L139.902 206.969C143.616 198.197 148.349 189.83 153.953 182.09L144.238 175.047ZM286 190C302.566 190 316 203.434 316 220C316 236.566 302.566 250 286 250C269.434 250 256 236.566 256 220C256 203.434 269.434 190 286 190ZM379.07 193.469L368.371 198.906C372.697 207.408 376.034 216.414 378.32 225.672L389.969 222.812C387.467 212.667 383.804 202.787 379.07 193.469ZM120.016 232.328C118.672 240.062 117.988 247.976 117.988 255.848C117.988 258.404 118.055 260.973 118.199 263.559L130.188 262.891C130.056 260.533 129.988 258.182 129.988 255.848C129.988 248.66 130.616 241.435 131.84 234.379L120.016 232.328ZM393.391 243.062L381.449 244.188C381.827 248.148 382.023 252.174 382.023 256.152C382.023 261.684 381.648 267.274 380.922 272.77L392.816 274.352C393.614 268.34 394.017 262.212 394.023 256.152C394.023 251.802 393.799 247.395 393.391 243.062ZM190 250H202V298H226V310H190V250ZM302.934 257.711C314.514 257.711 322 265.248 322 276.906V310H310V309.004C305.092 310.702 300.146 311.242 297.824 311.242C289.682 311.242 281.242 305.452 281.242 295.75C281.242 283.846 293.302 280.538 301.27 278.348C304.432 277.478 308.187 276.4 309.789 275.242C309.309 271.48 307.254 269.711 302.934 269.711C300.462 269.711 295.363 270.722 295.363 273.836H283.363C283.363 263.252 293.208 257.711 302.934 257.711ZM232 262H244V294.953C244 297.941 246.426 300.367 249.414 300.367H250.914C257.028 300.367 262 295.401 262 289.293V262H274V289.293V310H262V309.414C258.694 311.244 254.952 312.367 250.914 312.367H249.414C239.808 312.367 232 304.553 232 294.953V262ZM310 288.227C308.176 288.839 306.317 289.392 304.445 289.902C296.861 291.996 293.242 293.398 293.242 295.75C293.242 299.152 297.776 299.242 297.824 299.242C301.688 299.242 307.504 297.681 310 295.809V288.227ZM134.957 291.086L123.426 294.402C126.318 304.434 130.373 314.163 135.473 323.289L145.949 317.441C141.293 309.107 137.597 300.242 134.957 291.086ZM373.938 300.473C370.566 309.389 366.163 317.941 360.859 325.879L370.844 332.547C376.646 323.847 381.468 314.477 385.164 304.715L373.938 300.473ZM162.613 340.621L153.73 348.684C160.75 356.418 168.664 363.356 177.238 369.32L184.094 359.477C176.258 354.017 169.027 347.683 162.613 340.621ZM342.414 347.699C335.46 354.257 327.777 360.026 319.562 364.832L325.621 375.191C334.621 369.929 343.038 363.618 350.652 356.43L342.414 347.699ZM209.242 373.035L204.789 384.168C214.497 388.062 224.645 390.834 234.977 392.418L236.805 380.57C227.379 379.124 218.104 376.587 209.242 373.035ZM293.43 376.34C285.156 378.902 276.525 380.621 267.789 381.449L265.305 381.66L266.289 393.625L268.926 393.391C278.478 392.485 287.914 390.609 296.98 387.801L293.43 376.34Z" fill="url(#paint1_linear_35_55)"/>
<defs>
<linearGradient id="paint0_linear_35_55" x1="497.5" y1="67" x2="29.5" y2="364.5" gradientUnits="userSpaceOnUse">
<stop stop-color="#3D3D3D"/>
<stop offset="1" stop-color="#1E1E1E"/>
</linearGradient>
<linearGradient id="paint1_linear_35_55" x1="256.006" y1="118" x2="256.006" y2="393.625" gradientUnits="userSpaceOnUse">
<stop stop-color="#C4C4C4"/>
<stop offset="1" stop-color="#999999"/>
</linearGradient>
</defs>
</svg>
