<svg width="512" height="512" viewBox="0 0 512 512" fill="none" xmlns="http://www.w3.org/2000/svg">
<rect width="512" height="512" rx="50" fill="url(#paint0_linear_166_1010)"/>
<g clip-path="url(#clip0_166_1010)">
<path d="M363.376 324.484C349.43 324.102 338.782 325.406 329.672 329.242C327.086 330.336 322.962 330.36 322.54 333.602C323.962 335.094 324.18 337.32 325.314 339.156C327.486 342.664 331.158 347.382 334.432 349.86C338.01 352.556 341.698 355.446 345.534 357.782C352.362 361.946 359.98 364.322 366.542 368.486C370.418 370.946 374.26 374.04 378.042 376.814C379.91 378.182 381.168 380.314 383.588 381.174V380.784C382.314 379.16 381.986 376.924 380.814 375.23L375.658 370.074C370.618 363.386 364.22 357.512 357.424 352.636C352.002 348.738 339.862 343.48 337.604 337.176L337.206 336.778C341.05 336.34 345.55 334.95 349.104 333.996C355.064 332.402 360.394 332.816 366.542 331.222L374.87 328.848V327.262C371.76 324.074 369.542 319.848 366.152 316.958C357.27 309.396 347.582 301.848 337.606 295.552C332.074 292.06 325.238 289.786 319.372 286.826C317.396 285.834 313.934 285.31 312.63 283.654C309.552 279.732 307.872 274.756 305.498 270.178C300.522 260.592 295.638 250.132 291.224 240.046C288.216 233.172 286.256 226.39 282.506 220.226C264.506 190.632 245.132 172.766 215.116 155.21C208.726 151.476 201.038 150 192.912 148.07L179.826 147.28C177.162 146.17 174.396 142.912 171.896 141.326C161.954 135.04 136.446 121.376 129.078 139.344C124.43 150.68 136.032 161.742 140.18 167.492C143.094 171.516 146.82 176.038 148.898 180.57C150.274 183.554 150.508 186.538 151.68 189.688C154.556 197.454 157.07 205.906 160.798 213.078C162.68 216.71 164.758 220.532 167.142 223.782C168.596 225.774 171.102 226.658 171.502 229.728C169.048 233.158 168.908 238.478 167.534 242.814C161.338 262.354 163.682 286.634 172.69 301.088C175.456 305.534 181.972 315.048 190.924 311.4C198.76 308.204 197.01 298.322 199.252 289.596C199.76 287.62 199.448 286.166 200.44 284.838V285.236L207.58 299.502C212.862 308.01 222.228 316.9 230.174 322.9C234.292 326.01 237.534 331.384 242.862 333.204V332.806H242.464C241.432 331.196 239.816 330.532 238.504 329.244C235.402 326.198 231.95 322.416 229.386 318.932C222.16 309.128 215.776 298.392 209.964 287.222C207.182 281.886 204.768 276.004 202.424 270.574C201.518 268.48 201.534 265.308 199.65 264.23C197.088 268.206 193.306 271.426 191.322 276.12C188.158 283.628 187.744 292.792 186.572 302.284C185.876 302.534 186.182 302.362 185.776 302.682C180.252 301.346 178.316 295.666 176.26 290.784C171.072 278.456 170.104 258.604 174.674 244.402C175.854 240.73 181.198 229.168 179.034 225.77C178.002 222.388 174.596 220.426 172.69 217.84C170.33 214.644 167.98 210.434 166.346 206.738C162.096 197.128 160.12 186.332 155.642 176.614C153.502 171.966 149.892 167.262 146.924 163.138C143.634 158.56 139.956 155.184 137.408 149.654C136.502 147.686 135.276 144.536 136.612 142.522C137.042 141.154 137.644 140.584 138.994 140.14C141.29 138.366 147.698 140.734 150.088 141.726C156.448 144.366 161.752 146.882 167.142 150.452C169.72 152.162 172.338 155.476 175.462 156.398H179.032C184.61 157.68 190.86 156.788 196.078 158.374C205.296 161.178 213.554 165.538 221.054 170.272C243.898 184.702 262.586 205.232 275.366 229.74C277.42 233.686 278.312 237.444 280.124 241.63C283.772 250.068 288.374 258.748 292.006 267.006C295.638 275.232 299.17 283.546 304.302 290.396C306.998 293.998 317.404 295.928 322.138 297.928C325.458 299.326 330.896 300.788 334.036 302.686C340.036 306.304 345.848 310.616 351.482 314.576C354.286 316.56 362.942 320.912 363.372 324.49L363.376 324.484ZM186.166 173.444C183.26 173.39 181.206 173.756 179.034 174.234V174.632H179.424C180.814 177.476 183.26 179.312 184.978 181.764L188.938 190.092L189.336 189.702C191.79 187.968 192.914 185.202 192.898 180.976C191.914 179.936 191.774 178.648 190.914 177.406C189.79 175.758 187.594 174.828 186.164 173.446L186.166 173.444Z" fill="url(#paint1_linear_166_1010)"/>
</g>
<defs>
<linearGradient id="paint0_linear_166_1010" x1="497.5" y1="67" x2="29.5" y2="364.5" gradientUnits="userSpaceOnUse">
<stop stop-color="#3D3D3D"/>
<stop offset="1" stop-color="#1E1E1E"/>
</linearGradient>
<linearGradient id="paint1_linear_166_1010" x1="255.793" y1="130.414" x2="255.793" y2="381.174" gradientUnits="userSpaceOnUse">
<stop stop-color="#C4C4C4"/>
<stop offset="1" stop-color="#999999"/>
</linearGradient>
<clipPath id="clip0_166_1010">
<rect width="256" height="256" fill="white" transform="translate(128 128)"/>
</clipPath>
</defs>
</svg>
