<svg width="512" height="512" viewBox="0 0 512 512" fill="none" xmlns="http://www.w3.org/2000/svg">
<rect width="512" height="512" rx="50" fill="url(#paint0_linear_166_888)"/>
<path d="M227.729 298.187C227.729 302.845 223.954 306.625 219.291 306.625C214.628 306.625 210.854 302.845 210.854 298.187V219.437C210.854 215.764 213.233 212.513 216.732 211.394C220.247 210.28 224.056 211.562 226.176 214.561L320.547 347.896C349.47 327.488 368.5 293.884 368.5 256C368.5 194.125 317.875 143.5 256 143.5C194.125 143.5 143.5 194.125 143.5 256C143.5 317.875 194.125 368.5 256 368.5C273.955 368.5 290.909 364.129 306.006 356.564L227.729 245.965V298.187ZM283.979 213.812C283.979 209.155 287.753 205.375 292.416 205.375C297.079 205.375 300.854 209.155 300.854 213.812V291.662L283.979 267.886V213.812Z" fill="url(#paint1_linear_166_888)"/>
<defs>
<linearGradient id="paint0_linear_166_888" x1="497.5" y1="67" x2="29.5" y2="364.5" gradientUnits="userSpaceOnUse">
<stop stop-color="#3D3D3D"/>
<stop offset="1" stop-color="#1E1E1E"/>
</linearGradient>
<linearGradient id="paint1_linear_166_888" x1="256" y1="143.5" x2="256" y2="368.5" gradientUnits="userSpaceOnUse">
<stop stop-color="#C4C4C4"/>
<stop offset="1" stop-color="#999999"/>
</linearGradient>
</defs>
</svg>
