<svg width="512" height="512" viewBox="0 0 512 512" fill="none" xmlns="http://www.w3.org/2000/svg">
<rect width="512" height="512" rx="50" fill="url(#paint0_linear_166_767)"/>
<path d="M255.945 131.125C252.523 131.125 249.102 131.964 246.149 133.652L153.241 187.283C147.241 190.752 143.5 197.32 143.5 204.257V301.56C143.5 308.591 147.241 315.065 153.241 318.533L177.631 332.596C189.443 338.408 193.656 338.4 198.999 338.4C216.531 338.4 226.557 327.808 226.557 309.433V209.036C226.557 207.536 225.347 206.308 223.847 206.308H212.128C210.534 206.308 209.4 207.536 209.4 209.036V309.342C209.4 317.592 200.879 325.652 187.097 318.808L161.591 304.086C160.653 303.618 160.089 302.591 160.089 301.56V204.349C160.089 203.224 160.653 202.275 161.591 201.712L254.499 148.099C255.342 147.536 256.472 147.536 257.41 148.099L350.318 201.712C351.255 202.275 351.819 203.226 351.819 204.257V301.56C351.819 302.591 351.253 303.618 350.409 304.086L257.41 357.81C256.566 358.278 255.342 358.278 254.499 357.81L230.585 343.656C229.929 343.187 229.007 343.097 228.351 343.472C221.695 347.222 220.476 347.688 214.289 349.844C212.789 350.313 210.443 351.248 215.131 353.873L246.149 372.257C249.149 373.944 252.533 374.875 255.908 374.875C259.377 374.875 262.741 373.944 265.741 372.257L358.759 318.533C364.759 315.065 368.5 308.591 368.5 301.56V204.349C368.5 197.318 364.759 190.844 358.759 187.375L265.741 133.652C262.788 131.964 259.367 131.125 255.945 131.125ZM280.939 206.18C254.408 206.18 238.568 217.423 238.568 236.173C238.568 256.516 254.304 262.133 279.804 264.664C310.272 267.664 312.616 272.177 312.616 278.177C312.616 288.49 304.286 292.899 284.693 292.899C260.036 292.899 254.595 286.702 252.814 274.515C252.626 273.202 251.508 272.263 250.196 272.263H238.092C236.592 272.263 235.474 273.493 235.474 274.899C235.474 290.556 244.005 309.195 284.693 309.195C314.13 309.195 331 297.585 331 277.335C331 257.272 317.404 251.918 288.904 248.074C259.935 244.324 257.025 242.355 257.025 235.605C257.025 229.98 259.564 222.586 280.939 222.586C299.97 222.586 307.092 226.698 309.998 239.542C310.279 240.76 311.304 241.702 312.616 241.702H324.719C325.469 241.702 326.116 241.331 326.679 240.769C327.147 240.3 327.432 239.543 327.338 238.699C325.463 216.574 310.751 206.18 280.939 206.18Z" fill="url(#paint1_linear_166_767)"/>
<defs>
<linearGradient id="paint0_linear_166_767" x1="497.5" y1="67" x2="29.5" y2="364.5" gradientUnits="userSpaceOnUse">
<stop stop-color="#3D3D3D"/>
<stop offset="1" stop-color="#1E1E1E"/>
</linearGradient>
<linearGradient id="paint1_linear_166_767" x1="256" y1="131.125" x2="256" y2="374.875" gradientUnits="userSpaceOnUse">
<stop stop-color="#C4C4C4"/>
<stop offset="1" stop-color="#999999"/>
</linearGradient>
</defs>
</svg>
