<svg width="512" height="512" viewBox="0 0 512 512" fill="none" xmlns="http://www.w3.org/2000/svg">
<rect width="512" height="512" rx="50" fill="url(#paint0_linear_166_718)"/>
<path d="M253 115C200.805 115 190 141.953 190 157.562V187H250V193H160.562C140.758 193 118 208.609 118 253C118 297.391 140.758 313 160.562 313H196V277C196 263.805 206.805 253 220 253H292C302.195 253 310 245.195 310 235V157.562C310 136.562 290.195 115 253 115ZM226 145C232.609 145 238 150.391 238 157C238 163.609 232.609 169 226 169C219.391 169 214 163.609 214 157C214 150.391 219.391 145 226 145ZM316 193V235C316 248.195 305.195 259 292 259H220C209.805 259 202 266.805 202 277V348.438C202 369.438 221.805 391 259 391C311.195 391 322 364.047 322 348.438V319H262V313H351.438C371.242 313 394 297.391 394 253C394 208.609 371.242 193 351.438 193H316ZM286 337C292.609 337 298 342.391 298 349C298 355.609 292.609 361 286 361C279.391 361 274 355.609 274 349C274 342.391 279.391 337 286 337Z" fill="url(#paint1_linear_166_718)"/>
<defs>
<linearGradient id="paint0_linear_166_718" x1="497.5" y1="67" x2="29.5" y2="364.5" gradientUnits="userSpaceOnUse">
<stop stop-color="#3D3D3D"/>
<stop offset="1" stop-color="#1E1E1E"/>
</linearGradient>
<linearGradient id="paint1_linear_166_718" x1="256" y1="115" x2="256" y2="391" gradientUnits="userSpaceOnUse">
<stop stop-color="#C4C4C4"/>
<stop offset="1" stop-color="#999999"/>
</linearGradient>
</defs>
</svg>
