<svg width="512" height="512" viewBox="0 0 512 512" fill="none" xmlns="http://www.w3.org/2000/svg">
<rect width="512" height="512" rx="50" fill="url(#paint0_linear_166_1106)"/>
<path d="M246.098 128L142.678 187.71V307.12L182.328 284.22V237.428C182.346 236.624 182.778 235.886 183.474 235.494C183.816 235.294 184.205 235.187 184.601 235.184C184.997 235.181 185.387 235.282 185.732 235.478L233.906 263.278C234.596 263.678 235.169 264.253 235.566 264.945C235.964 265.636 236.173 266.42 236.172 267.218V322.818C236.168 323.214 236.061 323.602 235.863 323.946C235.665 324.289 235.383 324.575 235.042 324.778C234.702 324.978 234.316 325.085 233.921 325.089C233.527 325.093 233.139 324.994 232.794 324.802L192.254 301.366L152.59 324.286L255.982 384L359.386 324.288L319.752 301.368L279.23 324.774C278.885 324.964 278.498 325.062 278.104 325.059C277.711 325.056 277.324 324.953 276.982 324.758C276.64 324.559 276.356 324.274 276.157 323.932C275.958 323.59 275.851 323.202 275.846 322.806V267.216C275.846 265.576 276.694 264.096 278.112 263.28L326.26 235.474C326.603 235.278 326.992 235.176 327.386 235.179C327.781 235.182 328.168 235.289 328.508 235.49C329.212 235.882 329.652 236.62 329.658 237.424V284.216L369.318 307.124V187.71H369.3L265.92 128V173.8L306.44 197.192C307.134 197.6 307.55 198.346 307.55 199.16C307.55 199.966 307.126 200.706 306.44 201.112L258.274 228.936C257.582 229.328 256.8 229.535 256.004 229.535C255.209 229.535 254.426 229.328 253.734 228.936L205.582 201.112C205.24 200.914 204.956 200.629 204.76 200.287C204.563 199.944 204.46 199.555 204.462 199.16C204.459 198.762 204.56 198.371 204.757 198.025C204.954 197.68 205.239 197.392 205.582 197.192L246.096 173.8L246.098 128Z" fill="url(#paint1_linear_166_1106)"/>
<defs>
<linearGradient id="paint0_linear_166_1106" x1="497.5" y1="67" x2="29.5" y2="364.5" gradientUnits="userSpaceOnUse">
<stop stop-color="#3D3D3D"/>
<stop offset="1" stop-color="#1E1E1E"/>
</linearGradient>
<linearGradient id="paint1_linear_166_1106" x1="255.998" y1="128" x2="255.998" y2="384" gradientUnits="userSpaceOnUse">
<stop stop-color="#C4C4C4"/>
<stop offset="1" stop-color="#999999"/>
</linearGradient>
</defs>
</svg>
