<svg width="512" height="512" viewBox="0 0 512 512" fill="none" xmlns="http://www.w3.org/2000/svg">
<rect width="512" height="512" rx="50" fill="url(#paint0_linear_166_1128)"/>
<g clip-path="url(#clip0_166_1128)">
<path d="M165.586 197.112C159.681 197.365 160.343 205.732 159.207 209.974C157.35 216.908 155.639 225.727 155.095 232.881C154.55 239.843 154.998 246.295 155.879 253.335C156.564 258.809 158.142 262.441 156.706 263.912C155.552 265.294 118.546 299.234 115.564 301.156C112.475 303.159 114.614 308.101 116.385 310.872C118.251 313.794 119.136 315.307 123.019 314.788C126.669 314.295 127.827 309.947 129.957 307.581C132.5 304.579 158.616 279.128 160.924 279.128L160.866 278.802C161.8 285.287 165.242 291.46 168.849 296.8C170.62 299.441 172.577 302.019 174.838 304.278C176.915 306.357 179.597 308.054 181.816 309.623C187.034 309.896 191.237 306.033 185.976 301.657C183.968 299.978 177.245 290.093 174.969 284.626C172.845 279.516 168.148 271.842 173.234 267.644C190.808 253 217.358 240.726 223.624 240.118C220.568 252.148 207.522 276.328 202.75 287.777C201.106 291.737 200.014 296.474 200.571 300.788C201.23 305.944 205.11 310 207.547 310.386C212.492 310.104 215.845 305.758 218.773 302.702C222.838 298.469 226.308 294.555 230.358 290.304C234.378 286.073 238.33 281.611 241.895 277.582C244.087 275.097 249.883 269.086 253.326 269.086C252.03 277.366 244.824 287.568 243.373 295.92C241.893 304.462 249.683 314.919 257.839 307.304C265.241 300.388 272.749 293.867 280.026 286.847C282.605 284.38 282.101 287.291 282.68 289.723C283.264 292.194 284.777 300.539 285.948 302.791C288.096 306.911 291.835 309.838 296.596 309.918C300.925 309.989 305.243 308.005 308.262 304.994C310.514 302.751 314.379 296.676 310.104 295.092C307.375 294.08 307.532 293 304.224 293.554C302.172 293.905 299.92 294.431 298.196 295.682C293.832 295.665 293.665 285.13 294.342 281.893C295.141 278.03 296.798 274.078 296.543 270.045C296.243 265.075 290.876 261.82 289.631 261.469C287.785 260.559 286.652 261.729 284.202 263.983C282.143 265.884 279.882 267.928 277.85 269.854C273.792 273.699 268.731 279.528 266.665 279.528C270.291 271.252 275.096 248.11 259.028 250.151C252.35 251.003 247.746 254.633 242.483 258.596C238.822 262.103 235.113 265.56 231.358 268.966C228.543 271.509 226.943 273.741 225.47 273.741C227.038 264.95 245.483 236.076 235.987 227.937C234.083 226.335 232.263 224.072 229.861 223.801C226.508 224.214 223.2 225.026 219.972 226.056C213.264 228.37 187.032 241.365 170.274 253.36C168.718 254.487 167.722 252.359 167.531 249.903C166.484 237.185 169.883 223.835 173.42 211.962C175.867 203.682 166.781 197.4 165.586 197.112ZM380.454 207.933C378.481 212.264 378.086 218.556 377.498 223.597V223.615C373.017 223.087 367.19 222.517 362.704 222.246C365.528 225.765 370.909 229.233 375.257 230.855C374.678 235.199 370.097 238.807 368.142 243.005C373.573 241.498 376.174 237.427 379.881 233.236C384.175 235.849 389.26 240.697 394.84 240.801C392.728 236.315 390.864 232.541 387.019 229.302C390.214 227.216 395.543 225.026 398 221.787C393.908 220.908 389.497 220.677 385.51 221.609C382.448 218.23 381.951 212.421 380.454 207.933ZM347.765 208.792C345.029 209.042 340.487 214.634 337.885 217.986C328.293 230.331 319.547 255.461 318.138 260.091C313.845 274.287 312.178 291.786 321.471 304.28C326.875 311.566 336.398 312.117 345.733 309.436C350.547 308.052 355.371 304.597 357.017 300.839C358.382 297.708 359.085 291.882 352.211 296.323C349.553 298.039 344.679 299.933 335.939 299.794C333.01 299.74 328.196 295.534 326.904 291.185C324.632 284.098 325.6 274.637 325.6 274.637C327.579 262.423 333.248 249.188 338.22 238.086C340.148 233.799 346.023 223.114 348.226 219.708C348.226 219.717 351.044 215.277 349.78 210.56L349.757 210.598C349.387 209.213 348.677 208.707 347.765 208.792ZM384.263 244.147C382.828 247.291 382.546 251.875 382.122 255.536H382.1C378.852 255.159 374.601 254.742 371.37 254.538C373.42 257.094 377.33 259.608 380.48 260.788C380.081 263.93 376.748 266.57 375.322 269.608C379.273 268.514 381.177 265.549 383.851 262.521C386.966 264.396 390.671 267.926 394.72 268.003C393.214 264.74 391.849 261.993 389.051 259.652C391.357 258.148 395.22 256.528 396.999 254.196C394.041 253.555 390.811 253.397 387.942 254.072C385.717 251.616 385.353 247.416 384.263 244.147ZM369.731 272.88C368.748 275.055 368.548 278.205 368.255 280.748L368.228 280.739C365.762 280.445 363.288 280.217 360.809 280.056C362.218 281.831 364.92 283.561 367.101 284.38C366.82 286.554 364.528 288.36 363.54 290.464C366.269 289.698 367.578 287.659 369.438 285.554C371.61 286.874 374.153 289.301 376.953 289.354C375.905 287.102 374.969 285.221 373.043 283.59C374.634 282.543 377.303 281.433 378.543 279.818C376.487 279.374 374.268 279.259 372.28 279.725C370.74 278.037 370.48 275.132 369.733 272.878L369.731 272.88Z" fill="url(#paint1_linear_166_1128)"/>
</g>
<defs>
<linearGradient id="paint0_linear_166_1128" x1="497.5" y1="67" x2="29.5" y2="364.5" gradientUnits="userSpaceOnUse">
<stop stop-color="#3D3D3D"/>
<stop offset="1" stop-color="#1E1E1E"/>
</linearGradient>
<linearGradient id="paint1_linear_166_1128" x1="255.999" y1="197.112" x2="255.999" y2="314.889" gradientUnits="userSpaceOnUse">
<stop stop-color="#C4C4C4"/>
<stop offset="1" stop-color="#999999"/>
</linearGradient>
<clipPath id="clip0_166_1128">
<rect width="284" height="284" fill="white" transform="translate(114 114)"/>
</clipPath>
</defs>
</svg>
