<svg width="512" height="512" viewBox="0 0 512 512" fill="none" xmlns="http://www.w3.org/2000/svg">
<rect width="512" height="512" rx="50" fill="#3EB049"/>
<path d="M178.344 160.737C185.394 161.843 194.3 163.612 203.806 166.312C201.663 172.418 199.831 178.837 198.456 185.418C191.625 185.356 184.875 185.831 178.381 186.675C177.763 176.9 177.925 167.918 178.344 160.737ZM169.013 188.15C168.475 180.362 168.438 173.081 168.638 166.681C168.306 167.006 167.938 167.281 167.606 167.612C159.794 175.425 153.375 184.087 148.063 193.218C154.231 191.393 161.263 189.581 169.013 188.15ZM182.281 213.006C185.9 206.793 190.275 200.906 195.588 195.587C195.869 195.306 196.175 195.075 196.456 194.8C190.613 194.85 184.819 195.312 179.213 196.062C179.863 201.662 180.925 207.356 182.281 213.006ZM174.306 220.012C172.213 212.543 170.788 204.962 169.894 197.587C158.875 199.687 149.169 202.568 142.013 205.018C141.888 205.3 141.75 205.568 141.625 205.85C144.763 212.875 149.35 222.081 155.4 231.675C161.25 227.45 167.575 223.456 174.306 220.012ZM148.35 237.031C143.875 230.018 140.244 223.281 137.288 217.268C133.581 228.687 131.569 240.512 131.231 252.4C135.969 247.662 141.731 242.331 148.35 237.031ZM132.263 272.4C133.838 284.412 137.163 296.2 142.219 307.425C144.538 300.987 147.519 293.643 151.281 286.018C144.019 281.431 137.6 276.687 132.263 272.4ZM133 263.206C138.669 267.987 146.138 273.743 154.806 279.275C158.256 272.987 162.25 266.718 166.825 260.768C161.819 255.568 157.313 250.012 153.3 244.381C145.019 251.075 138.044 257.862 133 263.206ZM160.3 239.012C163.463 243.493 167.006 247.868 170.8 252.056C171.144 244.518 172.456 237.031 174.781 229.781C169.706 232.612 164.831 235.712 160.3 239.012ZM207.444 156.862C210.425 149.668 213.619 143.15 216.644 137.512C206.206 140.962 196.113 145.718 186.713 151.981C192.938 153.137 199.969 154.693 207.444 156.862ZM217.088 159.906C222.831 161.912 228.644 164.312 234.35 167.1C239.738 160.862 244.356 155.606 247.456 152.1C242.956 148.368 235.819 142.631 228.313 137.193C224.794 143.356 220.775 151.137 217.088 159.906ZM175.8 328.525C166.813 327.706 158.55 326.293 151.631 324.818C156.2 331.743 161.525 338.306 167.613 344.393C170.819 347.6 174.169 350.562 177.619 353.343C176.669 346.2 175.9 337.687 175.8 328.525ZM344.388 167.606C316.5 139.725 278.606 127.868 242.156 131.9C252.038 139.437 259.906 146.237 260.481 146.743L265.275 150.912L261.031 155.637C260.931 155.75 255.431 161.893 247.469 171.05C250.306 170.768 253.15 170.612 256 170.612C277.875 170.612 299.756 178.943 316.413 195.593C349.725 228.906 349.725 283.106 316.413 316.418C287.55 345.275 243.013 349.081 209.963 327.931C203.625 328.85 197.25 329.268 191.019 329.268C188.225 329.268 185.481 329.168 182.763 329.031C182.931 340.718 184.219 351.325 185.488 359.137C206.669 373.631 231.319 380.962 256.006 380.962C288.019 380.962 320.025 368.775 344.394 344.412C393.125 295.65 393.125 216.35 344.388 167.606ZM201.6 321.843C199.538 320.137 197.525 318.343 195.594 316.418C191.4 312.225 187.738 307.693 184.6 302.918C183.544 309.337 182.975 315.775 182.813 322.043C188.925 322.375 195.263 322.318 201.6 321.843ZM213.406 169.318C211.644 174.275 210.138 179.45 208.9 184.718C214.588 180.956 220.65 178.037 226.9 175.781C227.119 175.525 227.363 175.231 227.581 174.975C222.894 172.812 218.131 170.943 213.406 169.318ZM171.438 267.243C167.65 272.393 164.244 277.775 161.288 283.206C166.694 286.331 172.469 289.187 178.463 291.637C174.888 283.831 172.538 275.612 171.438 267.243ZM178.131 299.643C170.969 296.912 164.15 293.568 157.806 289.937C152.963 299.85 149.425 309.331 147.044 316.662C154.556 318.481 164.688 320.462 175.875 321.531C176.088 314.381 176.775 307.006 178.131 299.643Z" fill="white"/>
</svg>
