<svg width="512" height="512" viewBox="0 0 512 512" fill="none" xmlns="http://www.w3.org/2000/svg">
<rect width="512" height="512" rx="50" fill="#01969C"/>
<path d="M329.125 322.875C281 322.875 246.625 267.25 245.375 264.75L241.625 258.5L245.375 252.25C246.625 249.125 281 193.5 329.125 193.5C364.75 193.5 393.5 222.25 393.5 257.875C393.5 293.5 364.75 322.875 329.125 322.875ZM271 257.875C280.375 270.375 302.875 297.25 328.5 297.25C350.375 297.25 367.875 279.75 367.875 257.875C367.875 236 350.375 218.5 328.5 218.5C302.875 218.5 280.375 245.375 271 257.875Z" fill="white"/>
<path d="M182.875 322.875C147.25 322.875 118.5 293.5 118.5 257.875C118.5 222.25 147.25 193.5 182.875 193.5C232.25 193.5 265.375 249.125 266.625 251.625L270.375 257.875L266.625 264.125C265.375 266.625 231 322.875 182.875 322.875ZM182.875 218.5C161 218.5 143.5 236 143.5 257.875C143.5 279.75 161 297.25 182.875 297.25C209.125 297.25 231.625 270.375 241 257.875C232.25 245.375 209.75 218.5 182.875 218.5Z" fill="white"/>
<path d="M168.5 249.75H206V262.25H168.5V249.75ZM306 249.75H343.5V262.25H306V249.75Z" fill="white"/>
<path d="M318.5 237.25H331V274.75H318.5V237.25Z" fill="white"/>
</svg>
