<svg width="512" height="512" viewBox="0 0 512 512" fill="none" xmlns="http://www.w3.org/2000/svg">
<rect width="512" height="512" rx="50" fill="#00499A"/>
<path d="M244.334 306.124C231.552 306.124 221.825 302.954 215.156 296.614C208.487 290.275 206.041 281.766 207.82 271.089H232.83C232.163 275.204 233.219 278.485 235.998 280.932C238.777 283.268 242.889 284.436 248.336 284.436C253.56 284.436 257.84 283.268 261.174 280.932C264.509 278.597 266.51 275.371 267.177 271.256C267.732 267.474 267.121 264.249 265.343 261.58C263.675 258.91 260.952 257.131 257.173 256.241L245.335 253.405C235.331 250.958 227.939 246.454 223.159 239.892C218.38 233.33 216.712 225.433 218.157 216.201C219.269 209.083 221.881 202.911 225.994 197.683C230.107 192.345 235.386 188.229 241.833 185.338C248.28 182.446 255.617 181 263.842 181C276.291 181 285.684 184.114 292.02 190.343C298.356 196.46 300.69 204.746 299.023 215.2H274.013C274.568 211.308 273.679 208.249 271.345 206.025C269.011 203.8 265.287 202.688 260.174 202.688C255.394 202.688 251.504 203.8 248.503 206.025C245.613 208.138 243.89 211.197 243.334 215.2C242.667 218.982 243.112 222.207 244.668 224.877C246.224 227.435 248.781 229.159 252.337 230.049L264.842 233.051C275.069 235.498 282.572 239.947 287.351 246.398C292.131 252.738 293.798 260.634 292.353 270.088C291.131 277.429 288.352 283.824 284.017 289.274C279.682 294.612 274.124 298.783 267.343 301.786C260.674 304.678 253.004 306.124 244.334 306.124ZM98.8421 304.455L148.028 182.668H179.707L190.545 304.455H165.702L164.201 276.928H135.19L125.019 304.455H98.8421ZM142.526 256.908H163.034L161.867 227.546C161.756 223.32 161.533 219.149 161.2 215.034C160.978 210.807 160.811 207.526 160.7 205.191C159.922 207.526 158.866 210.752 157.532 214.867C156.309 218.982 154.92 223.153 153.364 227.379L142.526 256.908ZM320.966 182.668L301.625 304.455H324.468L329.803 271.089C330.803 264.749 331.693 258.132 332.471 251.236C333.249 244.34 333.916 237.612 334.471 231.049C335.027 224.376 335.416 218.203 335.639 212.531C335.972 206.748 336.194 201.798 336.306 197.683L342.308 252.738H363.483L386.159 197.683C385.047 202.021 383.769 207.137 382.324 213.032C380.879 218.815 379.378 225.044 377.822 231.717C376.377 238.39 374.987 245.119 373.654 251.903C372.32 258.577 371.153 264.972 370.152 271.089L364.817 304.455H387.659L407 182.668H378.322L361.149 221.04C359.37 225.044 357.925 228.547 356.814 231.55C355.813 234.553 355.146 236.666 354.813 237.89C354.924 236.666 354.868 234.553 354.646 231.55C354.535 228.547 354.201 225.044 353.646 221.04L348.644 182.668H320.966ZM386.157 313.564L93.5708 316.326L383.795 328.762L386.157 313.564Z" fill="white"/>
<path d="M244.334 306.124C231.552 306.124 221.825 302.954 215.156 296.614C208.487 290.275 206.041 281.766 207.82 271.089H232.83C232.163 275.204 233.219 278.485 235.998 280.932C238.777 283.268 242.889 284.436 248.336 284.436C253.56 284.436 257.84 283.268 261.174 280.932C264.509 278.597 266.51 275.371 267.177 271.256C267.732 267.474 267.121 264.249 265.343 261.58C263.675 258.91 260.952 257.131 257.173 256.241L245.335 253.405C235.331 250.958 227.939 246.454 223.159 239.892C218.38 233.33 216.712 225.433 218.157 216.201C219.269 209.083 221.881 202.911 225.994 197.683C230.107 192.345 235.386 188.229 241.833 185.338C248.28 182.446 255.617 181 263.842 181C276.291 181 285.684 184.114 292.02 190.343C298.356 196.46 300.69 204.746 299.023 215.2H274.013C274.568 211.308 273.679 208.249 271.345 206.025C269.011 203.8 265.287 202.688 260.174 202.688C255.394 202.688 251.504 203.8 248.503 206.025C245.613 208.138 243.89 211.197 243.334 215.2C242.667 218.982 243.112 222.207 244.668 224.877C246.224 227.435 248.781 229.159 252.337 230.049L264.842 233.051C275.069 235.498 282.572 239.947 287.351 246.398C292.131 252.738 293.798 260.634 292.353 270.088C291.131 277.429 288.352 283.824 284.017 289.274C279.682 294.612 274.124 298.783 267.343 301.786C260.674 304.678 253.004 306.124 244.334 306.124ZM98.8421 304.455L148.028 182.668H179.707L190.545 304.455H165.702L164.201 276.928H135.19L125.019 304.455H98.8421ZM142.526 256.908H163.034L161.867 227.546C161.756 223.32 161.533 219.149 161.2 215.034C160.978 210.807 160.811 207.526 160.7 205.191C159.922 207.526 158.866 210.752 157.532 214.867C156.309 218.982 154.92 223.153 153.364 227.379L142.526 256.908ZM320.966 182.668L301.625 304.455H324.468L329.803 271.089C330.803 264.749 331.693 258.132 332.471 251.236C333.249 244.34 333.916 237.612 334.471 231.049C335.027 224.376 335.416 218.203 335.639 212.531C335.972 206.748 336.194 201.798 336.306 197.683L342.308 252.738H363.483L386.159 197.683C385.047 202.021 383.769 207.137 382.324 213.032C380.879 218.815 379.378 225.044 377.822 231.717C376.377 238.39 374.987 245.119 373.654 251.903C372.32 258.577 371.153 264.972 370.152 271.089L364.817 304.455H387.659L407 182.668H378.322L361.149 221.04C359.37 225.044 357.925 228.547 356.814 231.55C355.813 234.553 355.146 236.666 354.813 237.89C354.924 236.666 354.868 234.553 354.646 231.55C354.535 228.547 354.201 225.044 353.646 221.04L348.644 182.668H320.966ZM386.157 313.564L93.5708 316.326L383.795 328.762L386.157 313.564Z" stroke="white"/>
</svg>
