<svg width="512" height="512" viewBox="0 0 512 512" fill="none" xmlns="http://www.w3.org/2000/svg">
<rect width="512" height="512" rx="50" fill="#512BD4"/>
<path d="M256 118C251.711 118 247.422 119.078 243.602 121.234L142.539 178.023C134.805 182.359 130 190.492 130 199.211V312.789C130 321.508 134.805 329.641 142.539 333.977L243.602 390.766C247.422 392.922 251.711 394 256 394C260.289 394 264.578 392.922 268.398 390.766L369.461 334C377.195 329.641 382 321.508 382 312.789V199.211C382 190.492 377.195 182.359 369.461 178.023L268.398 121.234C264.578 119.078 260.289 118 256 118ZM256 184C278.688 184 299.664 194.523 313.258 212.43L286.961 227.664C279.062 219.016 267.836 214 256 214C232.844 214 214 232.844 214 256C214 279.156 232.844 298 256 298C267.836 298 279.062 292.984 286.961 284.336L313.258 299.57C299.664 317.477 278.688 328 256 328C216.297 328 184 295.703 184 256C184 216.297 216.297 184 256 184ZM316 226H328V238H340V226H352V238H364V250H352V262H364V274H352V286H340V274H328V286H316V274H304V262H316V250H304V238H316V226ZM328 250V262H340V250H328Z" fill="white"/>
</svg>
