<svg width="512" height="512" viewBox="0 0 512 512" fill="none" xmlns="http://www.w3.org/2000/svg">
<rect width="512" height="512" rx="50" fill="#655D4B"/>
<path d="M199.37 236.268C197.11 236.268 194.848 235.036 193.82 232.98L192.174 229.69L191.558 233.39L191.352 235.036C191.352 241.82 196.698 247.166 203.482 247.166C210.266 247.166 215.614 241.82 215.614 235.036C215.614 228.662 210.474 223.316 204.1 222.904L200.604 222.698L203.484 224.96C204.922 226.194 205.95 228.044 205.95 229.896C205.744 233.39 202.866 236.268 199.37 236.268ZM198.342 208.718C208.622 208.718 217.462 215.708 220.136 224.96C221.731 220.526 224.418 216.566 227.95 213.446C194.436 211.39 180.044 181.58 180.044 181.58L179.222 219.206C181.263 215.985 184.088 213.334 187.431 211.5C190.775 209.667 194.528 208.708 198.342 208.718ZM251.388 251.894C255.041 251.893 258.544 250.442 261.127 247.858C263.71 245.275 265.162 241.771 265.162 238.118C265.162 230.718 259.406 224.55 252.004 224.344L248.92 224.138L251.388 225.988C253.238 227.428 254.266 229.688 254.266 232.156C254.266 233.182 254.064 234.198 253.672 235.146C253.28 236.095 252.704 236.956 251.979 237.682C251.253 238.407 250.392 238.983 249.444 239.376C248.496 239.768 247.48 239.97 246.454 239.97C243.574 239.97 240.902 238.324 239.462 235.858L238.022 233.184L237.612 236.268L237.406 238.12C237.612 245.52 243.782 251.894 251.388 251.894ZM383.588 348.938C382.795 346.12 381.973 343.309 381.122 340.508C375.982 322.004 372.076 307.612 355.832 309.052C353.366 309.256 351.31 310.08 349.46 311.312L333.216 301.032H332.6L331.366 297.126L328.9 298.77C323.76 295.482 318.002 292.602 312.246 289.93C330.75 267.93 340.824 229.072 333.834 165.542C333.216 159.99 330.134 159.168 328.076 165.13C326.432 170.27 315.536 202.756 259.406 211.802C266.806 216.53 271.742 224.754 271.742 234.212C271.749 237.724 271.062 241.203 269.722 244.449C268.381 247.695 266.412 250.644 263.929 253.127C261.446 255.611 258.496 257.579 255.25 258.92C252.004 260.261 248.526 260.947 245.014 260.94C232.474 260.94 221.782 252.1 219.108 240.38C215.614 248.604 207.596 254.36 198.138 254.36C188.678 254.36 180.662 248.604 177.166 240.38C176.96 240.792 176.754 241.202 176.55 241.408C176.344 240.998 175.932 240.588 175.726 239.968C164.626 224.754 146.942 218.588 136.046 226.4C125.15 234.42 125.354 253.128 136.458 268.342C145.71 281.09 159.484 287.462 170.176 284.584C201.222 307.612 258.584 327.556 297.032 303.088C304.638 307.408 313.272 311.518 321.292 314.396V314.602L322.114 317.07L325.404 315.836L325.816 316.248L343.908 322.828C344.114 328.584 347.608 334.956 355.01 337.836C368.786 343.18 381.944 349.76 381.944 349.966L384 350.994L383.588 348.938ZM134.812 241.818C134.812 235.24 139.336 229.894 144.68 229.894C150.232 229.894 154.55 235.24 154.55 241.82C154.55 248.4 150.026 253.744 144.68 253.744C139.13 253.744 134.812 248.398 134.812 241.818ZM210.062 280.062C247.686 287.668 267.014 280.678 278.116 271.838C275.236 267.932 270.096 263.818 270.096 263.818C270.096 263.818 283.256 267.518 287.984 273.482C290.04 276.156 290.658 278.416 290.452 280.678C283.872 278.418 278.938 276.978 277.912 276.566C273.798 274.716 269.892 275.95 268.864 279.034C268.042 281.294 268.658 283.968 270.714 286.024C257.762 291.986 236.584 289.518 210.062 280.062Z" fill="white"/>
</svg>
