<svg width="512" height="512" viewBox="0 0 512 512" fill="none" xmlns="http://www.w3.org/2000/svg">
<rect width="512" height="512" rx="50" fill="#F0772B"/>
<g clip-path="url(#clip0_171_1358)">
<path d="M226.888 224.462C224.865 224.315 222.834 224.335 220.814 224.522C195.43 226.53 185.35 239.662 179.162 245.194C172.976 250.726 161.522 263.98 153.818 261.584C146.114 259.186 143.966 249.908 146.69 246.958C149.416 244.008 151.546 244.54 153.204 246.958C154.275 248.908 154.819 251.104 154.782 253.328C157.036 251.477 158.684 248.994 159.516 246.198C160.456 242.1 160.252 238.128 154.782 235.342C140.912 228.336 131.958 240.832 130.564 243.762C129.172 246.69 127 251.3 128.516 261.872C130.032 272.444 135.052 282.156 151.052 285.904C166.233 289.413 182.161 287.552 196.124 280.638C210.138 273.958 236.488 262.198 243.124 261.012C247.344 259.984 251.667 259.436 256.01 259.378C260.352 259.436 264.675 259.984 268.894 261.012C275.534 262.2 301.882 273.96 315.894 280.638C329.852 287.548 345.773 289.409 360.948 285.904C376.948 282.156 381.968 272.444 383.484 261.872C385 251.3 382.828 246.712 381.436 243.762C380.042 240.81 371.088 228.314 357.238 235.342C351.768 238.128 351.562 242.102 352.504 246.198C353.336 248.994 354.984 251.477 357.238 253.328C357.185 251.06 357.737 248.819 358.836 246.834C360.496 244.416 362.624 243.904 365.35 246.834C368.074 249.764 365.926 259.166 358.222 261.564C350.52 263.96 339.064 250.704 332.878 245.174C326.69 239.642 316.59 226.57 291.206 224.522C284.222 223.886 277.201 225.255 270.967 228.468C264.733 231.681 259.545 236.605 256.01 242.662C252.996 237.494 248.77 233.136 243.697 229.966C238.623 226.795 232.854 224.906 226.888 224.462Z" fill="white"/>
</g>
<defs>
<clipPath id="clip0_171_1358">
<rect width="256" height="256" fill="white" transform="translate(128 128)"/>
</clipPath>
</defs>
</svg>
