<svg width="512" height="512" viewBox="0 0 512 512" fill="none" xmlns="http://www.w3.org/2000/svg">
<rect width="512" height="512" rx="50" fill="#1A1A1A"/>
<path d="M332.8 331C322.6 340.2 334 349.6 344 343.6C346.2 341.2 344 333.2 332.8 331ZM185.2 345.8C193.2 352.6 205.6 344 209.2 334.4C201.4 324.2 172.6 334.8 185.2 345.8ZM337 321.6C337 326.2 370.6 329.2 370.6 320.6C365.8 306.6 341 307.4 337 321.6ZM368.2 239.4L274.8 143.8C263.4 132.8 244.4 132.8 233.6 143.8L143.4 236C113 273.8 164.2 269.4 186 280.2C193.8 288.2 155.8 294.2 163.8 302.2C171.6 310.2 211.4 317.6 219.2 325.8L211 350.4C218.8 358.4 237 350.8 240.4 369.4C242.8 382.6 273.2 375 288 364.2C295.8 356.2 273 357 280.8 348.8C300.4 328.8 318.6 341.6 325.2 321.4C328.6 311.4 296.4 306.2 304.2 298C327 285 405.2 276.4 368.2 239.4ZM256.2 301.6C246.6 304.2 200.2 285.2 211.8 285.2C214.2 286.6 250.6 294 259.6 295.6C262.8 296.2 260.6 299.4 256.2 301.6ZM306.4 198.6L288.8 184.4L285.4 205.4L270.6 197.6L247 212.6L239.2 181.6L226.2 204H206.8C198.8 204 198 193.4 205.2 186.2C217.8 172.6 232.2 158.6 240 150.6C247.8 142.6 261.6 142.6 269.4 150.4L305 186.6C308.4 190 308.4 196.6 306.4 198.6Z" fill="white"/>
</svg>
