<svg width="512" height="512" viewBox="0 0 512 512" fill="none" xmlns="http://www.w3.org/2000/svg">
<rect width="512" height="512" rx="50" fill="#11557C"/>
<path d="M256 380C222.88 380 191.74 367.102 168.32 343.682C144.9 320.262 132 289.122 132 256C132 222.878 144.898 191.74 168.318 168.318C191.738 144.896 222.878 132 256 132C289.122 132 320.262 144.898 343.682 168.318C367.102 191.738 380 222.878 380 256C380 289.122 367.102 320.262 343.682 343.682C320.262 367.102 289.122 380 256 380ZM256 135.64C223.852 135.64 193.626 148.16 170.894 170.892C148.16 193.626 135.64 223.85 135.64 256C135.64 288.15 148.16 318.376 170.892 341.108C193.624 363.84 223.85 376.36 256 376.36C288.15 376.36 318.376 363.84 341.108 341.108C363.84 318.376 376.36 288.15 376.36 256C376.36 223.85 363.84 193.626 341.108 170.892C318.374 148.16 288.15 135.64 256 135.64Z" fill="white"/>
<path d="M256 352.7C202.68 352.7 159.3 309.322 159.3 256C159.3 202.678 202.68 159.3 256 159.3C309.32 159.3 352.7 202.68 352.7 256C352.7 309.32 309.32 352.7 256 352.7ZM256 160.7C203.452 160.7 160.7 203.45 160.7 256C160.7 308.55 203.452 351.3 256 351.3C308.548 351.3 351.3 308.548 351.3 256C351.3 203.452 308.548 160.7 256 160.7Z" fill="white"/>
<path d="M256 324.7C218.12 324.7 187.3 293.88 187.3 256C187.3 218.12 218.12 187.3 256 187.3C293.88 187.3 324.7 218.12 324.7 256C324.7 293.88 293.88 324.7 256 324.7ZM256 188.7C218.89 188.7 188.7 218.89 188.7 256C188.7 293.11 218.89 323.3 256 323.3C293.11 323.3 323.3 293.11 323.3 256C323.3 218.89 293.11 188.7 256 188.7Z" fill="white"/>
<path d="M256 296.7C233.558 296.7 215.3 278.442 215.3 256C215.3 233.558 233.558 215.3 256 215.3C278.442 215.3 296.7 233.558 296.7 256C296.7 278.442 278.442 296.7 256 296.7ZM256 216.7C234.33 216.7 216.7 234.33 216.7 256C216.7 277.67 234.33 295.3 256 295.3C277.67 295.3 295.3 277.67 295.3 256C295.3 234.33 277.67 216.7 256 216.7Z" fill="white"/>
<path d="M256 270.7C247.894 270.7 241.3 264.106 241.3 256C241.3 247.894 247.894 241.3 256 241.3C264.106 241.3 270.7 247.894 270.7 256C270.7 264.106 264.106 270.7 256 270.7ZM256 242.7C248.666 242.7 242.7 248.666 242.7 256C242.7 263.334 248.666 269.3 256 269.3C263.334 269.3 269.3 263.334 269.3 256C269.3 248.666 263.334 242.7 256 242.7Z" fill="white"/>
<path d="M342.122 321.672L258.356 256.394L283.102 256.396C283.321 256.396 283.531 256.309 283.686 256.154C283.841 255.999 283.928 255.789 283.928 255.57C283.931 252.634 283.469 249.716 282.56 246.924V246.922C282.491 246.714 282.343 246.542 282.148 246.443C281.953 246.344 281.726 246.326 281.518 246.394L258.31 253.932L307.386 192.4C307.522 192.228 307.585 192.009 307.56 191.791C307.535 191.574 307.425 191.375 307.254 191.238C300.505 185.851 292.948 181.564 284.862 178.536C284.761 178.498 284.65 178.48 284.542 178.484C284.434 178.487 284.327 178.512 284.229 178.557C284.13 178.602 284.041 178.666 283.967 178.746C283.893 178.825 283.836 178.918 283.798 179.02L256.144 252.698L232.592 149.504C232.543 149.29 232.412 149.104 232.226 148.987C232.04 148.87 231.816 148.831 231.602 148.88C214.766 152.727 199.078 160.5 185.818 171.564L185.814 171.568C185.647 171.708 185.543 171.91 185.524 172.127C185.505 172.345 185.574 172.561 185.714 172.728L252.86 253.156L170.694 213.588C170.497 213.493 170.268 213.48 170.061 213.553C169.854 213.625 169.685 213.777 169.59 213.974C160.834 232.066 158.01 252.916 161.636 272.684C161.676 272.899 161.8 273.089 161.98 273.214C162.16 273.338 162.382 273.386 162.598 273.348L250.094 257.468L206.664 278.382C206.467 278.478 206.314 278.648 206.242 278.854C206.17 279.061 206.183 279.288 206.278 279.486C207.532 282.088 208.988 284.587 210.632 286.962C210.759 287.14 210.951 287.262 211.166 287.302C211.382 287.341 211.604 287.294 211.786 287.172L254.668 257.46L240.038 321.558C239.99 321.772 240.028 321.996 240.145 322.182C240.261 322.367 240.447 322.5 240.66 322.55C245.65 323.69 250.82 324.264 255.98 324.264C259.826 324.266 263.664 323.944 267.456 323.302C267.672 323.265 267.865 323.144 267.992 322.965C268.12 322.786 268.17 322.564 268.134 322.348L257.3 258.588L323.014 340.992C323.15 341.163 323.349 341.273 323.566 341.298C323.784 341.323 324.002 341.261 324.174 341.126C330.902 335.761 336.974 329.621 342.264 322.834C342.331 322.748 342.381 322.65 342.41 322.546C342.439 322.441 342.448 322.331 342.434 322.223C342.421 322.115 342.387 322.011 342.333 321.916C342.28 321.822 342.208 321.739 342.122 321.672Z" fill="white"/>
<path d="M256.7 378.7H255.3V257.69L169.732 343.256L168.742 342.266L169.238 341.772L254.31 256.7H133.3V255.3H254.31L168.744 169.732L169.734 168.742L255.3 254.31V133.3H256.7V254.31L342.268 168.744L343.258 169.734L342.762 170.23L257.69 255.3H378.7V256.7H257.69L343.256 342.268L342.266 343.258L341.772 342.762L256.7 257.69V378.7Z" fill="white"/>
</svg>
