<svg width="512" height="512" viewBox="0 0 512 512" fill="none" xmlns="http://www.w3.org/2000/svg">
<rect width="512" height="512" rx="50" fill="#FFD500"/>
<path d="M296 376V384H344V376H296ZM287.998 359.996H280.006V367.996H287.998V359.996ZM295.998 375.998V367.998L287.998 367.996V375.998H295.998ZM280.006 351.994H272.004V359.994H280.004L280.006 351.994ZM296 319.998V327.998H304V319.998H296ZM320.004 327.998V319.998H312.004V327.998H304V336H336V328H320.006M336 319.998V328L344 327.998V319.998H336ZM360.004 367.998H368.006V359.996H360.006V367.996M360.006 375.998V367.996L344 367.998V376L360 375.998M264 375.998H232V384H288V376L264 375.998ZM216 384V376H144.004V384H216ZM240.006 351.994V343.994H224V367.998H216V376L232 375.998V351.994H240.006ZM184.004 215.992H192.004V199.998H184.004V215.992ZM199.998 279.996V263.994H192.006V271.994H168V336H216V328H208V319.998H199.998V327.998H176V280H192.004V320H199.996V280M224 271.992V311.992H216V327.994H224V319.994H232V263.992H224V271.992ZM224 239.996V231.996H216V239.996H224ZM207.996 239.996V247.996H216V239.996L208 239.994M208 255.996V247.996H199.998V263.988H207.998V256M176.004 135.992V151.996H184.004V135.992H176.004ZM152.008 135.992H176.004V128H144.004V223.992H136.004V375.996H144.004V231.994H216.004V215.99H208V223.992H199.998V215.992H192.004L192.006 223.992H176V200H184V183.996H176V175.996H168V223.996H152.004V135.99M192.004 167.996V151.994H184.002V167.996H192.004ZM208 183.992H216V167.998H208V183.992ZM224 199.994H216V215.988H224V199.994ZM200 183.992V199.996H208V183.992H200ZM192.008 167.998V183.992H200V167.998H192.008ZM224 151.996H216V167.998H224V151.996ZM232 151.996V135.992H224V151.996H232ZM376 303.992H368.008L368.006 359.996H376V303.992ZM360.004 296V303.992H368.008L368.006 296H360.004ZM360.006 248H368.006V239.996H360.006V247.996M368.006 247.996V271.992H376V248H368.006M344.004 287.998V295.998H360.006V287.998H344.004ZM336.004 271.994H344.004V263.994H336.004V271.994ZM344.004 271.994V279.996H368.008V271.996L344.004 271.994ZM272.006 287.996V248H264.006V271.994H256V256H232V263.992L248 263.994V327.998H240.008V343.992H248V336H264V351.994H272.004L272.002 319.994H264.002V327.996H255.998V279.996H264V288H272.002M280.002 296V288H272.002V296H280.002ZM296 263.996H320V319.998H335.994V311.998H327.992V287.998H343.996V279.998H327.992V263.994H335.992V256H296V263.992M296 279.994V263.992H287.998V296H280.006V303.992H287.998V311.992H272.004L272.002 319.994H296V279.994ZM272.004 231.996H280.004V223.996H264.004V128H232.004V135.992H255.998V223.992H240.006V175.992H232.004V183.994H224V200H232V223.994H224V231.996H272M280 239.996H272V248H280V239.996ZM280 239.996L287.994 239.998V231.996H280.004L280 239.996ZM287.994 215.992H280.002V223.994H287.994V215.994M344 231.992V239.992H360V231.992H344ZM344 223.992H287.998V231.992H344V223.992ZM344.002 215.99V223.99H352.002V215.99H344.002ZM336.002 199.996H327.998V207.996H336L336.002 199.996ZM336 183.992H344V175.992H328V183.992H336ZM320.006 200H328V191.998H320.008V199.998M296.004 199.998V191.998H272.004V215.994H280.004V200H296M304 200H296V215.994H327.996V208H304V200ZM296 183.994V191.996H320.004V183.996L296 183.994ZM287.998 175.994H280.006V183.994H296V175.994H287.998ZM304.002 168V175.992H327.996V168H304.002ZM304 151.996H296V168H304.002L304 152M280.008 143.996H272.006V175.992L280.006 175.994V143.994M280.006 135.994V143.994H296V135.992L280.006 135.994ZM327.998 135.992H336V128H296V135.992H327.998ZM327.996 151.996V143.994H304V151.994H327.996M352 191.998V183.998H344V191.998H352ZM360.002 191.998H352L352.002 215.994H360.002V191.996M352.002 143.996V135.996H335.998V143.996H352.002ZM360.002 143.996H352.002V160H335.998V151.998H327.998L327.996 168H360L360.002 143.996Z" fill="#8D7600"/>
<path d="M272.004 359.996V367.996H280.004V359.996H272.004ZM280.004 375.998H288V367.998H280.008V375.998M296 319.994H304V311.994H296V319.994ZM232.004 367.994V375.996H240.004V367.996L232.004 367.994ZM247.996 359.992H240.004V367.996L247.996 367.994V359.992ZM255.998 367.994H264V359.994H256L255.998 367.994ZM264 367.994V375.996H272V367.996L264 367.994ZM256 375.996V367.996L247.996 367.994V375.996H256ZM256 271.992H264V263.992H256V271.992ZM216 296H224.002V287.998H216.002V295.998M224.002 303.992H216.002V311.992H224.002V303.992ZM216.002 271.994V279.996H224.002V271.996L216.002 271.994ZM296 296V303.992H304V296H296ZM296 271.994H304V263.994H296V271.994ZM304 279.996H296V288H304V280M272.004 248V239.998H264.004V247.998L272.004 248ZM280.004 239.998V231.996H272.004V239.998H280.004Z" fill="white"/>
<path d="M272.004 367.998V375.998H280.004V367.998H272.004ZM232.004 359.996V367.996H240.008V359.996H232.004ZM240.006 375.998H248V367.998L240.008 367.996V375.998M264 359.996V367.996H272.002V359.996H264ZM256 367.996V359.996H248V367.998L256 367.996ZM256 367.996V376H264.002V368H256.002M224 263.992H232V256H224V263.992ZM216 295.998V303.99H224V296L216 295.998ZM216 271.994H224V263.992L216 263.994V271.994ZM224 279.996H216V288H224V280M264 256.004H255.996V263.996H264V256M296 296H304V287.998H296V296ZM304 303.992H296V311.992H304V303.992ZM296 271.994V279.996H304V271.996L296 271.994Z" fill="white"/>
<path d="M312.002 319.994V311.994H304.002V319.994H312.002ZM207.998 311.994H199.998V319.994H207.998V311.994ZM216 327.996V319.996H208V327.996H216ZM256 343.99H264V335.998H256V343.99ZM264 351.99H256V359.992H264V351.99ZM248 343.99V351.99H256V343.99H248ZM248 351.99H240.008V359.992H248V351.99ZM216 303.992H208V311.992H216V303.992ZM208 287.998V295.998H216V287.998H208ZM199.998 303.992H208L207.998 296H199.998V303.992ZM207.998 279.996H199.998V288H207.998V280M207.998 263.996H199.998V271.996H207.998V263.996ZM216 279.996V271.996H207.998V279.996H216ZM216 256.002H208V263.994H216V256.002ZM216 248V256.002L224.002 256V248H216ZM264.002 239.998H255.998V247.998H264V239.996M232.004 247.996V239.996H224V247.996H232M247.996 247.996V256H255.996L255.998 247.998L247.996 247.996ZM232.002 247.998V255.998H240.002V247.998H232.002ZM240.002 239.996V231.994H232.002V239.994L240.002 239.996ZM247.996 231.994V239.994H255.996V231.994H247.996ZM247.996 239.994H240.004V247.996H247.996V239.994ZM320.002 303.992H312.002V311.994L320.002 311.992V303.992ZM320.002 287.998H312.002V295.998H320.002V287.998ZM312.002 279.998H320.002V271.994H312.002V279.998ZM304 279.996V288H312V280H304M304 296V303.994H312V296H304ZM304 263.994V271.994H312.002L312 263.994H304ZM272.002 239.994V231.994H264.002V239.994H272.002Z" fill="white"/>
<path d="M312.002 327.996V319.996H304.002V327.996H312.002ZM320.004 311.994H312.004V319.994H320.004V311.994ZM264 351.992V359.992H272.002V351.992H264ZM216 319.994V311.994H207.996V319.994H216ZM256 351.992H247.998V359.992H255.998L256 351.992ZM255.998 343.99V351.99L264 351.992V343.99H255.998ZM247.998 335.998V343.99H255.998V335.998H247.998ZM240.006 351.992H232.004V359.992H240.004L240.006 351.992ZM240.006 351.992H247.998V343.99H240.008V351.99M207.998 288H216V280H208L207.998 288ZM208 296V303.994H216V296H208ZM208 303.994L199.998 303.992V311.992H207.998V303.992M207.998 288L199.998 287.998V295.998H207.998V288ZM199.998 279.998H207.998V271.994H199.998V279.998ZM216 271.996V263.994H208L207.998 271.994L216 271.996ZM224.002 256.002H216.002L216 263.994H224.002V256.002ZM224.002 239.996H216.002V247.996H224.002V239.996ZM207.998 247.994V256H216V248H208M256 248V256H264V248H256ZM264 239.998V231.996H256V239.996L264 239.998ZM247.998 239.996V247.998H255.998V239.998L247.998 239.996ZM240.006 247.998V239.998H232.004V247.998H240.006ZM240.006 247.998L240.004 256H248L247.998 247.998H240.008M232.006 255.998L232.004 247.998H224V255.998H232M232 239.996V231.994H224V239.994L232 239.996ZM240.004 239.994H247.996V231.994H240.004V239.994ZM312 303.994H304V311.994H312V303.994ZM312 303.994H320.002V296H312.002V303.992M320.002 279.996H312.002V287.996H320.002V279.996ZM320.002 263.994H312.002V271.994H320.002V263.994ZM304 287.998V295.998H312V287.998H304ZM304 271.994V279.996H312.002L312 271.996L304 271.994Z" fill="white"/>
<path d="M335.998 319.994H343.998V311.994H335.998V319.994ZM352 343.99V351.99H344V359.992H304V351.992H288V343.99H280.008V327.996H272.006V351.992H280.006V359.992H288V367.994H296V375.996H344V367.996H360.004V359.992H368.004V336H360.004V343.992H352.004M336 303.994H327.998V311.994H335.998L336 303.994ZM344.002 263.994V271.996H368.006V256.004H360.006V263.996H344M287.998 287.998H280.006V295.998H287.998V287.998ZM280.006 279.998H272.004V287.998H280.006V279.998ZM344.004 256H336V263.992H344L344.004 256Z" fill="white"/>
<path d="M224.002 351.992H216.002V359.992H152.002V367.994H144.002V375.996H216V367.996H224.002V351.992ZM240.006 327.996H232.004V343.99H240.004L240.006 327.996ZM240.006 327.996H248V319.996H240.008V327.996M207.998 231.994V239.994H216V231.994H207.998ZM207.998 239.994H199.998V247.996H207.998V239.994ZM168 256V271.992H192.006V263.992H199.998V256H168Z" fill="white"/>
<path d="M168 271.994V256.002H200V239.996H208V231.994H144.002V367.994H152.004V359.994H216V351.992H224.002V343.99H232.002V327.996H240.006V319.996H247.998V263.992H232.004V319.996H224V327.996H216V336H168V271.994Z" fill="white"/>
<path d="M176.002 175.992V168H168.002V160H160V223.996H168V175.996H176.002M184.002 152H176.002V160H184.002V152ZM168.002 135.996V144H176.002V136H168.002M240.008 175.998V168H232.006V175.992H240.006M208 200H200V208H208V200ZM200 191.998V183.998H192.008V191.998H200ZM192.008 175.996V168H184.006V175.992H192.006M256.004 135.992H248V223.992H256V135.992M352.004 215.99V191.996H344V215.992H352M344 223.992V215.992H336V223.992H344ZM344 191.996V183.996H336V191.996H344ZM327.996 175.992H320.004V183.994H328V175.994M296 151.994H288V175.99H304.004V168H296V151.998M296 151.998H304V143.994H296V151.994M327.996 135.994V143.994H335.996V135.992L327.996 135.994ZM352 159.996V143.994H344V159.996H352Z" fill="white"/>
<path d="M232.004 135.992V151.996H224V167.998H216V183.992H207.996V207.996H199.996V191.996H192.004V175.992H184.002V160H176V143.996H168V135.996H152.004V223.996H160V160H168V168H176.002V183.994H184.002V200H192.004V215.994H200V223.994H208V215.994H216V200H224V183.996H232.004V168H240.004V223.994H247.996V135.994L232.004 135.992ZM296 199.996H280.006V215.99H287.998V223.99H335.998V215.99H343.998V191.996H335.998V183.996H320.004V191.996H327.996V199.996H335.996V208H327.996V215.99H296V200M304 175.994H296V183.996H320.004V175.996L304 175.994ZM296 152V143.996H280.006V175.992H287.998V151.996H295.998M327.998 143.994V151.994H335.998V160H343.998V143.992H327.996M327.996 143.992V135.992H296V143.992H327.996Z" fill="white"/>
<path d="M327.996 287.998V303.992H335.996V311.992H344V327.996H335.998V335.996H304V327.996H296V319.996H272.004V327.996H280.004V343.99H288V351.99H304V359.992H344V351.992H352V343.99H360.002V335.998H368.004V303.992H360.004V296H344V287.998H327.996ZM344 239.998V231.998H287.998V239.998H280.006V247.998H272.004V279.998H280.004V287.998H288V263.994H296V256H344V263.992H360.004V256H368.004V248H360.004V239.996L344 239.998Z" fill="white"/>
</svg>
