<svg width="512" height="512" viewBox="0 0 512 512" fill="none" xmlns="http://www.w3.org/2000/svg">
<rect width="512" height="512" rx="50" fill="#767BB3"/>
<path d="M256 178C175.258 178 112 212.266 112 256C112 299.734 175.258 334 256 334C336.742 334 400 299.734 400 256C400 212.266 336.742 178 256 178ZM241.047 202H256.773L251.781 226H265.82C274.727 226 280.703 227.242 284.102 230.359C287.43 233.43 288.437 238.469 287.102 245.336L280.867 274H264.883L270.625 247.492C271.328 243.859 271.047 241.328 269.828 239.992C268.609 238.656 265.938 238 261.93 238H249.344L241.75 274H226L241.047 202ZM172 226H203.992C219.25 226 228.484 236.219 224.875 251.477C220.68 269.195 209.43 274 188.758 274H178.867L175.727 292H159.836L172 226ZM298 226H329.992C345.25 226 354.484 236.219 350.875 251.477C346.68 269.195 335.43 274 314.758 274H304.867L301.727 292H285.836L298 226ZM185.617 238L181.094 262H191.359C200.242 262 208.492 260.992 209.875 247.75C210.391 242.617 208.258 238 197.992 238H185.617ZM311.617 238L307.094 262H317.359C326.242 262 334.492 260.992 335.875 247.75C336.391 242.617 334.258 238 323.992 238H311.617Z" fill="white"/>
</svg>
