<svg width="512" height="512" viewBox="0 0 512 512" fill="none" xmlns="http://www.w3.org/2000/svg">
<rect width="512" height="512" rx="50" fill="#0277BD"/>
<path fill-rule="evenodd" clip-rule="evenodd" d="M377.824 166.716C375.9 164.318 372.98 163 369.602 163H184.382C177.588 163 171.052 168.284 169.494 175.03L132.324 336.044C131.532 339.466 132.208 342.832 134.176 345.282C136.102 347.68 139.022 348.998 142.398 348.998L327.62 349C334.412 349 340.95 343.714 342.506 336.968L379.678 175.952C380.468 172.53 379.792 169.162 377.824 166.716ZM180.646 321.056C177.16 316.262 178 309.71 182.526 306.42L257.284 252.286V251.174L210.314 201.206C206.482 197.13 206.882 190.54 211.204 186.484C215.528 182.43 222.136 182.446 225.968 186.522L282.328 246.48C285.528 249.884 285.764 255.038 283.242 259.008C282.474 260.556 280.878 262.264 278.056 264.244L195.156 323.782C190.63 327.07 184.132 325.85 180.646 321.056ZM299.732 322.132H255.064C249.87 322.132 245.66 317.968 245.66 312.832C245.66 307.696 249.87 303.532 255.064 303.532H299.73C304.924 303.532 309.134 307.696 309.134 312.832C309.134 317.968 304.926 322.132 299.732 322.132Z" fill="white"/>
</svg>
