<svg width="512" height="512" viewBox="0 0 512 512" fill="none" xmlns="http://www.w3.org/2000/svg">
<rect width="512" height="512" rx="50" fill="#04314A"/>
<g clip-path="url(#clip0_169_1226)">
<path d="M260.914 128.028C258.608 127.876 256.304 128.36 254.254 129.428C252.204 130.496 250.487 132.107 249.29 134.084L153.55 290.228C152.303 292.262 151.65 294.605 151.667 296.99C151.684 299.376 152.37 301.709 153.646 303.724L200.782 378.096C202.277 380.44 204.496 382.233 207.102 383.201C209.708 384.169 212.559 384.261 215.222 383.462L351.246 342.648C352.993 342.125 354.607 341.233 355.98 340.033C357.353 338.832 358.452 337.351 359.202 335.689C359.953 334.027 360.339 332.223 360.332 330.4C360.326 328.576 359.928 326.775 359.166 325.118L271.726 135.418C270.775 133.315 269.264 131.513 267.359 130.209C265.453 128.906 263.226 128.152 260.92 128.028H260.914ZM264.504 175.928C265.521 175.807 266.55 176.021 267.434 176.538C268.318 177.056 269.008 177.848 269.4 178.794L329.72 318.362C329.989 318.983 330.123 319.653 330.114 320.329C330.104 321.005 329.952 321.671 329.666 322.283C329.38 322.896 328.968 323.441 328.456 323.882C327.944 324.324 327.344 324.652 326.696 324.844L232.704 352.892C231.914 353.127 231.077 353.153 230.274 352.969C229.471 352.785 228.729 352.396 228.121 351.841C227.512 351.285 227.058 350.582 226.801 349.799C226.544 349.016 226.494 348.18 226.656 347.372L260.316 179.748C260.505 178.742 261.017 177.824 261.774 177.134C262.532 176.445 263.494 176.021 264.514 175.928H264.504Z" fill="white"/>
</g>
<defs>
<clipPath id="clip0_169_1226">
<rect width="256" height="256" fill="white" transform="translate(128 128)"/>
</clipPath>
</defs>
</svg>
