<svg width="512" height="512" viewBox="0 0 512 512" fill="none" xmlns="http://www.w3.org/2000/svg">
<rect width="512" height="512" rx="50" fill="#FDA506"/>
<path d="M227.106 218.538C214.584 219.267 206.439 226.26 200.408 235.829V220.509H188.882V316.366H200.408V289.519L208.296 290.276C220.913 291.674 228.699 287.391 232.866 284.668C237.034 281.945 245.38 273.282 248.034 258.879C253.119 226.85 236.081 218.942 227.106 218.538ZM259.217 220.661L291.039 286.829C281.411 310.303 271.524 310.023 258.047 307.115V317.274C282.73 321.273 290.308 310.208 296.272 299.227C298.598 295.112 300.683 290.926 302.49 286.639L330.036 220.661H318.115L297.058 271.987L271.755 220.661H259.225L259.217 220.661ZM175.838 222.48L108.797 255.847L175.838 289.367V279.046L130.03 255.847L175.838 232.914V222.48ZM336.16 222.632V233.067L381.968 256L336.16 279.199V289.52L403.201 256L336.16 222.632ZM223.16 229.759C234.205 229.759 237.347 242.349 236.356 254.938C233.609 276.528 219.789 284.361 200.408 279.208V249.629C205.861 239.351 216.211 229.759 223.16 229.759Z" fill="white"/>
</svg>
