<svg width="512" height="512" viewBox="0 0 512 512" fill="none" xmlns="http://www.w3.org/2000/svg">
<rect width="512" height="512" rx="50" fill="#246ABF"/>
<path d="M256 157.293V157.297C185.308 157.297 128 195.677 128 243.023C128 284.551 172.093 319.177 230.633 327.059V301.399C199.533 291.619 178.301 272.01 178.301 249.414C178.301 217.048 221.86 190.809 275.594 190.809C329.326 190.809 368.977 208.758 368.977 249.414C368.977 270.386 358.434 285.315 340.848 294.855C343.256 296.671 345.284 299.001 346.652 301.695L347.43 303.004C370.05 287.544 384 266.378 384 243.02C384 195.676 326.692 157.293 256 157.293ZM233.473 210.527V354.695L277.141 354.676L277.133 298.238H288.855C291.253 298.238 292.289 298.934 294.715 300.898C297.623 303.252 302.348 311.375 302.348 311.375L325.422 354.707L374.77 354.688L344.238 303.207C343.5 301.713 342.543 300.337 341.398 299.125C339.45 297.053 336.747 295.48 335.187 294.687C330.689 292.412 322.947 290.072 322.941 290.07C322.941 290.07 361.101 287.24 361.101 249.242C361.101 211.244 321.16 210.527 321.16 210.527H233.473ZM277.508 241.781L303.945 241.797C303.945 241.797 316.191 241.136 316.191 253.816C316.191 266.248 303.945 266.285 303.945 266.285L277.496 266.293L277.508 241.781ZM296.199 307.055C290.975 307.569 285.557 307.877 279.973 307.981L279.977 327.238C288.402 326.18 296.74 324.515 304.926 322.258L303.922 320.375C302.562 317.839 301.227 315.29 299.855 312.762C298.716 310.811 297.496 308.908 296.199 307.059L296.199 307.055Z" fill="white"/>
</svg>
