<svg width="512" height="512" viewBox="0 0 512 512" fill="none" xmlns="http://www.w3.org/2000/svg">
<rect width="512" height="512" rx="50" fill="#E0115F"/>
<path d="M142.25 246.433L168.555 201.299C168.798 200.852 169.123 200.446 169.489 200.121L216.695 156.124C217.203 155.657 217.812 155.291 218.463 155.047L259.006 140.158L293.192 164.046L276.17 218.158L212.308 277.491L160.227 289.171L142.25 246.433ZM163.944 299.002L188.237 368.471L208.225 289.049L163.944 299.002ZM346.919 140.95L308.386 162.36L372.248 208.733C373.589 202.761 375.153 194.616 375.519 187.689C375.498 187.608 375.498 187.507 375.498 187.405C375.702 177.533 374.077 167.214 368.714 158.297C363.9 150.274 356.669 144.404 347.183 140.707C347.102 140.788 347.041 140.889 346.919 140.95ZM304.75 311.007L278.344 230.305L224.739 280.152L304.75 311.007ZM287.952 226.202L314.175 306.335C334.691 284.011 355.694 257.28 367.678 224.414L287.952 226.202ZM361.991 214.136L302.028 170.607L287.809 215.802L361.991 214.136ZM155.961 307.675L138.147 338.246C144.241 366.46 165.345 372.777 179.259 374.321L155.961 307.675ZM151.37 294.919L136.4 259.352V320.594L151.37 294.919ZM333.594 136.461C333.513 136.441 333.431 136.4 333.33 136.4H271.803L299.225 155.575L333.594 136.461ZM218.95 289.049L197.642 373.691C240.969 367.313 273.469 344.035 299.814 320.249L218.95 289.049ZM357.644 363.372C356.425 363.372 355.186 362.946 354.191 362.072L311.209 323.905C292.319 341.435 270.259 359.249 243.102 371.254L357.725 363.474C358.395 363.433 359.025 363.23 359.614 362.966C358.984 363.23 358.314 363.372 357.644 363.372ZM318.725 316.674L361.097 354.293C361.991 355.085 362.458 356.121 362.661 357.197L371.416 242.554C357.827 272.007 337.859 296.199 318.725 316.674Z" fill="white"/>
</svg>
