<svg width="512" height="512" viewBox="0 0 512 512" fill="none" xmlns="http://www.w3.org/2000/svg">
<rect width="512" height="512" rx="50" fill="#00A1E0"/>
<path d="M189.371 162.879C160.017 162.879 136.232 186.642 136.232 215.951C136.232 223.451 137.785 230.595 140.603 237.052C133.636 241.135 127.861 246.973 123.855 253.985C119.849 260.997 117.751 268.936 117.772 277.011C117.772 302.483 138.207 323.139 163.434 323.139C166.651 323.139 169.802 322.806 172.819 322.163C179.742 340.956 197.78 354.357 218.969 354.357C239.315 354.357 256.754 341.999 264.254 324.382C270.124 327.256 276.577 328.744 283.113 328.731C299.266 328.731 313.355 319.833 320.743 306.654C324.515 307.408 328.398 307.808 332.369 307.808C364.941 307.808 391.344 281.161 391.344 248.301C391.344 215.463 364.941 188.816 332.369 188.816C323.872 188.816 315.817 190.636 308.518 193.897C300.131 178.943 284.378 168.87 266.317 168.87C252.716 168.87 240.447 174.572 231.616 183.757C221.92 171.066 206.588 162.857 189.371 162.879ZM277.078 229.73C277.899 229.73 278.631 229.774 279.23 229.885C279.829 229.996 280.295 230.107 280.806 230.262C280.917 230.307 281.227 230.462 281.094 230.839L279.874 234.167C279.785 234.411 279.696 234.567 279.186 234.411C279.053 234.367 278.853 234.323 278.365 234.212C277.935 234.118 277.496 234.073 277.056 234.079C276.412 234.079 275.858 234.167 275.347 234.323C274.859 234.478 274.416 234.744 274.016 235.144C273.617 235.543 273.151 236.12 272.907 236.83C272.33 238.494 272.086 240.291 272.064 240.402H277.145C277.566 240.402 277.699 240.602 277.655 240.912L277.056 244.218C276.967 244.706 276.523 244.684 276.523 244.684H271.309L267.737 264.897C267.36 266.983 266.894 268.78 266.339 270.222C265.785 271.686 265.208 272.751 264.276 273.772C263.411 274.704 262.457 275.414 261.347 275.813C260.26 276.213 258.929 276.412 257.464 276.412C256.754 276.412 256.022 276.39 255.135 276.191C254.648 276.071 254.167 275.931 253.693 275.769C253.493 275.68 253.338 275.436 253.448 275.126C253.559 274.815 254.491 272.241 254.624 271.908C254.802 271.509 255.201 271.664 255.201 271.664C255.49 271.775 255.689 271.864 256.067 271.931C256.444 271.997 256.954 272.064 257.331 272.064C258.019 272.064 258.64 271.975 259.195 271.797C259.861 271.576 260.238 271.198 260.637 270.688C261.059 270.133 261.392 269.401 261.747 268.425C262.102 267.426 262.434 266.117 262.701 264.52L266.251 244.684H262.745C262.323 244.684 262.19 244.485 262.235 244.174L262.834 240.868C262.922 240.38 263.366 240.402 263.366 240.402H266.961L267.16 239.337C267.715 236.164 268.78 233.746 270.355 232.148C271.953 230.551 274.216 229.73 277.078 229.73ZM205.302 230.218H209.517C209.783 230.218 209.983 230.44 209.983 230.706V264.542C209.983 264.808 209.783 265.03 209.517 265.03H205.302C205.035 265.03 204.858 264.808 204.858 264.542V230.706C204.858 230.44 205.035 230.218 205.302 230.218ZM332.769 239.87C334.078 239.87 335.254 239.958 336.274 240.114C337.362 240.269 338.804 240.646 339.403 240.89C339.514 240.935 339.824 241.09 339.691 241.445C339.247 242.687 338.937 243.508 338.537 244.64C338.36 245.128 337.983 244.973 337.983 244.973C336.452 244.485 334.965 244.263 333.035 244.263C330.727 244.263 328.975 245.039 327.843 246.548C326.689 248.057 326.046 250.054 326.046 252.716C326.046 255.645 326.778 257.797 328.065 259.128C329.374 260.46 331.171 261.125 333.434 261.125C334.366 261.125 335.232 261.059 336.008 260.948C336.785 260.837 337.495 260.593 338.182 260.326C338.182 260.326 338.626 260.149 338.782 260.615L339.957 263.766C340.091 264.165 339.758 264.32 339.758 264.32C337.983 265.008 335.52 265.496 333.124 265.496C329.063 265.496 325.935 264.32 323.872 262.013C321.786 259.727 320.743 256.577 320.743 252.694C320.743 250.897 320.987 249.211 321.497 247.657C322.008 246.104 322.784 244.751 323.783 243.597C324.781 242.443 326.068 241.534 327.555 240.868C329.041 240.202 330.794 239.87 332.769 239.87ZM166.74 239.892H167.294C170.312 239.892 173.218 240.757 175.326 242.044C175.504 242.155 175.703 242.377 175.593 242.665C175.504 242.931 174.572 245.439 174.461 245.727C174.261 246.26 173.729 245.905 173.729 245.905C171.887 244.884 169.025 244.085 166.607 244.085C164.432 244.085 163.034 245.239 163.034 246.814V246.903C163.034 248.722 165.453 249.499 168.226 250.409L168.714 250.564C172.42 251.718 176.347 253.337 176.347 257.775V257.864C176.347 262.656 172.863 265.651 167.25 265.651C164.477 265.651 161.858 265.23 159.063 263.743C158.552 263.433 158.02 263.166 157.51 262.789C157.465 262.701 157.221 262.612 157.399 262.168L158.464 259.128C158.641 258.618 159.041 258.773 159.196 258.884C159.507 259.062 159.728 259.239 160.128 259.461C163.389 261.525 166.407 261.547 167.361 261.547C169.802 261.547 171.31 260.238 171.31 258.507V258.418C171.31 256.532 168.981 255.8 166.274 254.979L165.675 254.802C161.969 253.737 158.02 252.206 158.02 247.524V247.436C158.02 242.998 161.614 239.892 166.74 239.892ZM189.881 239.892C193.054 239.892 195.495 240.624 197.159 242.088C198.845 243.531 199.688 245.905 199.688 249.077V263.588C199.688 263.588 199.733 264.01 199.333 264.098C199.333 264.098 198.756 264.254 198.224 264.387C197.691 264.52 195.783 264.897 194.23 265.163C192.655 265.43 191.035 265.563 189.415 265.563C188.006 265.58 186.599 265.439 185.222 265.141C183.957 264.853 182.87 264.387 181.982 263.743C181.095 263.1 180.407 262.257 179.919 261.258C179.431 260.26 179.187 259.04 179.187 257.642C179.187 256.266 179.475 255.024 180.03 253.981C180.607 252.938 181.383 252.051 182.337 251.363C183.292 250.675 184.401 250.165 185.643 249.832C186.886 249.499 188.195 249.321 189.548 249.321C190.547 249.321 191.39 249.344 192.033 249.388C192.033 249.388 193.276 249.499 194.674 249.676V249.011C194.674 246.903 194.23 245.905 193.365 245.239C192.477 244.551 191.146 244.218 189.438 244.218C189.438 244.218 185.599 244.174 182.537 245.838C182.382 245.927 182.271 245.971 182.271 245.971C182.271 245.971 181.894 246.104 181.761 245.705L180.629 242.687C180.452 242.266 180.762 242.066 180.762 242.066C182.182 240.957 185.643 240.291 185.643 240.291C186.775 240.047 188.683 239.892 189.881 239.892ZM248.9 239.892H249.455C252.472 239.892 255.379 240.757 257.487 242.044C257.664 242.155 257.864 242.377 257.753 242.665C257.664 242.931 256.732 245.439 256.621 245.727C256.422 246.26 255.889 245.905 255.889 245.905C254.048 244.884 251.185 244.085 248.767 244.085C246.593 244.085 245.195 245.239 245.195 246.814V246.903C245.195 248.722 247.613 249.499 250.387 250.409L250.875 250.564C254.58 251.718 258.507 253.337 258.507 257.775V257.864C258.507 262.656 255.024 265.651 249.41 265.651C246.637 265.651 244.019 265.23 241.223 263.743C240.713 263.433 240.18 263.166 239.67 262.789C239.626 262.701 239.382 262.612 239.559 262.168L240.624 259.128C240.779 258.64 241.245 258.818 241.356 258.884C241.667 259.062 241.889 259.239 242.288 259.461C245.55 261.525 248.567 261.547 249.521 261.547C251.962 261.547 253.471 260.238 253.471 258.507V258.418C253.471 256.532 251.141 255.8 248.434 254.979L247.835 254.802C244.13 253.737 240.18 252.206 240.18 247.524V247.436C240.18 242.998 243.775 239.892 248.9 239.892ZM226.18 239.936C227.888 239.936 229.442 240.291 230.728 240.846C231.727 241.267 232.725 242.022 233.746 243.131C234.389 243.819 235.366 245.328 235.765 246.836C236.786 250.409 236.253 253.493 236.253 253.715C236.209 254.136 235.787 254.136 235.787 254.136L219.923 254.114C220.012 256.532 220.589 258.241 221.765 259.395C222.896 260.526 224.716 261.258 227.178 261.258C230.928 261.258 232.548 260.504 233.679 260.082C233.679 260.082 234.123 259.927 234.278 260.349L235.321 263.255C235.521 263.743 235.366 263.921 235.188 264.01C234.19 264.542 231.771 265.563 227.201 265.585C224.982 265.585 223.052 265.274 221.454 264.653C219.834 264.032 218.503 263.144 217.46 262.013C216.401 260.855 215.613 259.475 215.153 257.975C214.669 256.332 214.43 254.628 214.443 252.916C214.443 251.119 214.665 249.41 215.131 247.857C215.597 246.304 216.329 244.906 217.283 243.752C218.259 242.576 219.479 241.645 220.944 240.957C222.408 240.269 224.205 239.936 226.18 239.936ZM289.57 239.936C291.456 239.936 293.164 240.269 294.584 240.935C296.026 241.6 297.224 242.51 298.178 243.664C299.133 244.795 299.842 246.171 300.308 247.724C300.774 249.255 300.996 250.963 300.996 252.761C300.996 254.558 300.774 256.244 300.308 257.797C299.842 259.35 299.133 260.726 298.178 261.857C297.224 262.989 296.004 263.921 294.584 264.564C293.164 265.208 291.478 265.541 289.57 265.541C287.684 265.541 285.998 265.208 284.555 264.564C283.166 263.949 281.936 263.023 280.961 261.857C280.007 260.726 279.297 259.35 278.831 257.797C278.358 256.161 278.126 254.464 278.143 252.761C278.143 250.963 278.365 249.277 278.831 247.724C279.297 246.171 280.007 244.817 280.961 243.664C281.915 242.532 283.113 241.6 284.555 240.935C285.975 240.269 287.662 239.936 289.57 239.936ZM353.137 239.936C354.845 239.936 356.398 240.291 357.685 240.846C358.684 241.267 359.682 242.022 360.703 243.131C361.368 243.819 362.345 245.328 362.744 246.836C363.765 250.409 363.232 253.493 363.21 253.715C363.166 254.136 362.744 254.136 362.744 254.136L346.88 254.114C346.969 256.532 347.546 258.241 348.722 259.395C349.853 260.526 351.673 261.258 354.135 261.258C357.885 261.258 359.505 260.504 360.636 260.082C360.636 260.082 361.08 259.927 361.235 260.349L362.278 263.255C362.478 263.743 362.322 263.921 362.145 264.01C361.147 264.542 358.728 265.563 354.157 265.585C351.939 265.585 350.008 265.274 348.411 264.653C346.791 264.032 345.46 263.144 344.417 262.013C343.374 260.881 342.598 259.528 342.11 257.975C341.626 256.332 341.387 254.628 341.4 252.916C341.4 251.119 341.622 249.41 342.088 247.857C342.553 246.304 343.286 244.906 344.24 243.752C345.216 242.576 346.436 241.645 347.901 240.957C349.365 240.269 351.162 239.936 353.137 239.936ZM315.673 240.174C316.073 240.151 316.516 240.151 317.016 240.178C318.058 240.245 319.412 240.535 319.678 240.646C319.789 240.691 320.033 240.868 319.922 241.223C319.767 241.645 318.99 243.819 318.746 244.529C318.635 244.795 318.48 244.995 318.169 244.951C318.169 244.951 317.238 244.729 316.417 244.729C315.84 244.729 315.019 244.817 314.287 245.039C313.577 245.261 312.911 245.661 312.334 246.215C311.757 246.77 311.269 247.569 310.936 248.545C310.581 249.543 310.404 251.141 310.404 252.716V264.542C310.404 264.808 310.182 265.03 309.916 265.03H305.744C305.478 265.03 305.256 264.808 305.256 264.542V240.89C305.256 240.624 305.456 240.402 305.722 240.402H309.782C310.049 240.402 310.248 240.624 310.248 240.89V242.821C310.87 242 311.957 241.29 312.933 240.846C313.665 240.513 314.473 240.242 315.673 240.174ZM225.803 244.087C223.717 244.087 222.251 244.906 221.274 246.393C220.631 247.369 220.209 248.634 219.987 250.142H231.281C231.17 248.678 230.882 247.369 230.238 246.393C229.262 244.906 227.886 244.085 225.801 244.085L225.803 244.087ZM352.804 244.087C350.718 244.087 349.252 244.906 348.276 246.393C347.632 247.369 347.211 248.634 346.989 250.142H358.282C358.171 248.678 357.905 247.369 357.239 246.393C356.263 244.906 354.887 244.085 352.802 244.085L352.804 244.087ZM289.57 244.216C287.484 244.216 285.997 244.926 285.021 246.413C284.023 247.921 283.535 250.051 283.535 252.758C283.535 255.465 284.045 257.62 285.021 259.128C285.997 260.615 287.484 261.347 289.57 261.347C291.633 261.347 293.14 260.615 294.116 259.128C295.114 257.62 295.625 255.467 295.625 252.761C295.625 250.031 295.114 247.901 294.138 246.415C293.14 244.928 291.653 244.218 289.567 244.218L289.57 244.216ZM190.347 253.313C187.108 253.269 185.73 254.471 185.752 254.471C184.798 255.137 184.332 256.131 184.332 257.529C184.332 258.416 184.487 259.104 184.798 259.592C184.998 259.903 185.087 260.036 185.708 260.524C185.708 260.524 187.128 261.66 190.367 261.482C192.63 261.327 194.649 260.906 194.649 260.906V253.695C194.649 253.695 192.61 253.335 190.347 253.313Z" fill="white"/>
</svg>
