<svg width="512" height="512" viewBox="0 0 512 512" fill="none" xmlns="http://www.w3.org/2000/svg">
<rect width="512" height="512" rx="50" fill="#2CB134"/>
<path d="M294.2 289C284.8 288.8 276.6 295.8 275.6 305.2C275.6 305.6 275.8 305.8 276.2 305.8H312.2C312.6 305.8 312.8 305.6 312.8 305.2C312 295.6 303.8 288.4 294.2 289Z" fill="white"/>
<path d="M371.4 167.8L294.6 253.8C293.8 254.8 292.2 254.8 291.2 254L291 253.8L252.2 213.6C251.4 212.8 251.4 211.6 252 210.6L265 194C265.8 193 267.2 192.6 268.2 193.4C268.4 193.6 268.6 193.6 268.6 193.8L290.6 218C291.4 219 293 219 294 218.2L294.2 218L355.6 134.6C356.2 133.8 356 132.8 355.2 132.2C355 132 354.6 132 354.2 131.8H139.4C138.4 132 137.6 132.8 137.6 133.8V378.2C137.6 379.2 138.4 380 139.4 380H372.6C373.6 380 374.4 379.2 374.4 378.2V169C374.4 168 373.6 167.4 372.8 167.4C372.2 167.2 371.8 167.4 371.4 167.8ZM203.8 352.8C188.4 353.4 173.4 348.2 162 338C161.2 337.2 161 336 161.8 335L170.8 322.2C171.6 321.2 173 321 174 321.6L174.2 321.8C182.6 329.6 193.4 333.8 204.8 333.8C216.8 333.8 222.6 328.2 222.6 322.4C222.6 304.2 163.6 316.8 163.6 278.2C163.6 261.2 178.4 247 202.4 247C216.2 246.6 229.8 251.2 240.6 260C241.4 260.8 241.6 262.2 240.8 263L231.4 275.4C230.6 276.4 229.2 276.6 228.2 275.8C220.2 269.4 210.4 266 200.2 266.2C190.8 266.2 185.6 270.4 185.6 276.4C185.6 292.6 244.4 281.8 244.4 320C244.6 338.6 231.2 352.8 203.8 352.8ZM332.4 317.2C332.4 318.4 331.4 319.2 330.4 319.2H276.6C276.2 319.2 276 319.4 276 319.8C277.8 330.2 287.2 337.4 297.8 336.8C304.6 336.6 311 334.6 316.4 330.6C317.2 330 318.6 330 319.2 331L319.4 331.2L326 340.8C326.6 341.6 326.4 342.8 325.6 343.6C317 350 306.4 353.2 295.8 352.8C272.6 352.8 255.2 337.2 255.2 312.8C254.6 291.4 271.4 273.6 292.8 273H294.6C317.2 273 332.8 290 332.8 314.8L332.4 317.2Z" fill="white"/>
</svg>
