<svg width="512" height="512" viewBox="0 0 512 512" fill="none" xmlns="http://www.w3.org/2000/svg">
<rect width="512" height="512" rx="50" fill="url(#paint0_linear_3_141)"/>
<path d="M369.461 178.023L268.422 121.234C260.758 116.945 251.242 116.945 243.578 121.234L142.539 178.023C134.805 182.359 130 190.492 130 199.211V312.789C130 321.508 134.805 329.641 142.539 333.977L243.578 390.766C247.422 392.922 251.711 394 256 394C260.289 394 264.578 392.922 268.422 390.766L369.461 333.977C377.195 329.641 382 321.508 382 312.789V199.211C382 190.492 377.195 182.359 369.461 178.023ZM256 328C216.297 328 184 295.703 184 256C184 216.297 216.297 184 256 184C278.688 184 299.641 194.523 313.258 212.453L286.961 227.664C279.063 219.016 267.836 214 256 214C232.844 214 214 232.844 214 256C214 279.156 232.844 298 256 298C267.836 298 279.063 292.984 286.961 284.336L313.258 299.547C299.641 317.477 278.688 328 256 328ZM328 262H316V274H304V262H292V250H304V238H316V250H328V262ZM370 262H358V274H346V262H334V250H346V238H358V250H370V262Z" fill="white"/>
<defs>
<linearGradient id="paint0_linear_3_141" x1="497.5" y1="67" x2="29.5" y2="364.5" gradientUnits="userSpaceOnUse">
<stop stop-color="#2D6996"/>
<stop offset="1" stop-color="#1E1E1E"/>
</linearGradient>
</defs>
</svg>
