<svg width="512" height="512" viewBox="0 0 512 512" fill="none" xmlns="http://www.w3.org/2000/svg">
<rect width="512" height="512" rx="50" fill="url(#paint0_linear_3_149)"/>
<path d="M253 118C200.805 118 190 144.953 190 160.562V190H250V196H160.562C140.758 196 118 211.609 118 256C118 300.391 140.758 316 160.562 316H196V280C196 266.805 206.805 256 220 256H292C302.195 256 310 248.195 310 238V160.562C310 139.562 290.195 118 253 118ZM226 148C232.609 148 238 153.391 238 160C238 166.609 232.609 172 226 172C219.391 172 214 166.609 214 160C214 153.391 219.391 148 226 148ZM316 196V238C316 251.195 305.195 262 292 262H220C209.805 262 202 269.805 202 280V351.438C202 372.438 221.805 394 259 394C311.195 394 322 367.047 322 351.438V322H262V316H351.438C371.242 316 394 300.391 394 256C394 211.609 371.242 196 351.438 196H316ZM286 340C292.609 340 298 345.391 298 352C298 358.609 292.609 364 286 364C279.391 364 274 358.609 274 352C274 345.391 279.391 340 286 340Z" fill="white"/>
<defs>
<linearGradient id="paint0_linear_3_149" x1="497.5" y1="67" x2="29.5" y2="364.5" gradientUnits="userSpaceOnUse">
<stop stop-color="#EFD23C"/>
<stop offset="1" stop-color="#1E1E1E"/>
</linearGradient>
</defs>
</svg>
