<svg width="512" height="512" viewBox="0 0 512 512" fill="none" xmlns="http://www.w3.org/2000/svg">
<rect width="512" height="512" rx="50" fill="url(#paint0_linear_13_211)"/>
<path d="M256 134.125C188.763 134.125 134.125 188.763 134.125 256C134.125 323.237 188.763 377.875 256 377.875C323.237 377.875 377.875 323.237 377.875 256C377.875 188.763 323.237 134.125 256 134.125ZM256 154.45C282.486 154.45 306.457 164.564 324.5 181.055C324.112 181.047 323.722 180.945 323.236 180.945C313.28 180.945 306.793 189.671 306.793 199.018C306.793 207.446 311.039 214.466 316.223 222.895C320.077 229.598 324.555 238.331 324.555 250.818C324.555 259.556 321.3 269.603 316.828 283.722L306.793 317.542L268.671 200.098C274.765 199.789 280.243 199.182 280.243 199.182C285.728 198.573 285.123 190.45 279.639 190.76C279.639 190.76 263.19 192.078 252.521 192.078C242.574 192.078 225.806 190.76 225.806 190.76C220.322 190.45 219.717 198.882 225.202 199.182C225.202 199.182 230.374 199.789 235.858 200.098L252.96 251.734L230.805 318.366L192.389 200.116C198.586 199.807 204.071 199.201 204.071 199.201C209.556 198.591 208.848 190.468 203.467 190.778C203.467 190.778 187.7 192.029 177.027 192.078C195.615 169.11 224.014 154.45 256 154.45ZM345.172 207.257C353.062 221.713 357.55 238.307 357.55 256C357.55 296.214 334.363 330.712 300.623 347.187C302.812 346.106 304.988 345.025 307.086 343.744L338.068 254.077C343.852 239.659 345.777 228.072 345.777 217.713C345.777 213.953 345.584 210.593 345.191 207.349C345.176 207.321 345.185 207.286 345.172 207.257ZM164.154 212.732L211.615 347.315C177.743 330.888 154.45 296.31 154.45 256C154.45 240.483 157.985 225.86 164.154 212.732ZM257.721 264.844L289.014 350.446C289.215 350.938 289.415 351.353 289.71 351.746C279.156 355.441 267.848 357.55 256 357.55C245.998 357.55 236.368 356.063 227.252 353.394L257.721 264.844ZM212.842 347.901C215.48 349.108 218.146 350.202 220.844 351.233C218.117 350.232 215.452 349.123 212.842 347.901ZM297.4 348.743C295.258 349.696 293.063 350.537 290.845 351.343C293.071 350.567 295.256 349.69 297.4 348.743Z" fill="white"/>
<defs>
<linearGradient id="paint0_linear_13_211" x1="497.5" y1="67" x2="29.5" y2="364.5" gradientUnits="userSpaceOnUse">
<stop stop-color="#00749C"/>
<stop offset="1" stop-color="#1E1E1E"/>
</linearGradient>
</defs>
</svg>
