<svg width="512" height="512" viewBox="0 0 512 512" fill="none" xmlns="http://www.w3.org/2000/svg">
<rect width="512" height="512" rx="50" fill="url(#paint0_linear_163_49)"/>
<path d="M178.344 160.738C185.394 161.844 194.3 163.613 203.806 166.313C201.663 172.419 199.831 178.838 198.456 185.419C191.625 185.356 184.875 185.831 178.381 186.675C177.763 176.9 177.925 167.919 178.344 160.738ZM169.013 188.15C168.475 180.363 168.438 173.081 168.638 166.681C168.306 167.006 167.938 167.281 167.606 167.613C159.794 175.425 153.375 184.088 148.063 193.219C154.231 191.394 161.263 189.581 169.013 188.15ZM182.281 213.006C185.9 206.794 190.275 200.906 195.588 195.588C195.869 195.306 196.175 195.075 196.456 194.8C190.613 194.85 184.819 195.313 179.213 196.063C179.863 201.663 180.925 207.356 182.281 213.006ZM174.306 220.013C172.213 212.544 170.788 204.963 169.894 197.588C158.875 199.688 149.169 202.569 142.013 205.019C141.888 205.3 141.75 205.569 141.625 205.85C144.763 212.875 149.35 222.081 155.4 231.675C161.25 227.45 167.575 223.456 174.306 220.013ZM148.35 237.031C143.875 230.019 140.244 223.281 137.288 217.269C133.581 228.688 131.569 240.513 131.231 252.4C135.969 247.663 141.731 242.331 148.35 237.031ZM132.263 272.4C133.838 284.413 137.163 296.2 142.219 307.425C144.538 300.988 147.519 293.644 151.281 286.019C144.019 281.431 137.6 276.688 132.263 272.4ZM133 263.206C138.669 267.988 146.138 273.744 154.806 279.275C158.256 272.988 162.25 266.719 166.825 260.769C161.819 255.569 157.313 250.013 153.3 244.381C145.019 251.075 138.044 257.863 133 263.206ZM160.3 239.013C163.463 243.494 167.006 247.869 170.8 252.056C171.144 244.519 172.456 237.031 174.781 229.781C169.706 232.613 164.831 235.713 160.3 239.013ZM207.444 156.863C210.425 149.669 213.619 143.15 216.644 137.513C206.206 140.963 196.113 145.719 186.713 151.981C192.938 153.138 199.969 154.694 207.444 156.863ZM217.088 159.906C222.831 161.913 228.644 164.313 234.35 167.1C239.738 160.863 244.356 155.606 247.456 152.1C242.956 148.369 235.819 142.631 228.313 137.194C224.794 143.356 220.775 151.138 217.088 159.906ZM175.8 328.525C166.813 327.706 158.55 326.294 151.631 324.819C156.2 331.744 161.525 338.306 167.613 344.394C170.819 347.6 174.169 350.563 177.619 353.344C176.669 346.2 175.9 337.688 175.8 328.525ZM344.388 167.606C316.5 139.725 278.606 127.869 242.156 131.9C252.038 139.438 259.906 146.238 260.481 146.744L265.275 150.913L261.031 155.638C260.931 155.75 255.431 161.894 247.469 171.05C250.306 170.769 253.15 170.613 256 170.613C277.875 170.613 299.756 178.944 316.413 195.594C349.725 228.906 349.725 283.106 316.413 316.419C287.55 345.275 243.013 349.081 209.963 327.931C203.625 328.85 197.25 329.269 191.019 329.269C188.225 329.269 185.481 329.169 182.763 329.031C182.931 340.719 184.219 351.325 185.488 359.138C206.669 373.631 231.319 380.963 256.006 380.963C288.019 380.963 320.025 368.775 344.394 344.413C393.125 295.65 393.125 216.35 344.388 167.606ZM201.6 321.844C199.538 320.138 197.525 318.344 195.594 316.419C191.4 312.225 187.738 307.694 184.6 302.919C183.544 309.338 182.975 315.775 182.813 322.044C188.925 322.375 195.263 322.319 201.6 321.844ZM213.406 169.319C211.644 174.275 210.138 179.45 208.9 184.719C214.588 180.956 220.65 178.038 226.9 175.781C227.119 175.525 227.363 175.231 227.581 174.975C222.894 172.813 218.131 170.944 213.406 169.319ZM171.438 267.244C167.65 272.394 164.244 277.775 161.288 283.206C166.694 286.331 172.469 289.188 178.463 291.638C174.888 283.831 172.538 275.613 171.438 267.244ZM178.131 299.644C170.969 296.913 164.15 293.569 157.806 289.938C152.963 299.85 149.425 309.331 147.044 316.663C154.556 318.481 164.688 320.463 175.875 321.531C176.088 314.381 176.775 307.006 178.131 299.644Z" fill="url(#paint1_linear_163_49)"/>
<defs>
<linearGradient id="paint0_linear_163_49" x1="497.5" y1="67" x2="29.5" y2="364.5" gradientUnits="userSpaceOnUse">
<stop stop-color="#EAEAEA"/>
<stop offset="1" stop-color="#F4F4F4"/>
</linearGradient>
<linearGradient id="paint1_linear_163_49" x1="256.087" y1="131.133" x2="256.087" y2="380.963" gradientUnits="userSpaceOnUse">
<stop stop-color="#3D3D3D"/>
<stop offset="1" stop-color="#1E1E1E"/>
</linearGradient>
</defs>
</svg>
