<svg width="512" height="512" viewBox="0 0 512 512" fill="none" xmlns="http://www.w3.org/2000/svg">
<rect width="512" height="512" rx="50" fill="url(#paint0_linear_161_2)"/>
<path d="M396.934 194.284C395.998 198.554 394.478 201.712 392.431 203.817L390.969 202.881C392.548 198.846 393.308 196.507 393.25 195.922L392.84 195.279C392.314 195.337 391.612 196.741 390.735 199.548L389.975 199.606C389.916 199.08 389.799 198.671 389.565 198.261L389.214 198.32C382.313 217.561 379.214 226.508 372.839 241.304C371.67 245.106 370.675 247.211 369.798 247.621C369.857 248.03 370.091 248.264 370.558 248.205C370.734 250.077 370.266 251.89 369.272 253.703C366.289 262.183 364.359 266.861 363.365 267.68L364.008 271.715C364.067 272.125 363.833 272.417 363.365 272.417L362.663 272.476C362.546 271.365 362.137 270.838 361.435 270.897L361.084 270.955C360.207 272.359 359.505 273.996 359.037 275.868L359.739 275.809C360.675 275.224 361.084 274.523 361.026 273.645L362.429 273.528L363.19 273.821C362.546 274.815 362.254 275.634 362.312 276.219L362.663 276.862L361.786 278.967L361.844 279.318C362.663 279.26 363.54 279.494 364.476 280.078C365.12 280.02 365.821 279.728 366.582 279.26C367.4 279.201 370.324 279.143 375.471 279.143L378.044 278.265C381.202 278.207 381.67 278.324 384.419 278.09L385.53 277.973L386.115 277.564L386.173 277.915C388.98 277.681 389.214 277.856 391.437 278.149L391.495 278.499L389.916 278.616L389.975 279.26C390.442 279.201 390.852 279.084 391.203 278.792C391.612 278.733 391.846 278.967 391.905 279.435C391.261 279.494 390.559 279.669 389.741 279.903L389.039 279.669C387.928 279.961 388.162 280.02 387.46 280.078L386.349 279.845C386.349 280.02 386.29 280.137 386.115 280.195C386.173 280.605 386.349 280.839 386.758 280.78L388.103 280.663L387.518 280.429C387.518 280.605 387.635 280.722 387.869 280.722L393.659 280.195L395.881 279.728C395.881 279.903 395.998 280.02 396.174 280.02L397.226 279.611L399.215 279.435C400.794 279.318 400.735 279.201 404.069 278.675C404.069 278.499 404.127 278.382 404.303 278.382V278.675C410.677 277.622 410.093 277.681 411.438 277.213L411.145 276.511C409.332 276.92 409.391 276.686 408.455 276.803L403.601 277.037L403.543 276.686L406.233 276.336L407.227 276.277L407.753 275.868L407.812 276.219C411.613 275.868 412.958 276.862 430.679 273.119C431.614 273.061 431.556 272.242 432.141 270.604C431.79 270.604 431.497 270.546 431.205 270.37C429.743 270.955 428.983 270.663 426.175 271.131C425.941 271.131 425.766 270.955 425.649 270.487V270.195L428.339 270.312C428.807 270.253 429.86 270.195 431.263 269.376C431.556 269.552 431.029 269.727 431.322 269.669L431.79 269.61C432.082 269.61 432.199 269.376 432.199 268.908L431.907 268.265C430.094 268.44 429.216 268.499 427.754 269.318L427.696 268.967L425.474 269.201C425.415 268.499 425.24 268.206 424.947 268.206L423.778 268.323C422.432 268.44 421.789 268.382 421.146 268.908C421.146 268.674 421.029 268.557 420.912 268.557L419.625 268.674L418.865 269.084C418.865 268.85 418.748 268.733 418.631 268.733L418.163 269.142L418.105 268.791L416.35 268.674L415.941 268.733L415.999 269.376L416.935 269.61L417.754 269.552C418.046 269.727 418.397 269.786 418.748 269.786L419.508 269.435V269.727C415.356 270.78 415.356 270.546 412.49 271.072C412.14 270.838 411.906 270.78 411.789 270.78C411.496 271.072 412.14 270.838 411.964 270.838C411.496 270.897 411.262 270.663 411.204 270.253L412.666 270.078C412.783 270.078 412.841 270.195 413.66 270.37C414.83 269.786 414.888 269.552 415.532 269.493L415.473 268.85C411.379 269.669 413.017 269.142 407.87 269.552H407.636L407.578 268.908C414.186 268.09 411.964 268.557 414.186 267.914C414.186 268.148 414.303 268.265 414.42 268.265C414.654 268.031 415.005 267.856 415.356 267.856L415.824 267.797C418.105 267.622 418.924 268.09 423.485 266.803V267.095L424.245 266.744L424.947 266.686C424.889 265.984 425.941 265.926 426.234 265.867L426.175 265.165C418.163 266.803 416.058 266.335 413.836 266.978V266.686C411.73 267.095 411.672 266.861 411.145 266.92C410.97 266.92 410.736 267.095 410.502 267.329C410.502 267.095 410.385 266.978 410.21 266.978C409.859 266.978 410.034 267.095 409.742 267.388L410.21 266.978L403.25 268.09C403.25 267.914 403.133 267.797 402.958 267.797C399.449 268.557 400.385 268.674 395.647 269.084C395.414 269.084 395.121 269.201 394.77 269.435C394.77 269.259 394.653 269.142 394.419 269.142L391.495 269.376L389.565 269.844C389.565 269.669 389.448 269.552 389.214 269.552C388.103 269.844 387.167 270.019 386.407 270.078H386.349C385.881 270.136 386.583 269.961 386.232 269.786L385.647 270.136C384.77 270.195 385.238 270.078 382.313 270.136C377.167 270.78 377.752 270.838 377.167 270.897L375.237 270.78C375.237 270.955 375.179 271.072 374.945 271.131C372.781 270.838 371.67 270.487 371.611 270.078C371.903 268.031 372.371 266.978 373.132 266.861L373.483 266.803L373.132 267.505L373.483 267.446C374.184 267.095 374.477 266.744 374.477 266.394L374.418 265.692L373.716 265.75L373.658 265.107C373.599 264.581 373.658 264.171 373.833 263.762L375.412 261.247L375.471 261.89L376.231 261.832L376.173 261.189L375.763 260.545C376.29 260.077 376.758 259.785 377.108 259.785L377.05 259.434L376.056 259.493L375.997 258.498C377.986 254.288 378.98 251.831 378.921 251.188L379.623 251.48C380.091 251.422 380.325 251.188 380.267 250.72L379.565 250.779V250.486C379.506 249.96 379.623 249.492 379.799 249.083C380.91 247.971 381.378 246.802 381.261 245.574C381.495 245.574 381.612 245.691 381.612 245.925C382.547 245.398 383.249 243.995 383.775 241.655C385.413 238.673 387.752 232.708 390.793 223.818C396.642 208.086 396.408 206.39 397.226 202.706L396.525 202.764C396.583 203.232 396.466 203.7 396.232 204.11C395.764 203.934 395.355 203.817 395.121 203.817V203.525C395.004 202.18 395.589 200.542 396.876 198.612H397.168L397.753 200.893L398.455 200.834C398.455 200.659 398.63 199.782 398.981 198.086C398.922 197.735 398.689 197.559 398.162 197.501L397.519 197.91C397.46 197.443 397.519 196.214 397.577 194.167L396.934 194.284ZM388.513 204.402L388.863 204.343C388.337 205.279 387.928 205.806 387.518 205.864L387.46 204.87C387.752 204.811 388.103 204.694 388.513 204.402ZM385.588 211.42C386.29 208.554 386.992 206.917 387.635 206.507L387.694 206.858C387.343 209.548 386.758 210.894 385.939 211.01L386.056 212.706C385.413 213.584 385.121 214.285 385.179 214.812L384.828 214.87L384.653 212.531C385.004 212.473 385.354 212.122 385.588 211.42ZM384.477 215.221C384.536 215.631 384.243 216.566 383.717 217.97L383.366 218.028L383.308 217.034C383.717 215.865 384.126 215.28 384.477 215.221ZM365.236 257.738L365.587 258.381C366.114 258.323 366.348 258.089 366.289 257.68L366.231 257.329L365.88 257.387L365.236 257.738ZM374.477 265.399V265.692C375.003 265.633 375.529 264.698 375.997 262.885L375.296 262.651C374.711 264.23 374.477 265.107 374.477 265.399ZM433.661 267.446V267.739L433.076 268.44L434.188 268.031H434.304L434.246 267.388H434.012L433.603 267.739C433.603 267.563 434.831 267.212 433.895 267.037C433.72 267.329 434.188 267.388 433.661 267.446ZM435.942 269.552L437.521 269.435C437.463 269.025 436.468 268.908 436.117 268.908H435.883L435.942 269.552ZM407.987 270.136L408.455 270.721C408.455 270.546 408.514 270.429 408.689 270.429L409.04 271.072L407.578 270.897C407.461 270.429 407.636 270.195 407.987 270.136ZM403.192 270.663C403.718 270.604 404.069 270.955 404.069 271.423H402.431V271.131C402.607 271.072 402.899 270.955 403.192 270.663ZM406.935 270.487L406.993 270.838L405.648 270.955L405.589 270.604L406.935 270.487ZM393.367 271.891C393.367 272.066 393.484 272.183 393.718 272.183C395.881 271.774 395.647 271.715 396.7 271.598C397.051 271.54 397.226 271.774 397.285 272.183L391.261 272.71L391.846 273.002L391.788 272.651L389.507 272.827L389.448 272.476L391.495 272.3L393.367 271.891ZM399.566 271.365V271.657C399.39 271.657 400.151 271.715 399.8 272.008C398.513 271.891 398.455 271.774 397.519 271.832V271.54L399.566 271.365ZM401.086 271.189V271.481L399.975 271.598V271.306L401.086 271.189ZM363.657 277.154L363.716 278.149C363.365 278.207 363.073 277.973 362.956 277.505V277.213L363.657 277.154ZM413.719 276.277L413.777 276.92L414.947 276.803L414.479 276.511L414.537 276.862L415.707 276.394C423.719 275.517 424.655 275.868 424.538 274.932V274.64C416.467 276.453 415.415 276.102 413.719 276.277ZM426.234 275.166L427.404 275.4L427.345 274.757L426.175 274.523L426.234 275.166ZM391.612 277.447C391.963 277.622 391.203 277.798 391.671 277.739L395.764 277.388L395.823 277.739C394.653 277.856 393.893 278.032 393.659 278.265C393.659 278.032 393.542 277.915 393.308 277.915L391.554 278.09L391.495 277.739C391.963 277.681 391.261 277.681 391.612 277.447ZM410.561 276.979L410.911 277.622C412.257 277.33 411.496 277.388 411.847 277.096C411.847 277.33 411.964 277.447 412.081 277.447L413.017 277.388L412.958 276.686L410.502 276.628L410.561 276.979ZM387.401 279.494H387.167L387.109 278.85H387.343L387.401 279.494ZM369.096 281.716L369.155 282.067L379.916 281.19L379.857 280.546L371.26 281.248L369.447 281.014L369.096 281.716ZM381.085 281.073H381.202L381.144 280.429H381.027L381.085 281.073ZM217.334 224.578C209.731 233.643 205.813 238.614 205.52 239.608C202.421 242.825 200.9 244.755 201.076 245.398C200.257 245.925 199.906 246.451 200.023 247.036C199.789 247.094 199.614 246.977 199.555 246.743C198.21 248.907 196.28 250.252 193.648 250.896L190.9 251.539C190.549 251.597 190.373 251.89 190.373 252.358L190.432 252.709L191.485 252.475L191.543 252.767L189.204 253.644L185.051 254.58L182.888 254.697C182.595 254.989 184.584 254.639 183.823 254.872L181.133 255.516C179.496 255.925 178.56 255.75 178.443 255.106L178.151 255.165C178.326 255.808 178.151 256.218 177.683 256.335L178.209 256.218L177.975 255.223L173.063 256.393L173.589 256.627C173.53 256.393 173.296 256.335 172.829 256.451L172.185 256.978L171.425 256.802C170.723 257.212 170.255 257.446 170.138 257.446L169.378 257.27C167.331 258.44 168.852 258.44 168.735 258.44L168.91 259.083L170.08 258.791L171.893 258.674L171.717 259.434C165.05 261.189 169.904 260.194 168.092 260.604L167.741 260.662L167.916 261.306L168.969 261.072L169.027 261.423C167.682 261.715 166.922 262.007 166.688 262.3L166.629 261.949C164.875 262.358 163.121 263.703 161.366 265.926C161.658 267.212 157.857 268.791 175.753 264.639C176.981 264.581 177.683 264.581 177.858 264.522C177.8 264.288 177.917 264.171 178.151 264.113C180.139 263.879 179.203 264.23 180.431 263.937L184.291 263.06L183.472 263.528C183.414 263.352 183.531 263.235 183.706 263.177C184.174 263.294 184.642 263.235 185.168 263.118L185.402 264.113L170.138 288.325L166.746 292.535L165.109 298.091L165.401 298.033L167.039 297.331L166.513 299.495L166.688 300.138L167.156 300.723C166.922 300.781 166.863 300.898 166.922 301.132L166.98 301.483L167.682 301.308C168.676 300.43 169.086 299.612 168.969 298.91C170.08 299.085 170.782 299.144 171.133 299.085L171.191 299.436C170.548 299.612 170.197 300.138 170.138 301.015L170.197 301.366L170.548 301.308C176.104 295.284 189.613 274.64 200.491 260.604C200.14 259.083 205.813 256.978 217.509 254.288L217.86 254.229C218.27 256.042 217.392 260.487 215.17 267.563C213.708 271.832 213.065 274.172 213.123 274.523C211.252 280.195 210.374 283.237 210.491 283.704L206.339 297.272C203.649 304.232 201.602 311.542 200.199 319.262C200.432 319.203 200.842 319.262 201.31 319.379L201.894 318.852C201.953 319.086 202.07 319.145 202.362 319.145L202.128 318.151L203.941 318.092C204.468 317.975 204.936 317.273 205.286 316.045C205.228 314.232 205.579 313.238 206.398 313.004C207.509 308.676 208.211 306.454 208.445 306.396C209.497 302.068 210.258 299.612 210.784 298.968C212.363 293.354 213.474 290.43 214.234 290.254L214.41 290.956L213.299 293.939C211.31 302.77 209.263 309.788 207.216 314.934L207.801 317.507L208.152 317.449C213.123 306.805 220.2 285.751 229.498 254.288C229.791 251.539 231.077 249.375 233.475 247.855L232.949 247.328L232.89 247.036C233.943 246.802 234.703 246.392 235.113 245.808C235.054 245.574 234.118 245.223 232.305 244.755L237.803 221.245C239.44 214.227 240.552 208.086 241.136 202.706L241.078 202.355C239.967 201.653 238.856 200.659 237.861 199.372V197.969L237.803 197.676L237.51 197.735C234.118 202.881 227.334 211.829 217.334 224.578ZM225.112 229.9C225.405 231.129 224.937 233.409 223.767 236.743C223.416 240.954 221.896 243.351 219.264 243.995L219.205 243.644L216.866 244.521L215.813 244.755C215.287 244.872 214.819 244.872 214.351 244.696L214.117 243.761C214.059 243.41 217.392 238.731 224.293 229.783L225.112 229.9ZM219.732 244.521L220.492 244.346L220.667 244.989C216.983 246.1 214.936 246.685 214.527 246.802C214.293 246.86 213.942 247.036 213.533 247.387C213.474 247.153 213.006 247.153 212.07 247.328C211.895 246.685 214.468 245.749 219.732 244.521ZM183.414 254.346L184.233 254.171L184.057 253.469L183.239 253.644L183.414 254.346ZM194.116 251.539L194.292 252.182L192.537 252.299L192.479 251.948L194.116 251.539ZM173.647 258.264L173.706 258.615L172.595 258.849L172.536 258.498L173.647 258.264ZM171.6 262.534L171.659 262.826L170.314 263.118L170.138 262.475L171.6 262.534ZM174.817 261.832L174.876 262.124L172.419 262.709L172.361 262.417L174.817 261.832ZM179.086 261.13L179.145 261.481L172.712 262.943L172.536 262.3C176.279 261.656 175.87 261.89 179.086 261.13ZM211.31 253.644L211.837 254.229C211.076 254.405 210.491 254.639 210.199 254.931L209.439 254.814C208.269 255.282 207.216 255.633 206.398 255.808L205.696 255.984C205.286 256.101 204.994 255.925 204.819 255.516L209.673 254.405L211.31 253.644ZM214.761 252.884L218.211 252.065L218.27 252.416C216.398 252.826 214.936 253.293 213.883 253.82L213.825 253.469C214.117 253.41 214.41 253.176 214.761 252.884ZM178.501 262.709L180.139 262.358L180.314 263.002C179.613 263.177 180.139 263.177 179.262 263.586C177.566 263.762 177.917 263.528 175.226 264.171L175.168 263.82L178.501 262.709ZM182.946 261.949C183.414 261.832 183.706 262.007 183.765 262.475L182.771 262.709C182.361 262.826 182.069 262.651 181.893 262.183L182.946 261.949ZM164.641 298.91L164.7 299.261C165.167 299.144 165.343 298.91 165.226 298.442L165.167 298.091C164.758 298.208 164.583 298.442 164.641 298.91ZM166.045 304.758C166.162 305.168 166.396 305.343 166.863 305.226C167.331 305.109 167.507 304.875 167.39 304.407L167.331 304.056L166.629 304.232L166.045 304.758ZM203.357 314.817C203.824 314.7 204.058 314.876 204.175 315.285L204.234 315.636L202.889 315.928C203.006 315.46 203.006 315.11 202.947 314.876L203.357 314.817Z" fill="url(#paint1_linear_161_2)"/>
<path d="M257.512 206.624C254.47 208.788 251.02 211.01 247.16 213.174L247.219 213.818C247.453 213.818 247.803 213.642 248.271 213.35C248.739 213.291 248.973 213.525 249.032 213.935L249.675 213.584H249.967V213.876C250.026 214.227 247.57 216.098 242.774 219.49L243.125 220.192H242.832L242.072 219.9C242.072 220.134 241.78 220.309 241.078 220.368V220.66L241.838 221.596C241.604 221.596 241.195 221.537 240.727 221.303C239.148 221.42 237.627 222.59 236.107 224.695L236.458 225.339C237.803 224.111 238.563 223.467 238.797 223.467L238.856 224.461C238.622 224.461 238.271 224.637 237.803 224.929L238.68 226.157C240.259 224.403 242.014 222.941 243.885 221.713C244.821 222.005 245.347 222.298 245.347 222.59L246.049 222.532C251.312 218.672 256.459 215.923 261.547 214.227L261.605 214.87C260.67 216.274 260.026 216.976 259.675 217.034C259.734 217.502 259.851 217.911 260.085 218.321C260.143 219.198 257.862 225.046 253.184 235.866C242.482 260.955 233.534 279.552 226.282 291.6C226.282 291.833 226.457 292.184 226.75 292.594C228.563 292.184 229.674 291.716 230.142 291.307H230.434L230.493 291.95L231.253 291.892L231.896 291.541C231.896 291.716 232.13 291.833 232.598 291.775L232.656 292.477C232.715 293.12 232.306 294.114 231.545 295.518C230.785 296.337 229.966 298.091 229.147 300.723L229.206 301.074L229.908 301.015C232.832 297.74 234.996 294.582 236.516 291.424C244.996 288.909 251.429 286.512 255.933 284.114C260.494 283.704 263.886 282.535 266.225 280.605L266.167 280.254L264.413 280.78L264.062 280.839L264.003 280.488C267.337 280.02 269.617 279.26 270.846 278.265C277.279 273.294 282.133 269.785 285.466 267.739C295.642 260.253 300.438 253.118 299.853 246.217C299.795 245.515 297.572 242.708 293.127 237.796C293.069 236.86 294.59 235.515 297.689 233.76L306.578 226.041C308.567 223.526 309.737 219.432 310.087 213.759L309.97 212.473C309.62 208.554 306.754 205.396 301.374 202.94C298.157 200.776 292.426 199.606 284.18 199.372C277.513 199.84 268.565 202.297 257.512 206.624ZM305.116 207.092L304.766 207.794L294.94 203.642C301.549 203.934 304.941 205.045 305.116 207.092ZM265.231 234.462C265.933 230.778 266.693 228.731 267.512 228.263L274.939 211.654C274.881 210.66 276.401 209.841 279.618 209.256L280.671 209.139L280.729 210.133C283.887 209.607 285.817 209.314 286.636 209.256C292.484 208.73 295.525 209.958 295.759 212.765L296.461 212.706L296.344 211.127L297.046 211.069C298.742 212.005 299.619 213.116 299.736 214.461C299.794 215.397 299.327 216.566 298.332 217.97C297.865 218.028 297.631 217.677 297.572 217.034L296.87 217.093L296.636 219.081C293.654 223.584 291.548 225.865 290.203 225.982C289.034 227.62 288.273 228.438 287.923 228.438C286.987 229.549 284.472 231.479 280.32 234.111C278.916 234.228 273.828 236.216 264.997 240.076C264.588 239.901 264.062 239.842 263.594 239.901L263.535 239.258C263.418 238.029 264.003 236.45 265.231 234.462ZM306.052 213.993L306.111 214.695C305.76 214.695 305.116 213.642 304.064 211.537L304.005 210.894C304.649 210.835 305.35 211.888 306.052 213.993ZM241.253 221.947L241.312 222.298C241.078 222.298 240.727 222.473 240.259 222.707H239.967L239.908 222.064L241.253 221.947ZM262.717 221.42L262.775 222.415C262.424 222.415 262.015 222.941 261.488 223.818L261.43 223.175C262.015 222.415 262.307 221.83 262.307 221.42H262.717ZM259.383 228.321L259.5 229.608L259.149 229.666L259.032 228.38L259.383 228.321ZM258.564 230.719C258.506 231.83 258.213 232.415 257.687 232.474L257.336 232.532C257.745 231.772 257.921 231.187 257.862 230.778L258.564 230.719ZM257.044 234.17L257.102 234.52L256.517 235.573L255.816 235.632L255.757 235.281C256.459 235.222 256.81 234.871 256.751 234.17H257.044ZM255.582 237.269L255.348 238.965H255.055L254.938 237.269H255.582ZM291.607 238.497L293.069 239.375C293.127 239.784 292.894 240.076 292.426 240.076C291.782 239.667 291.315 239.492 290.964 239.55V238.556L291.607 238.497ZM263.418 242.24L263.477 242.883L262.073 243L262.015 242.357L263.418 242.24ZM286.168 244.638C287.162 245.106 287.63 245.515 287.689 245.866V246.159C286.753 246.217 285.876 245.749 285.057 244.696L286.168 244.638ZM256.868 251.831C260.845 251.48 267.103 249.609 275.7 246.217L277.864 246.042C282.191 245.691 285.408 246.509 287.572 248.556L287.689 249.843C286.11 254.405 284.355 257.095 282.425 257.914L273.594 265.048C266.986 269.376 263.418 271.54 262.833 271.598C252.307 277.388 245.757 280.371 243.183 280.605L242.832 280.663C243.066 279.435 247.745 269.844 256.868 251.831ZM266.401 248.03L266.459 248.381L265.056 248.498L264.997 248.147L266.401 248.03ZM298.274 246.568L298.508 249.258C298.157 249.901 297.865 250.252 297.514 250.311L297.104 245.749C297.865 245.983 298.274 246.275 298.274 246.568ZM244.294 269.493C243.827 271.715 243.359 272.885 242.891 272.885V272.593C242.715 271.54 243.183 270.487 244.294 269.493ZM253.125 282.008C255.699 281.541 262.775 277.856 274.355 270.897L274.413 271.54C274.413 271.832 273.477 272.71 271.43 274.113C265.582 277.037 262.073 278.967 261.021 279.961C254.646 282.184 251.488 283.587 251.546 284.114C245.874 286.336 242.189 287.974 240.376 289.026C239.967 289.085 239.323 288.909 238.563 288.5C238.446 287.33 238.973 286.453 240.084 285.751C241.078 285.693 242.014 285.81 242.891 286.161C243.944 285.634 245.757 285.049 248.388 284.348L248.33 283.704L246.166 283.88C246.4 283.47 248.447 282.535 252.248 281.014L253.301 280.897V281.19C251.488 281.365 250.494 281.891 250.26 282.827C250.318 283.237 250.552 283.47 251.02 283.412C252.482 282.71 253.125 282.184 253.125 282.008ZM242.189 273.996V274.289C242.248 274.757 242.014 275.049 241.546 275.049L241.487 274.698C241.487 274.406 241.721 274.113 242.189 273.996ZM258.798 278.558C257.979 278.616 256.4 279.318 254.061 280.605L253.71 280.663L253.652 280.02C255.348 279.845 256.868 279.201 258.038 278.032C258.506 277.973 258.74 278.149 258.798 278.558ZM241.604 283.353L242.657 283.237L242.715 283.587C242.482 283.587 242.131 283.763 241.663 283.997L240.961 284.055C240.902 283.704 241.136 283.47 241.604 283.353ZM234.528 287.272L235.23 287.564C234.996 289.611 234.352 290.664 233.417 290.722C232.598 290.371 231.896 290.196 231.253 290.254L231.194 289.26C231.136 288.909 231.37 288.675 231.838 288.558C232.306 288.5 232.539 288.851 232.598 289.494C233.768 288.032 234.411 287.272 234.528 287.272ZM119.843 203.7C115.867 206.624 111.305 209.49 106.217 212.297L106.275 213.174C106.626 213.174 107.036 212.94 107.621 212.648C108.205 212.59 108.556 212.823 108.556 213.408L109.492 212.882L109.96 212.823L110.018 213.233C110.077 213.642 106.86 216.157 100.486 220.66L101.012 221.479L100.544 221.537L99.55 221.186C99.55 221.479 99.1406 221.654 98.2049 221.713L98.2634 222.181L99.3161 223.35C98.9652 223.35 98.4973 223.292 97.9125 223.058C95.8656 223.233 93.8187 224.754 91.8303 227.561L92.3566 228.38C94.1111 226.801 95.1053 225.982 95.3977 225.982L95.5147 227.269C95.2223 227.269 94.7544 227.503 94.1696 227.795L95.2808 229.432C97.3861 227.152 99.667 225.222 102.24 223.643C103.527 223.994 104.17 224.345 104.17 224.812L105.106 224.754C111.948 219.666 118.732 216.04 125.458 213.759L125.516 214.636C124.288 216.508 123.411 217.444 122.943 217.502C123.002 218.145 123.235 218.672 123.586 219.198C123.703 220.368 120.662 228.029 114.463 242.299C100.31 275.4 88.4968 299.846 78.9641 315.753C78.9641 316.045 79.198 316.513 79.4905 317.039C81.8298 316.455 83.3503 315.928 83.9936 315.343L84.52 315.285L84.5784 316.162L85.4557 316.104L86.3914 315.577C86.3914 315.87 86.7423 315.987 87.3271 315.928L87.3856 316.806C87.4441 317.683 86.9762 319.028 85.8651 320.841C84.8709 321.952 83.8767 324.233 82.7655 327.683L82.824 328.093L83.7012 328.034C87.5026 323.765 90.4267 319.554 92.4151 315.46C103.585 312.185 112.065 308.969 117.972 305.811C123.879 305.284 128.44 303.764 131.482 301.191L131.423 300.723L129.201 301.366L128.674 301.425L128.616 300.957C132.944 300.313 135.985 299.319 137.622 298.033C146.102 291.483 152.477 286.862 156.804 284.114C170.197 274.289 176.513 264.814 175.753 255.808C175.694 254.872 172.712 251.188 166.922 244.755C166.805 243.527 168.852 241.772 172.946 239.433L184.584 229.199C187.157 225.865 188.736 220.485 189.262 213.057L189.087 211.303C188.619 206.098 184.876 201.887 177.741 198.671C173.531 195.805 165.986 194.284 155.108 194.109C146.161 194.928 134.347 198.086 119.843 203.7ZM182.537 204.46L182.186 205.338L169.203 199.899C177.858 200.25 182.303 201.77 182.537 204.46ZM130.019 240.486C130.897 235.69 131.891 232.941 133.002 232.298L142.71 210.484C142.593 209.139 144.64 208.086 148.909 207.385L150.313 207.268L150.43 208.496C154.641 207.852 157.214 207.502 158.208 207.385C165.928 206.741 169.905 208.262 170.255 212.063L171.133 212.005L170.957 209.782L171.893 209.724C174.174 210.952 175.402 212.473 175.519 214.285C175.636 215.514 174.993 217.034 173.531 218.847C172.946 218.906 172.595 218.496 172.536 217.619L171.601 217.677L171.367 220.309C167.448 226.157 164.641 229.14 162.887 229.316C161.308 231.479 160.313 232.591 159.904 232.649C158.676 234.111 155.342 236.626 149.845 240.135C148.032 240.31 141.307 242.883 129.669 247.971C129.084 247.679 128.499 247.621 127.797 247.679L127.739 246.86C127.622 245.164 128.323 243.059 130.019 240.486ZM183.765 213.584L183.823 214.402C183.356 214.461 182.478 213.057 181.192 210.25L181.133 209.431C181.952 209.314 182.829 210.718 183.765 213.584ZM98.3803 223.994L98.4388 224.403C98.1464 224.403 97.6786 224.637 97.0937 224.929L96.6259 224.988L96.5674 224.169L98.3803 223.994ZM126.627 223.292L126.744 224.578C126.335 224.637 125.75 225.222 125.048 226.45L124.99 225.573C125.809 224.578 126.218 223.818 126.218 223.292H126.627ZM122.3 232.415L122.475 234.17L122.007 234.228L121.832 232.474L122.3 232.415ZM121.189 235.573C121.072 237.035 120.721 237.796 119.96 237.854L119.493 237.912C120.019 236.918 120.311 236.216 120.253 235.69L121.189 235.573ZM119.259 240.135L119.317 240.544L118.498 241.948L117.621 242.006L117.563 241.597C118.44 241.538 118.849 241.071 118.791 240.193L119.259 240.135ZM117.27 244.229L117.036 246.392L116.568 246.451L116.393 244.287L117.27 244.229ZM164.7 245.808L166.63 246.977C166.688 247.562 166.396 247.913 165.811 247.971C164.992 247.445 164.349 247.211 163.881 247.211L163.764 245.925L164.7 245.808ZM127.563 250.779L127.622 251.597L125.809 251.773L125.75 250.954L127.563 250.779ZM157.506 253.82C158.793 254.405 159.436 254.989 159.495 255.457L159.553 255.867C158.325 255.984 157.214 255.34 156.161 253.937L157.506 253.82ZM118.908 263.294C124.171 262.826 132.476 260.37 143.763 255.925L146.512 255.691C152.243 255.223 156.512 256.276 159.319 258.966L159.495 260.721C157.389 266.803 155.05 270.312 152.535 271.423L140.839 280.722C132.125 286.453 127.446 289.319 126.744 289.377C112.884 297.038 104.229 300.957 100.895 301.249L100.369 301.308C100.837 299.67 106.977 287.038 118.908 263.294ZM131.54 258.323L131.598 258.732L129.727 258.908L129.669 258.498L131.54 258.323ZM173.531 256.451L173.823 259.902C173.414 260.838 173.004 261.306 172.536 261.306L172.01 255.223C173.004 255.633 173.472 256.042 173.531 256.451ZM102.357 286.629C101.772 289.611 101.129 291.132 100.486 291.19L100.427 290.781C100.31 289.26 100.954 287.915 102.357 286.629ZM114.054 303.121C117.446 302.477 126.744 297.565 142.008 288.5L142.067 289.319C142.125 289.67 140.78 290.781 138.149 292.711C130.37 296.512 125.809 299.144 124.464 300.489C116.042 303.413 111.89 305.226 111.948 305.928C104.463 308.91 99.55 311.074 97.2107 312.419C96.6843 312.478 95.8656 312.244 94.8129 311.776C94.6959 310.255 95.3392 309.027 96.8598 308.033C98.1464 307.916 99.433 308.092 100.603 308.618C102.006 307.916 104.404 307.097 107.855 306.279L107.796 305.401L105.047 305.635C105.398 305.167 108.03 303.939 113.059 301.892L114.463 301.775L114.522 302.185C112.182 302.36 110.837 303.121 110.545 304.349C110.603 304.875 110.896 305.167 111.48 305.109C113.176 303.939 114.054 303.296 114.054 303.121ZM99.667 292.535L99.7254 292.945C99.7839 293.529 99.4915 293.88 98.9067 293.939L98.8482 293.529C98.7897 293.003 99.0821 292.652 99.667 292.535ZM121.539 298.5C120.428 298.617 118.381 299.495 115.282 301.249L114.814 301.308L114.755 300.43C116.978 300.255 118.908 299.378 120.487 297.799C121.13 297.682 121.481 297.974 121.539 298.5ZM98.8482 304.817L100.252 304.7L100.31 305.167C99.9594 305.167 99.55 305.401 98.9652 305.694L98.0879 305.752C98.0294 305.343 98.2634 304.992 98.8482 304.817ZM89.5495 310.022L90.5437 310.431C90.1928 313.063 89.4325 314.408 88.0874 314.525C87.0347 314.057 86.099 313.881 85.2218 313.94L85.1048 312.653C85.0463 312.127 85.3387 311.835 85.982 311.659C86.5669 311.601 86.9177 312.01 86.9762 312.887C88.5553 310.957 89.4325 310.022 89.5495 310.022ZM348.978 195.103L348.218 194.811L335.761 196.741C335.293 196.507 334.709 196.39 334.065 196.448C333.364 196.507 332.311 196.741 330.732 197.15L324.708 199.665L325.176 200.425C325.468 200.425 325.878 200.25 326.404 199.957L328.509 200.133L328.217 202.121C326.287 202.998 325.117 204.285 324.825 205.981C321.901 207.268 320.439 208.203 320.439 208.788L320.497 209.139L320.965 209.081L321.784 208.671L322.72 209.782L322.837 211.303C322.895 211.771 317.924 222.239 307.982 242.65C299.385 262.3 294.882 273.061 294.414 274.99C291.49 275.809 289.735 277.037 289.268 278.616C289.326 279.143 290.203 279.435 291.899 279.611L291.958 280.371L291.198 281.657L291.315 283.178C291.373 283.997 293.537 284.582 297.748 285.049C297.748 284.757 297.865 284.64 298.157 284.582C298.215 285.517 297.982 287.389 297.338 290.196L297.806 290.137C299.561 287.74 300.379 286.102 300.321 285.166L300.672 285.108C301.081 285.049 301.549 285.576 302.075 286.629C301.549 286.862 299.678 291.073 296.519 299.319L296.987 300.08L297.455 300.021C301.374 290.137 303.83 284.64 304.824 283.587C309.97 283.12 318.801 282.242 331.434 280.897L332.194 280.429C332.194 280.722 332.369 280.839 332.662 280.78L333.48 280.722L334.241 280.254C334.241 280.546 334.416 280.663 334.709 280.605L344.241 279.786C346.756 279.552 347.984 278.792 347.867 277.505C347.809 277.154 349.329 276.745 352.37 276.336C352.663 276.336 353.072 276.394 353.657 276.569C353.657 276.336 355.119 276.102 358.16 275.809C358.219 274.23 358.745 273.353 359.681 273.294L359.622 272.534C358.803 272.593 357.809 272.827 356.698 273.177C354.71 273.061 353.423 272.944 352.897 272.71C352.37 273.002 351.961 273.177 351.669 273.177L345.002 273.411L344.183 273.821C344.183 273.587 344.007 273.47 343.715 273.528L343.364 273.587L342.487 273.996C342.487 273.762 341.785 273.587 340.381 273.411L339.563 273.879L337.925 273.996L337.867 273.587C346.405 272.651 350.674 271.481 350.557 270.078C351.084 270.019 351.376 270.312 351.435 270.838L353.949 270.195L353.891 269.435L333.422 270.019C333.422 270.312 333.305 270.429 333.013 270.487L330.498 270.253C329.855 270.312 329.328 270.487 328.919 270.838L327.983 270.487C325.41 270.721 323.48 271.014 322.193 271.423C320.439 271.306 318.509 271.306 316.345 271.481L311.725 271.891L309.62 271.657C309.503 270.312 312.134 263.645 317.573 251.656C319.152 247.621 320.614 245.106 321.959 244.17C322.252 244.17 322.661 244.229 323.246 244.463L326.521 243.351L328.217 243.644C331.024 243.41 334.299 242.591 338.042 241.246C338.978 241.188 339.68 241.246 340.148 241.421L342.662 240.837L350.09 240.193C353.248 239.901 356.698 239.199 360.383 238.088L360.324 237.328C358.92 237.445 358.219 237.211 358.16 236.684C358.043 235.632 357.049 235.222 355.119 235.398L355.061 234.637L357.107 234.053L362.488 233.585L362.429 232.824C362.195 232.824 361.143 232.824 359.096 232.766L359.037 231.947L361.143 231.772C361.669 231.713 361.962 231.421 361.903 230.953C359.096 231.012 357.692 230.895 357.692 230.544C338.218 231.479 328.509 231.655 328.451 231.07C328.159 231.07 327.749 231.245 327.223 231.596L326.697 230.778C331.843 219.841 334.884 214.285 335.761 214.227C335.82 214.636 335.586 215.338 335.118 216.274L335.176 216.625L335.995 216.566C338.042 211.654 339.738 209.139 341.2 209.022C347.282 208.496 340.323 208.086 353.423 206.039C353.949 206.273 354.359 206.39 354.593 206.332C359.739 205.279 366.874 204.226 376.056 203.115L375.997 202.355L371.085 202.823L371.026 202.063C371.611 202.004 372.079 201.829 372.488 201.478L372.547 201.887C372.839 201.887 373.19 201.712 373.658 201.361C374.477 201.302 375.12 201.361 375.588 201.595C377.284 201.127 378.629 200.893 379.682 200.776L382.723 200.484C383.483 200.016 383.834 199.606 383.776 199.197V198.846C383.015 198.905 382.138 198.846 381.085 198.671C381.027 198.261 381.261 197.969 381.787 197.852L387.46 197.326L390.092 196.682C390.092 196.975 390.267 197.092 390.443 197.092C390.735 197.092 391.086 196.916 391.554 196.565C392.899 196.741 393.718 196.799 393.893 196.741C394.946 195.747 396.174 194.928 397.519 194.401C396.934 193.817 396.642 193.349 396.583 192.939L392.782 193.29C392.782 192.998 392.606 192.647 392.372 192.121C392.372 191.77 393.191 191.419 394.946 191.068L395.706 191.36L396.408 190.951C396.408 191.185 396.583 191.302 396.817 191.243L397.519 190.834C397.519 191.068 397.694 191.185 397.928 191.126L398.279 191.068L398.221 190.308C397.694 190.366 396.291 190.366 394.068 190.308L393.367 190.775L393.308 190.366C375.471 191.828 365.354 192.647 362.956 192.881C362.663 192.881 361.377 192.881 359.213 192.822C359.213 193.115 358.979 193.29 358.453 193.29L357.692 192.939L355.061 193.583C354.476 193.641 353.423 193.583 351.961 193.466C351.552 193.758 351.084 193.992 350.499 194.051C349.914 194.109 364.652 193.232 364.184 192.998L361.903 193.641L361.552 193.7C360.616 193.758 359.447 193.758 358.043 193.583C357.634 193.875 357.049 194.109 356.172 194.167C355.587 194.226 355.061 194.109 354.651 193.875C354.008 194.051 352.136 194.518 348.978 195.103ZM349.914 197.443C349.914 197.735 350.207 197.852 350.674 197.793L350.733 198.554L349.973 198.612C349.388 198.671 348.861 198.554 348.452 198.32C348.043 198.671 347.516 198.846 346.99 198.905H347.224L345.119 198.671L345.06 198.32C347.633 198.144 348.452 197.852 349.914 197.443ZM351.844 197.267L352.253 197.209L352.312 197.969L351.142 198.086C351.142 197.676 351.318 197.384 351.844 197.267ZM356.347 196.799L356.406 197.209C355.528 197.267 354.417 197.501 353.072 197.91L352.663 197.969L353.014 197.15L356.347 196.799ZM323.129 200.601L324.416 200.484L324.357 199.723L323.071 199.84L323.129 200.601ZM332.311 199.782L332.779 199.723L333.656 200.074C333.714 200.601 333.422 200.893 332.896 200.893L331.609 201.01L331.551 200.601C331.492 200.191 331.785 199.957 332.311 199.782ZM361.728 201.478V201.829L359.096 202.063V201.712L361.728 201.478ZM354.183 202.589L354.242 202.998L352.721 203.115L352.663 202.706L354.183 202.589ZM361.435 203.174L366.699 202.297L369.389 202.414L369.447 202.823C368.161 202.94 367.049 203.174 366.114 203.525C366.114 203.232 365.587 202.998 364.535 202.881L360.383 204.051C359.564 203.583 359.154 203.232 359.154 202.998L361.435 203.174ZM356.23 204.343C356.757 204.285 356.991 204.519 357.049 205.045L354.827 205.279L354.768 204.519L356.23 204.343ZM351.61 204.11L351.669 204.519L365.354 203.876L365.295 203.466L351.61 204.11ZM352.429 205.162V205.513L349.446 205.806V205.455L352.429 205.162ZM332.837 220.66L332.896 221.069L333.773 221.011C333.773 220.719 333.831 220.309 334.065 219.783L334.007 219.023C333.539 219.081 333.13 219.607 332.837 220.66ZM302.719 264.405L302.777 264.756C302.836 265.282 302.543 265.575 301.958 265.633L301.9 265.282C301.841 264.814 302.134 264.581 302.719 264.405ZM301.958 266.043C302.017 266.803 301.49 268.674 300.438 271.715L299.151 271.832C299.093 271.306 299.794 269.435 301.14 266.16L301.958 266.043ZM316.053 278.265C316.111 278.675 315.409 279.143 314.064 279.611L311.491 279.435L310.672 279.494L310.614 278.733L316.053 278.265ZM318.567 278.499L318.626 278.85L316.521 279.026L316.462 278.675L318.567 278.499Z" fill="url(#paint2_linear_161_2)"/>
<defs>
<linearGradient id="paint0_linear_161_2" x1="497.5" y1="67" x2="29.5" y2="364.5" gradientUnits="userSpaceOnUse">
<stop stop-color="#EAEAEA"/>
<stop offset="1" stop-color="#F4F4F4"/>
</linearGradient>
<linearGradient id="paint1_linear_161_2" x1="299.368" y1="194.167" x2="299.368" y2="319.379" gradientUnits="userSpaceOnUse">
<stop stop-color="#3D3D3D"/>
<stop offset="1" stop-color="#1E1E1E"/>
</linearGradient>
<linearGradient id="paint2_linear_161_2" x1="238.622" y1="190.308" x2="238.622" y2="328.093" gradientUnits="userSpaceOnUse">
<stop stop-color="#3D3D3D"/>
<stop offset="1" stop-color="#1E1E1E"/>
</linearGradient>
</defs>
</svg>
