<svg width="512" height="512" viewBox="0 0 512 512" fill="none" xmlns="http://www.w3.org/2000/svg">
<rect width="512" height="512" rx="50" fill="url(#paint0_linear_163_6)"/>
<path d="M381.34 324.88C372.22 327.2 366.58 324.98 361.52 317.38C350.16 300.36 337.62 284.12 325.52 267.58C323.96 265.44 322.34 263.34 320.32 260.68C306 280 291.7 298.4 278.28 317.54C273.48 324.38 268.44 327.36 259.48 324.94L313.32 252.68L263.2 187.42C271.82 185.74 277.78 186.6 283.06 194.32C294.72 211.36 307.58 227.58 320.4 244.74C333.3 227.64 346 211.4 358 194.52C362.82 187.68 368 185.08 376.66 187.6C370.1 196.3 363.68 204.86 357.22 213.36C348.5 224.82 339.94 236.42 330.9 247.64C327.68 251.64 328.2 254.24 331.08 258.02C347.8 280 364.32 302.2 381.34 324.88ZM130.66 251.48C132.1 244.26 133.06 236.9 135.06 229.82C147.06 186.96 196.26 169.14 230.06 195.7C249.86 211.28 254.78 233.24 253.8 258H142.2C140.52 302.42 172.5 329.24 213.26 315.56C227.56 310.76 235.98 299.56 240.2 285.56C242.34 278.54 245.88 277.44 252.48 279.44C249.1 296.96 241.44 311.6 225.44 320.76C201.44 334.48 167.18 330.04 149.16 310.98C138.52 299.78 134 285.84 132 270.78C131.7 268.38 131.08 266.02 130.6 263.64C130.64 259.586 130.66 255.533 130.66 251.48ZM142.4 248.5H243.26C242.6 216.38 222.6 193.56 195.26 193.36C165.26 193.12 143.7 215.4 142.4 248.5Z" fill="url(#paint1_linear_163_6)"/>
<defs>
<linearGradient id="paint0_linear_163_6" x1="497.5" y1="67" x2="29.5" y2="364.5" gradientUnits="userSpaceOnUse">
<stop stop-color="#EAEAEA"/>
<stop offset="1" stop-color="#F4F4F4"/>
</linearGradient>
<linearGradient id="paint1_linear_163_6" x1="255.97" y1="183.202" x2="255.97" y2="328.736" gradientUnits="userSpaceOnUse">
<stop stop-color="#3D3D3D"/>
<stop offset="1" stop-color="#1E1E1E"/>
</linearGradient>
</defs>
</svg>
