<svg width="512" height="512" viewBox="0 0 512 512" fill="none" xmlns="http://www.w3.org/2000/svg">
<rect width="512" height="512" rx="50" fill="url(#paint0_linear_163_10)"/>
<g clip-path="url(#clip0_163_10)">
<path d="M197.744 128C197.538 128.003 197.333 128.021 197.13 128.056C196.327 128.189 195.585 128.572 195.013 129.151C194.44 129.73 194.064 130.475 193.94 131.28L163.822 324L183.644 286.266L233.776 190.818L201.2 130.056L201.196 130.052C200.863 129.427 200.366 128.905 199.757 128.543C199.148 128.182 198.452 127.994 197.744 128ZM254.518 164.588C253.074 164.588 251.758 165.38 251.086 166.658L236.168 195.064L236.152 195.036L167.952 324.88L189.452 303.346L258.372 234.306L281.378 211.258L257.954 166.658C257.625 166.033 257.13 165.509 256.525 165.144C255.919 164.779 255.225 164.587 254.518 164.588ZM318.868 181.19C318.518 181.178 318.168 181.215 317.828 181.298C317.137 181.467 316.505 181.822 316.002 182.326L286.36 212.012L261.246 237.178L163.258 335.334L246.484 382.008H246.488C248.827 383.315 251.462 384.001 254.141 384.001C256.82 384.001 259.455 383.315 261.794 382.008L346.858 334.714L322.568 184.408V184.424C322.45 183.722 322.14 183.066 321.673 182.528C321.205 181.99 320.599 181.592 319.92 181.376C319.58 181.266 319.226 181.204 318.868 181.19ZM348.744 335.99L347.544 336.088L348.042 336.38L348.744 335.99Z" fill="url(#paint1_linear_163_10)"/>
</g>
<defs>
<linearGradient id="paint0_linear_163_10" x1="497.5" y1="67" x2="29.5" y2="364.5" gradientUnits="userSpaceOnUse">
<stop stop-color="#EAEAEA"/>
<stop offset="1" stop-color="#F4F4F4"/>
</linearGradient>
<linearGradient id="paint1_linear_163_10" x1="256.001" y1="128" x2="256.001" y2="384.001" gradientUnits="userSpaceOnUse">
<stop stop-color="#3D3D3D"/>
<stop offset="1" stop-color="#1E1E1E"/>
</linearGradient>
<clipPath id="clip0_163_10">
<rect width="256" height="256" fill="white" transform="translate(128 128)"/>
</clipPath>
</defs>
</svg>
