<svg width="512" height="512" viewBox="0 0 512 512" fill="none" xmlns="http://www.w3.org/2000/svg">
<rect width="512" height="512" rx="50" fill="url(#paint0_linear_163_241)"/>
<path d="M356 155.8C356 142.6 345.4 132 332.2 132H179.8C166.6 132 156 142.6 156 155.8V356.4C156 369.6 166.6 380.2 179.8 380.2H332.4C345.6 380.2 356.2 369.6 356.2 356.4V155.8H356ZM348 156V354.6C348 364 341 372 331.6 372H181C171.6 372 164 364 164 354.6V156C164 146.6 171.8 140 181 140H331.4C340.8 140 348.2 147.2 348.2 156.6L348 156ZM202 345.4L230.2 317.2L202 289V345.4ZM230 223.6V164.8L202.2 165C202.2 165 202.4 256.8 202.6 256.4C288.2 223 282 246.8 282 246.8V345.6L281.8 346H308V247C308 192.8 230 223.6 230 223.6ZM268 200H297.6C313.6 180 319 166 319 166H288.4C288.4 166 278.6 188 268 200Z" fill="url(#paint1_linear_163_241)"/>
<defs>
<linearGradient id="paint0_linear_163_241" x1="497.5" y1="67" x2="29.5" y2="364.5" gradientUnits="userSpaceOnUse">
<stop stop-color="#EAEAEA"/>
<stop offset="1" stop-color="#F4F4F4"/>
</linearGradient>
<linearGradient id="paint1_linear_163_241" x1="256.1" y1="132" x2="256.1" y2="380.2" gradientUnits="userSpaceOnUse">
<stop stop-color="#1E1E1E"/>
<stop offset="1" stop-color="#1E1E1E"/>
</linearGradient>
</defs>
</svg>
