<svg width="512" height="512" viewBox="0 0 512 512" fill="none" xmlns="http://www.w3.org/2000/svg">
<rect width="512" height="512" rx="50" fill="url(#paint0_linear_46_420)"/>
<path d="M275.125 103C291.625 141.18 215.969 164.758 208.938 196.562C202.492 225.789 253.891 259.75 253.938 259.75C246.133 247.656 240.391 237.695 232.562 218.875C219.32 187.047 313.211 158.242 275.125 103ZM325.375 155.875C325.375 155.875 259 160.141 255.625 202.562C254.125 221.453 273.086 231.391 273.625 245.125C274.07 256.352 262.375 265.75 262.375 265.75C262.375 265.75 283.656 261.695 290.312 244.562C297.695 225.555 275.922 212.711 278.125 197.5C280.234 182.945 325.375 155.875 325.375 155.875ZM221.125 253.938C221.125 253.938 160.375 253.07 160.375 270.25C160.375 288.203 239.898 289.539 296.688 278.5C296.688 278.5 311.781 268.117 315.812 264.25C278.594 271.844 193.75 272.688 193.75 266.125C193.75 260.078 221.125 253.938 221.125 253.938ZM337.938 253.938C331.984 254.406 325.562 256.703 319.75 260.875C333.438 257.922 345.062 266.406 345.062 276.062C345.062 297.812 313.562 318.25 313.562 318.25C313.562 318.25 362.312 312.719 362.312 277C362.312 260.781 351.039 252.906 337.938 253.938ZM206.5 287.312C197.172 287.312 183.25 294.625 183.25 301.562C183.25 315.508 253.375 326.242 305.312 305.875L287.312 294.812C252.109 306.086 187.281 302.406 206.5 287.312ZM215.125 318.625C202.352 318.625 193.938 326.336 193.938 332.125C193.938 350.031 270.227 351.836 300.438 333.625L281.312 321.438C258.742 330.977 202.094 332.43 215.125 318.625ZM172.562 334.75C151.75 334.328 138.25 343.68 138.25 351.438C138.25 392.688 351.25 390.789 351.25 348.625C351.25 341.617 343.164 338.219 340.188 336.625C357.602 376.938 165.812 373.727 165.812 349.938C165.812 344.523 179.922 339.344 193 341.875L181.938 335.5C178.68 335.008 175.539 334.82 172.562 334.75ZM373.75 362.5C341.359 393.203 259.281 404.336 176.688 385.375C259.258 419.172 373.352 400.211 373.75 362.5Z" fill="url(#paint1_linear_46_420)"/>
<defs>
<linearGradient id="paint0_linear_46_420" x1="497.5" y1="67" x2="29.5" y2="364.5" gradientUnits="userSpaceOnUse">
<stop stop-color="#EAEAEA"/>
<stop offset="1" stop-color="#F4F4F4"/>
</linearGradient>
<linearGradient id="paint1_linear_46_420" x1="256" y1="103" x2="256" y2="402.951" gradientUnits="userSpaceOnUse">
<stop stop-color="#3D3D3D"/>
<stop offset="1" stop-color="#1E1E1E"/>
</linearGradient>
</defs>
</svg>
