<svg width="512" height="512" viewBox="0 0 512 512" fill="none" xmlns="http://www.w3.org/2000/svg">
<rect width="512" height="512" rx="50" fill="url(#paint0_linear_46_346)"/>
<path d="M258.812 305.95C258.812 305.95 258.756 305.725 258.7 305.275C258.812 305.725 258.812 305.95 258.812 305.95Z" fill="url(#paint1_linear_46_346)"/>
<path d="M274.984 169.516C274.984 169.516 272.875 161.781 275.687 155.453C278.5 149.125 278.5 144.906 272.875 138.578C284.125 137.875 288.344 145.609 288.344 145.609L288.484 146.504C289.148 150.813 286.92 154.908 283.163 157.124C279.732 159.143 276.042 162.833 274.984 169.516Z" fill="url(#paint2_linear_46_346)"/>
<path d="M355.169 324.85C355.281 323.669 357.081 307.75 353.031 300.325C344.594 324.175 336.156 346 311.575 361.469C315.062 354.437 320.687 343.187 326.312 326.312C309.437 348.812 275.687 371.312 250.375 372.719C267.475 363.269 277.094 351.119 281.312 343.187C281.312 343.187 271.469 346 259.487 347.406C275.687 337.562 286.937 320.012 281.312 292.562C270.062 327.719 254.594 338.969 234.175 341.05C213.812 343.187 195.531 332.612 195.531 332.612L202.562 331.937C202.562 331.937 184.281 317.875 190.637 299.594C190.919 298.694 191.256 297.85 191.65 297.062C196.262 286.825 211.956 292 210.325 303.081V303.137C210.325 303.137 215.219 316.469 228.55 312.925C232.825 305.95 235.637 298.862 235.637 298.862L237.719 308.031C237.719 308.031 247.562 303.812 247.562 296.05C256 299.256 258.137 303.25 258.644 304.994C257.181 297.119 244.469 242.95 177.137 243.737L165.381 254.65C164.594 255.381 163.356 254.762 163.469 253.75L164.369 244.75L165.156 243.962C164.931 244.019 164.65 243.962 164.425 243.962L164.369 244.75L159.756 249.025C158.969 249.756 157.731 249.137 157.844 248.125L158.406 242.387C148.619 238.225 147.719 227.2 147.719 227.2C147.719 227.2 135.512 223.769 140.687 208.187C143.5 199.75 150.25 198.906 153.119 199.581C156.775 200.425 160.544 200.481 164.031 199.075C169.094 197.05 175.562 193.169 180.062 185.687C188.5 171.625 201.156 166 228.55 166C264.831 166 279.456 177.137 281.144 178.487C280.131 177.306 274 169.15 286.937 156.887C299.706 144.737 297.4 141.869 296.894 141.419C298.806 141.981 323.612 150.419 326.312 182.875C329.125 216.625 289.75 223.656 289.75 223.656C289.75 223.656 340.375 233.5 341.05 185.687C350.95 191.312 371.312 212.406 374.125 258.137C376.881 302.462 356.35 323.669 355.169 324.85Z" fill="url(#paint3_linear_46_346)"/>
<path d="M165.156 243.962L164.369 244.75L164.425 243.962C164.65 243.962 164.931 244.019 165.156 243.962Z" fill="url(#paint4_linear_46_346)"/>
<path d="M165.156 243.962L164.369 244.75L164.425 243.962C164.65 243.962 164.931 244.019 165.156 243.962Z" fill="url(#paint5_linear_46_346)"/>
<defs>
<linearGradient id="paint0_linear_46_346" x1="497.5" y1="67" x2="29.5" y2="364.5" gradientUnits="userSpaceOnUse">
<stop stop-color="#EAEAEA"/>
<stop offset="1" stop-color="#F4F4F4"/>
</linearGradient>
<linearGradient id="paint1_linear_46_346" x1="258.756" y1="305.275" x2="258.756" y2="305.95" gradientUnits="userSpaceOnUse">
<stop stop-color="#3D3D3D"/>
<stop offset="1" stop-color="#1E1E1E"/>
</linearGradient>
<linearGradient id="paint2_linear_46_346" x1="280.738" y1="138.533" x2="280.738" y2="169.516" gradientUnits="userSpaceOnUse">
<stop stop-color="#3D3D3D"/>
<stop offset="1" stop-color="#1E1E1E"/>
</linearGradient>
<linearGradient id="paint3_linear_46_346" x1="256.894" y1="141.419" x2="256.894" y2="372.719" gradientUnits="userSpaceOnUse">
<stop stop-color="#3D3D3D"/>
<stop offset="1" stop-color="#1E1E1E"/>
</linearGradient>
<linearGradient id="paint4_linear_46_346" x1="164.762" y1="243.962" x2="164.762" y2="244.75" gradientUnits="userSpaceOnUse">
<stop stop-color="#3D3D3D"/>
<stop offset="1" stop-color="#1E1E1E"/>
</linearGradient>
<linearGradient id="paint5_linear_46_346" x1="164.762" y1="243.962" x2="164.762" y2="244.75" gradientUnits="userSpaceOnUse">
<stop stop-color="#3D3D3D"/>
<stop offset="1" stop-color="#1E1E1E"/>
</linearGradient>
</defs>
</svg>
