<svg width="512" height="512" viewBox="0 0 512 512" fill="none" xmlns="http://www.w3.org/2000/svg">
<rect width="512" height="512" rx="50" fill="url(#paint0_linear_163_336)"/>
<path d="M305.38 304.22C287.38 341.02 255.86 365.78 214.16 373.92C207.766 375.486 201.203 376.252 194.62 376.2C170.62 376.2 148.62 366.2 137.94 349.82C123.6 328 118.72 281.74 166 247.52C166.96 252.74 168.92 259.9 170.22 264.14C160.939 271.035 153.342 279.945 148 290.2C139.2 307.48 140.18 324.74 150.6 340.7C157.8 351.46 169.2 358 183.86 360C202.171 362.318 220.747 358.819 236.96 350C262.38 336.64 279.32 320.68 290.4 298.86C287.267 295.622 285.413 291.359 285.18 286.86C285.013 282.032 286.767 277.334 290.06 273.798C293.352 270.263 297.912 268.177 302.74 268H303.42C308.116 267.976 312.641 269.759 316.059 272.979C319.478 276.199 321.527 280.61 321.784 285.299C322.041 289.987 320.486 294.596 317.44 298.17C314.394 301.744 310.09 304.01 305.42 304.5L305.38 304.22ZM362.72 263.82C387.14 291.5 387.8 324.08 378.36 342.98C369.56 360.24 346.36 377.52 315.16 377.52C300.595 377.223 286.267 373.777 273.16 367.42C277.74 364.16 284.24 358.94 287.82 355.68C297.928 360.059 308.805 362.384 319.82 362.52C340.02 362.52 355.32 353.08 364.44 335.82C370.3 324.42 370.64 311.06 365.1 297.38C358.302 280.168 346.206 265.564 330.56 255.68C310.033 241.843 285.835 234.466 261.08 234.5H255.22C253.854 237.657 251.631 240.367 248.803 242.326C245.975 244.284 242.655 245.411 239.22 245.58H238.6C233.848 245.522 229.307 243.613 225.939 240.26C222.572 236.907 220.645 232.373 220.567 227.621C220.489 222.87 222.266 218.275 225.521 214.813C228.776 211.351 233.253 209.295 238 209.08H238.66C241.968 209.082 245.212 209.997 248.034 211.722C250.857 213.447 253.149 215.917 254.66 218.86H259.88C301.48 218.86 338 234.82 362.72 263.82ZM197.22 309.82C196.878 306.499 197.682 303.16 199.5 300.36C181.26 268.76 171.5 228.7 186.48 187C197.22 155.66 224.26 134.48 253.58 134.48C284.86 134.48 317.44 161.86 321.34 214.62C316.46 213 309.34 210.62 305.06 209.74C304 192.48 289.42 149.48 254.88 150.12C242.5 150.46 224.26 156.32 214.88 168.36C203.277 182.732 196.528 200.412 195.6 218.86C193.401 244.155 199.336 269.492 212.54 291.18C213.269 290.914 214.046 290.805 214.82 290.86H215.46C220.298 290.772 224.972 292.61 228.454 295.969C231.937 299.328 233.942 303.932 234.03 308.77C234.118 313.608 232.28 318.282 228.921 321.764C225.562 325.247 220.958 327.252 216.12 327.34H215.46C210.741 327.323 206.21 325.486 202.812 322.211C199.414 318.936 197.411 314.476 197.22 309.76V309.82Z" fill="url(#paint1_linear_163_336)"/>
<defs>
<linearGradient id="paint0_linear_163_336" x1="497.5" y1="67" x2="29.5" y2="364.5" gradientUnits="userSpaceOnUse">
<stop stop-color="#EAEAEA"/>
<stop offset="1" stop-color="#F4F4F4"/>
</linearGradient>
<linearGradient id="paint1_linear_163_336" x1="256.002" y1="134.48" x2="256.002" y2="377.52" gradientUnits="userSpaceOnUse">
<stop stop-color="#1E1E1E"/>
<stop offset="1" stop-color="#1E1E1E"/>
</linearGradient>
</defs>
</svg>
