<svg width="512" height="512" viewBox="0 0 512 512" fill="none" xmlns="http://www.w3.org/2000/svg">
<rect width="512" height="512" rx="50" fill="url(#paint0_linear_46_394)"/>
<path d="M142.25 246.433L168.555 201.298C168.798 200.851 169.123 200.445 169.489 200.12L216.695 156.123C217.203 155.656 217.813 155.291 218.463 155.047L259.006 140.158L293.192 164.045L276.17 218.158L212.308 277.491L160.227 289.17L142.25 246.433ZM163.944 299.001L188.238 368.47L208.225 289.048L163.944 299.001ZM346.919 140.95L308.386 162.359L372.248 208.733C373.589 202.761 375.153 194.616 375.519 187.689C375.498 187.608 375.498 187.506 375.498 187.405C375.702 177.533 374.077 167.214 368.714 158.297C363.9 150.273 356.669 144.403 347.183 140.706C347.102 140.787 347.041 140.889 346.919 140.95ZM304.75 311.006L278.344 230.305L224.739 280.151L304.75 311.006ZM287.952 226.201L314.175 306.334C334.691 284.011 355.694 257.28 367.678 224.414L287.952 226.201ZM361.991 214.136L302.028 170.606L287.809 215.801L361.991 214.136ZM155.961 307.675L138.147 338.245C144.241 366.459 165.345 372.776 179.259 374.32L155.961 307.675ZM151.37 294.919L136.4 259.351V320.594L151.37 294.919ZM333.594 136.461C333.513 136.441 333.431 136.4 333.33 136.4H271.803L299.225 155.575L333.594 136.461ZM218.95 289.048L197.642 373.691C240.969 367.312 273.469 344.034 299.814 320.248L218.95 289.048ZM357.644 363.372C356.425 363.372 355.186 362.945 354.191 362.072L311.209 323.905C292.319 341.434 270.259 359.248 243.102 371.253L357.725 363.473C358.395 363.433 359.025 363.23 359.614 362.966C358.984 363.23 358.314 363.372 357.644 363.372ZM318.725 316.673L361.097 354.292C361.991 355.084 362.458 356.12 362.661 357.197L371.416 242.553C357.827 272.006 337.859 296.198 318.725 316.673Z" fill="url(#paint1_linear_46_394)"/>
<defs>
<linearGradient id="paint0_linear_46_394" x1="497.5" y1="67" x2="29.5" y2="364.5" gradientUnits="userSpaceOnUse">
<stop stop-color="#EAEAEA"/>
<stop offset="1" stop-color="#F4F4F4"/>
</linearGradient>
<linearGradient id="paint1_linear_46_394" x1="255.959" y1="136.4" x2="255.959" y2="374.32" gradientUnits="userSpaceOnUse">
<stop stop-color="#3D3D3D"/>
<stop offset="1" stop-color="#1E1E1E"/>
</linearGradient>
</defs>
</svg>
