<svg width="512" height="512" viewBox="0 0 512 512" fill="none" xmlns="http://www.w3.org/2000/svg">
<rect width="512" height="512" rx="50" fill="url(#paint0_linear_163_363)"/>
<g clip-path="url(#clip0_163_363)">
<path d="M359.9 133.562C348.892 123.75 335.58 127.696 322.424 139.366C320.399 141.186 318.451 143.092 316.588 145.078C294.096 168.938 273.22 213.118 266.736 246.868C269.26 251.994 271.236 258.532 272.54 263.524C273.19 266 273.774 268.5 274.29 271.016C274.29 271.016 274.088 270.258 273.26 267.86L272.728 266.306C272.619 266.019 272.502 265.735 272.376 265.454C270.908 262.04 266.854 254.836 265.064 251.704C263.646 255.858 262.307 260.039 261.048 264.244C266.212 273.672 269.346 289.844 269.346 289.844C269.346 289.844 269.08 288.79 267.782 285.134C266.642 281.9 260.908 271.86 259.548 269.516C257.228 278.096 256.308 283.876 257.134 285.282C258.76 288.008 260.29 292.728 261.634 297.93C264.69 309.666 266.806 323.962 266.806 323.962L266.994 326.346C266.588 336.118 266.79 345.908 267.588 355.658C268.604 367.884 270.502 378.376 272.924 384.002L274.572 383.102C271.01 372.032 269.564 357.518 270.204 340.792C271.158 315.212 277.048 284.362 287.916 252.212C306.298 203.69 331.792 164.746 355.12 146.144C333.86 165.346 305.074 227.534 296.456 250.55C286.808 276.324 279.98 300.504 275.86 323.68C282.97 301.954 305.946 292.626 305.946 292.626C305.946 292.626 317.22 278.718 330.392 258.86C322.502 260.656 309.54 263.742 305.196 265.562C298.796 268.242 297.07 269.156 297.07 269.156C297.07 269.156 317.812 256.532 335.61 250.812C360.078 212.272 386.742 157.522 359.9 133.562ZM161.792 139.362C150.996 139.402 142.252 148.142 142.222 158.94V336.088C142.254 346.884 151.002 355.618 161.792 355.658H262.246C261.495 346.052 261.31 336.41 261.692 326.782C261.63 326.118 261.574 325.274 261.52 324.648C260.221 316.12 258.538 307.656 256.474 299.28C255.184 294.266 253.544 289.702 252.544 288.008C251.302 285.906 251.496 284.702 251.504 283.398C251.504 282.118 251.668 280.788 251.904 279.28C252.536 275.524 253.364 271.804 254.396 268.132L256.708 267.836C256.528 267.46 256.56 267.14 256.38 266.804L255.942 262.742C257.222 258.468 258.574 254.218 260.022 250L262.154 249.796C262.068 249.632 262.044 249.39 261.958 249.236L261.498 245.866C268.224 210.874 289.098 166.468 312.7 141.428C313.404 140.688 314.122 140.062 314.81 139.358L161.792 139.362Z" fill="url(#paint1_linear_163_363)"/>
</g>
<defs>
<linearGradient id="paint0_linear_163_363" x1="497.5" y1="67" x2="29.5" y2="364.5" gradientUnits="userSpaceOnUse">
<stop stop-color="#EAEAEA"/>
<stop offset="1" stop-color="#F4F4F4"/>
</linearGradient>
<linearGradient id="paint1_linear_163_363" x1="256.669" y1="128.002" x2="256.669" y2="384.002" gradientUnits="userSpaceOnUse">
<stop stop-color="#1E1E1E"/>
<stop offset="1" stop-color="#1E1E1E"/>
</linearGradient>
<clipPath id="clip0_163_363">
<rect width="256" height="256" fill="white" transform="translate(128 128)"/>
</clipPath>
</defs>
</svg>
