<svg width="512" height="512" viewBox="0 0 512 512" fill="none" xmlns="http://www.w3.org/2000/svg">
<rect width="512" height="512" rx="50" fill="url(#paint0_linear_2_95)"/>
<path d="M255.945 134.125C252.523 134.125 249.102 134.964 246.149 136.652L153.241 190.283C147.241 193.752 143.5 200.32 143.5 207.257V304.56C143.5 311.591 147.241 318.065 153.241 321.533L177.631 335.596C189.443 341.408 193.656 341.4 198.999 341.4C216.531 341.4 226.557 330.808 226.557 312.433V212.036C226.557 210.536 225.347 209.308 223.847 209.308H212.128C210.534 209.308 209.4 210.536 209.4 212.036V312.342C209.4 320.592 200.879 328.652 187.097 321.808L161.591 307.086C160.653 306.618 160.089 305.591 160.089 304.56V207.349C160.089 206.224 160.653 205.275 161.591 204.712L254.499 151.099C255.342 150.536 256.472 150.536 257.41 151.099L350.318 204.712C351.255 205.275 351.819 206.226 351.819 207.257V304.56C351.819 305.591 351.253 306.618 350.409 307.086L257.41 360.81C256.566 361.278 255.342 361.278 254.499 360.81L230.585 346.656C229.929 346.187 229.007 346.097 228.351 346.472C221.695 350.222 220.476 350.688 214.289 352.844C212.789 353.313 210.443 354.248 215.131 356.873L246.149 375.257C249.149 376.944 252.533 377.875 255.908 377.875C259.377 377.875 262.741 376.944 265.741 375.257L358.759 321.533C364.759 318.065 368.5 311.591 368.5 304.56V207.349C368.5 200.318 364.759 193.844 358.759 190.375L265.741 136.652C262.788 134.964 259.367 134.125 255.945 134.125ZM280.939 209.18C254.408 209.18 238.568 220.423 238.568 239.173C238.568 259.516 254.304 265.133 279.804 267.664C310.272 270.664 312.616 275.177 312.616 281.177C312.616 291.49 304.286 295.899 284.693 295.899C260.036 295.899 254.595 289.702 252.814 277.515C252.626 276.202 251.508 275.263 250.196 275.263H238.092C236.592 275.263 235.474 276.493 235.474 277.899C235.474 293.556 244.005 312.195 284.693 312.195C314.13 312.195 331 300.585 331 280.335C331 260.272 317.404 254.918 288.904 251.074C259.935 247.324 257.025 245.355 257.025 238.605C257.025 232.98 259.564 225.586 280.939 225.586C299.97 225.586 307.092 229.698 309.998 242.542C310.279 243.76 311.304 244.702 312.616 244.702H324.719C325.469 244.702 326.116 244.331 326.679 243.769C327.147 243.3 327.432 242.543 327.338 241.699C325.463 219.574 310.751 209.18 280.939 209.18Z" fill="white"/>
<defs>
<linearGradient id="paint0_linear_2_95" x1="497.5" y1="67" x2="29.5" y2="364.5" gradientUnits="userSpaceOnUse">
<stop stop-color="#3D3D3D"/>
<stop offset="1" stop-color="#1E1E1E"/>
</linearGradient>
</defs>
</svg>
