<svg width="512" height="512" viewBox="0 0 512 512" fill="none" xmlns="http://www.w3.org/2000/svg">
<rect width="512" height="512" rx="50" fill="url(#paint0_linear_31_493)"/>
<path d="M160 135.667C148.213 135.667 138.667 145.213 138.667 157V349C138.667 360.787 148.213 370.333 160 370.333H352C363.787 370.333 373.333 360.787 373.333 349V157C373.333 145.213 363.787 135.667 352 135.667H160ZM181.333 199.583H223.771C244.773 199.583 259.146 213.951 259.146 235.167C259.146 256.02 244.249 270.313 222.958 270.313H200.146V304.813H181.333V199.583ZM200.146 215.333V254.708H218.75C232.169 254.708 240.042 247.711 240.042 235.167C240.042 222.271 232.37 215.333 218.812 215.333H200.146ZM300.875 223.417C319.83 223.417 331.73 231.806 333.042 246.313H316.062C314.75 240.702 309.417 237.125 300.958 237.125C292.724 237.125 286.521 241.073 286.521 246.833C286.521 251.356 290.312 254.124 298.333 255.938L312.396 259.146C327.638 262.57 334.708 269.142 334.708 280.875C334.708 296.203 320.633 306.417 300.729 306.417C280.825 306.417 268.283 297.798 266.896 283.292H284.771C286.52 289.201 292.121 292.708 301.167 292.708C310.276 292.708 316.625 288.701 316.625 282.792C316.625 278.269 313.209 275.415 305.625 273.729L291.479 270.458C276.162 266.96 268.958 259.886 268.958 247.854C268.958 233.412 282.059 223.417 300.875 223.417Z" fill="white"/>
<defs>
<linearGradient id="paint0_linear_31_493" x1="497.5" y1="67" x2="29.5" y2="364.5" gradientUnits="userSpaceOnUse">
<stop stop-color="#3D3D3D"/>
<stop offset="1" stop-color="#1E1E1E"/>
</linearGradient>
</defs>
</svg>
