<svg width="512" height="512" viewBox="0 0 512 512" fill="none" xmlns="http://www.w3.org/2000/svg">
<rect width="512" height="512" rx="50" fill="url(#paint0_linear_61_146)"/>
<path d="M160 138.667C148.213 138.667 138.667 148.213 138.667 160V352C138.667 363.787 148.213 373.333 160 373.333H352C363.787 373.333 373.333 363.787 373.333 352V160C373.333 148.213 363.787 138.667 352 138.667H160ZM207.083 204.021H228.229L265.625 309.25H245.438L236.542 282.333H197.813L188.771 309.25H169.75L207.083 204.021ZM216.625 224.083L202.188 267.458H232.167L217.875 224.083H216.625ZM310.979 227.875C333.731 227.875 347.375 242.962 347.375 268.125V273.958H291.667V274.896C292.104 288.165 299.753 296.479 311.646 296.479C320.606 296.479 326.814 293.201 329.438 287.292H346.563C343.149 301.809 329.93 310.854 311.125 310.854C287.648 310.854 273.5 295.31 273.5 269.646C273.5 243.982 287.875 227.875 310.979 227.875ZM310.917 242.208C300.122 242.208 292.54 249.946 291.729 261.604H329.292C328.918 249.796 321.765 242.208 310.917 242.208Z" fill="white"/>
<defs>
<linearGradient id="paint0_linear_61_146" x1="497.5" y1="67" x2="29.5" y2="364.5" gradientUnits="userSpaceOnUse">
<stop stop-color="#3D3D3D"/>
<stop offset="1" stop-color="#1E1E1E"/>
</linearGradient>
</defs>
</svg>
