<svg width="512" height="512" viewBox="0 0 512 512" fill="none" xmlns="http://www.w3.org/2000/svg">
<rect width="512" height="512" rx="50" fill="url(#paint0_linear_31_543)"/>
<path d="M255.62 131.811C255.027 131.813 254.429 131.911 253.859 132.106L140.828 171.446C138.431 172.277 136.929 174.672 137.242 177.194L155.109 323.658C155.319 325.392 156.343 326.919 157.882 327.75L253.184 379.546C253.983 379.984 254.872 380.2 255.757 380.2C256.648 380.2 257.547 379.978 258.352 379.536L354.139 327.033C355.661 326.196 356.697 324.674 356.902 322.952L374.758 176.498C375.071 173.965 373.554 171.549 371.13 170.729L257.371 132.085C256.804 131.896 256.214 131.808 255.62 131.811ZM256 158.8L326.2 310H302.238L287.219 277.642H224.781L209.763 310H185.8L256 158.8ZM256 210.1L234.832 256H277.168L256 210.1Z" fill="white"/>
<defs>
<linearGradient id="paint0_linear_31_543" x1="497.5" y1="67" x2="29.5" y2="364.5" gradientUnits="userSpaceOnUse">
<stop stop-color="#3D3D3D"/>
<stop offset="1" stop-color="#1E1E1E"/>
</linearGradient>
</defs>
</svg>
