<svg width="512" height="512" viewBox="0 0 512 512" fill="none" xmlns="http://www.w3.org/2000/svg">
<rect width="512" height="512" rx="50" fill="url(#paint0_linear_61_131)"/>
<path d="M351.264 304.725C345.938 316.554 343.371 321.841 336.521 332.281C326.93 346.869 313.403 365.086 296.692 365.201C281.814 365.336 277.974 355.495 257.77 355.669C237.586 355.765 233.379 365.394 218.482 365.24C201.752 365.086 188.958 348.683 179.367 334.114C152.545 293.263 149.708 245.368 166.284 219.896C178.016 201.834 196.561 191.221 213.986 191.221C231.739 191.221 242.893 200.966 257.558 200.966C271.799 200.966 280.464 191.201 300.995 191.201C316.51 191.201 332.912 199.654 344.645 214.242C306.283 235.276 312.516 290.059 351.264 304.725ZM285.404 174.896C292.871 165.305 298.545 151.778 296.48 138C284.304 138.83 270.063 146.606 261.746 156.679C254.2 165.865 247.948 179.488 250.38 192.668C263.675 193.093 277.434 185.162 285.404 174.896Z" fill="white"/>
<defs>
<linearGradient id="paint0_linear_61_131" x1="497.5" y1="67" x2="29.5" y2="364.5" gradientUnits="userSpaceOnUse">
<stop stop-color="#3D3D3D"/>
<stop offset="1" stop-color="#1E1E1E"/>
</linearGradient>
</defs>
</svg>
