<svg width="512" height="512" viewBox="0 0 512 512" fill="none" xmlns="http://www.w3.org/2000/svg">
<rect width="512" height="512" rx="50" fill="url(#paint0_linear_94_114)"/>
<path fill-rule="evenodd" clip-rule="evenodd" d="M249.144 126.538C253.387 124.156 258.613 124.156 262.85 126.538C283.819 138.306 346.919 173.731 367.894 185.5C372.137 187.875 374.75 192.275 374.75 197.038C374.75 220.575 374.75 291.419 374.75 314.956C374.75 319.719 372.137 324.119 367.894 326.5C346.925 338.269 283.825 373.694 262.85 385.462C258.606 387.844 253.381 387.844 249.144 385.462C228.175 373.694 165.075 338.269 144.1 326.5C139.863 324.119 137.25 319.725 137.25 314.962C137.25 291.425 137.25 220.581 137.25 197.044C137.25 192.281 139.863 187.881 144.106 185.5C165.069 173.731 228.181 138.306 249.144 126.538Z" fill="url(#paint1_linear_94_114)"/>
<path d="M255.919 394.881C249.137 394.881 242.35 393.306 236.137 390.15C222.262 383.106 204.15 372.031 186.631 361.319C174.3 353.781 162.656 346.656 153.525 341.588C139.631 333.863 131 319.206 131 303.325V209.919C131 193.731 139.856 178.95 154.119 171.338C177.45 158.906 214.85 138.625 234.606 127.525C247.794 120.125 264.187 120.125 277.381 127.525C299.731 140.069 342.187 165.425 366.456 180.731C375.562 186.463 381 196.331 381 207.138V306C381 321 375.631 331.3 365.044 336.594C359.144 339.913 348.619 346.444 336.431 354.012C317.481 365.775 293.894 380.419 276.656 389.669C270.187 393.138 263.05 394.881 255.919 394.881ZM240.725 138.425C220.9 149.563 183.387 169.913 160 182.375C149.825 187.8 143.5 198.35 143.5 209.919V303.325C143.5 314.663 149.669 325.138 159.6 330.656C168.962 335.856 180.712 343.038 193.156 350.65C210.469 361.231 228.369 372.181 241.8 379C250.912 383.619 261.725 383.481 270.744 378.65C287.637 369.581 311.037 355.056 329.844 343.381C342.156 335.738 352.787 329.137 359.194 325.544C367.469 321.4 368.5 312.931 368.5 306V207.138C368.5 200.656 365.244 194.744 359.8 191.313C335.662 176.094 293.469 150.894 271.269 138.431C261.706 133.069 250.287 133.069 240.725 138.425Z" fill="white"/>
<path d="M249.606 366.337L249.25 282.35C249.181 266.137 258.081 251.219 272.381 243.575L347.444 203.475C359.931 196.8 375.031 205.85 375.031 220.013V312.075C375.031 318.581 371.656 324.625 366.119 328.037L278.194 382.212C265.731 389.9 249.669 380.975 249.606 366.337Z" fill="white"/>
<path d="M285.994 270.212C286.763 269.819 287.4 270.3 287.413 271.313L287.494 279.563C290.944 278.194 293.944 277.825 296.663 278.456C297.256 278.606 297.513 279.412 297.275 280.369L295.456 287.675C295.306 288.231 295.006 288.788 294.631 289.131C294.469 289.288 294.306 289.406 294.15 289.487C293.9 289.612 293.663 289.65 293.438 289.606C292.194 289.325 289.244 288.681 284.606 291.031C279.744 293.5 278.038 297.725 278.069 300.862C278.113 304.619 280.038 305.756 286.675 305.875C295.525 306.019 299.344 309.894 299.438 318.794C299.538 327.556 294.856 336.95 287.713 342.706L287.869 350.881C287.875 351.862 287.244 352.994 286.463 353.381L281.619 356.162C280.85 356.556 280.213 356.075 280.2 355.087L280.119 347.05C275.969 348.775 271.781 349.187 269.1 348.112C268.588 347.912 268.369 347.162 268.575 346.312L270.325 338.931C270.463 338.356 270.769 337.769 271.188 337.394C271.331 337.25 271.488 337.144 271.638 337.062C271.913 336.925 272.181 336.894 272.413 336.981C275.3 337.95 278.994 337.494 282.55 335.694C287.063 333.412 290.088 328.806 290.038 324.231C289.994 320.081 287.75 318.362 282.281 318.319C275.325 318.331 268.838 316.969 268.731 306.725C268.644 298.288 273.031 289.519 279.975 283.969L279.894 275.725C279.888 274.712 280.506 273.6 281.3 273.194L285.994 270.212Z" fill="url(#paint2_linear_94_114)"/>
<path d="M338.663 323.856L315.513 337.512C314.831 337.894 313.988 337.394 313.988 336.619V328.794C313.988 328.087 314.369 327.437 314.988 327.087L338.138 313.431C338.831 313.05 339.675 313.55 339.675 314.337V322.137C339.675 322.856 339.288 323.506 338.663 323.856Z" fill="url(#paint3_linear_94_114)"/>
<defs>
<linearGradient id="paint0_linear_94_114" x1="497.5" y1="67" x2="29.5" y2="364.5" gradientUnits="userSpaceOnUse">
<stop stop-color="#3D3D3D"/>
<stop offset="1" stop-color="#1E1E1E"/>
</linearGradient>
<linearGradient id="paint1_linear_94_114" x1="256" y1="124.752" x2="256" y2="387.248" gradientUnits="userSpaceOnUse">
<stop stop-color="#3D3D3D"/>
<stop offset="1" stop-color="#1E1E1E"/>
</linearGradient>
<linearGradient id="paint2_linear_94_114" x1="283.969" y1="270.075" x2="283.969" y2="356.3" gradientUnits="userSpaceOnUse">
<stop stop-color="#3D3D3D"/>
<stop offset="1" stop-color="#1E1E1E"/>
</linearGradient>
<linearGradient id="paint3_linear_94_114" x1="313.988" y1="331.836" x2="339.675" y2="319.108" gradientUnits="userSpaceOnUse">
<stop stop-color="#3D3D3D"/>
<stop offset="1" stop-color="#1E1E1E"/>
</linearGradient>
</defs>
</svg>
