<svg width="512" height="512" viewBox="0 0 512 512" fill="none" xmlns="http://www.w3.org/2000/svg">
<rect width="512" height="512" rx="50" fill="url(#paint0_linear_94_110)"/>
<path d="M153.124 176.23C152.626 161.542 163.768 148 178.834 148H333.19C348.256 148 359.398 161.542 358.9 176.23C358.42 190.336 359.044 208.612 363.52 223.51C368.014 238.456 375.592 247.906 388 249.118V262.882C375.592 264.094 368.014 273.544 363.52 288.49C359.038 303.388 358.42 321.664 358.9 335.77C359.392 350.458 348.25 364 333.184 364H178.834C163.768 364 152.626 350.458 153.124 335.77C153.604 321.664 152.98 303.388 148.498 288.49C144.01 273.544 136.414 264.094 124 262.882V249.118C136.408 247.906 144.01 238.456 148.498 223.51C152.98 208.612 153.604 190.336 153.124 176.23Z" fill="white"/>
<path d="M272.74 252.706V252.532C284.206 250.552 293.152 239.806 293.152 227.968C293.152 219.598 289.936 212.512 283.846 207.472C277.78 202.45 269.26 199.792 259.216 199.792H213.202V312.196H259.456C271.474 312.196 281.452 309.262 288.304 303.706C295.168 298.144 298.798 290.05 298.798 280.3C298.798 265.576 288.334 254.512 272.74 252.706ZM251.194 247.408H231.514V214.504H254.932C267.778 214.504 274.852 220.138 274.852 230.374C274.846 241.36 266.446 247.408 251.194 247.408ZM231.514 261.184H254.77C271.57 261.184 280.09 267.256 280.09 279.226C280.09 291.184 271.69 297.502 255.802 297.502H231.514V261.184Z" fill="url(#paint1_linear_94_110)"/>
<defs>
<linearGradient id="paint0_linear_94_110" x1="497.5" y1="67" x2="29.5" y2="364.5" gradientUnits="userSpaceOnUse">
<stop stop-color="#3D3D3D"/>
<stop offset="1" stop-color="#1E1E1E"/>
</linearGradient>
<linearGradient id="paint1_linear_94_110" x1="256" y1="106" x2="256" y2="485.5" gradientUnits="userSpaceOnUse">
<stop stop-color="#3D3D3D"/>
<stop offset="1" stop-color="#1E1E1E"/>
</linearGradient>
</defs>
</svg>
