<svg width="512" height="512" viewBox="0 0 512 512" fill="none" xmlns="http://www.w3.org/2000/svg">
<rect width="512" height="512" rx="50" fill="url(#paint0_linear_96_372)"/>
<path d="M256 148.444C245.532 148.444 235.212 153.094 223.28 159.912C219.19 162.258 215.123 164.645 211.08 167.072C203.322 171.678 194.644 176.916 184.528 182.118H184.524V182.122C149.214 200.514 128 231.314 128 264.408C128 291.822 142.438 316.652 165.628 334.572C188.818 352.492 220.776 363.556 256 363.556C291.222 363.556 323.178 352.492 346.368 334.572C369.556 316.652 384 291.822 384 264.408C384 231.282 362.78 200.516 327.472 182.126V182.118C314.98 175.638 305.494 169.984 297.066 164.958L297.062 164.952C293.442 162.736 290.05 160.704 286.648 158.836L286.632 158.828C275.488 152.472 266.422 148.444 256 148.444ZM256 150.56C265.884 150.56 274.546 154.37 285.604 160.676L285.608 160.68L285.616 160.684C288.976 162.53 292.352 164.544 295.966 166.764L295.972 166.766H295.976C304.404 171.794 313.942 177.492 326.496 184.002C361.256 202.106 381.884 232.186 381.884 264.408C381.884 291.08 367.854 315.296 345.074 332.898C322.296 350.502 290.78 361.44 256 361.44C221.218 361.44 189.7 350.504 166.92 332.9C144.14 315.3 130.118 291.08 130.118 264.408C130.118 232.218 150.738 202.108 185.498 184.002C195.692 178.76 204.418 173.49 212.164 168.89C216.196 166.47 220.253 164.09 224.332 161.75C236.164 154.99 246.16 150.56 256 150.56ZM256 156.61C247.46 156.61 238.59 160.802 227.554 166.956C223.712 169.124 219.742 171.51 215.55 173.99V173.994H215.546C207.66 178.69 198.64 184 188.516 189.308V189.304C156.022 206.254 136.462 234.31 136.462 264.406C136.462 289.578 149.962 312.366 171.62 328.806C193.28 345.246 223.116 355.394 256 355.394C288.884 355.394 318.718 345.246 340.376 328.808C362.036 312.368 375.536 289.578 375.536 264.408C375.536 234.308 355.974 206.258 323.442 189.368L323.438 189.366C310.682 182.858 300.728 176.738 292.628 171.898H292.624C288.936 169.714 285.55 167.69 282.464 165.89H282.454C272.15 159.988 264.47 156.61 256 156.61ZM263.914 163.122C264.062 163.122 264.224 163.152 264.394 163.216C290.018 173.302 291.78 192.726 288.666 204.116C288.602 204.389 288.434 204.626 288.198 204.776C287.959 204.932 287.672 204.993 287.39 204.947C287.109 204.902 286.855 204.753 286.678 204.53C286.508 204.311 286.432 204.033 286.466 203.758C285.662 196.104 283.177 188.721 279.19 182.138C275.148 175.473 269.721 169.754 263.276 165.37V165.238C262.3 164.552 262.852 163.122 263.914 163.122ZM254.966 163.922C255.11 163.911 255.255 163.93 255.391 163.977C255.528 164.025 255.653 164.099 255.76 164.196C275.12 183.782 268.658 201.928 261.244 211.068C260.432 212.016 258.98 211.032 259.384 209.89C261.815 202.634 262.588 194.926 261.648 187.332C260.695 179.712 258.061 172.4 253.934 165.924V165.796C253.426 164.938 254.154 163.992 254.966 163.928V163.922ZM247.28 164.742C247.814 164.66 248.38 164.93 248.516 165.662C255.016 191.482 239.616 204.28 228.206 208.556C226.986 209.012 226.242 207.444 227.19 206.63C233.18 201.615 238.006 195.354 241.33 188.284C244.612 181.289 246.292 173.65 246.248 165.924C246.248 165.254 246.748 164.822 247.28 164.742ZM237.69 169.302C238.21 169.434 238.616 169.876 238.462 170.526C232.606 196.64 213.008 202.094 200.822 201.374C199.536 201.408 199.566 199.672 200.784 199.312C208.459 197.114 215.597 193.356 221.752 188.272C227.822 183.256 232.756 177.007 236.228 169.94C236.364 169.684 236.582 169.482 236.848 169.366C237.113 169.251 237.41 169.229 237.69 169.304V169.302ZM213.942 238.56C215.318 238.527 216.694 238.641 218.046 238.9C221.639 239.583 224.956 241.295 227.594 243.828C230.186 246.317 231.964 249.533 232.694 253.052C233.408 256.545 233.031 260.173 231.614 263.444C230.174 266.758 227.778 269.566 224.732 271.51C221.636 273.49 218.035 274.537 214.36 274.526C209.42 274.518 204.686 272.618 201.194 269.246C197.704 265.874 195.744 261.304 195.744 256.54C195.748 252.965 196.845 249.477 198.888 246.544C200.969 243.562 203.882 241.258 207.264 239.92C209.391 239.073 211.653 238.612 213.942 238.56ZM297.93 238.56C299.308 238.531 300.685 238.649 302.038 238.912C305.633 239.603 308.949 241.326 311.582 243.87C314.168 246.368 315.938 249.591 316.656 253.114C317.361 256.613 316.972 260.244 315.542 263.514C314.085 266.827 311.672 269.628 308.612 271.56C305.502 273.527 301.892 274.556 298.212 274.526C293.286 274.502 288.568 272.59 285.1 269.216C281.63 265.846 279.684 261.292 279.694 256.54C279.694 252.976 280.794 249.494 282.846 246.536C284.932 243.551 287.852 241.247 291.24 239.912C293.372 239.067 295.637 238.609 297.93 238.56ZM208.99 244.176C207.958 244.126 206.926 244.298 205.966 244.68C204.695 245.182 203.6 246.047 202.818 247.168C202.049 248.27 201.635 249.58 201.632 250.924C201.632 252.71 202.368 254.424 203.672 255.692C205 256.966 206.768 257.678 208.608 257.68C209.989 257.689 211.342 257.3 212.508 256.56C213.655 255.833 214.559 254.78 215.104 253.536C215.639 252.306 215.783 250.941 215.516 249.626C215.245 248.305 214.579 247.096 213.608 246.16C212.363 244.957 210.719 244.252 208.99 244.176ZM292.842 244.176C291.81 244.126 290.778 244.298 289.818 244.68C288.546 245.182 287.45 246.047 286.666 247.168C285.898 248.27 285.485 249.581 285.484 250.924C285.484 252.7 286.21 254.404 287.5 255.668C288.811 256.94 290.561 257.66 292.388 257.68H292.454C293.836 257.689 295.192 257.3 296.36 256.56C297.506 255.832 298.409 254.779 298.954 253.536C299.49 252.306 299.634 250.941 299.368 249.626C299.096 248.304 298.43 247.096 297.458 246.16C296.212 244.958 294.571 244.253 292.842 244.176ZM235.62 287.236L276.98 287.3C277.107 287.286 277.236 287.305 277.353 287.356C277.471 287.407 277.572 287.489 277.648 287.592C276.75 291.087 275.146 294.361 272.934 297.212L272.79 297.092C268.526 293.178 262.886 290.948 257 290.852C253.862 290.877 250.766 291.575 247.92 292.898C245.139 294.189 242.671 296.066 240.686 298.402C237.935 295.281 235.959 291.555 234.918 287.526C234.95 287.462 235.084 287.238 235.618 287.238L235.62 287.236ZM257.17 294.116C262.19 294.26 266.97 296.21 270.574 299.58L270.74 299.716C270.044 300.418 269.306 301.088 268.528 301.716C265.159 304.846 260.87 306.806 256.298 307.304C251.714 306.8 247.42 304.815 244.066 301.65C243.74 301.39 243.426 301.116 243.116 300.84H243.128C244.806 298.757 246.932 297.078 249.348 295.928C251.791 294.76 254.46 294.142 257.168 294.118L257.17 294.116Z" fill="white"/>
<defs>
<linearGradient id="paint0_linear_96_372" x1="497.5" y1="67" x2="29.5" y2="364.5" gradientUnits="userSpaceOnUse">
<stop stop-color="#3D3D3D"/>
<stop offset="1" stop-color="#1E1E1E"/>
</linearGradient>
</defs>
</svg>
