<svg width="512" height="512" viewBox="0 0 512 512" fill="none" xmlns="http://www.w3.org/2000/svg">
<rect width="512" height="512" rx="50" fill="url(#paint0_linear_31_510)"/>
<path d="M302.875 140.5H340.375V178H302.875V140.5ZM340.375 316.319C340.375 328.975 337.403 370.684 300.606 383.341L265.375 365.5C291.681 354.025 302.875 335.5 302.875 316.319C302.875 289.806 302.875 206.125 302.875 206.125L340.375 206.144C340.375 206.144 340.375 287.828 340.375 316.319ZM237.25 140.5V199.581C232.853 197.791 223.375 197.444 218.706 197.444C183.559 197.444 152.875 215.603 152.875 262.375C152.875 318.334 195.1 327.972 224.594 327.972C236.237 327.972 262.094 326.828 274.75 323.162V140.5H237.25ZM224.209 296.744C207.625 296.744 190.375 289.216 190.375 262.375C190.375 235.534 207.625 229.853 224.209 229.853C228.259 229.853 232.816 230.613 237.25 231.625V294.972C232.825 295.975 228.269 296.744 224.209 296.744Z" fill="white"/>
<defs>
<linearGradient id="paint0_linear_31_510" x1="497.5" y1="67" x2="29.5" y2="364.5" gradientUnits="userSpaceOnUse">
<stop stop-color="#3D3D3D"/>
<stop offset="1" stop-color="#1E1E1E"/>
</linearGradient>
</defs>
</svg>
