<svg width="512" height="512" viewBox="0 0 512 512" fill="none" xmlns="http://www.w3.org/2000/svg">
<rect width="512" height="512" rx="50" fill="url(#paint0_linear_94_94)"/>
<path d="M377.51 230.764L377.156 229.86L342.94 140.564C342.244 138.814 341.011 137.329 339.418 136.322C337.825 135.333 335.966 134.856 334.094 134.957C332.221 135.057 330.424 135.73 328.946 136.884C327.484 138.071 326.424 139.68 325.91 141.492L302.808 212.176H209.258L186.154 141.492C185.653 139.671 184.59 138.055 183.118 136.872C181.64 135.718 179.843 135.045 177.97 134.945C176.098 134.844 174.239 135.321 172.646 136.31C171.057 137.321 169.826 138.805 169.124 140.552L134.844 229.808L134.504 230.712C124.386 257.15 132.978 287.096 155.578 304.144L155.696 304.236L156.01 304.458L208.132 343.49L233.918 363.006L249.626 374.866C251.464 376.261 253.707 377.016 256.014 377.016C258.321 377.016 260.564 376.261 262.402 374.866L278.11 363.006L303.896 343.49L356.332 304.222L356.462 304.118C379.008 287.066 387.586 257.174 377.51 230.764Z" fill="white"/>
<path d="M377.51 230.764L377.156 229.86C360.484 233.282 344.773 240.344 331.146 250.542L256 307.364C281.59 326.724 303.868 343.544 303.868 343.544L356.304 304.276L356.434 304.172C379.016 287.118 387.606 257.196 377.51 230.764Z" fill="url(#paint1_linear_94_94)"/>
<path d="M208.132 343.542L233.918 363.058L249.626 374.918C251.464 376.313 253.707 377.068 256.014 377.068C258.321 377.068 260.565 376.313 262.402 374.918L278.11 363.058L303.896 343.542C303.896 343.542 281.592 326.67 256.002 307.362C240.036 319.409 224.079 331.469 208.132 343.542Z" fill="url(#paint2_linear_94_94)"/>
<path d="M180.84 250.542C167.224 240.324 151.517 233.244 134.844 229.808L134.504 230.712C124.386 257.15 132.978 287.096 155.578 304.144L155.696 304.236L156.01 304.458L208.132 343.49L256 307.31L180.84 250.542Z" fill="url(#paint3_linear_94_94)"/>
<defs>
<linearGradient id="paint0_linear_94_94" x1="497.5" y1="67" x2="29.5" y2="364.5" gradientUnits="userSpaceOnUse">
<stop stop-color="#3D3D3D"/>
<stop offset="1" stop-color="#1E1E1E"/>
</linearGradient>
<linearGradient id="paint1_linear_94_94" x1="318.849" y1="229.86" x2="318.849" y2="343.544" gradientUnits="userSpaceOnUse">
<stop stop-color="white"/>
<stop offset="1" stop-color="white"/>
</linearGradient>
<linearGradient id="paint2_linear_94_94" x1="256.014" y1="307.362" x2="256.014" y2="377.068" gradientUnits="userSpaceOnUse">
<stop stop-color="white"/>
<stop offset="1" stop-color="white"/>
</linearGradient>
<linearGradient id="paint3_linear_94_94" x1="193.151" y1="229.808" x2="193.151" y2="343.49" gradientUnits="userSpaceOnUse">
<stop stop-color="white"/>
<stop offset="1" stop-color="white"/>
</linearGradient>
</defs>
</svg>
