<svg width="512" height="512" viewBox="0 0 512 512" fill="none" xmlns="http://www.w3.org/2000/svg">
<rect width="512" height="512" rx="50" fill="url(#paint0_linear_31_488)"/>
<path d="M160 135.667C148.213 135.667 138.667 145.213 138.667 157V349C138.667 360.787 148.213 370.333 160 370.333H352C363.787 370.333 373.333 360.787 373.333 349V157C373.333 145.213 363.787 135.667 352 135.667H160ZM305.708 191.646C312.343 191.646 316.875 195.875 316.875 201.646C316.875 207.417 312.343 211.646 305.708 211.646C299.148 211.646 294.562 207.417 294.562 201.646C294.562 195.875 299.148 191.646 305.708 191.646ZM221.792 199.167H242.937L280.333 304.396H260.146L251.25 277.5H212.542L203.479 304.396H184.458L221.792 199.167ZM231.333 219.208L216.917 262.604H246.875L232.583 219.208H231.333ZM296.75 224.625H314.75V304.396H296.75V224.625Z" fill="white"/>
<defs>
<linearGradient id="paint0_linear_31_488" x1="497.5" y1="67" x2="29.5" y2="364.5" gradientUnits="userSpaceOnUse">
<stop stop-color="#3D3D3D"/>
<stop offset="1" stop-color="#1E1E1E"/>
</linearGradient>
</defs>
</svg>
