<svg width="512" height="512" viewBox="0 0 512 512" fill="none" xmlns="http://www.w3.org/2000/svg">
<rect width="512" height="512" rx="50" fill="url(#paint0_linear_94_191)"/>
<path d="M147.25 192.362C125.192 224.064 127.938 265.314 144.788 299.002C145.188 299.81 145.608 300.604 146.022 301.398L146.81 302.916L147.302 303.79L148.18 305.362C148.704 306.284 149.24 307.202 149.788 308.12L150.706 309.632C151.314 310.614 151.936 311.584 152.572 312.552L153.368 313.78C154.246 315.09 155.144 316.398 156.072 317.682L156.15 317.782L156.606 318.398C157.408 319.504 158.234 320.596 159.07 321.676L159.998 322.856C160.744 323.794 161.502 324.726 162.274 325.654L163.144 326.694C164.182 327.919 165.239 329.127 166.316 330.318L166.382 330.384L166.504 330.52C167.562 331.668 168.637 332.801 169.728 333.918L170.762 334.96C171.608 335.812 172.468 336.65 173.336 337.484L174.39 338.484C175.55 339.578 176.722 340.65 177.918 341.698L177.974 341.742L178.588 342.266C179.642 343.178 180.714 344.084 181.794 344.972L183.122 346.03C184.004 346.738 184.896 347.434 185.794 348.118L187.222 349.204C188.214 349.934 189.212 350.652 190.22 351.354L191.312 352.128L191.612 352.342C192.568 353 193.546 353.634 194.524 354.268L195.784 355.108C197.284 356.056 198.804 356.994 200.342 357.9L201.602 358.61C202.732 359.262 203.87 359.902 205.022 360.528C205.646 360.864 206.286 361.182 206.914 361.504C207.728 361.93 208.536 362.362 209.364 362.776L209.93 363.05L210.932 363.534C212.214 364.146 213.506 364.748 214.812 365.328L215.632 365.696C217.129 366.351 218.638 366.978 220.158 367.578L221.26 368.012C222.668 368.554 224.096 369.09 225.53 369.594L226.066 369.78C227.64 370.33 229.228 370.84 230.828 371.338L231.978 371.682C233.606 372.172 235.216 372.758 236.894 373.068C343.572 392.522 374.56 308.962 374.56 308.962C348.534 342.868 302.338 351.812 258.568 341.854C256.91 341.48 255.302 340.962 253.684 340.484L252.466 340.114C250.889 339.631 249.321 339.121 247.762 338.584L247.116 338.35C245.726 337.859 244.343 337.346 242.968 336.812L241.804 336.354C240.3 335.76 238.804 335.14 237.326 334.492L236.432 334.096C235.166 333.524 233.907 332.938 232.654 332.338L231.562 331.814C230.58 331.336 229.608 330.828 228.64 330.328C227.992 329.986 227.332 329.664 226.69 329.308C225.512 328.673 224.344 328.019 223.188 327.344L222.006 326.684C220.471 325.778 218.951 324.846 217.446 323.89L216.216 323.07C215.122 322.369 214.04 321.649 212.97 320.912L211.926 320.178C210.896 319.45 209.873 318.71 208.858 317.96L207.5 316.932C206.568 316.223 205.645 315.502 204.732 314.768L203.498 313.778C202.336 312.825 201.186 311.856 200.05 310.872L199.672 310.554C198.448 309.474 197.24 308.376 196.048 307.26L195.026 306.278C194.144 305.438 193.276 304.592 192.422 303.724L191.402 302.706C190.318 301.597 189.253 300.47 188.206 299.326L188.048 299.158C186.945 297.948 185.864 296.719 184.806 295.47L183.958 294.462C183.167 293.511 182.389 292.55 181.624 291.578L180.77 290.514C179.855 289.331 178.957 288.135 178.076 286.926C153.776 253.778 145.044 208.062 164.466 170.518M215.724 165.65C199.77 188.606 200.638 219.338 213.082 243.616C215.165 247.697 217.522 251.632 220.138 255.394C222.528 258.82 225.178 262.896 228.35 265.648C229.51 266.918 230.704 268.158 231.93 269.364L232.874 270.294C234.065 271.455 235.284 272.588 236.53 273.69L236.678 273.818L236.714 273.854C238.108 275.068 239.531 276.246 240.984 277.388L241.954 278.144C243.415 279.269 244.904 280.357 246.42 281.406L246.55 281.504C247.222 281.968 247.906 282.4 248.588 282.848L249.554 283.486C250.642 284.184 251.744 284.864 252.864 285.516L253.334 285.788C254.3 286.344 255.278 286.892 256.26 287.424L257.302 287.966C257.98 288.32 258.658 288.682 259.348 289.026L259.658 289.166C261.064 289.858 262.482 290.526 263.93 291.156L264.874 291.544C266.032 292.036 267.202 292.516 268.374 292.964L269.874 293.514C270.94 293.91 272.01 294.27 273.088 294.632L274.542 295.098C276.076 295.574 277.592 296.176 279.19 296.442C361.556 310.088 380.572 246.67 380.572 246.67C363.432 271.356 330.236 283.136 294.814 273.94C293.248 273.528 291.692 273.079 290.148 272.592L288.746 272.138C287.652 271.784 286.564 271.409 285.484 271.014L284.012 270.466C282.834 270.014 281.663 269.542 280.5 269.05L279.554 268.65C278.106 268.02 276.673 267.353 275.258 266.652C274.532 266.298 273.818 265.924 273.102 265.556L271.858 264.916C270.94 264.419 270.032 263.905 269.132 263.376L268.48 263.006C267.366 262.356 266.265 261.684 265.178 260.99L264.182 260.326C263.464 259.862 262.752 259.391 262.044 258.912C260.534 257.862 259.05 256.777 257.592 255.656L256.59 254.866C241.086 242.626 228.794 225.894 222.952 206.924C216.828 187.252 218.148 165.168 228.758 147.244M273.314 145.694C263.91 159.534 262.986 176.722 269.512 192.006C276.394 208.232 290.494 220.958 306.952 226.996C307.63 227.246 308.31 227.47 308.996 227.704L309.898 227.99C310.868 228.294 311.83 228.648 312.832 228.838C358.312 237.626 370.648 205.5 373.93 200.77C363.126 216.328 344.966 220.062 322.684 214.654C320.924 214.228 318.99 213.592 317.294 212.99C315.115 212.216 312.978 211.329 310.892 210.332C306.933 208.426 303.174 206.132 299.668 203.484C279.73 188.354 267.344 159.496 280.354 135.994" fill="white"/>
<defs>
<linearGradient id="paint0_linear_94_191" x1="497.5" y1="67" x2="29.5" y2="364.5" gradientUnits="userSpaceOnUse">
<stop stop-color="#3D3D3D"/>
<stop offset="1" stop-color="#1E1E1E"/>
</linearGradient>
</defs>
</svg>
