<svg width="512" height="512" viewBox="0 0 512 512" fill="none" xmlns="http://www.w3.org/2000/svg">
<rect width="512" height="512" rx="50" fill="url(#paint0_linear_31_524)"/>
<path d="M366.016 127H146.008C137.172 127 130 134.172 130 143.008V362.992C130 371.828 137.172 379 146.008 379H365.992C374.828 379 382 371.828 382 363.016V143.008C382 134.172 374.828 127 366.016 127ZM268 320.102C268 344.078 253.938 355 233.406 355C214.844 355 201.461 342.555 196 331L214.867 319.586C218.5 326.031 224.031 331 232 331C239.617 331 244 328.023 244 316.445V241H268V320.102ZM320.055 355C298.797 355 286.727 344.289 280 331L298 319C302.898 327.016 308.242 334.68 319.539 334.68C329.031 334.68 334 329.945 334 323.383C334 315.555 328.844 312.766 318.414 308.195L312.695 305.734C296.172 298.703 285.18 289.891 285.18 271.234C285.18 254.078 298.281 241 318.719 241C333.273 241 343.727 246.062 351.273 259.328L333.461 270.789C329.523 263.734 325.305 260.969 318.719 260.969C312.016 260.969 307.773 265.234 307.773 270.789C307.773 277.656 312.016 280.422 321.836 284.688L327.555 287.148C347.031 295.469 358 303.977 358 323.102C358 343.703 341.805 355 320.055 355Z" fill="white"/>
<defs>
<linearGradient id="paint0_linear_31_524" x1="497.5" y1="67" x2="29.5" y2="364.5" gradientUnits="userSpaceOnUse">
<stop stop-color="#3D3D3D"/>
<stop offset="1" stop-color="#1E1E1E"/>
</linearGradient>
</defs>
</svg>
