<svg width="512" height="512" viewBox="0 0 512 512" fill="none" xmlns="http://www.w3.org/2000/svg">
<rect width="512" height="512" rx="50" fill="url(#paint0_linear_96_322)"/>
<path d="M149.986 148.972C149.61 148.979 149.24 149.07 148.904 149.239C148.568 149.409 148.274 149.651 148.045 149.949C147.816 150.248 147.657 150.594 147.579 150.962C147.502 151.33 147.509 151.711 147.599 152.076L201.723 371.16C201.828 371.587 202.044 371.979 202.348 372.296C202.653 372.614 203.036 372.845 203.459 372.968C203.881 373.09 204.329 373.099 204.756 372.993C205.183 372.888 205.575 372.672 205.892 372.367L368.717 215.745C369.034 215.44 369.266 215.057 369.388 214.635C369.51 214.212 369.519 213.764 369.413 213.337C369.307 212.91 369.091 212.518 368.786 212.201C368.48 211.885 368.097 211.654 367.674 211.532L150.72 149.07C150.482 149.001 150.234 148.968 149.986 148.972ZM153.5 155.082L362.116 215.144L205.548 365.746L153.5 155.082Z" fill="white"/>
<path d="M258.523 180.208C258.193 180.2 257.865 180.259 257.558 180.378C257.251 180.498 256.97 180.678 256.732 180.907L175.357 259.239C175.041 259.545 174.81 259.928 174.688 260.35C174.566 260.773 174.558 261.22 174.664 261.647C174.77 262.074 174.986 262.465 175.292 262.782C175.597 263.098 175.98 263.329 176.402 263.451L284.808 294.695C285.231 294.817 285.677 294.825 286.104 294.72C286.531 294.614 286.922 294.398 287.239 294.094C287.555 293.789 287.786 293.407 287.909 292.984C288.031 292.562 288.04 292.115 287.934 291.689L260.903 182.111C260.771 181.576 260.466 181.1 260.036 180.756C259.606 180.411 259.074 180.219 258.523 180.208ZM257.078 187.529L282.035 288.682L181.96 259.839L257.078 187.529Z" fill="white"/>
<path d="M218.09 218.976C217.714 218.983 217.345 219.074 217.009 219.243C216.673 219.412 216.379 219.655 216.15 219.953C215.92 220.252 215.761 220.598 215.684 220.966C215.606 221.334 215.613 221.715 215.703 222.08L229.135 276.508C229.241 276.936 229.457 277.328 229.762 277.645C230.067 277.963 230.45 278.194 230.873 278.316C231.296 278.438 231.743 278.447 232.171 278.341C232.598 278.235 232.99 278.018 233.307 277.713L273.737 238.745C274.053 238.44 274.284 238.056 274.406 237.634C274.527 237.211 274.535 236.764 274.429 236.337C274.323 235.91 274.106 235.519 273.801 235.202C273.496 234.886 273.112 234.655 272.689 234.534L218.825 219.074C218.586 219.005 218.339 218.972 218.09 218.976ZM221.603 225.08L267.136 238.148L232.956 271.088L221.603 225.08Z" fill="white"/>
<path d="M204.751 164.607C204.421 164.601 204.093 164.659 203.786 164.779C203.479 164.9 203.198 165.08 202.961 165.309L162.531 204.274C162.214 204.58 161.983 204.963 161.862 205.385C161.74 205.808 161.732 206.255 161.838 206.682C161.944 207.109 162.161 207.5 162.467 207.817C162.772 208.134 163.155 208.364 163.578 208.485L217.434 223.948C217.856 224.069 218.303 224.078 218.729 223.972C219.156 223.866 219.547 223.65 219.864 223.345C220.18 223.04 220.411 222.657 220.533 222.235C220.655 221.813 220.663 221.366 220.558 220.939L207.132 166.513C207.001 165.978 206.696 165.5 206.266 165.155C205.835 164.81 205.303 164.619 204.751 164.607ZM203.309 171.929L214.656 217.937L169.134 204.869L203.309 171.929ZM312.474 195.634C312.144 195.628 311.817 195.686 311.51 195.807C311.203 195.927 310.923 196.107 310.686 196.336L270.251 235.299C269.934 235.604 269.703 235.988 269.581 236.411C269.459 236.834 269.451 237.281 269.557 237.708C269.663 238.136 269.88 238.527 270.186 238.844C270.491 239.161 270.875 239.391 271.298 239.512L325.156 254.973C325.579 255.094 326.025 255.102 326.452 254.996C326.878 254.891 327.27 254.674 327.586 254.37C327.903 254.065 328.133 253.682 328.255 253.26C328.377 252.838 328.386 252.391 328.28 251.964L314.857 197.538C314.725 197.002 314.42 196.525 313.989 196.18C313.558 195.836 313.026 195.645 312.474 195.634ZM311.032 202.956L322.378 248.967L276.856 235.898L311.032 202.959V202.956ZM231.47 273.448C230.855 273.472 230.271 273.721 229.828 274.147L189.398 313.115C189.081 313.42 188.85 313.804 188.729 314.226C188.607 314.649 188.599 315.096 188.705 315.523C188.811 315.95 189.028 316.341 189.333 316.658C189.639 316.974 190.022 317.205 190.445 317.326L244.312 332.786C244.734 332.907 245.18 332.915 245.606 332.809C246.032 332.703 246.422 332.487 246.739 332.183C247.055 331.878 247.285 331.496 247.407 331.074C247.529 330.653 247.538 330.206 247.433 329.78L233.999 275.352C233.861 274.792 233.534 274.297 233.073 273.95C232.612 273.603 232.046 273.426 231.47 273.448ZM230.178 280.77L241.534 326.78L196.001 313.712L230.178 280.77Z" fill="white"/>
<defs>
<linearGradient id="paint0_linear_96_322" x1="497.5" y1="67" x2="29.5" y2="364.5" gradientUnits="userSpaceOnUse">
<stop stop-color="#3D3D3D"/>
<stop offset="1" stop-color="#1E1E1E"/>
</linearGradient>
</defs>
</svg>
