<svg width="512" height="512" viewBox="0 0 512 512" fill="none" xmlns="http://www.w3.org/2000/svg">
<rect width="512" height="512" rx="50" fill="url(#paint0_linear_31_519)"/>
<path d="M376 127H136C132.682 127 130 129.688 130 133V373C130 376.312 132.682 379 136 379H376C379.318 379 382 376.312 382 373V133C382 129.688 379.318 127 376 127ZM280 261.67H250V355H226V261.67H196V241H280V261.67ZM286.726 349.672V324.724C286.726 324.724 300.352 334.996 316.702 334.996C333.052 334.996 332.422 324.304 332.422 322.84C332.422 307.324 286.096 307.324 286.096 272.95C286.096 226.204 353.596 244.648 353.596 244.648L352.756 266.872C352.756 266.872 341.434 259.324 328.648 259.324C315.862 259.324 311.248 265.402 311.248 271.9C311.248 288.67 357.994 286.996 357.994 320.746C358 372.73 286.726 349.672 286.726 349.672Z" fill="white"/>
<defs>
<linearGradient id="paint0_linear_31_519" x1="497.5" y1="67" x2="29.5" y2="364.5" gradientUnits="userSpaceOnUse">
<stop stop-color="#3D3D3D"/>
<stop offset="1" stop-color="#1E1E1E"/>
</linearGradient>
</defs>
</svg>
