<svg width="512" height="512" viewBox="0 0 512 512" fill="none" xmlns="http://www.w3.org/2000/svg">
<rect width="512" height="512" rx="50" fill="url(#paint0_linear_31_478)"/>
<path d="M256 131.125C188.763 131.125 134.125 185.763 134.125 253C134.125 320.238 188.763 374.875 256 374.875C323.238 374.875 377.875 320.238 377.875 253C377.875 185.763 323.238 131.125 256 131.125ZM256 151.45C282.486 151.45 306.457 161.564 324.5 178.055C324.112 178.047 323.722 177.945 323.236 177.945C313.28 177.945 306.793 186.671 306.793 196.018C306.793 204.446 311.039 211.466 316.223 219.895C320.077 226.598 324.555 235.331 324.555 247.818C324.555 256.556 321.3 266.603 316.828 280.722L306.793 314.542L268.671 197.098C274.765 196.789 280.243 196.182 280.243 196.182C285.728 195.573 285.123 187.45 279.639 187.76C279.639 187.76 263.19 189.078 252.521 189.078C242.574 189.078 225.806 187.76 225.806 187.76C220.322 187.45 219.717 195.882 225.202 196.182C225.202 196.182 230.374 196.789 235.858 197.098L252.96 248.734L230.805 315.366L192.389 197.116C198.586 196.807 204.071 196.201 204.071 196.201C209.556 195.591 208.848 187.468 203.467 187.778C203.467 187.778 187.7 189.029 177.027 189.078C195.615 166.11 224.014 151.45 256 151.45ZM345.172 204.257C353.062 218.713 357.55 235.307 357.55 253C357.55 293.214 334.363 327.712 300.623 344.187C302.812 343.106 304.988 342.025 307.086 340.744L338.068 251.077C343.852 236.659 345.777 225.072 345.777 214.713C345.777 210.953 345.584 207.593 345.191 204.349C345.176 204.321 345.185 204.286 345.172 204.257ZM164.154 209.732L211.615 344.315C177.743 327.888 154.45 293.31 154.45 253C154.45 237.483 157.985 222.86 164.154 209.732ZM257.721 261.844L289.014 347.446C289.215 347.938 289.415 348.353 289.71 348.746C279.156 352.441 267.848 354.55 256 354.55C245.998 354.55 236.368 353.063 227.252 350.394L257.721 261.844ZM212.842 344.901C215.48 346.108 218.146 347.202 220.844 348.233C218.117 347.232 215.452 346.123 212.842 344.901ZM297.4 345.743C295.258 346.696 293.063 347.537 290.845 348.343C293.071 347.567 295.256 346.69 297.4 345.743Z" fill="white"/>
<defs>
<linearGradient id="paint0_linear_31_478" x1="497.5" y1="67" x2="29.5" y2="364.5" gradientUnits="userSpaceOnUse">
<stop stop-color="#3D3D3D"/>
<stop offset="1" stop-color="#1E1E1E"/>
</linearGradient>
</defs>
</svg>
