<svg width="512" height="512" viewBox="0 0 512 512" fill="none" xmlns="http://www.w3.org/2000/svg">
<rect width="512" height="512" rx="50" fill="url(#paint0_linear_96_356)"/>
<g clip-path="url(#clip0_96_356)">
<path d="M165.586 197.112C159.682 197.365 160.343 205.732 159.207 209.974C157.35 216.908 155.639 225.727 155.096 232.881C154.55 239.843 154.998 246.295 155.879 253.335C156.565 258.809 158.142 262.441 156.707 263.912C155.553 265.294 118.546 299.234 115.564 301.156C112.476 303.159 114.615 308.101 116.385 310.872C118.251 313.794 119.137 315.307 123.019 314.788C126.669 314.295 127.827 309.947 129.957 307.581C132.5 304.579 158.617 279.128 160.924 279.128L160.867 278.802C161.801 285.287 165.242 291.46 168.85 296.8C170.62 299.441 172.577 302.019 174.838 304.278C176.915 306.357 179.597 308.054 181.816 309.623C187.035 309.896 191.237 306.033 185.976 301.657C183.968 299.978 177.246 290.093 174.969 284.626C172.846 279.516 168.149 271.842 173.234 267.644C190.809 253 217.358 240.726 223.624 240.118C220.569 252.148 207.523 276.328 202.75 287.777C201.106 291.737 200.014 296.474 200.571 300.788C201.23 305.944 205.111 310 207.547 310.386C212.493 310.104 215.845 305.758 218.774 302.702C222.839 298.469 226.309 294.555 230.358 290.304C234.378 286.073 238.33 281.611 241.896 277.582C244.088 275.097 249.883 269.086 253.327 269.086C252.031 277.366 244.824 287.568 243.373 295.92C241.893 304.462 249.683 314.919 257.839 307.304C265.241 300.388 272.749 293.867 280.027 286.847C282.605 284.38 282.102 287.291 282.681 289.723C283.264 292.194 284.777 300.539 285.949 302.791C288.097 306.911 291.835 309.838 296.597 309.918C300.925 309.989 305.243 308.005 308.263 304.994C310.515 302.751 314.38 296.676 310.104 295.092C307.375 294.08 307.533 293 304.225 293.554C302.172 293.905 299.92 294.431 298.196 295.682C293.832 295.665 293.666 285.13 294.342 281.893C295.141 278.03 296.799 274.078 296.543 270.045C296.244 265.075 290.877 261.82 289.632 261.469C287.786 260.559 286.652 261.729 284.203 263.983C282.144 265.884 279.883 267.928 277.85 269.854C273.792 273.699 268.731 279.528 266.666 279.528C270.291 271.252 275.097 248.11 259.029 250.151C252.35 251.003 247.746 254.633 242.484 258.596C238.822 262.103 235.114 265.56 231.359 268.966C228.543 271.509 226.943 273.741 225.47 273.741C227.039 264.95 245.483 236.076 235.987 227.937C234.083 226.335 232.264 224.072 229.861 223.801C226.509 224.214 223.2 225.026 219.972 226.056C213.265 228.37 187.033 241.365 170.274 253.36C168.719 254.487 167.723 252.359 167.532 249.903C166.485 237.185 169.884 223.835 173.42 211.962C175.868 203.682 166.782 197.4 165.586 197.112ZM380.454 207.933C378.482 212.264 378.087 218.556 377.499 223.597V223.615C373.017 223.087 367.191 222.517 362.704 222.246C365.529 225.765 370.909 229.233 375.258 230.855C374.679 235.199 370.097 238.807 368.142 243.005C373.574 241.498 376.174 237.427 379.882 233.236C384.175 235.849 389.26 240.697 394.841 240.801C392.728 236.315 390.865 232.541 387.02 229.302C390.215 227.216 395.544 225.026 398 221.787C393.909 220.908 389.498 220.677 385.511 221.609C382.449 218.23 381.952 212.421 380.454 207.933ZM347.765 208.792C345.03 209.042 340.488 214.634 337.885 217.986C328.294 230.331 319.547 255.461 318.138 260.091C313.845 274.287 312.179 291.786 321.471 304.28C326.876 311.566 336.399 312.117 345.733 309.436C350.548 308.052 355.371 304.597 357.018 300.839C358.382 297.708 359.085 291.882 352.212 296.323C349.554 298.039 344.679 299.933 335.939 299.794C333.011 299.74 328.196 295.534 326.905 291.185C324.633 284.098 325.6 274.637 325.6 274.637C327.579 262.423 333.248 249.188 338.22 238.086C340.148 233.799 346.024 223.114 348.227 219.708C348.227 219.717 351.045 215.277 349.78 210.56L349.758 210.598C349.387 209.213 348.677 208.707 347.765 208.792ZM384.264 244.147C382.828 247.291 382.547 251.875 382.123 255.536H382.101C378.852 255.159 374.601 254.742 371.371 254.538C373.421 257.094 377.33 259.608 380.481 260.788C380.081 263.93 376.749 266.57 375.322 269.608C379.274 268.514 381.178 265.549 383.851 262.521C386.966 264.396 390.672 267.926 394.721 268.003C393.214 264.74 391.85 261.993 389.052 259.652C391.357 258.148 395.22 256.528 396.999 254.196C394.042 253.555 390.811 253.397 387.943 254.072C385.717 251.616 385.353 247.416 384.264 244.147ZM369.731 272.88C368.748 275.055 368.548 278.205 368.256 280.748L368.229 280.739C365.762 280.445 363.288 280.217 360.809 280.056C362.218 281.831 364.921 283.561 367.102 284.38C366.82 286.554 364.528 288.36 363.541 290.464C366.27 289.698 367.579 287.659 369.438 285.554C371.61 286.874 374.153 289.301 376.953 289.354C375.906 287.102 374.969 285.221 373.044 283.59C374.634 282.543 377.304 281.433 378.544 279.818C376.487 279.374 374.268 279.259 372.28 279.725C370.741 278.037 370.481 275.132 369.733 272.878L369.731 272.88Z" fill="white"/>
</g>
<defs>
<linearGradient id="paint0_linear_96_356" x1="497.5" y1="67" x2="29.5" y2="364.5" gradientUnits="userSpaceOnUse">
<stop stop-color="#3D3D3D"/>
<stop offset="1" stop-color="#1E1E1E"/>
</linearGradient>
<clipPath id="clip0_96_356">
<rect width="284" height="284" fill="white" transform="translate(114 114)"/>
</clipPath>
</defs>
</svg>
